<svg width="237" height="242" viewBox="0 0 237 242" fill="none" xmlns="http://www.w3.org/2000/svg">
<path d="M75.5279 67.9512C76.2845 64.5974 73.3634 56.6114 67.0797 54.8717C60.7961 53.1319 52.3058 51.5389 48.2078 54.5992C44.1097 57.6385 31.1221 85.6001 33.0135 91.008C35.7245 98.7425 42.6176 106.833 51.8224 103.647C61.0482 100.482 73.1952 78.4734 75.5279 67.9512Z" fill="#131415"/>
<path d="M68.0889 64.4088C70.5477 61.4743 74.9399 61.0761 77.8821 63.5285L99.2759 81.3451L118.253 80.5905L119.031 91.3224L97.6367 95.263C95.9765 95.5565 94.1691 95.1582 92.7611 93.9844L92.4038 93.691L68.7402 75.5775C65.798 73.1251 65.63 67.3433 68.0889 64.4088Z" fill="url(#paint0_linear)"/>
<path d="M119.03 91.3015L124.347 90.3163C127.079 89.8133 128.866 87.1932 128.361 84.4892C127.899 82.0159 125.692 80.2971 123.234 80.4019L118.253 80.5905" fill="white"/>
<path d="M76.4106 62.5819C76.4106 62.5819 70.5262 50.1765 61.1114 50.1765C57.1185 50.6167 53.5879 65.7923 53.5879 65.7923C53.5879 65.7923 77.7976 66.4806 76.4106 62.5819Z" fill="#80C7F5"/>
<path d="M56.1312 65.7922C56.1312 65.7503 56.1522 65.7294 56.1522 65.6874C56.1732 65.5826 56.2152 65.4778 56.2363 65.373H56.2573C57.6443 61.7678 63.3605 58.456 68.6985 60.0909L73.6371 61.4324C79.7106 63.277 79.7735 69.2892 79.2271 73.0656L77.0415 86.0403L50.541 84.9923C53.5463 81.1565 54.471 72.0385 56.1312 65.7922Z" fill="white"/>
<path d="M76.1169 86.8788C85.9732 67.7835 76.0955 62.058 76.0955 62.058L73.2588 61.5339C73.2588 61.5339 84.292 70.6519 71.7667 87.9268" fill="#131415"/>
<path d="M63.6965 59.9618C61.1746 56.1888 57.3918 49.5646 62.6457 49.9006C67.8996 50.2366 74.3094 58.1102 76.0957 62.0578L63.6965 59.9618Z" fill="white"/>
<path d="M59.8716 105.722L91.6682 101.174L80.4248 90.0438L73.3006 142.739L86.6665 144.542C88.1375 140.266 89.3775 135.969 90.6384 131.651C91.8573 127.354 92.9921 123.015 94.106 118.697C94.6313 116.538 95.1778 114.379 95.6821 112.199L96.4597 108.95L97.1952 105.702C98.183 101.363 99.1077 97.0238 100.011 92.6639C101.041 87.6753 97.8047 82.7914 92.803 81.7644C92.0464 81.6176 91.3109 81.5547 90.5754 81.5757L88.8941 81.6595C86.2041 81.7853 83.5351 81.974 80.8662 82.1836C78.1972 82.4141 75.5282 82.6866 72.8803 83.043C70.2323 83.3783 67.5844 83.7975 64.9364 84.2796L62.9609 84.6569C62.3094 84.8037 61.637 84.9294 60.9855 85.0762L59.031 85.5373L58.0643 85.8098L57.581 85.9355L57.0976 86.0823L59.8716 105.722Z" fill="url(#paint1_linear)"/>
<path d="M86.6247 146.784L90.6387 149.95C92.9924 151.815 93.6019 155.148 92.0047 157.705L72.0189 152.234L74.898 130.896L90.2184 134.858L86.6247 146.784Z" fill="#131415"/>
<path d="M48.6281 83.8813L42.4075 124.692L42.6176 123.707L31.0591 168.395L44.1097 171.749C45.9381 168.248 47.5353 164.685 49.1324 161.122C50.7086 157.558 52.2007 153.974 53.6508 150.369C54.3653 148.566 55.0798 146.764 55.7734 144.961L56.8031 142.257L57.8119 139.532C59.1569 135.906 60.4388 132.259 61.6997 128.612L61.9099 127.626C62.6875 124.273 63.402 120.898 64.0745 117.523C64.726 114.149 65.3564 110.753 65.9028 107.357C66.4493 103.962 66.9536 100.566 67.3529 97.1285L67.6471 94.5713C67.7312 93.7119 67.8363 92.8525 67.8993 91.9932L68.1095 89.415L68.1935 88.1154L68.2356 87.4656L68.2566 86.8159L48.6281 83.8813Z" fill="url(#paint2_linear)"/>
<path d="M78.1973 82.456C72.3549 85.8517 73.3217 94.3617 67.08 99.5809C60.8384 104.8 46.0224 100.985 46.0224 100.985L48.6284 81.7853L58.2745 85.3486C58.2745 85.3276 70.7788 83.0429 78.1973 82.456Z" fill="white"/>
<path d="M29.6934 101.887L27.9071 107.022C27.0034 109.642 28.3905 112.493 30.9964 113.394C33.3711 114.212 35.935 113.163 37.0699 111.025L39.6548 106.225" fill="white"/>
<path d="M39.6549 106.205L48.7967 89.1426L47.5147 91.0919L65.2308 72.2063C67.8578 69.4185 65.3569 63.2946 62.5409 60.6955C59.7248 58.0963 57.6862 59.9443 55.0803 62.753L37.3642 81.6386L37.07 81.953C36.6287 82.4351 36.2924 83.0011 36.0823 83.588L29.7145 101.866" fill="url(#paint3_linear)"/>
<path d="M47.3677 92.3914C73.7842 84.615 68.2781 62.4595 63.6547 59.9023L59.7036 59.4377C63.6547 60.4858 71.7667 81.4709 47.6199 89.8133" fill="#131415"/>
<path d="M79.7393 45.9358L79.6425 55.0745C79.6263 56.7317 77.8841 57.8258 76.3839 57.1179L69.0926 53.3987L74.0772 43.3429L79.7393 45.9358Z" fill="#871FFF"/>
<ellipse rx="5.16204" ry="5.14857" transform="matrix(-1 0 0 1 73.6739 47.9284)" fill="white"/>
<path d="M74.4648 45.2922C74.4648 45.2922 72.9359 45.9976 72.8033 49.2984C72.7065 51.7093 72.6904 52.4841 72.5775 54.3022C72.4807 55.9111 70.7869 56.9087 69.3189 56.2329L66.6411 54.978C65.4797 54.4309 64.9151 53.0955 65.3668 51.8888C66.4476 48.9445 68.4156 44.0051 69.4803 43.7798C71.0289 43.458 74.4648 45.2922 74.4648 45.2922Z" fill="#871FFF"/>
<path d="M70.3673 41.2861L79.8203 43.2168C80.4817 43.3455 80.9173 44.0051 80.7721 44.6648L80.643 45.3084C80.514 45.968 79.8526 46.4024 79.1912 46.2576L69.7382 44.3269C69.0768 44.1982 68.6413 43.5386 68.7865 42.8789L68.9155 42.2353C69.0607 41.5757 69.706 41.1573 70.3673 41.2861Z" fill="#FCAC98"/>
<path d="M75.9647 38.0039C79.0458 38.6313 80.0459 44.343 80.0459 44.343L69.7057 42.2353C69.7057 42.2353 73.061 37.4086 75.9647 38.0039Z" fill="#FCAC98"/>
<path d="M70.3962 41.3209L79.7961 43.2324L79.5224 42.3221L70.9437 40.6837L70.3962 41.3209Z" fill="white"/>
<path d="M124.432 78.1283C131.64 69.7021 139.416 73.2444 148.053 76.661C156.69 80.0776 164.025 81.8803 171.717 75.4453C171.233 66.8514 170.729 58.2366 170.245 49.6427C162.491 56.1195 155.114 54.1911 146.414 50.8793C137.692 47.5466 128.845 43.4173 122.624 52.3676C123.213 60.9405 123.822 69.5344 124.432 78.1283Z" fill="url(#paint4_linear)"/>
<path d="M126.722 117.817C126.743 117.817 126.764 117.817 126.785 117.817C127.185 117.796 127.5 117.439 127.458 117.02L122.582 51.7905C122.561 51.3922 122.204 51.0778 121.784 51.1197C121.384 51.1407 121.069 51.497 121.111 51.9162L125.987 117.146C126.008 117.523 126.344 117.817 126.722 117.817Z" fill="#D6219C"/>
<path d="M201.957 155.42C202.588 155.42 203.113 154.896 203.113 154.268V118.928C203.113 118.299 202.588 117.775 201.957 117.775C201.327 117.775 200.801 118.299 200.801 118.928V154.268C200.801 154.896 201.327 155.42 201.957 155.42Z" fill="url(#paint5_linear)"/>
<path d="M197.103 129.725C200.066 129.725 202.609 127.608 203.092 124.653C203.197 124.024 202.777 123.437 202.147 123.332C201.516 123.227 200.928 123.647 200.823 124.275C200.507 126.204 198.784 127.545 196.809 127.398C196.178 127.357 195.611 127.818 195.569 128.467C195.527 129.117 195.989 129.662 196.641 129.704C196.788 129.704 196.956 129.725 197.103 129.725Z" fill="#FA7454"/>
<path d="M206.812 129.725C206.959 129.725 207.127 129.725 207.274 129.704C207.905 129.662 208.388 129.096 208.346 128.467C208.304 127.839 207.737 127.357 207.106 127.398C205.152 127.545 203.428 126.204 203.092 124.275C202.987 123.647 202.399 123.227 201.768 123.332C201.138 123.437 200.717 124.024 200.823 124.653C201.306 127.608 203.849 129.725 206.812 129.725Z" fill="#FFBDAC"/>
<path d="M197.103 123.94C200.066 123.94 202.609 121.823 203.092 118.867C203.197 118.239 202.777 117.652 202.147 117.547C201.516 117.442 200.928 117.861 200.823 118.49C200.507 120.419 198.784 121.76 196.809 121.613C196.178 121.571 195.611 122.033 195.569 122.682C195.527 123.311 195.989 123.877 196.641 123.919C196.788 123.919 196.956 123.94 197.103 123.94Z" fill="#FA7454"/>
<path d="M198.106 119.054C200.342 119.054 202.261 117.409 202.625 115.112C202.705 114.624 202.387 114.168 201.912 114.086C201.436 114.005 200.992 114.331 200.913 114.819C200.675 116.318 199.374 117.36 197.884 117.246C197.408 117.213 196.98 117.572 196.948 118.077C196.916 118.565 197.265 119.005 197.757 119.037C197.868 119.037 197.995 119.054 198.106 119.054Z" fill="#FA7454"/>
<path d="M206.812 123.94C206.959 123.94 207.127 123.94 207.274 123.919C207.905 123.877 208.388 123.311 208.346 122.682C208.304 122.053 207.737 121.571 207.106 121.613C205.152 121.76 203.428 120.419 203.092 118.49C202.987 117.861 202.399 117.442 201.768 117.547C201.138 117.652 200.717 118.239 200.823 118.867C201.306 121.823 203.849 123.94 206.812 123.94Z" fill="#FFBDAC"/>
<path d="M205.746 119.054C205.857 119.054 205.984 119.054 206.095 119.037C206.571 119.005 206.936 118.565 206.904 118.077C206.872 117.588 206.444 117.213 205.968 117.246C204.493 117.36 203.193 116.318 202.939 114.819C202.86 114.331 202.416 114.005 201.94 114.086C201.465 114.168 201.147 114.624 201.227 115.112C201.591 117.409 203.51 119.054 205.746 119.054Z" fill="#FFBDAC"/>
<path d="M172.036 145.317C172.666 145.317 173.192 144.793 173.192 144.164V108.824C173.192 108.195 172.666 107.671 172.036 107.671C171.405 107.671 170.88 108.195 170.88 108.824V144.164C170.88 144.793 171.405 145.317 172.036 145.317Z" fill="url(#paint6_linear)"/>
<path d="M167.181 119.621C170.144 119.621 172.687 117.525 173.171 114.549C173.276 113.92 172.855 113.333 172.225 113.228C171.595 113.123 171.006 113.543 170.901 114.171C170.586 116.1 168.862 117.441 166.887 117.295C166.257 117.253 165.689 117.714 165.647 118.364C165.605 119.013 166.067 119.558 166.719 119.6C166.866 119.6 167.034 119.621 167.181 119.621Z" fill="#FA7454"/>
<path d="M176.89 119.621C177.037 119.621 177.206 119.621 177.353 119.6C177.983 119.558 178.466 118.992 178.424 118.364C178.382 117.735 177.815 117.253 177.185 117.295C175.23 117.441 173.507 116.1 173.171 114.171C173.065 113.543 172.477 113.123 171.847 113.228C171.216 113.333 170.796 113.92 170.901 114.549C171.384 117.504 173.927 119.621 176.89 119.621Z" fill="#FFBDAC"/>
<path d="M167.181 113.836C170.144 113.836 172.687 111.74 173.171 108.764C173.276 108.135 172.855 107.548 172.225 107.443C171.595 107.338 171.006 107.757 170.901 108.386C170.586 110.315 168.862 111.656 166.887 111.509C166.257 111.468 165.689 111.929 165.647 112.578C165.605 113.207 166.067 113.773 166.719 113.815C166.866 113.815 167.034 113.836 167.181 113.836Z" fill="#FA7454"/>
<path d="M176.89 113.836C177.037 113.836 177.206 113.836 177.353 113.815C177.983 113.773 178.466 113.207 178.424 112.578C178.382 111.95 177.815 111.468 177.185 111.509C175.23 111.656 173.507 110.315 173.171 108.386C173.065 107.757 172.477 107.338 171.847 107.443C171.216 107.548 170.796 108.135 170.901 108.764C171.384 111.719 173.927 113.836 176.89 113.836Z" fill="#FFBDAC"/>
<path d="M-94.7314 450.57L8.77859 241.772L75.7596 141.272C83.6194 129.429 95.3671 120.709 108.964 116.58C120.544 113.08 132.88 113.08 144.459 116.58C158.077 120.709 168.846 128.302 183.43 138.617L275.557 193.752V450.57" fill="url(#paint7_linear)"/>
<path opacity="0.4" d="M48.8006 181.658C48.8006 181.658 51.256 192.107 47.9822 195.18C44.7083 198.253 31.8993 207.268 31.8993 207.268L48.8006 181.658Z" fill="#6905DD"/>
<path d="M92.8868 202.184C93.5173 202.184 94.0427 201.66 94.0427 201.031V157.642C94.0427 157.013 93.5173 156.489 92.8868 156.489C92.2563 156.489 91.7309 157.013 91.7309 157.642V201.031C91.7309 201.66 92.2563 202.184 92.8868 202.184Z" fill="url(#paint8_linear)"/>
<path d="M88.0323 169.15C90.9955 169.15 93.5384 167.033 94.0217 164.077C94.1268 163.448 93.7065 162.861 93.0761 162.757C92.4456 162.652 91.8572 163.071 91.7521 163.7C91.4368 165.628 89.7136 166.97 87.7381 166.823C87.1077 166.781 86.5402 167.242 86.4982 167.892C86.4562 168.542 86.9185 169.087 87.57 169.129C87.7171 169.129 87.8852 169.15 88.0323 169.15Z" fill="#00568F"/>
<path d="M97.8888 168.852C98.0414 168.852 98.2158 168.852 98.3685 168.831C99.0226 168.79 99.5241 168.224 99.4805 167.596C99.4369 166.968 98.8482 166.486 98.194 166.528C96.1662 166.675 94.3782 165.335 94.0293 163.408C93.9203 162.78 93.3097 162.361 92.6556 162.466C92.0014 162.57 91.5653 163.157 91.6744 163.785C92.1759 166.737 94.8143 168.852 97.8888 168.852Z" fill="#81B1F9"/>
<path d="M88.0323 174.914C90.9955 174.914 93.5384 172.797 94.0217 169.841C94.1268 169.213 93.7065 168.626 93.0761 168.521C92.4456 168.416 91.8572 168.835 91.7521 169.464C91.4368 171.392 89.7136 172.734 87.7381 172.587C87.1077 172.545 86.5402 173.006 86.4982 173.656C86.4562 174.306 86.9185 174.851 87.57 174.893C87.7171 174.893 87.8852 174.914 88.0323 174.914Z" fill="#00568F"/>
<path d="M97.8888 174.544C98.0414 174.544 98.2158 174.544 98.3685 174.523C99.0226 174.481 99.5241 173.915 99.4805 173.287C99.4369 172.659 98.8482 172.177 98.194 172.219C96.1662 172.366 94.3782 171.026 94.0293 169.099C93.9203 168.471 93.3097 168.052 92.6556 168.157C92.0014 168.262 91.5653 168.848 91.6744 169.476C92.1759 172.429 94.8143 174.544 97.8888 174.544Z" fill="#81B1F9"/>
<path d="M88.0323 163.365C90.9955 163.365 93.5384 161.247 94.0217 158.292C94.1268 157.663 93.7065 157.076 93.0761 156.971C92.4456 156.867 91.8572 157.286 91.7521 157.915C91.4368 159.843 89.7136 161.185 87.7381 161.038C87.1077 160.996 86.5402 161.457 86.4982 162.107C86.4562 162.757 86.9185 163.302 87.57 163.344C87.7171 163.344 87.8852 163.365 88.0323 163.365Z" fill="#00568F"/>
<path d="M97.8888 163.161C98.0414 163.161 98.2158 163.161 98.3685 163.138C99.0226 163.091 99.5241 162.463 99.4805 161.765C99.4369 161.067 98.8482 160.532 98.194 160.579C96.1662 160.741 94.3782 159.252 94.0293 157.112C93.9203 156.414 93.3097 155.948 92.6556 156.065C92.0014 156.181 91.5653 156.833 91.6744 157.531C92.1759 160.811 94.8143 163.161 97.8888 163.161Z" fill="#81B1F9"/>
<path d="M126.762 216.412C127.393 216.412 127.918 215.888 127.918 215.259V191.07C127.918 190.442 127.393 189.918 126.762 189.918C126.131 189.918 125.606 190.442 125.606 191.07V215.259C125.606 215.888 126.131 216.412 126.762 216.412Z" fill="url(#paint9_linear)"/>
<path d="M121.908 202.578C124.871 202.578 127.414 200.461 127.897 197.505C128.002 196.877 127.582 196.29 126.951 196.185C126.321 196.08 125.732 196.499 125.627 197.128C125.312 199.056 123.589 200.398 121.613 200.251C120.983 200.209 120.415 200.67 120.373 201.32C120.331 201.949 120.794 202.515 121.445 202.557C121.592 202.557 121.76 202.578 121.908 202.578Z" fill="#00568F"/>
<path d="M131.617 201.866C131.764 201.866 131.932 201.866 132.079 201.845C132.71 201.804 133.193 201.238 133.151 200.609C133.109 199.98 132.542 199.498 131.911 199.54C129.957 199.687 128.234 198.345 127.897 196.417C127.792 195.788 127.204 195.369 126.573 195.473C125.943 195.578 125.523 196.165 125.628 196.794C126.111 199.749 128.654 201.866 131.617 201.866Z" fill="#81B1F9"/>
<path d="M121.908 196.793C124.871 196.793 127.414 194.676 127.897 191.72C128.002 191.091 127.582 190.505 126.951 190.4C126.321 190.295 125.732 190.714 125.627 191.343C125.312 193.271 123.589 194.613 121.613 194.466C120.983 194.424 120.415 194.885 120.373 195.535C120.331 196.185 120.794 196.73 121.445 196.772C121.592 196.772 121.76 196.793 121.908 196.793Z" fill="#00568F"/>
<path d="M131.617 196.081C131.764 196.081 131.932 196.081 132.079 196.06C132.71 196.018 133.193 195.452 133.151 194.824C133.109 194.195 132.542 193.713 131.911 193.755C129.936 193.901 128.234 192.56 127.897 190.632C127.792 190.003 127.204 189.583 126.573 189.688C125.943 189.793 125.523 190.38 125.628 191.009C126.111 193.964 128.654 196.081 131.617 196.081Z" fill="#81B1F9"/>
<path d="M43.6898 173.195L47.1574 176.947C49.1959 179.148 49.2589 182.544 47.3045 184.828L28.4116 176.339L34.5691 155.693L49.0908 161.981L43.6898 173.195Z" fill="#131415"/>
<path d="M125.713 80.947C123.906 80.0841 122.329 79.8151 122.014 82.54C121.867 83.8606 122.098 85.0344 122.918 85.9776C123.527 86.6903 126.091 88.5558 126.091 88.5558L125.713 80.947Z" fill="white"/>
<g opacity="0.2">
<path d="M171.542 153.354C171.744 153.315 171.966 153.166 172.014 152.982L173.491 148.936C173.607 148.668 173.427 148.387 173.078 148.314C172.769 148.233 172.426 148.404 172.317 148.707L170.84 152.752C170.724 153.02 170.904 153.302 171.253 153.375C171.334 153.359 171.461 153.37 171.542 153.354Z" fill="white"/>
<path d="M163.387 152.085C163.71 152.023 163.913 151.773 163.901 151.494C163.889 151.215 163.56 151.033 163.231 151.061L158.499 151.695C158.17 151.724 157.933 152.015 157.946 152.294C157.958 152.573 158.286 152.755 158.615 152.727L163.347 152.093L163.387 152.085Z" fill="white"/>
<path d="M166.517 146.631C166.558 146.623 166.639 146.607 166.713 146.558C167.022 146.428 167.125 146.092 166.992 145.836L164.793 142.256C164.66 142.001 164.27 141.936 163.961 142.066C163.651 142.196 163.549 142.532 163.682 142.787L165.881 146.368C166.007 146.589 166.275 146.678 166.517 146.631Z" fill="white"/>
<path d="M173.913 165.615C174.115 165.576 174.337 165.427 174.385 165.242L175.862 161.197C175.978 160.929 175.798 160.647 175.449 160.574C175.14 160.493 174.797 160.665 174.688 160.967L173.211 165.013C173.095 165.281 173.275 165.562 173.624 165.635C173.705 165.62 173.832 165.63 173.913 165.615Z" fill="white"/>
<path d="M165.718 164.354C166.041 164.291 166.243 164.041 166.231 163.762C166.219 163.484 165.891 163.301 165.562 163.33L160.877 163.99C160.548 164.018 160.311 164.31 160.323 164.589C160.335 164.868 160.663 165.05 160.993 165.021L165.718 164.354C165.677 164.361 165.718 164.354 165.718 164.354Z" fill="white"/>
<path d="M168.854 158.933C168.895 158.926 168.975 158.91 169.009 158.868C169.319 158.738 169.421 158.402 169.288 158.147L167.083 154.533C166.95 154.277 166.56 154.212 166.251 154.342C165.941 154.472 165.839 154.808 165.972 155.064L168.177 158.678C168.344 158.891 168.612 158.98 168.854 158.933Z" fill="white"/>
<path d="M187.526 143.833C187.654 143.843 187.741 143.861 187.862 143.838C188.064 143.799 188.252 143.692 188.341 143.499L188.965 142.184C188.664 141.926 188.323 141.676 188.022 141.418L187.187 143.16C187.071 143.429 187.211 143.718 187.526 143.833Z" fill="white"/>
<path d="M179.878 141.939C180.161 141.884 180.41 141.66 180.398 141.381C180.386 141.103 180.132 140.871 179.763 140.907L175.053 141.221C174.723 141.249 174.433 141.481 174.452 141.793C174.464 142.072 174.718 142.304 175.088 142.268L179.798 141.954C179.838 141.946 179.838 141.946 179.878 141.939Z" fill="white"/>
<path d="M188.929 156.28C189.131 156.241 189.319 156.135 189.407 155.942L191.287 152.03C191.403 151.761 191.263 151.472 190.948 151.357C190.639 151.277 190.289 151.415 190.134 151.691L188.254 155.603C188.138 155.871 188.278 156.16 188.593 156.275C188.721 156.286 188.808 156.304 188.929 156.28Z" fill="white"/>
<path d="M180.952 154.415C181.234 154.36 181.484 154.136 181.472 153.858C181.46 153.579 181.206 153.347 180.876 153.376L176.16 153.655C175.831 153.684 175.541 153.916 175.553 154.194C175.565 154.473 175.819 154.705 176.148 154.677L180.865 154.397C180.871 154.431 180.912 154.423 180.952 154.415Z" fill="white"/>
<path d="M184.632 149.206C184.672 149.198 184.712 149.19 184.753 149.183C185.062 149.052 185.212 148.743 185.078 148.487L183.263 144.727C183.13 144.472 182.775 144.365 182.465 144.495C182.155 144.625 182.006 144.935 182.139 145.191L183.954 148.95C184.074 149.138 184.349 149.261 184.632 149.206Z" fill="white"/>
<path d="M190.344 170.518C190.546 170.479 190.768 170.331 190.816 170.146L192.293 166.1C192.409 165.832 192.229 165.551 191.88 165.478C191.571 165.397 191.228 165.569 191.119 165.871L189.642 169.916C189.526 170.184 189.706 170.466 190.055 170.539C190.136 170.523 190.263 170.534 190.344 170.518Z" fill="white"/>
<path d="M182.148 169.257C182.471 169.195 182.674 168.945 182.662 168.666C182.65 168.387 182.322 168.205 181.992 168.233L177.301 168.859C176.972 168.888 176.735 169.18 176.747 169.458C176.759 169.737 177.087 169.92 177.417 169.891L182.108 169.265L182.148 169.257Z" fill="white"/>
<path d="M185.278 163.803C185.319 163.795 185.399 163.779 185.474 163.73C185.783 163.6 185.886 163.264 185.753 163.008L183.554 159.428C183.421 159.173 183.031 159.108 182.722 159.238C182.412 159.368 182.31 159.704 182.443 159.959L184.642 163.54C184.768 163.761 185.036 163.85 185.278 163.803Z" fill="white"/>
<path d="M192.674 182.787C192.876 182.748 193.099 182.599 193.146 182.414L194.664 178.361C194.78 178.093 194.6 177.811 194.291 177.73C193.983 177.65 193.639 177.821 193.524 178.09L192.006 182.143C191.89 182.411 192.07 182.693 192.379 182.773C192.466 182.792 192.594 182.802 192.674 182.787Z" fill="white"/>
<path d="M184.52 181.518C184.842 181.455 185.045 181.205 185.033 180.926C185.021 180.648 184.693 180.465 184.364 180.494L179.672 181.12C179.343 181.149 179.106 181.44 179.118 181.719C179.13 181.998 179.459 182.18 179.788 182.152L184.479 181.525L184.52 181.518Z" fill="white"/>
<path d="M187.656 176.097C187.697 176.09 187.777 176.074 187.811 176.032C188.121 175.902 188.223 175.566 188.09 175.311L185.884 171.697C185.751 171.441 185.362 171.376 185.052 171.506C184.743 171.636 184.64 171.972 184.774 172.228L186.979 175.842C187.146 176.056 187.414 176.144 187.656 176.097Z" fill="white"/>
<path d="M206.322 160.963C206.449 160.973 206.536 160.992 206.657 160.968C206.859 160.929 207.048 160.822 207.136 160.63L208.093 158.653L207.183 157.845L206.023 160.283C205.867 160.559 206.007 160.848 206.322 160.963Z" fill="white"/>
<path d="M198.681 159.103C198.963 159.048 199.213 158.824 199.201 158.545C199.189 158.267 198.934 158.035 198.605 158.063L193.889 158.343C193.559 158.372 193.269 158.603 193.281 158.882C193.293 159.161 193.548 159.393 193.877 159.364L198.593 159.085C198.6 159.118 198.64 159.111 198.681 159.103Z" fill="white"/>
<path d="M201.257 152.737L201.683 153.638C201.803 153.826 202.078 153.948 202.36 153.894L202.481 153.87L202.521 153.863L201.257 152.737Z" fill="white"/>
<path d="M207.691 173.452C207.893 173.413 208.081 173.307 208.17 173.114L210.083 169.16C210.199 168.892 210.059 168.602 209.744 168.488C209.435 168.407 209.086 168.545 208.93 168.821L207.016 172.775C206.901 173.043 207.04 173.332 207.355 173.447C207.483 173.457 207.57 173.476 207.691 173.452Z" fill="white"/>
<path d="M199.755 171.579C200.037 171.524 200.287 171.301 200.275 171.022C200.263 170.743 200.009 170.511 199.68 170.54L194.963 170.819C194.634 170.848 194.344 171.08 194.356 171.358C194.368 171.637 194.622 171.869 194.951 171.841L199.668 171.561C199.674 171.595 199.715 171.587 199.755 171.579Z" fill="white"/>
<path d="M203.434 166.37C203.474 166.362 203.515 166.354 203.555 166.347C203.865 166.217 204.014 165.907 203.881 165.651L202.066 161.891C201.933 161.636 201.577 161.529 201.268 161.659C200.958 161.789 200.809 162.099 200.942 162.355L202.757 166.115C202.877 166.302 203.152 166.425 203.434 166.37Z" fill="white"/>
<path d="M136.788 130.737C136.99 130.698 137.212 130.549 137.26 130.365L138.737 126.319C138.853 126.051 138.673 125.77 138.324 125.696C138.015 125.616 137.672 125.787 137.563 126.09L136.086 130.135C135.97 130.403 136.15 130.685 136.499 130.758C136.58 130.742 136.707 130.753 136.788 130.737Z" fill="white"/>
<path d="M128.593 129.476C128.916 129.413 129.118 129.163 129.106 128.885C129.094 128.606 128.766 128.423 128.437 128.452L123.752 129.112C123.423 129.141 123.186 129.432 123.198 129.711C123.21 129.99 123.539 130.172 123.868 130.144L128.593 129.476C128.553 129.484 128.593 129.476 128.593 129.476Z" fill="white"/>
<path d="M131.729 124.056C131.77 124.048 131.85 124.032 131.925 123.983C132.234 123.853 132.337 123.517 132.203 123.261L130.005 119.681C129.871 119.426 129.482 119.36 129.173 119.491C128.863 119.621 128.761 119.957 128.894 120.212L131.093 123.792C131.219 124.014 131.487 124.103 131.729 124.056Z" fill="white"/>
<path d="M139.037 119.867L143.042 119.584C141.855 119.287 140.674 119.023 139.493 118.759L138.996 118.785C138.666 118.814 138.376 119.046 138.395 119.358C138.414 119.671 138.668 119.903 139.037 119.867Z" fill="white"/>
<path d="M153.179 135.648C153.38 135.609 153.603 135.461 153.651 135.276L155.168 131.223C155.284 130.954 155.104 130.673 154.795 130.592C154.487 130.511 154.143 130.683 154.028 130.951L152.51 135.005C152.395 135.273 152.575 135.554 152.883 135.635C152.97 135.653 153.098 135.664 153.179 135.648Z" fill="white"/>
<path d="M145.024 134.379C145.347 134.317 145.549 134.067 145.537 133.788C145.525 133.509 145.197 133.327 144.868 133.355L140.183 134.016C139.86 134.078 139.617 134.336 139.629 134.615C139.641 134.893 139.969 135.076 140.299 135.047L145.024 134.379C144.983 134.387 145.024 134.379 145.024 134.379Z" fill="white"/>
<path d="M148.16 128.959C148.201 128.951 148.281 128.936 148.315 128.894C148.625 128.764 148.727 128.428 148.594 128.172L146.389 124.558C146.255 124.303 145.866 124.238 145.557 124.368C145.247 124.498 145.145 124.834 145.278 125.089L147.483 128.704C147.65 128.917 147.918 129.006 148.16 128.959Z" fill="white"/>
<path d="M155.55 147.909C155.752 147.87 155.974 147.721 156.022 147.536L157.499 143.491C157.615 143.223 157.435 142.941 157.086 142.868C156.777 142.787 156.434 142.959 156.325 143.261L154.848 147.307C154.732 147.575 154.912 147.856 155.261 147.93C155.342 147.914 155.469 147.924 155.55 147.909Z" fill="white"/>
<path d="M147.395 146.64C147.718 146.577 147.921 146.327 147.909 146.049C147.897 145.77 147.568 145.587 147.239 145.616L142.514 146.284C142.185 146.313 141.948 146.604 141.96 146.883C141.972 147.162 142.3 147.344 142.63 147.316L147.395 146.64C147.355 146.648 147.395 146.64 147.395 146.64Z" fill="white"/>
<path d="M150.532 141.22C150.572 141.212 150.653 141.196 150.727 141.147C151.037 141.017 151.139 140.681 151.006 140.425L148.807 136.845C148.674 136.59 148.285 136.524 147.975 136.655C147.665 136.785 147.563 137.121 147.696 137.376L149.895 140.956C150.022 141.178 150.29 141.266 150.532 141.22Z" fill="white"/>
<path d="M156.725 124.562L158.459 124.437C158.372 124.419 158.278 124.367 158.191 124.349C157.561 124.119 156.93 123.89 156.34 123.653C156.192 123.752 156.097 123.91 156.09 124.088C156.102 124.366 156.356 124.598 156.725 124.562Z" fill="white"/>
<path d="M170.573 138.608C170.774 138.569 170.963 138.463 171.051 138.27L172.965 134.316C173.08 134.048 172.941 133.758 172.625 133.644C172.317 133.563 171.967 133.701 171.811 133.977L169.898 137.931C169.782 138.199 169.922 138.488 170.237 138.603C170.364 138.614 170.452 138.632 170.573 138.608Z" fill="white"/>
<path d="M162.59 136.709C162.872 136.654 163.122 136.431 163.11 136.152C163.098 135.873 162.844 135.641 162.474 135.677L157.764 135.991C157.435 136.02 157.145 136.251 157.163 136.564C157.175 136.843 157.43 137.075 157.799 137.038L162.509 136.725C162.55 136.717 162.55 136.717 162.59 136.709Z" fill="white"/>
<path d="M163.776 127.485L165.591 131.245C165.711 131.432 165.986 131.555 166.269 131.5L166.39 131.477C166.699 131.347 166.849 131.037 166.715 130.781L164.98 127.217C164.658 127.068 164.383 126.946 164.062 126.797C163.792 126.919 163.643 127.229 163.776 127.485Z" fill="white"/>
<path d="M208.906 188.818C209.107 188.779 209.33 188.63 209.378 188.446L210.855 184.4C210.971 184.132 210.791 183.85 210.442 183.777C210.133 183.697 209.79 183.868 209.681 184.171L208.203 188.216C208.088 188.484 208.268 188.766 208.617 188.839C208.697 188.823 208.825 188.834 208.906 188.818Z" fill="white"/>
<path d="M200.711 187.557C201.034 187.494 201.237 187.244 201.225 186.965C201.213 186.687 200.884 186.504 200.555 186.533L195.87 187.193C195.548 187.255 195.305 187.513 195.317 187.792C195.329 188.071 195.657 188.253 195.986 188.225L200.711 187.557C200.671 187.564 200.711 187.557 200.711 187.557Z" fill="white"/>
<path d="M203.847 182.137C203.887 182.129 203.968 182.113 204.002 182.072C204.311 181.941 204.414 181.605 204.281 181.35L202.075 177.736C201.942 177.481 201.553 177.415 201.243 177.545C200.934 177.676 200.831 178.012 200.964 178.267L203.17 181.881C203.337 182.095 203.605 182.183 203.847 182.137Z" fill="white"/>
<path d="M211.277 201.078C211.478 201.039 211.701 200.891 211.749 200.706L213.226 196.661C213.342 196.393 213.162 196.111 212.813 196.038C212.504 195.957 212.161 196.129 212.052 196.431L210.574 200.476C210.459 200.745 210.639 201.026 210.988 201.099C211.068 201.084 211.196 201.094 211.277 201.078Z" fill="white"/>
<path d="M203.082 199.817C203.405 199.755 203.608 199.505 203.596 199.226C203.584 198.947 203.255 198.765 202.926 198.793L198.241 199.453C197.919 199.516 197.676 199.774 197.688 200.052C197.7 200.331 198.028 200.514 198.357 200.485L203.082 199.817C203.042 199.825 203.082 199.817 203.082 199.817Z" fill="white"/>
<path d="M206.218 194.397C206.259 194.389 206.339 194.374 206.413 194.324C206.723 194.194 206.825 193.858 206.692 193.603L204.493 190.023C204.36 189.767 203.971 189.702 203.661 189.832C203.352 189.962 203.249 190.298 203.382 190.554L205.581 194.134C205.708 194.355 205.976 194.444 206.218 194.397Z" fill="white"/>
<path d="M224.89 179.297C225.017 179.307 225.105 179.325 225.226 179.302C225.427 179.263 225.609 179.122 225.704 178.963L227.428 175.327L226.525 174.553C226.491 174.595 226.458 174.636 226.424 174.678L224.551 178.624C224.435 178.893 224.575 179.182 224.89 179.297Z" fill="white"/>
<path d="M217.242 177.403C217.524 177.348 217.774 177.124 217.762 176.845C217.75 176.567 217.496 176.335 217.126 176.371L212.416 176.685C212.087 176.713 211.797 176.945 211.815 177.258C211.827 177.536 212.081 177.768 212.451 177.732L217.161 177.418C217.201 177.41 217.201 177.41 217.242 177.403Z" fill="white"/>
<path d="M218.429 168.178L220.244 171.938C220.364 172.126 220.639 172.248 220.921 172.194L221.042 172.17C221.352 172.04 221.501 171.73 221.368 171.475L220.245 169.127L218.532 167.631C218.397 167.798 218.349 167.983 218.429 168.178Z" fill="white"/>
<path d="M226.299 191.778C226.501 191.739 226.683 191.599 226.778 191.44L228.651 187.494C228.766 187.225 228.627 186.936 228.312 186.821C228.003 186.74 227.653 186.878 227.497 187.155L225.624 191.101C225.509 191.369 225.648 191.658 225.963 191.773C226.091 191.783 226.178 191.802 226.299 191.778Z" fill="white"/>
<path d="M218.316 189.879C218.598 189.824 218.848 189.6 218.836 189.322C218.824 189.043 218.569 188.811 218.2 188.847L213.49 189.161C213.161 189.19 212.871 189.421 212.889 189.734C212.901 190.013 213.155 190.245 213.525 190.208L218.235 189.895C218.275 189.887 218.275 189.887 218.316 189.879Z" fill="white"/>
<path d="M221.995 184.67C222.036 184.662 222.076 184.654 222.116 184.647C222.426 184.516 222.575 184.206 222.442 183.951L220.627 180.191C220.494 179.936 220.138 179.829 219.829 179.959C219.519 180.089 219.37 180.399 219.503 180.655L221.318 184.414C221.438 184.602 221.713 184.725 221.995 184.67Z" fill="white"/>
<path d="M227.667 205.99C227.869 205.951 228.091 205.802 228.139 205.617L229.657 201.564C229.772 201.296 229.592 201.014 229.284 200.934C228.975 200.853 228.632 201.025 228.516 201.293L226.998 205.346C226.883 205.614 227.063 205.896 227.371 205.977C227.459 205.995 227.586 206.005 227.667 205.99Z" fill="white"/>
<path d="M219.512 204.721C219.835 204.658 220.038 204.408 220.026 204.13C220.013 203.851 219.685 203.668 219.356 203.697L214.665 204.323C214.335 204.352 214.099 204.643 214.111 204.922C214.123 205.201 214.451 205.383 214.78 205.355L219.472 204.729L219.512 204.721Z" fill="white"/>
<path d="M222.649 199.301C222.689 199.293 222.77 199.277 222.804 199.235C223.113 199.105 223.216 198.769 223.083 198.514L220.877 194.9C220.744 194.644 220.355 194.579 220.045 194.709C219.736 194.84 219.633 195.176 219.766 195.431L221.972 199.045C222.139 199.259 222.407 199.347 222.649 199.301Z" fill="white"/>
<path d="M230.038 218.25C230.24 218.211 230.463 218.063 230.51 217.878L231.988 213.833C232.103 213.564 231.923 213.283 231.575 213.21C231.266 213.129 230.923 213.301 230.814 213.603L229.336 217.648C229.221 217.917 229.401 218.198 229.75 218.271C229.83 218.255 229.958 218.266 230.038 218.25Z" fill="white"/>
<path d="M221.843 216.989C222.166 216.927 222.368 216.677 222.356 216.398C222.344 216.119 222.016 215.937 221.687 215.965L217.002 216.626C216.679 216.688 216.436 216.946 216.448 217.225C216.46 217.503 216.788 217.686 217.118 217.657L221.843 216.989C221.803 216.997 221.843 216.989 221.843 216.989Z" fill="white"/>
<path d="M225.02 211.561C225.101 211.546 225.141 211.538 225.215 211.488C225.518 211.324 225.627 211.022 225.494 210.767L223.208 207.168C223.034 206.921 222.685 206.848 222.376 206.978C222.073 207.142 221.964 207.444 222.097 207.699L224.343 211.306C224.51 211.519 224.778 211.608 225.02 211.561Z" fill="white"/>
<path d="M236.044 194.567C236.327 194.512 236.576 194.288 236.564 194.009C236.552 193.73 236.298 193.499 235.928 193.535L231.178 193.856C230.849 193.885 230.559 194.117 230.577 194.429C230.589 194.708 230.844 194.94 231.213 194.904L235.964 194.582C236.004 194.574 236.004 194.574 236.044 194.567Z" fill="white"/>
<path d="M239.683 189.365C239.724 189.357 239.764 189.35 239.804 189.342C240.114 189.212 240.263 188.902 240.13 188.646L238.315 184.887C238.182 184.631 237.826 184.524 237.517 184.655C237.207 184.785 237.058 185.095 237.191 185.35L239.006 189.11C239.126 189.297 239.401 189.42 239.683 189.365Z" fill="white"/>
<path d="M237.079 207.051C237.361 206.996 237.611 206.772 237.599 206.493C237.586 206.215 237.332 205.983 237.003 206.011L232.287 206.291C231.957 206.319 231.667 206.551 231.679 206.83C231.691 207.109 231.946 207.341 232.275 207.312L236.991 207.032C236.998 207.066 237.038 207.058 237.079 207.051Z" fill="white"/>
<path d="M144.814 163.583C145.137 163.52 145.34 163.27 145.328 162.992C145.315 162.713 145.021 162.489 144.658 162.559L139.752 163.156C139.422 163.185 139.139 163.451 139.198 163.755C139.21 164.034 139.505 164.258 139.868 164.188L144.774 163.591L144.814 163.583Z" fill="white"/>
<path d="M144.648 156.447C144.849 156.408 145.072 156.26 145.12 156.075L146.623 152.165C146.739 151.897 146.559 151.615 146.25 151.534C145.942 151.454 145.598 151.625 145.483 151.894L143.979 155.803C143.864 156.072 144.044 156.353 144.352 156.434C144.439 156.452 144.567 156.463 144.648 156.447Z" fill="white"/>
<path d="M137.922 158.24C138.043 158.216 138.198 158.151 138.299 158.026C138.508 157.81 138.483 157.464 138.202 157.307L134.419 154.842C134.178 154.677 133.768 154.721 133.565 154.971C133.356 155.188 133.381 155.534 133.662 155.691L137.445 158.156C137.586 158.234 137.76 158.271 137.922 158.24Z" fill="white"/>
<path d="M158.509 167.54C158.831 167.477 159.034 167.227 159.022 166.948C159.01 166.67 158.682 166.487 158.353 166.516L153.493 167.139C153.164 167.168 152.927 167.46 152.94 167.738C152.952 168.017 153.28 168.2 153.609 168.171L158.468 167.547L158.509 167.54Z" fill="white"/>
<path d="M158.383 160.396C158.584 160.357 158.807 160.209 158.855 160.024L160.325 156.156C160.44 155.887 160.26 155.606 159.952 155.525C159.643 155.444 159.3 155.616 159.184 155.884L157.714 159.753C157.599 160.021 157.779 160.302 158.087 160.383C158.175 160.401 158.302 160.412 158.383 160.396Z" fill="white"/>
<path d="M151.617 162.197C151.738 162.173 151.893 162.108 151.994 161.983C152.203 161.767 152.178 161.421 151.937 161.256L148.201 158.817C147.96 158.652 147.55 158.697 147.341 158.913C147.132 159.129 147.157 159.475 147.398 159.64L151.134 162.079C151.281 162.191 151.455 162.228 151.617 162.197Z" fill="white"/>
<path d="M126.42 176.873L131.254 175.903C131.576 175.84 131.813 175.549 131.761 175.278C131.708 175.007 131.38 174.824 131.057 174.887L126.223 175.857C125.9 175.919 125.664 176.211 125.716 176.482C125.769 176.753 126.097 176.935 126.42 176.873Z" fill="white"/>
<path d="M130.388 168.832C130.63 168.785 130.812 168.645 130.894 168.418L131.968 164.451C132.037 164.156 131.823 163.917 131.514 163.836C131.172 163.797 130.869 163.961 130.76 164.263L129.686 168.23C129.617 168.524 129.831 168.764 130.14 168.845C130.227 168.863 130.308 168.848 130.388 168.832Z" fill="white"/>
<path d="M123.801 171.125C123.963 171.094 124.111 170.995 124.212 170.87C124.415 170.62 124.356 170.315 124.075 170.159L120.062 168.018C119.781 167.862 119.417 167.932 119.215 168.182C119.012 168.432 119.071 168.737 119.352 168.893L123.365 171.034C123.472 171.154 123.64 171.156 123.801 171.125Z" fill="white"/>
<path d="M140.577 179.757L145.411 178.787C145.733 178.724 145.97 178.432 145.918 178.161C145.865 177.891 145.537 177.708 145.214 177.77L140.38 178.741C140.057 178.803 139.821 179.095 139.873 179.366C139.926 179.637 140.254 179.819 140.577 179.757Z" fill="white"/>
<path d="M144.546 171.716C144.788 171.669 144.97 171.528 145.052 171.302L146.132 167.368C146.201 167.074 146.027 166.826 145.679 166.753C145.336 166.714 145.033 166.878 144.924 167.18L143.844 171.114C143.775 171.408 143.948 171.656 144.297 171.729C144.385 171.747 144.465 171.731 144.546 171.716Z" fill="white"/>
<path d="M137.959 174.009C138.12 173.977 138.268 173.879 138.37 173.753C138.573 173.503 138.514 173.199 138.232 173.042L134.219 170.902C133.938 170.746 133.575 170.816 133.372 171.066C133.169 171.316 133.228 171.621 133.51 171.777L137.523 173.917C137.63 174.037 137.797 174.04 137.959 174.009Z" fill="white"/>
<path d="M161.52 182.241C161.842 182.179 162.045 181.929 162.033 181.65C162.021 181.371 161.693 181.189 161.364 181.217L156.464 181.849C156.135 181.877 155.898 182.169 155.91 182.448C155.922 182.727 156.25 182.909 156.58 182.881L161.479 182.249L161.52 182.241Z" fill="white"/>
<path d="M161.353 175.106C161.555 175.067 161.778 174.918 161.825 174.733L163.336 170.858C163.451 170.589 163.271 170.308 162.963 170.227C162.654 170.146 162.311 170.318 162.195 170.586L160.685 174.462C160.569 174.73 160.749 175.012 161.058 175.093C161.145 175.111 161.273 175.121 161.353 175.106Z" fill="white"/>
<path d="M154.627 176.898C154.789 176.867 154.903 176.81 155.005 176.685C155.214 176.469 155.189 176.122 154.907 175.966L151.131 173.534C150.89 173.37 150.48 173.414 150.277 173.664C150.068 173.88 150.093 174.227 150.375 174.383L154.151 176.815C154.292 176.893 154.466 176.93 154.627 176.898Z" fill="white"/>
<path d="M175.222 186.232C175.545 186.169 175.747 185.919 175.735 185.641C175.723 185.362 175.429 185.138 175.066 185.208L170.2 185.798C169.871 185.826 169.587 186.092 169.646 186.397C169.658 186.676 169.953 186.9 170.316 186.829L175.182 186.24L175.222 186.232Z" fill="white"/>
<path d="M175.096 179.089C175.298 179.05 175.52 178.901 175.568 178.716L177.071 174.806C177.187 174.538 177.007 174.257 176.698 174.176C176.39 174.095 176.046 174.267 175.931 174.535L174.427 178.445C174.312 178.713 174.492 178.995 174.8 179.076C174.888 179.094 175.015 179.104 175.096 179.089Z" fill="white"/>
<path d="M168.37 180.881C168.491 180.858 168.646 180.793 168.747 180.668C168.957 180.452 168.931 180.105 168.65 179.949L164.867 177.483C164.626 177.319 164.216 177.363 164.013 177.613C163.804 177.829 163.829 178.176 164.111 178.332L167.894 180.798C168.034 180.876 168.209 180.913 168.37 180.881Z" fill="white"/>
<path d="M143.133 195.565L147.967 194.595C148.289 194.533 148.526 194.241 148.474 193.97C148.421 193.699 148.093 193.517 147.77 193.579L142.936 194.549C142.613 194.612 142.377 194.903 142.429 195.174C142.482 195.445 142.81 195.628 143.133 195.565Z" fill="white"/>
<path d="M147.101 187.525C147.343 187.478 147.525 187.337 147.607 187.111L148.681 183.143C148.75 182.849 148.536 182.609 148.227 182.528C147.885 182.489 147.589 182.687 147.473 182.955L146.399 186.923C146.33 187.217 146.544 187.457 146.853 187.538C146.94 187.556 147.021 187.54 147.101 187.525Z" fill="white"/>
<path d="M140.514 189.818C140.676 189.786 140.824 189.687 140.925 189.562C141.128 189.312 141.069 189.008 140.788 188.851L136.768 186.677C136.487 186.521 136.124 186.591 135.921 186.841C135.718 187.091 135.777 187.396 136.059 187.552L140.078 189.726C140.185 189.846 140.353 189.849 140.514 189.818Z" fill="white"/>
<path d="M157.29 198.449L162.124 197.479C162.447 197.416 162.683 197.125 162.631 196.854C162.578 196.583 162.25 196.4 161.927 196.463L157.093 197.433C156.771 197.495 156.534 197.787 156.586 198.058C156.639 198.329 156.967 198.511 157.29 198.449Z" fill="white"/>
<path d="M161.258 190.408C161.5 190.362 161.682 190.221 161.764 189.994L162.838 186.027C162.907 185.733 162.693 185.493 162.384 185.412C162.042 185.373 161.746 185.571 161.63 185.839L160.556 189.806C160.487 190.101 160.701 190.34 161.01 190.421C161.097 190.44 161.178 190.424 161.258 190.408Z" fill="white"/>
<path d="M154.671 192.701C154.833 192.67 154.981 192.571 155.082 192.446C155.285 192.196 155.226 191.891 154.945 191.735L150.932 189.595C150.651 189.438 150.288 189.508 150.085 189.758C149.882 190.008 149.941 190.313 150.222 190.47L154.235 192.61C154.342 192.73 154.51 192.732 154.671 192.701Z" fill="white"/>
<path d="M121.581 133.678C121.661 133.662 121.742 133.647 121.816 133.597C122.119 133.433 122.181 133.105 122.008 132.858L119.959 130.267C119.785 130.02 119.402 129.988 119.099 130.152C118.796 130.316 118.734 130.645 118.908 130.892L120.957 133.482C121.117 133.662 121.339 133.725 121.581 133.678Z" fill="white"/>
<path d="M124.265 123.321C124.466 123.282 124.689 123.133 124.737 122.949L126.247 119.073C126.362 118.804 126.182 118.523 125.874 118.442C125.565 118.361 125.222 118.533 125.106 118.801L123.596 122.677C123.481 122.945 123.661 123.227 123.969 123.308C124.056 123.326 124.184 123.336 124.265 123.321Z" fill="white"/>
<path d="M117.539 125.114C117.7 125.082 117.815 125.025 117.916 124.9C118.126 124.684 118.1 124.337 117.819 124.181L114.043 121.749C113.802 121.585 113.392 121.629 113.189 121.879C112.98 122.095 113.005 122.442 113.286 122.598L117.063 125.03C117.203 125.108 117.378 125.145 117.539 125.114Z" fill="white"/>
<path d="M106.465 142.715L111.293 141.711C111.616 141.649 111.852 141.357 111.8 141.086C111.747 140.815 111.419 140.633 111.096 140.695L106.269 141.699C105.946 141.761 105.71 142.053 105.762 142.324C105.814 142.595 106.143 142.778 106.465 142.715Z" fill="white"/>
<path d="M110.427 134.64C110.669 134.594 110.852 134.453 110.933 134.226L112.014 130.293C112.082 129.999 111.909 129.751 111.56 129.678C111.218 129.639 110.915 129.803 110.806 130.105L109.725 134.038C109.657 134.333 109.83 134.58 110.179 134.653C110.266 134.672 110.347 134.656 110.427 134.64Z" fill="white"/>
<path d="M103.84 136.933C104.002 136.902 104.15 136.803 104.251 136.678C104.454 136.428 104.395 136.123 104.114 135.967L100.101 133.827C99.8196 133.67 99.4565 133.741 99.2538 133.991C99.0511 134.241 99.11 134.546 99.3914 134.702L103.404 136.842C103.511 136.962 103.679 136.965 103.84 136.933Z" fill="white"/>
<path d="M127.401 145.166C127.724 145.104 127.927 144.854 127.914 144.575C127.902 144.296 127.574 144.114 127.245 144.142L122.386 144.766C122.056 144.794 121.82 145.086 121.832 145.365C121.844 145.643 122.172 145.826 122.501 145.797L127.361 145.174L127.401 145.166Z" fill="white"/>
<path d="M127.275 138.023C127.477 137.984 127.699 137.835 127.747 137.65L129.217 133.782C129.332 133.514 129.152 133.232 128.844 133.152C128.535 133.071 128.192 133.243 128.076 133.511L126.607 137.379C126.491 137.647 126.671 137.929 126.98 138.01C127.067 138.028 127.194 138.038 127.275 138.023Z" fill="white"/>
<path d="M120.509 139.823C120.67 139.792 120.785 139.735 120.886 139.61C121.096 139.394 121.07 139.047 120.789 138.891L117.013 136.459C116.772 136.294 116.362 136.339 116.159 136.589C115.95 136.805 115.975 137.151 116.256 137.308L120.033 139.74C120.173 139.818 120.348 139.854 120.509 139.823Z" fill="white"/>
<path d="M140.02 150.912C140.221 150.873 140.41 150.767 140.498 150.574C140.614 150.306 140.474 150.016 140.159 149.902L136.377 148.736C136.068 148.655 135.718 148.793 135.562 149.069C135.447 149.337 135.586 149.627 135.901 149.741L139.684 150.907C139.771 150.925 139.899 150.936 140.02 150.912Z" fill="white"/>
<path d="M140.977 142.013C141.179 141.974 141.401 141.826 141.449 141.641L142.953 137.731C143.068 137.463 142.888 137.182 142.58 137.101C142.271 137.02 141.928 137.192 141.812 137.46L140.308 141.37C140.193 141.638 140.373 141.919 140.681 142C140.769 142.019 140.896 142.029 140.977 142.013Z" fill="white"/>
<path d="M134.251 143.806C134.372 143.783 134.527 143.718 134.629 143.593C134.838 143.377 134.813 143.03 134.531 142.874L130.748 140.408C130.507 140.244 130.098 140.288 129.895 140.538C129.686 140.754 129.711 141.101 129.992 141.257L133.775 143.723C133.916 143.801 134.09 143.837 134.251 143.806Z" fill="white"/>
<path d="M109.054 158.482L113.888 157.512C114.211 157.45 114.447 157.158 114.395 156.887C114.342 156.616 114.014 156.434 113.692 156.496L108.857 157.466C108.535 157.529 108.298 157.82 108.351 158.091C108.403 158.362 108.731 158.545 109.054 158.482Z" fill="white"/>
<path d="M112.982 150.449C113.224 150.403 113.407 150.262 113.488 150.035L114.562 146.068C114.631 145.774 114.417 145.534 114.109 145.453C113.766 145.414 113.47 145.612 113.354 145.88L112.28 149.847C112.212 150.142 112.425 150.382 112.734 150.462C112.821 150.481 112.902 150.465 112.982 150.449Z" fill="white"/>
<path d="M106.396 152.742C106.557 152.711 106.705 152.612 106.807 152.487C107.009 152.237 106.95 151.932 106.669 151.776L102.656 149.636C102.375 149.479 102.012 149.55 101.809 149.8C101.606 150.05 101.665 150.354 101.947 150.511L105.959 152.651C106.066 152.771 106.234 152.774 106.396 152.742Z" fill="white"/>
<path d="M123.171 161.374L128.005 160.404C128.328 160.341 128.564 160.05 128.512 159.779C128.459 159.508 128.131 159.325 127.808 159.388L122.974 160.358C122.652 160.42 122.415 160.712 122.468 160.983C122.52 161.254 122.848 161.436 123.171 161.374Z" fill="white"/>
<path d="M127.14 153.333C127.382 153.286 127.564 153.146 127.645 152.919L128.72 148.952C128.788 148.657 128.574 148.418 128.266 148.337C127.923 148.298 127.627 148.496 127.511 148.764L126.437 152.731C126.369 153.025 126.583 153.265 126.891 153.346C126.978 153.364 127.059 153.349 127.14 153.333Z" fill="white"/>
<path d="M120.553 155.626C120.714 155.595 120.862 155.496 120.964 155.371C121.166 155.121 121.107 154.816 120.826 154.66L116.813 152.519C116.532 152.363 116.169 152.433 115.966 152.683C115.763 152.933 115.822 153.238 116.104 153.395L120.116 155.535C120.223 155.655 120.391 155.657 120.553 155.626Z" fill="white"/>
<path d="M179.57 200.921C179.892 200.859 180.095 200.609 180.083 200.33C180.071 200.051 179.743 199.869 179.413 199.898L174.554 200.521C174.225 200.55 173.988 200.841 174 201.12C174.012 201.399 174.341 201.581 174.67 201.553L179.529 200.929L179.57 200.921Z" fill="white"/>
<path d="M179.443 193.778C179.645 193.739 179.867 193.591 179.915 193.406L181.385 189.538C181.501 189.269 181.321 188.988 181.012 188.907C180.704 188.826 180.36 188.998 180.245 189.266L178.775 193.134C178.659 193.403 178.839 193.684 179.148 193.765C179.235 193.783 179.363 193.794 179.443 193.778Z" fill="white"/>
<path d="M172.678 195.578C172.799 195.555 172.953 195.49 173.055 195.365C173.264 195.149 173.239 194.802 172.998 194.638L169.262 192.198C169.021 192.034 168.611 192.078 168.402 192.295C168.192 192.511 168.218 192.857 168.459 193.021L172.195 195.461C172.342 195.573 172.516 195.61 172.678 195.578Z" fill="white"/>
<path d="M193.311 204.904C193.634 204.842 193.837 204.592 193.825 204.313C193.813 204.034 193.518 203.81 193.155 203.88L188.249 204.478C187.92 204.506 187.636 204.772 187.695 205.077C187.707 205.356 188.002 205.58 188.365 205.51L193.271 204.912L193.311 204.904Z" fill="white"/>
<path d="M193.145 197.769C193.347 197.73 193.569 197.581 193.617 197.396L195.121 193.487C195.236 193.218 195.056 192.937 194.747 192.856C194.439 192.775 194.095 192.947 193.98 193.215L192.476 197.125C192.361 197.393 192.541 197.675 192.849 197.756C192.937 197.774 193.064 197.784 193.145 197.769Z" fill="white"/>
<path d="M186.419 199.561C186.54 199.538 186.695 199.473 186.797 199.348C187.006 199.132 186.981 198.785 186.699 198.629L182.916 196.163C182.675 195.999 182.266 196.043 182.063 196.293C181.854 196.509 181.879 196.856 182.16 197.012L185.943 199.478C186.084 199.556 186.258 199.593 186.419 199.561Z" fill="white"/>
<path d="M161.222 214.238L166.056 213.268C166.379 213.205 166.615 212.913 166.563 212.643C166.51 212.372 166.182 212.189 165.86 212.252L161.025 213.222C160.703 213.284 160.466 213.576 160.519 213.847C160.571 214.118 160.899 214.3 161.222 214.238Z" fill="white"/>
<path d="M165.15 206.205C165.392 206.158 165.574 206.017 165.656 205.791L166.77 201.816C166.839 201.521 166.666 201.274 166.317 201.201C165.974 201.161 165.671 201.325 165.562 201.628L164.448 205.603C164.379 205.897 164.553 206.145 164.902 206.218C164.989 206.236 165.07 206.22 165.15 206.205Z" fill="white"/>
<path d="M158.604 208.49C158.765 208.459 158.913 208.36 159.015 208.235C159.217 207.985 159.118 207.688 158.837 207.531L154.784 205.399C154.502 205.242 154.139 205.313 153.936 205.563C153.734 205.813 153.833 206.11 154.114 206.266L158.168 208.399C158.315 208.511 158.442 208.521 158.604 208.49Z" fill="white"/>
<path d="M175.379 217.121L180.213 216.151C180.536 216.089 180.773 215.797 180.72 215.526C180.668 215.255 180.34 215.073 180.017 215.135L175.183 216.105C174.86 216.168 174.624 216.459 174.676 216.73C174.728 217.001 175.057 217.184 175.379 217.121Z" fill="white"/>
<path d="M179.308 209.088C179.55 209.042 179.732 208.901 179.813 208.674L180.887 204.707C180.956 204.413 180.742 204.173 180.434 204.092C180.091 204.053 179.788 204.217 179.679 204.519L178.605 208.486C178.537 208.781 178.75 209.02 179.059 209.101C179.146 209.12 179.227 209.104 179.308 209.088Z" fill="white"/>
<path d="M172.761 211.373C172.922 211.342 173.071 211.243 173.172 211.118C173.375 210.868 173.275 210.571 172.994 210.415L168.941 208.282C168.659 208.126 168.296 208.196 168.094 208.446C167.891 208.696 167.99 208.993 168.272 209.15L172.325 211.282C172.472 211.394 172.6 211.405 172.761 211.373Z" fill="white"/>
<path d="M196.282 219.614C196.605 219.551 196.807 219.301 196.795 219.023C196.783 218.744 196.455 218.561 196.126 218.59L191.266 219.214C190.937 219.242 190.701 219.534 190.713 219.813C190.725 220.091 191.053 220.274 191.382 220.245L196.242 219.622L196.282 219.614Z" fill="white"/>
<path d="M196.156 212.471C196.357 212.432 196.58 212.283 196.628 212.098L198.138 208.222C198.253 207.954 198.073 207.673 197.765 207.592C197.456 207.511 197.113 207.683 196.997 207.951L195.487 211.827C195.372 212.095 195.552 212.377 195.86 212.457C195.947 212.476 196.075 212.486 196.156 212.471Z" fill="white"/>
<path d="M189.43 214.263C189.592 214.232 189.706 214.175 189.807 214.05C190.017 213.834 189.991 213.487 189.71 213.331L185.934 210.899C185.693 210.735 185.283 210.779 185.08 211.029C184.871 211.245 184.896 211.591 185.177 211.748L188.954 214.18C189.094 214.258 189.269 214.294 189.43 214.263Z" fill="white"/>
<path d="M210.018 223.563C210.34 223.5 210.543 223.25 210.531 222.972C210.519 222.693 210.191 222.51 209.861 222.539L204.962 223.17C204.632 223.199 204.396 223.491 204.408 223.769C204.42 224.048 204.748 224.231 205.078 224.202L209.977 223.571L210.018 223.563Z" fill="white"/>
<path d="M209.851 216.427C210.053 216.388 210.275 216.24 210.323 216.055L211.833 212.179C211.949 211.911 211.769 211.629 211.46 211.548C211.152 211.468 210.808 211.639 210.693 211.908L209.182 215.784C209.067 216.052 209.247 216.333 209.556 216.414C209.643 216.432 209.77 216.443 209.851 216.427Z" fill="white"/>
<path d="M203.125 218.22C203.287 218.189 203.401 218.132 203.502 218.007C203.712 217.79 203.687 217.444 203.405 217.288L199.629 214.856C199.388 214.691 198.978 214.736 198.775 214.986C198.566 215.202 198.591 215.548 198.872 215.705L202.649 218.137C202.789 218.215 202.964 218.251 203.125 218.22Z" fill="white"/>
<path d="M177.928 242.856L182.762 241.886C183.085 241.824 183.321 241.532 183.269 241.261C183.216 240.99 182.888 240.808 182.565 240.87L177.731 241.84C177.408 241.902 177.172 242.194 177.224 242.465C177.277 242.736 177.605 242.918 177.928 242.856Z" fill="white"/>
<path d="M181.856 224.863C182.098 224.817 182.28 224.676 182.362 224.449L183.483 220.508C183.551 220.214 183.378 219.966 183.029 219.893C182.687 219.854 182.384 220.018 182.275 220.32L181.154 224.261C181.085 224.556 181.259 224.803 181.608 224.876C181.695 224.895 181.775 224.879 181.856 224.863Z" fill="white"/>
<path d="M175.309 227.149C175.471 227.117 175.619 227.018 175.72 226.893C175.923 226.643 175.824 226.346 175.583 226.182L171.53 224.05C171.248 223.893 170.885 223.964 170.682 224.214C170.48 224.464 170.579 224.761 170.82 224.925L174.873 227.057C175.02 227.169 175.148 227.18 175.309 227.149Z" fill="white"/>
<path d="M196.02 227.781C196.262 227.734 196.444 227.594 196.526 227.367L197.6 223.4C197.669 223.105 197.455 222.866 197.146 222.785C196.804 222.746 196.507 222.943 196.392 223.212L195.318 227.179C195.249 227.473 195.463 227.713 195.772 227.794C195.859 227.812 195.939 227.797 196.02 227.781Z" fill="white"/>
<path d="M189.467 239.992C189.628 239.961 189.776 239.862 189.878 239.737C190.08 239.487 189.981 239.19 189.74 239.026L185.687 236.893C185.406 236.737 185.043 236.807 184.84 237.057C184.637 237.307 184.736 237.604 184.977 237.768L189.031 239.901C189.178 240.013 189.305 240.023 189.467 239.992Z" fill="white"/>
</g>
<path d="M57 22.8007C57 16.2764 62.4323 12.7205 69.2003 12.7205C69.5566 12.7205 69.9128 12.7205 70.269 12.8063C72.7625 5.93872 79.5305 0.959717 87.5453 0.959717C95.5602 0.959717 102.417 5.93872 104.911 12.8922C105.445 12.8063 105.89 12.8063 106.425 12.8063C108.384 12.8063 110.165 13.2355 111.768 14.0082C114.44 9.28668 119.605 6.02457 125.66 6.02457C134.387 6.02457 141.423 12.8063 141.423 21.2191C141.423 29.6319 141.423 22.9723 141.423 22.9723H69.2003L57 22.8007Z" fill="url(#paint10_linear)"/>
<path d="M208.761 68.0848C201.209 68.0848 194.764 72.8815 192.23 79.6314C191.463 79.3257 190.629 79.1557 189.756 79.1557C186.025 79.1557 183 82.22 183 86H191.078H196.511H226.445C226.444 76.1056 218.527 68.0848 208.761 68.0848ZM235.124 57.7135C234.517 57.7135 233.955 57.9043 233.49 58.2294C232.659 56.7206 231.068 55.6996 229.242 55.6996C227.393 55.6996 225.786 56.744 224.963 58.2819C223.986 55.217 221.148 53 217.798 53C213.64 53 210.27 56.4146 210.27 60.6269H224.378H225.326H232.248H234.105H238C238 59.018 236.712 57.7135 235.124 57.7135Z" fill="url(#paint11_linear)"/>
<defs>
<linearGradient id="paint0_linear" x1="116.479" y1="93.8937" x2="51.6125" y2="93.8937" gradientUnits="userSpaceOnUse">
<stop stop-color="#7FC6F4"/>
<stop offset="1" stop-color="#8728FB"/>
</linearGradient>
<linearGradient id="paint1_linear" x1="78.8521" y1="92.3759" x2="104.463" y2="90.9511" gradientUnits="userSpaceOnUse">
<stop stop-color="#6905DD"/>
<stop offset="1" stop-color="#FEA18C"/>
</linearGradient>
<linearGradient id="paint2_linear" x1="41.8587" y1="115.497" x2="72.8117" y2="120.435" gradientUnits="userSpaceOnUse">
<stop stop-color="#6A05DE"/>
<stop offset="1" stop-color="#FEA18C"/>
</linearGradient>
<linearGradient id="paint3_linear" x1="35.9559" y1="96.7479" x2="65.0565" y2="48.9946" gradientUnits="userSpaceOnUse">
<stop stop-color="#7FC6F4"/>
<stop offset="1" stop-color="#8728FB"/>
</linearGradient>
<linearGradient id="paint4_linear" x1="122.96" y1="59.6509" x2="174.188" y2="56.9383" gradientUnits="userSpaceOnUse">
<stop stop-color="#FFFFFE"/>
<stop offset="0.583101" stop-color="#FFA18D"/>
<stop offset="0.959981" stop-color="#FFCABF"/>
</linearGradient>
<linearGradient id="paint5_linear" x1="203.001" y1="153.774" x2="200.891" y2="153.774" gradientUnits="userSpaceOnUse">
<stop stop-color="#7FC6F4"/>
<stop offset="1" stop-color="#8728FB"/>
</linearGradient>
<linearGradient id="paint6_linear" x1="173.079" y1="143.671" x2="170.97" y2="143.671" gradientUnits="userSpaceOnUse">
<stop stop-color="#7FC6F4"/>
<stop offset="1" stop-color="#8728FB"/>
</linearGradient>
<linearGradient id="paint7_linear" x1="257.579" y1="435.853" x2="-80.3298" y2="435.853" gradientUnits="userSpaceOnUse">
<stop stop-color="#7FC6F4"/>
<stop offset="1" stop-color="#8728FB"/>
</linearGradient>
<linearGradient id="paint8_linear" x1="93.9305" y1="200.186" x2="91.8208" y2="200.186" gradientUnits="userSpaceOnUse">
<stop stop-color="#7FC6F4"/>
<stop offset="1" stop-color="#8728FB"/>
</linearGradient>
<linearGradient id="paint9_linear" x1="127.806" y1="215.254" x2="125.696" y2="215.254" gradientUnits="userSpaceOnUse">
<stop stop-color="#7FC6F4"/>
<stop offset="1" stop-color="#8728FB"/>
</linearGradient>
<linearGradient id="paint10_linear" x1="61.0989" y1="24.402" x2="138.139" y2="24.402" gradientUnits="userSpaceOnUse">
<stop stop-color="#D5279B"/>
<stop offset="1" stop-color="#FEA18C"/>
</linearGradient>
<linearGradient id="paint11_linear" x1="171.488" y1="84.5572" x2="235.861" y2="84.5572" gradientUnits="userSpaceOnUse">
<stop stop-color="#D5279B"/>
<stop offset="1" stop-color="#FEA18C"/>
</linearGradient>
</defs>
</svg>
