<svg width="208" height="163" viewBox="0 0 208 163" fill="none" xmlns="http://www.w3.org/2000/svg">
<path d="M101.574 163C80.9621 156.268 65.4497 114.312 50.2561 118.905C43.2649 121.022 38.0374 98.6044 29.4737 84.4424C23.9275 75.2763 9.75391 79.2349 9.75391 89.9463V163H101.574Z" fill="url(#paint0_linear)"/>
<path d="M65.3862 89.6288H127.436L121.103 40.496H59.0537L65.3862 89.6288Z" fill="#FCAC98"/>
<path d="M127.435 90.6873H65.3857C64.8544 90.6873 64.4082 90.285 64.3232 89.7558L57.9907 40.623C57.9482 40.3266 58.0545 40.0091 58.2457 39.7974C58.437 39.5857 58.7345 39.4375 59.0532 39.4375H121.103C121.634 39.4375 122.08 39.8397 122.165 40.3689L128.498 89.5018C128.54 89.7982 128.434 90.1157 128.243 90.3274C128.051 90.5391 127.733 90.6873 127.435 90.6873ZM66.3207 88.5704H126.224L120.168 41.5544H60.2645L66.3207 88.5704Z" fill="#FCAC98"/>
<path d="M140.929 90.6873H86.168C85.573 90.6873 85.1055 90.2216 85.1055 89.6288C85.1055 89.0361 85.573 88.5704 86.168 88.5704H140.929C141.524 88.5704 141.991 89.0361 141.991 89.6288C141.991 90.2216 141.524 90.6873 140.929 90.6873Z" fill="#F9D5FF"/>
<path d="M64.3536 89.4131L49.1855 162.481L51.2662 162.911L66.4343 89.8426L64.3536 89.4131Z" fill="#FCAC98"/>
<path d="M101.184 89.6222L100.524 162.7L102.649 162.719L103.309 89.6413L101.184 89.6222Z" fill="#FCAC98"/>
<path d="M168.974 0C162.546 0 157.061 4.02421 154.904 9.687C154.252 9.43049 153.542 9.28788 152.798 9.28788C149.623 9.28788 147.049 11.8587 147.049 15.0299H153.924H158.548H184.024C184.023 6.72902 177.285 0 168.974 0Z" fill="url(#paint1_linear)"/>
<path d="M33.2381 22.5887H30.9514C30.9514 21.5298 31.8076 20.6714 32.8637 20.6714C33.1114 20.6714 33.3475 20.719 33.5649 20.8049C34.2824 18.9142 36.1063 17.5701 38.2439 17.5701C40.4715 17.5701 42.3585 19.0297 43.0077 21.0467C43.5549 20.0341 44.6238 19.3464 45.853 19.3464C47.6392 19.3464 49.0871 20.7981 49.0871 22.5889H43.2496H42.6192H34.7761L33.2381 22.5887ZM26.7909 33.3217C25.4686 33.3217 24.2041 33.5681 23.0394 34.0165C20.5935 31.6475 17.2644 30.1893 13.5951 30.1893C6.08673 30.1893 0 36.2918 0 43.8195H16.32H27.1895H37.2611C37.2614 38.0216 32.5734 33.3217 26.7909 33.3217Z" fill="url(#paint2_linear)"/>
<path d="M200.153 162.111H45.8789V162.979H200.153V162.111Z" fill="#C2C4CC"/>
<path d="M191.397 162.958C190.972 162.958 190.568 162.704 190.398 162.28L163.241 92.9312C163.028 92.3808 163.305 91.7669 163.836 91.5552C164.388 91.3435 165.005 91.6187 165.217 92.1479L192.374 161.497C192.587 162.047 192.311 162.661 191.779 162.873C191.652 162.937 191.524 162.958 191.397 162.958Z" fill="#FCAC98"/>
<path d="M163.73 162.958C163.602 162.958 163.475 162.937 163.347 162.894C162.795 162.682 162.54 162.069 162.752 161.518L189.931 92.1691C190.143 91.6187 190.76 91.3647 191.312 91.5764C191.865 91.7881 192.12 92.4019 191.907 92.9523L164.729 162.28C164.559 162.704 164.155 162.958 163.73 162.958Z" fill="#FCAC98"/>
<path d="M72.6958 162.958C72.2495 162.958 71.8245 162.683 71.6758 162.217L49.2147 92.8677C49.0447 92.3173 49.3422 91.7246 49.8947 91.5341C50.4472 91.3647 51.0422 91.6611 51.2335 92.2115L73.6945 161.561C73.8645 162.111 73.567 162.704 73.0145 162.894C72.9083 162.937 72.802 162.958 72.6958 162.958Z" fill="#FCAC98"/>
<path d="M136.276 87.0463H78.9648V91.9363H136.276V87.0463Z" fill="white"/>
<path d="M136.275 93.037H78.9644C78.3481 93.037 77.8594 92.5501 77.8594 91.9362V87.0462C77.8594 86.4323 78.3481 85.9454 78.9644 85.9454H136.275C136.891 85.9454 137.38 86.4323 137.38 87.0462V91.9362C137.38 92.5501 136.891 93.037 136.275 93.037ZM80.0694 90.8354H135.17V88.147H80.0694V90.8354Z" fill="#F9D5FF"/>
<path d="M116.917 76.4195L84.7444 76.4407C81.8969 64.2263 79.3682 57.9815 79.3682 57.9815C79.6657 52.4564 83.7244 45.1955 91.1618 43.2691C92.3518 42.9516 94.4343 42.7822 95.7305 42.7611H104.825C106.462 42.7187 107.992 42.9093 109.437 43.2691C117.278 45.2167 118.298 52.3294 118.447 57.4311C118.68 65.2847 116.917 76.4195 116.917 76.4195Z" fill="white"/>
<path d="M102.615 29.3612L99.8314 29.3189C99.6614 29.3189 99.5127 29.1707 99.5127 29.0014C99.5127 28.832 99.6614 28.6838 99.8314 28.6838L102.615 28.7262C102.785 28.7262 102.934 28.8744 102.934 29.0437C102.934 29.2342 102.785 29.3612 102.615 29.3612Z" fill="#2B2B2B"/>
<path d="M106.83 22.7733C107.717 22.7733 108.437 22.0565 108.437 21.1724C108.437 20.2882 107.717 19.5715 106.83 19.5715C105.942 19.5715 105.223 20.2882 105.223 21.1724C105.223 22.0565 105.942 22.7733 106.83 22.7733Z" fill="#131415"/>
<path d="M100.853 29.8054C97.937 29.758 95.5205 27.5286 95.2467 24.6351L94.7705 19.5715C94.83 16.1325 97.6632 13.3932 101.115 13.4525C104.567 13.5118 107.317 16.3341 107.258 19.7731L106.627 24.8248C106.258 27.7065 103.77 29.8529 100.853 29.8054Z" fill="#131415"/>
<path d="M95.0445 22.7733C95.9321 22.7733 96.6516 22.0565 96.6516 21.1724C96.6516 20.2882 95.9321 19.5715 95.0445 19.5715C94.157 19.5715 93.4375 20.2882 93.4375 21.1724C93.4375 22.0565 94.157 22.7733 95.0445 22.7733Z" fill="#131415"/>
<path d="M97.7946 16.5357C96.9256 16.4883 96.2352 16.6899 96.2114 17.4844L95.8662 20.0933C95.8543 20.3304 95.6757 20.532 95.4257 20.5558L95.3662 20.5676C95.0805 20.6032 94.8186 20.4134 94.7829 20.1407L94.7472 18.8718C94.3901 15.4329 97.128 12.231 100.592 12.2785L101.366 12.2903C104.961 12.3378 107.853 15.4921 107.377 19.0497L107.282 20.117C107.258 20.5676 106.865 20.7811 106.568 20.7336C106.33 20.6981 106.151 20.4965 106.139 20.2593L105.865 17.6385C105.865 16.844 105.246 16.6543 104.306 16.6543L97.7946 16.5357Z" fill="#D6219C"/>
<path d="M92.1611 23.9631L97.8136 22.6083C101.426 21.7404 105.081 23.942 105.952 27.5618C106.76 30.8853 104.954 34.2088 101.83 35.4155L97.0911 37.2572L92.1611 23.9631Z" fill="#131415"/>
<path d="M97.0907 37.236L65.0672 49.6198L65.6834 32.0496L91.5872 43.502C92.6497 46.3598 88.5059 58.2143 81.0685 58.7435L58.8835 49.4081L58.3098 49.1752C53.6135 47.3335 51.2761 42.0625 53.1248 37.363C54.251 34.5052 56.716 32.5153 59.4997 31.8379L92.182 23.9631L97.0907 37.236Z" fill="url(#paint3_linear)"/>
<path d="M109.139 23.4974L148.813 33.4256C153.743 34.6534 156.718 39.6281 155.485 44.5393C154.72 47.6087 152.468 49.9161 149.684 50.9111L149.153 51.1016L119.106 61.9824C116.237 62.7656 111.867 60.2527 110.5 54.7215C109.139 49.2176 111.456 45.8306 113.177 44.6451L142.927 33.5315L143.267 51.2074L103.104 36.3469L109.139 23.4974Z" fill="url(#paint4_linear)"/>
<path d="M103.105 36.3681L98.9188 34.7169C95.4338 33.4256 93.7973 29.5094 95.0935 26.0377C96.3048 22.7989 99.811 21.1053 103.105 21.9098L109.14 23.5186L103.105 36.3681Z" fill="#131415"/>
<path fill-rule="evenodd" clip-rule="evenodd" d="M106.823 100.827L105.425 100.695L127.497 162.185H100.042C97.1504 162.185 94.8055 159.814 94.8055 156.888C94.8055 153.962 97.1498 151.59 100.042 151.59H104.173L70.5919 89.6077C68.1907 83.2783 71.3781 76.2079 77.7106 73.8158C79.5168 73.1384 81.3868 72.9055 83.1718 73.0749L83.9368 73.1596L107.454 75.3823H112.241C118.021 75.3823 123.78 76.3772 129.241 78.2824L129.242 78.2828L129.243 78.2831C133.11 79.6589 137.274 81.1403 139.25 81.9023C143.309 83.4688 147.304 85.1411 151.299 86.8558C155.294 88.5917 159.267 90.3698 163.199 92.2115L164.962 93.0371C166.79 93.905 168.362 95.3233 169.382 97.2497C177.494 112.604 188.179 142.813 191.222 151.59H195.073H201.129C204.021 151.59 206.365 153.962 206.365 156.888C206.365 159.814 204.021 162.185 201.129 162.185H173.674L150.215 114.291L106.823 100.827Z" fill="url(#paint5_linear)"/>
<path d="M134.065 48.138C134.023 48.138 133.98 48.138 133.959 48.1168L119.211 42.6553C119.041 42.5918 118.956 42.4012 119.02 42.2531C119.084 42.0837 119.275 41.999 119.424 42.0625L134.171 47.5241C134.341 47.5876 134.426 47.7781 134.363 47.9263C134.32 48.0533 134.193 48.138 134.065 48.138Z" fill="#2B2B2B"/>
<path d="M121.847 61.0086L117.448 62.6809L119.658 66.068C119.637 66.068 121.358 63.316 121.847 61.0086Z" fill="#2B2B2B"/>
<path d="M190.972 77.0545C189.654 77.0545 188.592 75.9961 188.592 74.6836C188.592 61.3472 186.233 54.7425 184.257 51.5461C182.663 48.9635 181.176 48.4342 181.176 48.4342C179.88 48.2014 179.03 46.9736 179.263 45.6823C179.497 44.391 180.73 43.5442 182.026 43.7771C183.194 43.9888 193.352 46.6349 193.352 74.6836C193.352 75.9961 192.289 77.0545 190.972 77.0545Z" fill="#EB90CE"/>
<path d="M193.182 69.5608H188.443C188.443 67.9096 188.486 66.3854 188.592 64.946C189.803 45.8093 198.388 39.12 198.771 38.8236L201.64 42.5917L201.661 42.5705C201.64 42.5917 199.536 44.264 197.453 48.3919C197.113 49.0693 196.752 49.8526 196.391 50.7417C198.218 50.6147 199.833 51.3344 200.683 51.9483L197.921 55.801L197.942 55.8222C197.9 55.801 197.007 55.2083 196.263 55.6105C195.881 55.8222 195.116 56.4784 194.436 58.5741C193.947 60.0983 193.586 62.0458 193.395 64.3744C193.246 65.9832 193.182 67.7191 193.182 69.5608Z" fill="#EB90CE"/>
<path d="M190.802 71.9528C189.485 71.9528 188.422 70.8944 188.422 69.5819C188.422 65.0094 187.105 61.7706 184.534 59.9078C182.727 58.6165 180.921 58.4683 180.9 58.4683C179.582 58.4048 178.584 57.2828 178.647 55.9915C178.711 54.6791 179.837 53.6841 181.134 53.7476C181.452 53.7688 184.364 53.9805 187.275 56.055C189.952 57.9814 193.161 61.8765 193.161 69.5607C193.182 70.8944 192.12 71.9528 190.802 71.9528Z" fill="#EB90CE"/>
<path d="M198.941 68.9892C198.877 68.6505 198.601 68.4176 198.261 68.4176H184.321C183.981 68.4176 183.705 68.6505 183.641 68.9892C183.556 69.4337 181.707 80.0816 181.707 83.0876C181.707 88.1681 185.851 92.4442 190.929 92.6348C191.057 92.6348 191.184 92.6348 191.312 92.6348C193.798 92.6348 196.157 91.7033 197.963 89.9675C199.854 88.147 200.896 85.6914 200.896 83.0664C200.896 80.0816 199.026 69.4549 198.941 68.9892Z" fill="#FCAC98"/>
<path d="M199.536 77.8377H183.046C182.6 77.8377 182.26 77.4779 182.26 77.0545C182.26 76.6311 182.621 76.2712 183.046 76.2712H199.536C199.982 76.2712 200.322 76.6311 200.322 77.0545C200.322 77.4779 199.982 77.8377 199.536 77.8377Z" fill="white"/>
<path d="M190.249 66.5971C190.228 66.5971 190.186 66.5971 190.164 66.5971C188.847 66.5548 187.827 65.454 187.869 64.1627L189.017 30.3772C189.059 29.0648 190.164 28.0487 191.461 28.091C192.778 28.1333 193.798 29.2341 193.756 30.5254L192.608 64.3109C192.587 65.581 191.524 66.5971 190.249 66.5971Z" fill="#EB90CE"/>
<path d="M179.901 35.0132H114.239V79.8488H179.901V35.0132Z" fill="white"/>
<path d="M179.901 80.9496H114.239C113.623 80.9496 113.134 80.4627 113.134 79.8489V35.0133C113.134 34.3994 113.623 33.9125 114.239 33.9125H179.901C180.517 33.9125 181.006 34.3994 181.006 35.0133V79.8489C181.006 80.4627 180.517 80.9496 179.901 80.9496ZM115.344 78.7481H178.796V36.114H115.344V78.7481Z" fill="#FCAC98"/>
<path d="M168.745 91.9363H155.825L144.414 64.2263H157.334L168.745 91.9363Z" fill="white"/>
<path d="M168.745 93.037H155.825C155.379 93.037 154.975 92.7619 154.805 92.3597L143.394 64.6496C143.245 64.3109 143.287 63.9299 143.5 63.6124C143.712 63.2948 144.052 63.1255 144.414 63.1255H157.334C157.78 63.1255 158.184 63.4007 158.354 63.8029L169.765 91.5129C169.913 91.8516 169.871 92.2326 169.659 92.5502C169.446 92.8677 169.106 93.037 168.745 93.037ZM156.569 90.8355H167.109L156.611 65.3271H146.071L156.569 90.8355Z" fill="#FCAC98"/>
<path d="M203.552 90.8777H29.4736V92.9946H203.552V90.8777Z" fill="#FCAC98"/>
<path d="M86.7062 5.5039L85.8496 6.81177L89.972 9.4912L90.8286 8.18333L86.7062 5.5039Z" fill="#80C7F5"/>
<path d="M102.08 1.48206L100.513 1.48181L100.512 6.12018L102.08 6.12044L102.08 1.48206Z" fill="#80C7F5"/>
<path d="M114.793 5.50386L111.137 8.78674L112.186 9.94672L115.842 6.66383L114.793 5.50386Z" fill="#80C7F5"/>
<defs>
<linearGradient id="paint0_linear" x1="55.6642" y1="85.6755" x2="55.6642" y2="160.137" gradientUnits="userSpaceOnUse">
<stop stop-color="#80C8F6"/>
<stop offset="0.9958" stop-color="white"/>
</linearGradient>
<linearGradient id="paint1_linear" x1="148.844" y1="14.3727" x2="182.585" y2="14.3727" gradientUnits="userSpaceOnUse">
<stop stop-color="#D5279B"/>
<stop offset="1" stop-color="#FEA18C"/>
</linearGradient>
<linearGradient id="paint2_linear" x1="2.38326" y1="42.6718" x2="47.178" y2="42.6718" gradientUnits="userSpaceOnUse">
<stop stop-color="#8728FB"/>
<stop offset="1" stop-color="#FFA58B"/>
</linearGradient>
<linearGradient id="paint3_linear" x1="54.671" y1="58.7527" x2="88.4167" y2="34.171" gradientUnits="userSpaceOnUse">
<stop stop-color="#7FC6F4"/>
<stop offset="1" stop-color="#8728FB"/>
</linearGradient>
<linearGradient id="paint4_linear" x1="140.568" y1="47.8416" x2="109.567" y2="26.8857" gradientUnits="userSpaceOnUse">
<stop stop-color="#7FC6F4"/>
<stop offset="1" stop-color="#8728FB"/>
</linearGradient>
<linearGradient id="paint5_linear" x1="117.248" y1="130.457" x2="113.048" y2="80.5306" gradientUnits="userSpaceOnUse">
<stop stop-color="#7FC6F4"/>
<stop offset="1" stop-color="#D5279B"/>
</linearGradient>
</defs>
</svg>
