<svg width="223" height="186" viewBox="0 0 223 186" fill="none" xmlns="http://www.w3.org/2000/svg">
<g opacity="0.3">
<path opacity="0.3" d="M0 157.861H223V158.541H0V157.861Z" fill="#C4ECFE"/>
</g>
<path d="M103.705 185.977C137.666 185.977 136.591 134.294 166.111 127.447C177.914 124.704 184.341 115.957 189.787 106.46C198.879 90.6318 222.977 97.0334 222.977 115.3V185.977H103.705Z" fill="url(#paint0_linear)"/>
<path d="M163.188 30.156C166.507 34.4941 169.826 38.8322 173.145 43.1703C180.274 37.4721 186.374 31.0939 191.727 23.7074C187.262 20.5652 182.798 17.423 178.334 14.2808C173.963 20.3072 168.985 25.513 163.188 30.156Z" fill="white"/>
<path d="M173.075 43.6628L173.356 43.4283C180.531 37.6832 186.632 31.305 192.007 23.895L192.218 23.6136L178.241 13.7883L178.03 14.0697C173.683 20.0493 168.751 25.2316 162.955 29.8746L162.698 30.0856L173.075 43.6628ZM191.236 23.8012C186.024 30.9298 180.134 37.1204 173.216 42.6779L163.68 30.2263C169.336 25.6537 174.151 20.6121 178.428 14.7732L191.236 23.8012Z" fill="#80C7F5"/>
<path d="M61.4707 21.1279C59.1101 23.2618 56.726 25.3957 54.3654 27.5296C57.9882 31.4456 61.9615 34.7051 66.4959 37.519C68.1086 34.7754 69.7447 32.0319 71.3574 29.2883C67.6645 26.9668 64.4157 24.317 61.4707 21.1279Z" fill="white"/>
<path d="M66.6121 38.0114L66.7991 37.7066C67.6171 36.3231 68.4352 34.9396 69.2298 33.5795C70.0479 32.2195 70.8426 30.8594 71.6606 29.4759L71.8242 29.171L71.5437 28.9835C67.8041 26.6385 64.5786 23.9888 61.7272 20.8934L61.4934 20.6355L61.2363 20.87C60.0677 21.9252 58.8757 23.0039 57.6837 24.0591C56.4917 25.1378 55.2996 26.193 54.131 27.2717L53.8739 27.5061L54.1076 27.7641C57.7304 31.6801 61.7272 34.963 66.3082 37.8238L66.6121 38.0114ZM70.8893 29.4055C70.1414 30.6718 69.3935 31.9381 68.6455 33.2043C67.8976 34.4706 67.1263 35.7603 66.3784 37.0266C62.0778 34.3299 58.2914 31.2111 54.8789 27.553C55.9775 26.5682 57.076 25.5833 58.1745 24.5984C59.273 23.6136 60.3715 22.6287 61.4701 21.6204C64.2281 24.575 67.3133 27.131 70.8893 29.4055Z" fill="#80C7F5"/>
<path d="M191.961 105.287L192.195 105.545C196.425 110.071 201.006 113.846 206.195 117.082L206.476 117.27L206.312 117.575C204.021 121.467 201.708 125.383 199.394 129.299L199.207 129.604L198.903 129.417C192.452 125.43 186.772 120.764 181.56 115.136L181.326 114.878L191.961 105.287Z" fill="#D6219C"/>
<path d="M179.457 186H205.4V148.012H179.457V186ZM204.699 185.297H180.158V148.716H204.699V185.297Z" fill="#F79CA6"/>
<path d="M179.807 182.271H205.05V185.625H179.807V182.271Z" fill="#F79CA6"/>
<path d="M179.457 185.976H205.4V181.92H179.457V185.976ZM204.699 185.273H180.158V182.623H204.699V185.273Z" fill="#F79CA6"/>
<path d="M179.83 170.805C179.923 170.805 180.017 170.781 180.087 170.711L202.244 148.481C202.385 148.34 202.385 148.129 202.244 147.989C202.104 147.848 201.894 147.848 201.754 147.989L179.596 170.219C179.456 170.359 179.456 170.57 179.596 170.711C179.643 170.781 179.736 170.805 179.83 170.805Z" fill="#F79CA6"/>
<path d="M179.83 177.113C179.923 177.113 180.017 177.089 180.087 177.019L205.4 151.647C205.54 151.506 205.54 151.295 205.4 151.154C205.259 151.014 205.049 151.014 204.909 151.154L179.596 176.527C179.456 176.667 179.456 176.878 179.596 177.019C179.643 177.089 179.736 177.113 179.83 177.113Z" fill="#F79CA6"/>
<path d="M179.831 183.421C179.924 183.421 180.018 183.397 180.088 183.327L205.354 158.002C205.494 157.861 205.494 157.65 205.354 157.509C205.214 157.368 205.003 157.368 204.863 157.509L179.597 182.834C179.457 182.975 179.457 183.186 179.597 183.327C179.644 183.397 179.737 183.421 179.831 183.421Z" fill="#F79CA6"/>
<path d="M185.089 184.476C185.183 184.476 185.276 184.452 185.347 184.382L205.307 164.356C205.447 164.216 205.447 164.005 205.307 163.864C205.167 163.723 204.956 163.723 204.816 163.864L184.856 183.89C184.715 184.03 184.715 184.241 184.856 184.382C184.902 184.452 184.996 184.476 185.089 184.476Z" fill="#F79CA6"/>
<path d="M190.839 185.015C190.933 185.015 191.026 184.992 191.096 184.921L205.26 170.711C205.4 170.57 205.4 170.359 205.26 170.219C205.12 170.078 204.909 170.078 204.769 170.219L190.605 184.429C190.465 184.57 190.465 184.781 190.605 184.921C190.652 184.992 190.746 185.015 190.839 185.015Z" fill="#F79CA6"/>
<path d="M197.921 184.241C198.015 184.241 198.108 184.218 198.178 184.147L205.307 176.995C205.447 176.855 205.447 176.644 205.307 176.503C205.167 176.362 204.956 176.362 204.816 176.503L197.687 183.655C197.547 183.796 197.547 184.007 197.687 184.147C197.734 184.218 197.828 184.241 197.921 184.241Z" fill="#F79CA6"/>
<path d="M179.784 164.45C179.878 164.45 179.971 164.427 180.041 164.356L195.865 148.481C196.005 148.34 196.005 148.129 195.865 147.989C195.724 147.848 195.514 147.848 195.374 147.989L179.55 163.864C179.41 164.004 179.41 164.216 179.55 164.356C179.597 164.427 179.691 164.45 179.784 164.45Z" fill="#F79CA6"/>
<path d="M179.736 158.095C179.83 158.095 179.923 158.072 179.993 158.001L189.483 148.481C189.623 148.34 189.623 148.129 189.483 147.989C189.342 147.848 189.132 147.848 188.992 147.989L179.503 157.509C179.362 157.65 179.362 157.861 179.503 158.001C179.549 158.072 179.643 158.095 179.736 158.095Z" fill="#F79CA6"/>
<path d="M179.714 151.74C179.807 151.74 179.901 151.717 179.971 151.647L183.103 148.481C183.243 148.34 183.243 148.129 183.103 147.989C182.963 147.848 182.752 147.848 182.612 147.989L179.48 151.154C179.34 151.295 179.34 151.506 179.48 151.647C179.527 151.717 179.62 151.74 179.714 151.74Z" fill="#F79CA6"/>
<path d="M205.003 170.805C205.096 170.805 205.19 170.781 205.26 170.711C205.4 170.57 205.4 170.359 205.26 170.219L183.103 147.989C182.962 147.848 182.752 147.848 182.612 147.989C182.472 148.129 182.472 148.34 182.612 148.481L204.746 170.711C204.816 170.781 204.909 170.805 205.003 170.805Z" fill="#F79CA6"/>
<path d="M205.003 177.113C205.096 177.113 205.19 177.089 205.26 177.019C205.4 176.878 205.4 176.667 205.26 176.527L179.971 151.154C179.83 151.014 179.62 151.014 179.48 151.154C179.34 151.295 179.34 151.506 179.48 151.647L204.746 177.019C204.816 177.089 204.909 177.113 205.003 177.113Z" fill="#F79CA6"/>
<path d="M205.003 183.421C205.096 183.421 205.19 183.397 205.26 183.327C205.4 183.186 205.4 182.975 205.26 182.834L179.994 157.509C179.854 157.368 179.643 157.368 179.503 157.509C179.363 157.65 179.363 157.861 179.503 158.002L204.769 183.327C204.816 183.397 204.909 183.421 205.003 183.421Z" fill="#F79CA6"/>
<path d="M200.328 185.062C200.422 185.062 200.515 185.039 200.585 184.968C200.725 184.828 200.725 184.616 200.585 184.476L180.041 163.864C179.9 163.723 179.69 163.723 179.55 163.864C179.409 164.005 179.409 164.216 179.55 164.356L200.094 184.968C200.141 185.039 200.235 185.062 200.328 185.062Z" fill="#F79CA6"/>
<path d="M193.877 184.898C193.97 184.898 194.064 184.874 194.134 184.804C194.274 184.663 194.274 184.452 194.134 184.312L180.087 170.219C179.947 170.078 179.736 170.078 179.596 170.219C179.456 170.359 179.456 170.57 179.596 170.711L193.643 184.804C193.69 184.874 193.783 184.898 193.877 184.898Z" fill="#F79CA6"/>
<path d="M187.801 185.109C187.894 185.109 187.988 185.085 188.058 185.015C188.198 184.874 188.198 184.663 188.058 184.523L180.088 176.526C179.948 176.386 179.737 176.386 179.597 176.526C179.457 176.667 179.457 176.878 179.597 177.019L187.544 185.015C187.614 185.085 187.707 185.109 187.801 185.109Z" fill="#F79CA6"/>
<path d="M205.05 164.45C205.143 164.45 205.237 164.427 205.307 164.356C205.447 164.216 205.447 164.004 205.307 163.864L189.484 147.989C189.343 147.848 189.133 147.848 188.993 147.989C188.852 148.129 188.852 148.34 188.993 148.481L204.816 164.356C204.863 164.427 204.956 164.45 205.05 164.45Z" fill="#F79CA6"/>
<path d="M205.05 158.048C205.143 158.048 205.237 158.025 205.307 157.955C205.447 157.814 205.447 157.603 205.307 157.462L195.864 147.989C195.724 147.848 195.514 147.848 195.373 147.989C195.233 148.129 195.233 148.34 195.373 148.481L204.816 157.955C204.863 158.025 204.956 158.048 205.05 158.048Z" fill="#F79CA6"/>
<path d="M205.143 151.741C205.236 151.741 205.33 151.717 205.4 151.647C205.54 151.506 205.54 151.295 205.4 151.154L202.011 147.754C201.87 147.614 201.66 147.614 201.52 147.754C201.38 147.895 201.38 148.106 201.52 148.247L204.909 151.647C204.956 151.717 205.049 151.741 205.143 151.741Z" fill="#F79CA6"/>
<path d="M74.2554 184.405H109.011L96.0388 179.153H87.2273L74.2554 184.405Z" fill="white"/>
<path d="M74.2554 185.578H109.011C109.572 185.578 110.063 185.179 110.156 184.64C110.25 184.101 109.969 183.538 109.455 183.327L96.4829 178.074C96.3427 178.027 96.2024 177.98 96.0388 177.98H87.2273C87.087 177.98 86.9234 178.004 86.7832 178.074L73.8113 183.327C73.2971 183.538 72.9932 184.077 73.1101 184.64C73.227 185.203 73.6944 185.578 74.2554 185.578ZM103.004 183.233H80.2856L87.461 180.325H95.8285L103.004 183.233Z" fill="#FCAC98"/>
<path d="M88.9563 150.31H94.332V178.778H88.9563V150.31Z" fill="white"/>
<path d="M88.9566 179.95H94.3323C94.9868 179.95 95.501 179.434 95.501 178.778V150.31C95.501 149.654 94.9868 149.138 94.3323 149.138H88.9566C88.3022 149.138 87.7879 149.654 87.7879 150.31V178.778C87.7879 179.434 88.3022 179.95 88.9566 179.95ZM93.1637 177.605H90.1252V151.483H93.1637V177.605Z" fill="#FCAC98"/>
<path d="M87.7879 150.826H95.501V155.751H87.7879V150.826Z" fill="#FA7454"/>
<path d="M86.9236 120.061H96.3662V154.297H86.9236V120.061Z" fill="#FCAC98"/>
<path d="M86.9236 129.089H96.3662V133.192H86.9236V129.089Z" fill="#FA7454"/>
<path d="M78.0887 126.626H105.178V131.551H78.0887V126.626Z" fill="#FCAC98"/>
<path d="M138.999 114.784L137.877 94.6882C137.526 88.5913 132.501 83.8311 126.424 83.8546L109.572 83.9249L111.419 117.153C111.536 119.404 113.382 121.139 115.626 121.139H133.155C133.646 121.139 134.114 121.069 134.558 120.951C137.339 120.295 139.162 117.645 138.999 114.784Z" fill="white"/>
<path d="M115.625 122.312H133.155C133.716 122.312 134.277 122.241 134.838 122.101C138.133 121.327 140.354 118.231 140.167 114.737L139.045 94.6414C138.648 87.9114 133.108 82.6822 126.424 82.7056L108.333 82.776L110.25 117.247C110.39 120.06 112.75 122.312 115.625 122.312ZM126.47 85.0271C131.893 85.0271 136.404 89.2949 136.708 94.7586L137.829 114.855C137.97 117.223 136.474 119.287 134.277 119.802H134.253C133.879 119.896 133.506 119.943 133.155 119.943H115.625C114.013 119.943 112.68 118.677 112.587 117.059L110.811 85.0506L126.424 84.9802C126.447 85.0271 126.447 85.0271 126.47 85.0271Z" fill="#FCAC98"/>
<path d="M63.4335 112.885H109.875C114.386 112.885 117.799 108.641 117.495 103.411L114.76 56.7472C114.456 51.518 110.553 47.2737 106.019 47.2737H59.577C55.0661 47.2737 51.6537 51.518 51.9575 56.7472L54.6921 103.411C54.996 108.641 58.9226 112.885 63.4335 112.885Z" fill="white"/>
<path d="M63.4335 114.057H109.875C112.166 114.057 114.316 113.119 115.929 111.384C117.845 109.344 118.85 106.413 118.663 103.341L115.929 56.677C115.578 50.8381 111.137 46.1013 106.019 46.1013H59.5769C57.2864 46.1013 55.1361 47.0393 53.5234 48.7745C51.6068 50.8146 50.6018 53.7458 50.7888 56.8177L53.5234 103.482C53.874 109.321 58.3148 114.057 63.4335 114.057ZM106.019 48.4463C109.922 48.4463 113.334 52.1981 113.592 56.8177L116.326 103.482C116.466 105.921 115.695 108.219 114.223 109.79C113.054 111.033 111.511 111.713 109.875 111.713H63.4335C59.5302 111.713 56.1178 107.961 55.8607 103.341L53.1261 56.677C52.9858 54.2382 53.7571 51.9402 55.2296 50.3691C56.3982 49.1263 57.9408 48.4463 59.5769 48.4463H106.019Z" fill="#FCAC98"/>
<path d="M137.104 65.5643L115.531 69.7148L123.174 70.9811L103.822 57.4743C99.7313 54.6369 94.1452 55.6452 91.2937 59.7254C88.4656 63.8291 89.4707 69.4334 93.5375 72.2943L112.89 85.8011L113.498 86.2232C115.625 87.7005 118.266 87.9115 120.51 87.0439L140.26 79.2822L137.104 65.5643Z" fill="url(#paint1_linear)"/>
<path d="M137.151 80.797L133.572 81.8381C133.572 81.8381 130.662 80.7657 129.992 78.1363C129.321 75.5068 129.992 73.6246 129.992 73.6246L136.062 73.1619L137.151 80.797Z" fill="#131415"/>
<path d="M109.571 87.9348C109.643 77.149 102.222 77.5814 105.152 70.3507C107.65 64.153 105.656 55.7934 99.8208 53.4632C98.8362 53.0789 97.7555 52.8627 96.5788 52.8627C90.1909 52.8146 89.7586 52.5504 87.0689 52.5264C85.604 52.5264 84.2352 52.7666 82.9624 53.199C76.7666 55.385 73.0203 62.4715 74.9895 69.2457C74.9895 69.2457 75.6139 71.0954 75.5419 73.5216C75.4698 75.9719 69.4421 79.5271 69.3701 86.9259L109.571 87.9348Z" fill="white"/>
<path d="M82.9267 53.2298C85.9652 54.379 89.238 58.9751 90.0557 60.0302C90.8735 61.0853 94.2628 64.0166 96.6001 63.7821C98.9374 63.5476 100.059 61.8827 100.69 59.444C101.321 57.0053 100.223 53.5816 100.223 53.5816C94.2625 51.0022 87.3008 51.767 82.9267 53.2298Z" fill="#D6219C"/>
<path fill-rule="evenodd" clip-rule="evenodd" d="M101.336 118.025L81.1733 118.114L85.9414 90.0219L86.4089 89.9516L86.8763 89.9047L87.7878 89.8109C88.4187 89.764 89.0262 89.7405 89.6337 89.7171L89.6343 89.7171C89.9381 89.7053 90.2419 89.6995 90.5457 89.6936C90.8496 89.6878 91.1535 89.6819 91.4574 89.6702H93.2804C95.7112 89.6936 98.142 89.8578 100.573 90.0923C102.98 90.3268 105.411 90.655 107.818 91.0302C110.226 91.4289 112.633 91.8744 115.041 92.3903L117.635 92.9531C123.104 94.1255 127.054 99.1437 126.774 104.912C126.47 111.056 126.119 117.2 125.699 123.343L125.371 127.963L125.021 132.582C124.865 134.63 124.688 136.678 124.512 138.726C124.423 139.75 124.335 140.774 124.249 141.798C123.688 147.942 123.057 154.109 122.333 160.253C121.959 163.348 121.585 166.42 121.141 169.492L120.486 174.111C120.394 174.666 120.308 175.219 120.222 175.77H120.84H126.163C128.706 175.77 130.767 177.852 130.767 180.42C130.767 182.988 128.705 185.07 126.163 185.07H102.031L101.336 118.025Z" fill="url(#paint2_linear)"/>
<path d="M82.5758 117.716H102.326L105.364 102.591L82.5758 110.212V117.716Z" fill="#F0A9BB"/>
<path fill-rule="evenodd" clip-rule="evenodd" d="M108.577 104.35L67.898 117.411L60.0681 92.8124L60.8161 92.4841L61.564 92.1558L63.0599 91.5227L66.0516 90.3033C66.6546 90.05 67.2576 89.8221 67.8606 89.5942C68.2626 89.4422 68.6647 89.2903 69.0667 89.1308L72.1051 88.0287C76.1486 86.5514 80.2389 85.2148 84.3525 83.9485C88.4427 82.6588 92.5797 81.5098 96.7401 80.3608C100.9 79.2587 105.061 78.18 109.268 77.1951L111.114 76.7496C115.766 75.6709 120.791 77.5938 123.455 81.885C126.447 86.7156 129.392 91.5696 132.29 96.4705L134.464 100.152L136.591 103.857C137.722 105.78 138.811 107.717 139.902 109.657C140.208 110.201 140.514 110.746 140.821 111.29C141.988 113.375 145.024 117.757 148.334 122.532C152.268 128.21 156.588 134.443 158.606 138.03L160.68 135.949L164.996 131.619C167.057 129.551 170.398 129.551 172.458 131.617C174.519 133.685 174.518 137.037 172.457 139.104L152.891 158.734L146.259 152.079L146.22 152.116L145.938 151.757L145.431 151.248L145.49 151.189L108.577 104.35Z" fill="url(#paint3_linear)"/>
<path d="M107.678 35.0801C106.994 35.0801 106.439 34.5237 106.439 33.8373C106.439 33.1509 106.994 32.5945 107.678 32.5945C108.362 32.5945 108.917 33.1509 108.917 33.8373C108.917 34.5237 108.362 35.0801 107.678 35.0801Z" fill="#2B2B2B"/>
<path d="M79.9354 68.519L58.596 66.2913L63.5511 82.8465L82.7869 70.137C86.9473 67.3934 88.0925 61.789 85.3579 57.6385C82.6233 53.4645 77.0372 52.3155 72.9002 55.0591L53.6644 67.7686L52.8931 68.2845C48.8496 70.9577 47.7511 76.3979 50.3922 80.4547C52.2386 83.2686 55.4641 84.6756 58.596 84.3473L78.1123 82.2134L79.9354 68.519Z" fill="url(#paint4_linear)"/>
<mask id="mask0" mask-type="alpha" maskUnits="userSpaceOnUse" x="86" y="30" width="14" height="14">
<ellipse rx="6.42752" ry="6.33132" transform="matrix(-1 0 0 1 92.8596 37.0501)" fill="#C4C4C4"/>
</mask>
<g mask="url(#mask0)">
<ellipse rx="6.42752" ry="6.33132" transform="matrix(-1 0 0 1 92.8596 37.0501)" fill="#131415"/>
<ellipse rx="6.42753" ry="6.33132" transform="matrix(-1 0 0 1 89.1203 31.1878)" fill="#4C7DE0"/>
<path d="M93.4439 28.8428C93.8262 31.3259 97.5214 35.8572 99.2871 36.3466C99.2689 36.3466 98.9594 30.0209 93.4439 28.8428Z" fill="#4C7DE0"/>
</g>
<ellipse rx="4.32397" ry="4.22087" transform="matrix(-1 0 0 1 87.4837 30.2497)" fill="#4C7DE0"/>
<path d="M101.508 118.607H68.1081C65.7942 118.607 63.9243 120.483 63.9243 122.804C63.9243 125.126 65.7942 127.002 68.1081 127.002H101.508V118.607Z" fill="white"/>
<path d="M68.1081 117.434H101.508V119.779H68.1081C66.4486 119.779 65.093 121.139 65.093 122.804C65.093 124.469 66.4486 125.829 68.1081 125.829H101.508V128.174H68.1081C65.1631 128.174 62.7557 125.759 62.7557 122.804C62.7323 119.85 65.1397 117.434 68.1081 117.434Z" fill="#FCAC98"/>
<path d="M82.8093 114.784L81.6874 94.6884C81.3368 88.5916 76.3116 83.8314 70.2347 83.8548L53.3829 83.9252L54.8087 109.79C55.1592 116.168 60.4181 121.139 66.7755 121.139H76.9661C77.4569 121.139 77.9244 121.069 78.3684 120.952C81.1264 120.295 82.9729 117.645 82.8093 114.784Z" fill="white"/>
<path d="M66.7759 122.312H76.9664C77.5274 122.312 78.0883 122.241 78.6493 122.101C81.9449 121.303 84.1653 118.208 83.9783 114.738L82.8564 94.6415C82.4824 87.935 76.9431 82.7058 70.2818 82.7058C70.2585 82.7058 70.2584 82.7058 70.2351 82.7058L52.1445 82.7762L53.6404 109.884C54.0377 116.848 59.7874 122.312 66.7759 122.312ZM70.2818 85.0273C75.7043 85.0273 80.2153 89.2951 80.5191 94.7588L81.641 114.855C81.7812 117.176 80.2386 119.31 78.0883 119.803H78.065C77.691 119.896 77.317 119.943 76.9664 119.943H66.7759C61.0262 119.943 56.2815 115.441 55.9777 109.696L54.622 85.0742L70.2351 85.0038C70.2584 85.0273 70.2585 85.0273 70.2818 85.0273Z" fill="#FCAC98"/>
<path d="M124.904 134.318C124.904 132.629 126.166 121.538 126.914 111.76C127.405 105.17 122.801 99.2845 116.303 98.2058C108.567 96.9396 101.531 102.943 101.555 110.798L101.578 128.362L124.904 134.318Z" fill="url(#paint5_linear)"/>
<path d="M107.305 100.34L94.9872 111.384L102.817 111.572L107.305 100.34Z" fill="url(#paint6_linear)"/>
<path d="M140.26 79.3057L146.174 76.9842C149.516 75.6711 151.176 71.8957 149.867 68.519C148.698 65.541 145.613 63.8995 142.574 64.4857L137.082 65.541L140.26 79.3057Z" fill="#FDC068"/>
<path d="M79.3504 82.1664L82.6928 81.8147C86.2454 81.4395 88.9567 78.2973 88.6295 74.7095C88.349 71.5439 85.8481 69.1052 82.8096 68.8003L79.9348 68.4955C78.7428 68.3782 77.5507 68.7065 76.5925 69.41L75.8445 69.9493C73.4371 71.7315 72.5723 74.944 73.741 77.6876L74.4188 79.2587C75.2602 81.2284 77.2469 82.4009 79.3504 82.1664Z" fill="#131415"/>
<path d="M123.549 71.6612C123.666 71.6612 123.759 71.6143 123.829 71.5205C123.946 71.3564 123.899 71.1453 123.759 71.0281L120.487 68.6831C120.323 68.5659 120.113 68.6128 119.996 68.7535C119.879 68.9176 119.926 69.1287 120.066 69.2459L123.338 71.5909C123.409 71.6378 123.479 71.6612 123.549 71.6612Z" fill="#2B2B2B"/>
<path d="M137.104 65.5642L140.26 79.3055L136.45 80.8063L133.365 66.2911L137.104 65.5642Z" fill="white"/>
<path d="M165.316 87.9351H169.99V185.578H165.316V87.9351Z" fill="#FCAC98"/>
<path d="M190.091 87.9351H194.766V185.578H190.091V87.9351Z" fill="#FCAC98"/>
<path d="M190.091 87.0205H194.766V93.7505H190.091V87.0205Z" fill="#131415"/>
<path d="M165.316 87.0205H169.99V93.7505H165.316V87.0205Z" fill="#131415"/>
<path d="M37.396 78.0161H64.3682V85.2854H37.396V78.0161Z" fill="white"/>
<path d="M37.0453 85.6371H64.7188V77.6643H37.0453V85.6371ZM64.0176 84.9336H37.7465V78.3678H64.0176V84.9336Z" fill="#80C7F5"/>
<path d="M21.0112 77.6643H37.7461V85.6371H21.0112V77.6643Z" fill="#80C7F5"/>
<path d="M33.7036 70.7468H60.6758V78.0161H33.7036V70.7468Z" fill="white"/>
<path d="M33.353 78.3678H61.0264V70.395H33.353V78.3678ZM60.3252 77.6643H34.0541V71.0985H60.3252V77.6643Z" fill="#80C7F5"/>
<path d="M17.3188 70.395H34.0537V78.3678H17.3188V70.395Z" fill="#80C7F5"/>
<path d="M60.2784 62.094H33.7036V71.0516H60.2784C60.4888 71.0516 60.6758 70.864 60.6758 70.653V62.4926C60.6758 62.2816 60.4888 62.094 60.2784 62.094Z" fill="white"/>
<path d="M33.353 71.4033H60.2784C60.6758 71.4033 61.0264 71.0516 61.0264 70.6529V62.4926C61.0264 62.0939 60.6758 61.7422 60.2784 61.7422H33.353V71.4033ZM60.2784 62.4457C60.3018 62.4457 60.3252 62.4691 60.3252 62.4926V70.6529C60.3252 70.6764 60.3018 70.6998 60.2784 70.6998H34.0541V62.4457H60.2784Z" fill="#80C7F5"/>
<path d="M17.3188 61.7422H34.0537V71.4033H17.3188V61.7422Z" fill="#80C7F5"/>
<path d="M37.934 54.9653H64.9062V62.2346H37.934V54.9653Z" fill="white"/>
<path d="M37.5834 62.5863H65.2568V54.6135H37.5834V62.5863ZM64.5557 61.8828H38.2846V55.317H64.5557V61.8828Z" fill="#80C7F5"/>
<path d="M21.5727 54.6135H38.3076V62.5863H21.5727V54.6135Z" fill="#80C7F5"/>
<path d="M36.2504 47.6492H63.2227V54.9185H36.2504V47.6492Z" fill="white"/>
<path d="M35.8998 55.2701H63.5732V47.2974H35.8998V55.2701ZM62.8721 54.5667H36.601V48.0008H62.8721V54.5667Z" fill="#80C7F5"/>
<path d="M19.8891 47.2974H36.624V55.2701H19.8891V47.2974Z" fill="#80C7F5"/>
<path d="M176.464 78.9541H199.183V85.0744H176.464V78.9541Z" fill="white"/>
<path d="M176.114 85.426H199.533V78.6023H176.114V85.426ZM198.832 84.7226H176.815V79.3058H198.832V84.7226Z" fill="#80C7F5"/>
<path d="M162.627 78.6023H176.838V85.426H162.627V78.6023Z" fill="#80C7F5"/>
<path d="M173.356 72.8337H196.074V78.954H173.356V72.8337Z" fill="white"/>
<path d="M173.005 79.3057H196.425V72.4819H173.005V79.3057ZM195.724 78.6022H173.706V73.1854H195.724V78.6022Z" fill="#80C7F5"/>
<path d="M159.495 72.4819H173.706V79.3057H159.495V72.4819Z" fill="#80C7F5"/>
<path d="M195.724 65.541H173.356V73.0683H195.724C195.911 73.0683 196.051 72.9276 196.051 72.74V65.8928C196.075 65.7052 195.911 65.541 195.724 65.541Z" fill="white"/>
<path d="M173.006 73.4199H195.724C196.098 73.4199 196.402 73.1151 196.402 72.7399V65.9161C196.425 65.752 196.355 65.5644 196.238 65.4237C196.098 65.283 195.911 65.1892 195.724 65.1892H173.006V73.4199ZM195.701 72.7164H173.707V65.8927H195.701V72.7164Z" fill="#80C7F5"/>
<path d="M159.496 65.1892H173.707V73.4199H159.496V65.1892Z" fill="#80C7F5"/>
<path d="M176.932 59.5381H199.65V65.6584H176.932V59.5381Z" fill="white"/>
<path d="M176.581 66.01H200.001V59.1863H176.581V66.01ZM199.3 65.3066H177.283V59.8898H199.3V65.3066Z" fill="#80C7F5"/>
<path d="M163.072 59.1863H177.282V66.01H163.072V59.1863Z" fill="#80C7F5"/>
<path d="M175.506 53.3943H198.225V59.5146H175.506V53.3943Z" fill="white"/>
<path d="M175.156 59.8662H198.575V53.0425H175.156V59.8662ZM197.874 59.1628H175.857V53.746H197.874V59.1628Z" fill="#80C7F5"/>
<path d="M161.646 53.0425H175.856V59.8662H161.646V53.0425Z" fill="#80C7F5"/>
<path d="M19.2124 84.7458H194.766V87.935H19.2124V84.7458Z" fill="#131415"/>
<path d="M19.3528 87.9351H24.0273V185.578H19.3528V87.9351Z" fill="#FCAC98"/>
<path d="M41.3699 146.207H74.0918V185.437H41.3699V146.207Z" fill="white"/>
<path d="M41.089 145.902H53.4766V181.568H41.0188L41.089 145.902Z" fill="#D6219C"/>
<path d="M65.9347 151.952H74.0918C74.2788 151.952 74.4424 151.787 74.4424 151.6C74.4424 151.412 74.2788 151.248 74.0918 151.248H65.9347C65.7477 151.248 65.5841 151.412 65.5841 151.6C65.5841 151.787 65.7477 151.952 65.9347 151.952Z" fill="#EB90CE"/>
<path d="M53.6408 154.414H61.7978C61.9848 154.414 62.1484 154.25 62.1484 154.062C62.1484 153.874 61.9848 153.71 61.7978 153.71H53.6408C53.4538 153.71 53.2902 153.874 53.2902 154.062C53.2902 154.25 53.4538 154.414 53.6408 154.414Z" fill="#EB90CE"/>
<path d="M70.0015 155.61H74.0918C74.2788 155.61 74.4424 155.446 74.4424 155.258C74.4424 155.07 74.2788 154.906 74.0918 154.906H70.0015C69.8146 154.906 69.651 155.07 69.651 155.258C69.651 155.446 69.8146 155.61 70.0015 155.61Z" fill="#EB90CE"/>
<path d="M61.7972 160.722H68.2715C68.4585 160.722 68.6221 160.557 68.6221 160.37C68.6221 160.182 68.4585 160.018 68.2715 160.018H61.7972C61.6102 160.018 61.4466 160.182 61.4466 160.37C61.4466 160.557 61.6102 160.722 61.7972 160.722Z" fill="#EB90CE"/>
<path d="M67.2671 163.325H71.334C71.521 163.325 71.6846 163.16 71.6846 162.973C71.6846 162.785 71.521 162.621 71.334 162.621H67.2671C67.0801 162.621 66.9165 162.785 66.9165 162.973C66.9165 163.16 67.0801 163.325 67.2671 163.325Z" fill="#EB90CE"/>
<path d="M58.5492 177.605H65.0234C65.2104 177.605 65.374 177.441 65.374 177.253C65.374 177.066 65.2104 176.902 65.0234 176.902H58.5492C58.3622 176.902 58.1986 177.066 58.1986 177.253C58.1986 177.441 58.3622 177.605 58.5492 177.605Z" fill="#EB90CE"/>
<path d="M67.2671 180.818H71.334C71.521 180.818 71.6846 180.654 71.6846 180.466C71.6846 180.278 71.521 180.114 71.334 180.114H67.2671C67.0801 180.114 66.9165 180.278 66.9165 180.466C66.9165 180.654 67.0801 180.818 67.2671 180.818Z" fill="#EB90CE"/>
<path d="M53.6405 166.936H59.9277C60.1147 166.936 60.2783 166.771 60.2783 166.584C60.2783 166.396 60.1147 166.232 59.9277 166.232H53.6405C53.4535 166.232 53.2899 166.396 53.2899 166.584C53.2899 166.771 53.4535 166.936 53.6405 166.936Z" fill="#EB90CE"/>
<path d="M53.6405 181.568H56.7725C56.9594 181.568 57.123 181.404 57.123 181.216C57.123 181.029 56.9594 180.865 56.7725 180.865H53.6405C53.4536 180.865 53.2899 181.029 53.2899 181.216C53.2899 181.404 53.4536 181.568 53.6405 181.568Z" fill="#EB90CE"/>
<path d="M64.1817 171.79H72.3389C72.5258 171.79 72.6895 171.626 72.6895 171.438C72.6895 171.25 72.5258 171.086 72.3389 171.086H64.1817C63.9948 171.086 63.8311 171.25 63.8311 171.438C63.8311 171.626 63.9948 171.79 64.1817 171.79Z" fill="#EB90CE"/>
<path d="M64.1813 138.046C64.1813 138.046 68.6221 141.118 68.2481 144.354L51.5833 146.207L64.1813 138.046Z" fill="white"/>
<path d="M51.5834 146.558C51.6067 146.558 51.6067 146.558 51.6301 146.558L68.2949 144.706C68.4585 144.682 68.5754 144.565 68.5988 144.401C68.9961 141.001 64.5786 137.882 64.3917 137.765C64.2748 137.694 64.1112 137.671 63.9943 137.765L51.3964 145.925C51.2561 146.019 51.2094 146.183 51.2561 146.347C51.3029 146.464 51.4431 146.558 51.5834 146.558ZM67.9209 144.026L53.0325 145.691L64.1813 138.468C64.9526 139.078 67.9911 141.517 67.9209 144.026Z" fill="#BE6361"/>
<path d="M69.8843 139.406L70.0947 139.336L70.2583 139.5C71.6139 140.93 72.058 142.994 71.3802 144.589C70.8426 145.831 69.6973 146.558 68.2716 146.558H49.5733L69.8843 139.406Z" fill="#D6219C"/>
<path d="M41.3699 185.789H74.0918C74.2788 185.789 74.4424 185.625 74.4424 185.437V146.206C74.4424 146.019 74.2788 145.855 74.0918 145.855H41.3699C41.1829 145.855 41.0193 146.019 41.0193 146.206V185.437C41.0193 185.625 41.1829 185.789 41.3699 185.789ZM73.7412 185.085H41.7204V146.558H73.7412V185.085Z" fill="#D6219C"/>
<path d="M53.1025 185.766C53.2895 185.766 53.4531 185.601 53.4531 185.414V146.206C53.4531 146.019 53.2895 145.855 53.1025 145.855C52.9155 145.855 52.7519 146.019 52.7519 146.206V185.414C52.7519 185.601 52.9155 185.766 53.1025 185.766Z" fill="#D6219C"/>
<path d="M30.2904 179.2H53.71V185.508H30.2904V179.2Z" fill="white"/>
<path d="M29.9398 185.859H54.0605V178.848H29.9398V185.859ZM53.3594 185.156H30.641V179.551H53.3594V185.156Z" fill="#D6219C"/>
<path d="M16.0092 178.848H30.6406V185.859H16.0092V178.848Z" fill="#BE6361"/>
<path d="M27.0648 172.892H50.4844V179.2H27.0648V172.892Z" fill="white"/>
<path d="M26.7142 179.551H50.835V172.54H26.7142V179.551ZM50.1338 178.848H27.4154V173.244H50.1338V178.848Z" fill="#D6219C"/>
<path d="M12.7837 172.54H27.415V179.551H12.7837V172.54Z" fill="#BE6361"/>
<path d="M50.1338 165.365H27.0648V173.126H50.1338C50.3208 173.126 50.4844 172.962 50.4844 172.775V165.693C50.4844 165.529 50.3441 165.365 50.1338 165.365Z" fill="white"/>
<path d="M26.7142 173.478H50.1338C50.5077 173.478 50.835 173.15 50.835 172.775V165.693C50.835 165.318 50.5311 165.013 50.1338 165.013H26.7142V173.478ZM50.1338 165.716V172.775H27.4154V165.716H50.1338Z" fill="#D6219C"/>
<path d="M12.7837 165.013H27.415V173.478H12.7837V165.013Z" fill="#D6219C"/>
<path d="M30.7582 159.174H54.1777V165.482H30.7582V159.174Z" fill="white"/>
<path d="M30.4076 165.834H54.5283V158.822H30.4076V165.834ZM53.8271 165.13H31.1088V159.526H53.8271V165.13Z" fill="#D6219C"/>
<path d="M16.477 158.822H31.1084V165.834H16.477V158.822Z" fill="#D6219C"/>
<path d="M29.2855 152.819H52.7051V159.127H29.2855V152.819Z" fill="white"/>
<path d="M28.9349 159.479H53.0557V152.468H28.9349V159.479ZM52.3545 158.775H29.6361V153.171H52.3545V158.775Z" fill="#D6219C"/>
<path d="M15.0278 152.468H29.6592V159.479H15.0278V152.468Z" fill="#D6219C"/>
<path d="M44.1282 87.9351H48.8027V185.578H44.1282V87.9351Z" fill="#FCAC98"/>
<path d="M44.1282 87.0205H48.8027V93.7505H44.1282V87.0205Z" fill="#131415"/>
<path d="M19.3528 87.0205H24.0273V93.7505H19.3528V87.0205Z" fill="#131415"/>
<path d="M167.209 161.449H140.634V170.406H167.209C167.419 170.406 167.606 170.219 167.606 170.008V161.847C167.606 161.613 167.443 161.449 167.209 161.449Z" fill="white"/>
<path d="M140.284 170.758H167.209C167.606 170.758 167.957 170.406 167.957 170.008V161.847C167.957 161.425 167.63 161.097 167.209 161.097H140.284V170.758ZM167.209 161.8C167.256 161.8 167.256 161.8 167.256 161.847V170.008C167.256 170.031 167.232 170.055 167.209 170.055H140.985V161.8H167.209Z" fill="#871FFF"/>
<path d="M124.249 161.097H140.984V170.758H124.249V161.097Z" fill="#871FFF"/>
<path d="M144.888 154.297H171.86V161.566H144.888V154.297Z" fill="white"/>
<path d="M144.538 161.918H172.211V153.945H144.538V161.918ZM171.51 161.214H145.239V154.648H171.51V161.214Z" fill="#871FFF"/>
<path d="M128.503 153.945H145.238V161.918H128.503V153.945Z" fill="#871FFF"/>
<path d="M144.35 174.393H171.322V184.64H144.35V174.393Z" fill="white"/>
<path d="M143.999 184.992H171.673V174.041H143.999V184.992ZM170.972 184.288H144.701V174.744H170.972V184.288Z" fill="#871FFF"/>
<path d="M127.966 174.041H144.701V184.992H127.966V174.041Z" fill="#871FFF"/>
<path d="M144.865 170.101H171.837V174.393H144.865V170.101Z" fill="white"/>
<path d="M144.514 174.744H172.188V169.75H144.514V174.744ZM171.486 174.041H145.215V170.453H171.486V174.041Z" fill="#871FFF"/>
<path d="M128.48 169.75H149.539V174.744H128.48V169.75Z" fill="#871FFF"/>
<path d="M49.737 185.015H194.648V185.953H49.737V185.015Z" fill="#EB90CE"/>
<path d="M109.525 31.3284H164.708C166.531 31.3284 168.004 32.8057 168.004 34.6347V70.5356C168.004 72.3647 166.531 73.842 164.708 73.842H109.502C107.702 73.842 106.23 72.3647 106.23 70.5356V34.6347C106.23 32.8057 107.702 31.3284 109.525 31.3284Z" fill="#871FFF"/>
<path d="M112.797 73.4901H167.723C169.43 73.4901 170.809 72.1066 170.809 70.3948V34.7518C170.809 33.04 169.43 31.6565 167.723 31.6565H112.797C111.091 31.6565 109.712 33.04 109.712 34.7518V70.3948C109.735 72.1066 111.114 73.4901 112.797 73.4901Z" fill="white"/>
<path d="M112.797 73.842H167.723C169.617 73.842 171.159 72.2944 171.159 70.395V34.752C171.159 32.8526 169.617 31.3049 167.723 31.3049H112.797C110.904 31.3049 109.361 32.8526 109.361 34.752V70.395C109.385 72.2944 110.927 73.842 112.797 73.842ZM167.723 32.0084C169.243 32.0084 170.458 33.2278 170.458 34.752V70.395C170.458 71.9192 169.243 73.1385 167.723 73.1385H112.797C111.301 73.1385 110.086 71.8957 110.063 70.395V34.752C110.063 33.2278 111.278 32.0084 112.797 32.0084H167.723Z" fill="#871FFF"/>
<path d="M134.159 52.2451C134.323 52.2217 134.487 52.292 134.557 52.4562L143.111 73.3495C143.158 73.4667 143.135 73.584 143.088 73.6778C143.018 73.7716 142.924 73.8419 142.807 73.8419H134.253C134.066 73.8419 133.902 73.6778 133.902 73.4902V52.5969C133.879 52.4327 133.996 52.292 134.159 52.2451Z" fill="#871FFF"/>
<path d="M126.751 84.7457H150.965C152.601 84.7457 153.817 83.1981 153.419 81.6035L146.314 52.5967H134.23L140.891 79.751C141.289 81.3456 140.073 82.9167 138.414 82.8932L126.424 82.8698C126.26 82.8698 126.424 84.2533 126.424 84.4174C126.424 84.605 126.564 84.7457 126.751 84.7457Z" fill="white"/>
<path d="M126.751 85.0976H150.965C151.853 85.0976 152.695 84.699 153.232 83.9955C153.77 83.292 153.98 82.4009 153.746 81.5333L146.571 52.2686H133.763L140.541 79.8684C140.704 80.525 140.564 81.205 140.143 81.7444C139.723 82.2837 139.092 82.5885 138.414 82.5651L126.423 82.5416C126.307 82.5416 126.213 82.5885 126.143 82.6589C125.979 82.823 125.956 83.1279 126.05 84.2065C126.05 84.3238 126.073 84.4176 126.073 84.441C126.073 84.7928 126.377 85.0976 126.751 85.0976ZM146.033 52.9486L153.069 81.6975C153.232 82.354 153.092 83.0341 152.671 83.5499C152.25 84.0893 151.619 84.3941 150.965 84.3941H126.774C126.774 84.3472 126.774 84.2534 126.751 84.1127C126.727 83.9251 126.704 83.4796 126.704 83.2217L138.414 83.2451C139.302 83.2686 140.143 82.8699 140.704 82.1664C141.265 81.463 141.452 80.5484 141.242 79.6808L134.697 52.972H146.033V52.9486Z" fill="#871FFF"/>
<path d="M115.969 19.4628L117.051 21.5413L110.546 24.9506L109.464 22.8722L115.969 19.4628Z" fill="#FEE3DD"/>
<path d="M96.4506 8.68609L98.7334 9.18994L97.2418 15.9923L94.959 15.4884L96.4506 8.68609Z" fill="#FEE3DD"/>
<path d="M74.2028 12.8971L79.6543 17.8267L78.0895 19.5685L72.638 14.6389L74.2028 12.8971Z" fill="#FEE3DD"/>
<path d="M56.5859 185.977C44.1049 185.977 38.4019 167.616 23.7004 169.398C19.2829 169.937 14.3513 160.862 12.3412 157.439C8.99891 151.764 0.140625 154.062 0.140625 160.604V185.977H56.5859Z" fill="url(#paint7_linear)"/>
<path d="M26.0201 22.6113C31.1229 22.6113 35.4776 25.8494 37.1904 30.4059C37.7082 30.1995 38.2718 30.0848 38.862 30.0848C41.383 30.0848 43.4268 32.1534 43.4268 34.7051H37.9684H34.2973H14.0718C14.072 28.0258 19.4213 22.6113 26.0201 22.6113ZM8.20727 15.6101C8.61739 15.6101 8.99745 15.7389 9.31112 15.9584C9.87284 14.9399 10.9476 14.2506 12.1819 14.2506C13.4307 14.2506 14.5167 14.9556 15.0729 15.9938C15.7328 13.9248 17.6506 12.4282 19.9142 12.4282C22.7236 12.4282 25.0009 14.7333 25.0009 17.5768H15.4682H14.8275H10.1506H8.89568H6.26398C6.26398 16.4907 7.13405 15.6101 8.20727 15.6101Z" fill="url(#paint8_linear)"/>
<path d="M149.752 2.15561C150.664 2.15561 151.537 2.32515 152.34 2.63371C154.028 1.00349 156.325 0 158.857 0C164.037 0 168.237 4.19952 168.237 9.37973H156.977H149.477H142.527C142.527 5.38988 145.762 2.15561 149.752 2.15561Z" fill="#FCAC98"/>
<defs>
<linearGradient id="paint0_linear" x1="163.341" y1="113.33" x2="163.341" y2="183.076" gradientUnits="userSpaceOnUse">
<stop stop-color="#F9D5FF"/>
<stop offset="0.9958" stop-color="white"/>
</linearGradient>
<linearGradient id="paint1_linear" x1="137.804" y1="86.17" x2="91.6546" y2="86.17" gradientUnits="userSpaceOnUse">
<stop stop-color="#D5279B"/>
<stop offset="1" stop-color="#FEA18C"/>
</linearGradient>
<linearGradient id="paint2_linear" x1="103.981" y1="183.843" x2="103.981" y2="75.9977" gradientUnits="userSpaceOnUse">
<stop stop-color="#9774AC"/>
<stop offset="0.401" stop-color="#47A6D3"/>
<stop offset="0.5908" stop-color="#E89AC0"/>
<stop offset="1" stop-color="#BFE7D1"/>
</linearGradient>
<linearGradient id="paint3_linear" x1="109.735" y1="183.843" x2="109.735" y2="75.9977" gradientUnits="userSpaceOnUse">
<stop stop-color="#9774AC"/>
<stop offset="0.401" stop-color="#47A6D3"/>
<stop offset="0.5011" stop-color="#B8C1FC"/>
<stop offset="0.5908" stop-color="#E89AC0"/>
<stop offset="1" stop-color="#FFA78C"/>
</linearGradient>
<linearGradient id="paint4_linear" x1="85.0042" y1="83.0464" x2="50.4296" y2="83.0464" gradientUnits="userSpaceOnUse">
<stop stop-color="#D5279B"/>
<stop offset="1" stop-color="#FEA18C"/>
</linearGradient>
<linearGradient id="paint5_linear" x1="114.253" y1="183.843" x2="114.253" y2="75.9978" gradientUnits="userSpaceOnUse">
<stop stop-color="#9774AC"/>
<stop offset="0.401" stop-color="#47A6D3"/>
<stop offset="0.5908" stop-color="#E89AC0"/>
<stop offset="0.869792" stop-color="#FFC4AD"/>
</linearGradient>
<linearGradient id="paint6_linear" x1="101.146" y1="100.34" x2="101.146" y2="111.572" gradientUnits="userSpaceOnUse">
<stop stop-color="#F8B6B4"/>
<stop offset="1" stop-color="#EFA7BB"/>
</linearGradient>
<linearGradient id="paint7_linear" x1="28.3632" y1="159.886" x2="28.3632" y2="184.929" gradientUnits="userSpaceOnUse">
<stop stop-color="#A13BE7"/>
<stop offset="0.9958" stop-color="white"/>
</linearGradient>
<linearGradient id="paint8_linear" x1="41.6224" y1="33.7311" x2="7.70935" y2="33.7311" gradientUnits="userSpaceOnUse">
<stop stop-color="#7FC6F4"/>
<stop offset="1" stop-color="#8728FB"/>
</linearGradient>
</defs>
</svg>
