<svg width="230" height="227" viewBox="0 0 230 227" fill="none" xmlns="http://www.w3.org/2000/svg">
<path fill-rule="evenodd" clip-rule="evenodd" d="M142.439 135.352L112.527 134.073L122.017 158.649L135.001 155.001L135.7 201.412L135.7 201.7H151.152C152.78 201.7 154.1 200.392 154.1 198.779C154.1 197.165 152.78 195.857 151.152 195.857H149.119C149.393 191.338 152.207 144.885 152.177 144.503C152.023 139.278 147.664 135.198 142.439 135.352Z" fill="#871FFF"/>
<path d="M8.50146 107.394C8.50146 102.231 15.9517 101.458 17.0337 106.497C18.5485 113.669 20.4652 121.985 30.0176 125.231C40.7447 128.879 38.0243 142.419 57.7783 147.829C77.5324 153.239 59.7878 196.272 93.9786 203.722H8.50146V107.394Z" fill="url(#paint0_linear)"/>
<path d="M198.375 131.754H30.3574V134.783H198.375V131.754Z" fill="#131415"/>
<path d="M198.282 134.814H193.8V203.32H198.282V134.814Z" fill="#D6219C"/>
<path d="M174.571 134.814H170.089V203.32H174.571V134.814Z" fill="#D6219C"/>
<path d="M34.964 134.814H30.4814V203.32H34.964V134.814Z" fill="#D6219C"/>
<path d="M58.6749 134.814H54.1924V203.32H58.6749V134.814Z" fill="#D6219C"/>
<path d="M165.266 60.5901H63.4971V121.522H165.266V60.5901Z" fill="#2B2B2B"/>
<path d="M166.162 122.418H62.6006V59.6936H166.162V122.418ZM64.3936 120.625H164.369V61.4866H64.3936V120.625Z" fill="#2B2B2B"/>
<path fill-rule="evenodd" clip-rule="evenodd" d="M101.954 19.9072H85.6934C81.2727 19.9072 77.6867 23.4932 77.7176 27.914V31.6236C77.7176 36.0134 81.2727 39.5994 85.6934 39.5994H92.887L94.5361 63.758L96.7568 63.6064L95.118 39.5994H101.954C106.344 39.5994 109.93 36.0443 109.93 31.6236V27.883C109.93 23.4933 106.375 19.9072 101.954 19.9072ZM161.247 39.5994H151.852L147.212 63.8779L145.026 63.4601L149.586 39.5994H144.986C140.566 39.5994 137.011 36.0134 137.011 31.6236V27.914C137.011 23.4932 140.597 19.9072 144.986 19.9072H161.247C165.668 19.9072 169.223 23.4933 169.223 27.883V31.6236C169.223 36.0443 165.637 39.5994 161.247 39.5994ZM46.8964 80.375C47.9165 81.6115 49.2767 82.2916 50.7297 82.2916C51.0079 82.2916 51.2861 82.2607 51.5644 82.1989C53.2955 81.8898 54.6867 80.715 55.274 79.0766C55.6759 77.9019 55.9851 75.5215 53.481 72.6465C53.4656 72.631 53.4424 72.6001 53.4192 72.5692C53.396 72.5383 53.3728 72.5074 53.3574 72.4919C56.6652 71.3172 61.055 70.6371 66.4958 70.4207L66.4031 68.1949C59.4165 68.4731 54.7485 69.4623 51.688 70.7298C48.8095 67.819 44.9158 64.4851 41.7948 61.9187C42.1543 61.0109 42.352 60.0206 42.352 58.9825V55.2419C42.352 50.8521 38.7969 47.2661 34.3762 47.2661H18.1155C13.7257 47.2661 10.1706 50.8521 10.1396 55.2419V58.9825C10.1396 63.3723 13.6948 66.9583 18.1155 66.9583H34.3762C36.931 66.9583 39.2136 65.7541 40.6755 63.876C43.5122 66.2182 46.9205 69.1453 49.555 71.75C47.4837 72.9556 46.4945 74.254 46.0617 75.2433C45.2888 76.9435 45.5671 78.7984 46.8964 80.375ZM48.1329 76.1398C48.5657 75.1505 49.6168 74.2231 51.1934 73.4193C51.4098 73.6666 51.6262 73.883 51.8117 74.0685C53.141 75.5524 53.6047 77.0672 53.1719 78.2728C52.8628 79.1384 52.1208 79.7876 51.1934 79.9422C50.6369 80.0658 49.5859 80.0658 48.6585 78.922C47.8856 78.0255 47.7001 77.0672 48.1329 76.1398ZM27.5133 94.1935H43.7432C48.1639 94.1935 51.719 97.7796 51.719 102.169V105.91C51.719 106.234 51.6996 106.554 51.6621 106.868H65.723V109.094H51.0587C49.8274 111.92 47.0075 113.886 43.7432 113.886H27.4824C23.0617 113.886 19.5066 110.3 19.5066 105.91V102.169C19.5066 97.7796 23.0926 94.1935 27.5133 94.1935ZM203.105 97.8105H186.844C182.454 97.8105 178.899 101.366 178.868 105.817V106.868H163.535V109.094H178.868V109.527C178.868 113.917 182.423 117.503 186.844 117.503H203.105C207.495 117.503 211.081 113.948 211.081 109.527V105.786C211.081 101.396 207.525 97.8105 203.105 97.8105ZM212.904 46.6788H196.644C192.223 46.6788 188.637 50.2339 188.668 54.6546V58.3952C188.668 59.3584 188.839 60.2829 189.153 61.1393C185.903 63.7782 181.469 67.5186 178.281 70.7607C175.22 69.4933 170.552 68.504 163.566 68.2258L163.473 70.4516C168.883 70.668 173.335 71.3481 176.611 72.5228C176.596 72.5383 176.573 72.5692 176.55 72.6001C176.526 72.631 176.503 72.6619 176.488 72.6774C173.953 75.5833 174.293 77.9328 174.695 79.1075C175.282 80.7459 176.704 81.9516 178.404 82.2298C178.683 82.2607 178.961 82.2916 179.239 82.2916C180.692 82.2916 182.083 81.6115 183.072 80.4059C184.371 78.8293 184.68 77.0054 183.907 75.2742C183.443 74.2849 182.485 72.9865 180.414 71.7809C183.35 68.8778 187.239 65.5831 190.231 63.1387C191.682 65.0972 194.009 66.371 196.644 66.371H212.904C217.294 66.371 220.88 62.8159 220.88 58.3952V54.6546C220.88 50.2648 217.325 46.6788 212.904 46.6788ZM178.806 73.4193C178.702 73.5386 178.598 73.6506 178.497 73.759C178.388 73.8753 178.284 73.9874 178.188 74.0994C176.89 75.5833 176.395 77.0981 176.828 78.3037C177.137 79.1693 177.91 79.7876 178.806 79.9731C179.363 80.0658 180.445 80.0658 181.341 78.9529C182.114 78.0255 182.269 77.0981 181.867 76.1707C181.434 75.1814 180.383 74.254 178.806 73.4193Z" fill="#FEE3DD"/>
<path d="M116.979 68.1948H70.5767V70.4206H116.979V68.1948Z" fill="#5E41F4"/>
<path d="M158.187 68.1948H127.025V70.4206H158.187V68.1948Z" fill="#FFA300"/>
<path d="M94.5968 74.625H70.5767V76.8508H94.5968V74.625Z" fill="#FF288C"/>
<path d="M158.187 74.625H104.644V76.8508H158.187V74.625Z" fill="#3ACDFF"/>
<path d="M104.613 81.0859H70.5767V83.3117H104.613V81.0859Z" fill="#5E41F4"/>
<path d="M158.156 81.0859H122.821V83.3117H158.156V81.0859Z" fill="#FF75C2"/>
<path d="M99.9759 87.5471H70.5767V89.7729H99.9759V87.5471Z" fill="#FFA300"/>
<path d="M158.187 87.5471H127.025V89.7729H158.187V87.5471Z" fill="#FF288C"/>
<path d="M102.758 93.9771H70.5767V96.2029H102.758V93.9771Z" fill="#FF288C"/>
<path d="M158.187 93.9771H125.48V96.2029H158.187V93.9771Z" fill="#5E41F4"/>
<path d="M87.6103 100.407H70.5767V102.633H87.6103V100.407Z" fill="#3ACDFF"/>
<path d="M158.156 100.407H97.5952V102.633H158.156V100.407Z" fill="#5E41F4"/>
<path d="M106.097 106.868H70.5767V109.094H106.097V106.868Z" fill="#5E41F4"/>
<path d="M158.156 106.868H116.113V109.094H158.156V106.868Z" fill="#FFA300"/>
<path d="M116.979 113.329H70.5767V115.555H116.979V113.329Z" fill="#3ACDFF"/>
<path d="M158.187 113.329H127.025V115.555H158.187V113.329Z" fill="#FF288C"/>
<path fill-rule="evenodd" clip-rule="evenodd" d="M84.8587 133.052L117.071 134.073L104.365 159.546L94.5966 155.001L93.7248 193.449V201.7H77.3065C75.5771 201.7 74.1748 200.32 74.1748 198.616C74.1748 196.913 75.5767 195.532 77.3065 195.532H80.4315C79.8057 189.328 75.092 142.578 75.1208 142.203C75.2754 136.978 79.6343 132.898 84.8587 133.052Z" fill="#871FFF"/>
<path d="M76.636 125.911C77.3161 130.208 81.304 133.145 85.632 132.496C85.8174 132.465 85.972 132.434 86.1266 132.403L87.0231 132.187C91.2274 131.259 93.8551 127.117 92.9586 122.913C92.1548 119.265 88.8779 116.699 85.1373 116.792L84.2099 116.823C79.882 116.946 76.4196 120.563 76.5433 124.891C76.5433 125.262 76.6051 125.571 76.636 125.911Z" fill="#FCAC98"/>
<path d="M157.043 123.284C156.363 127.581 152.375 130.517 148.078 129.868C147.892 129.837 147.738 129.806 147.552 129.775L146.656 129.559C142.482 128.601 139.824 124.427 140.782 120.254C141.617 116.668 144.863 114.102 148.541 114.195L149.469 114.226C153.797 114.349 157.259 117.966 157.136 122.294C157.136 122.634 157.074 122.974 157.043 123.284Z" fill="#FCAC98"/>
<path d="M153.117 128.013L152.159 140.255L139.144 139.421L140.813 120.316H146.007C149.964 120.316 153.179 123.5 153.179 127.488C153.117 127.643 153.117 127.828 153.117 128.013Z" fill="white"/>
<path d="M96.0808 140.008C93.0512 148.293 97.07 159.762 106.468 159.515C113.702 159.329 114.227 159.608 117.257 159.546C126.933 159.298 133.332 149.313 130.334 140.101L96.0808 140.008Z" fill="url(#paint1_linear)"/>
<path d="M147.645 130.487L152.128 140.224C154.044 144.398 152.189 149.282 148.047 151.199C147.985 151.23 147.923 151.23 147.861 151.261C144.461 152.714 140.504 151.724 138.185 148.849L125.325 132.898L127.984 106.992L134.074 112.278C139.824 117.317 144.461 123.531 147.645 130.487Z" fill="white"/>
<path d="M79.6965 130.487L75.2139 140.224C73.2973 144.398 75.1521 149.282 79.2946 151.199C79.3564 151.23 79.4182 151.23 79.4801 151.261C82.8806 152.714 86.8376 151.724 89.1561 148.849L102.016 132.898L99.3577 106.992L93.2986 112.309C87.5177 117.317 82.8806 123.531 79.6965 130.487Z" fill="white"/>
<path d="M118.4 111.258L126.469 106.126C126.469 106.126 123.192 103.993 117.597 104.055L118.4 111.258Z" fill="#2B2B2B"/>
<path d="M130.364 140.101C129.839 138.524 129.56 136.917 129.56 135.278C129.56 132.496 136.238 128.261 136.052 119.852C135.898 113.391 128.88 103.87 117.628 104.086L108.539 104.519C98.6465 104.704 90.8561 113.391 90.4543 120.254H90.4233C90.4233 120.471 90.4543 120.625 90.4543 120.842C90.4543 120.903 90.4543 120.965 90.4543 121.027C91.0725 132.465 99.0793 131.909 96.1115 140.039L130.364 140.101Z" fill="white"/>
<path d="M130.148 139.266C130.055 139.266 129.931 139.235 129.869 139.143L126.562 135.062C126.438 134.938 126.469 134.691 126.593 134.598C126.716 134.475 126.964 134.506 127.056 134.629L130.364 138.71C130.488 138.833 130.457 139.081 130.333 139.174C130.302 139.235 130.24 139.266 130.148 139.266Z" fill="#2B2B2B"/>
<path d="M97.2747 179.347L94.9424 202.975L99.4034 203.415L101.736 179.787L97.2747 179.347Z" fill="#131415"/>
<path d="M131.509 179.33L127.048 179.771L129.381 203.399L133.842 202.958L131.509 179.33Z" fill="#131415"/>
<path fill-rule="evenodd" clip-rule="evenodd" d="M98.1521 180.753H130.612C136.269 180.753 140.968 176.363 141.37 170.737L141.785 164.628C144.423 164.732 146.723 162.725 146.934 160.071L147.151 157.444C147.366 154.733 145.342 152.33 142.637 152.098L143.07 145.727C143.101 145.48 143.101 145.233 143.101 144.985C143.101 139.019 138.248 134.196 132.312 134.196H96.4518C96.2045 134.196 95.9572 134.196 95.7099 134.227C89.7744 134.629 85.2919 139.761 85.6937 145.696L86.1309 152.127C83.3924 152.203 81.2735 154.546 81.3967 157.258L81.5204 159.886C81.5822 162.637 83.9317 164.77 86.6521 164.647H86.683C86.783 164.642 86.8823 164.635 86.9806 164.625L87.394 170.706C87.7959 176.363 92.4948 180.753 98.1521 180.753Z" fill="url(#paint2_linear)"/>
<path d="M184.866 201.341H26.8952C26.2123 201.341 25.6587 201.895 25.6587 202.578C25.6587 203.261 26.2123 203.814 26.8952 203.814H184.866C185.549 203.814 186.102 203.261 186.102 202.578C186.102 201.895 185.549 201.341 184.866 201.341Z" fill="#E1E2E6"/>
<path d="M31.316 107.208L26.2461 104.859V103.591L31.316 101.242V102.633L27.6063 104.21L31.316 105.817V107.208Z" fill="#5E41F4"/>
<path d="M33.7272 108.754H32.3052L37.5606 97.9651H38.9826L33.7272 108.754Z" fill="#5E41F4"/>
<path d="M39.9409 101.211L45.0108 103.56V104.828L39.9409 107.208V105.817L43.6506 104.241L39.9409 102.633V101.211Z" fill="#5E41F4"/>
<path d="M91.1965 25.2554C90.2999 25.2554 89.7126 25.75 89.7744 26.6156L89.8053 27.3267C89.8362 28.3777 89.3725 29.1506 88.4142 29.5215C89.3725 29.8925 89.8362 30.6654 89.8053 31.7164L89.7744 32.4275C89.7435 33.293 90.2999 33.7877 91.1965 33.7877H91.5056V35.0861H91.1965C89.2489 35.0861 88.2287 34.0041 88.3215 32.242L88.3524 31.531C88.3833 30.6654 87.8268 30.1707 86.8994 30.1707V28.8724C87.8268 28.8724 88.3833 28.3777 88.3524 27.5121L88.3215 26.8011C88.2287 25.0699 89.2489 23.957 91.1965 23.957H91.5056V25.2554H91.1965Z" fill="#FFA300"/>
<path d="M96.4825 33.8184C97.379 33.8184 97.9663 33.3238 97.9045 32.4582L97.8736 31.7472C97.8427 30.6961 98.3064 29.9233 99.2647 29.5523C98.3064 29.1813 97.8427 28.4085 97.8736 27.3574L97.9045 26.6464C97.9354 25.7808 97.379 25.2862 96.4825 25.2862H96.1733V23.9878H96.4825C98.4301 23.9878 99.4502 25.0698 99.3575 26.8319L99.3266 27.5429C99.2956 28.4085 99.8521 28.9031 100.78 28.9031V30.2015C99.8521 30.2015 99.2956 30.6961 99.3266 31.5617L99.3575 32.2727C99.4502 34.0039 98.4301 35.1168 96.4825 35.1168H96.1733V33.8184H96.4825Z" fill="#FFA300"/>
<path d="M25.2259 52.7688C25.2259 53.2943 24.7931 53.7271 24.2367 53.7271C23.6802 53.7271 23.2783 53.2943 23.2783 52.7379C23.2783 52.2123 23.7111 51.7795 24.2367 51.7795C24.7622 51.7795 25.195 52.2123 25.2259 52.7688ZM24.9168 61.2701H23.5256V54.9637H24.9168V61.2701Z" fill="#D6219C"/>
<path d="M31.1615 56.2311H28.9975V61.301H27.6063V56.2311H26.3389V54.9636H27.6063V53.8816C27.6063 52.6142 28.2555 51.594 29.7394 51.594C30.3577 51.594 30.976 51.7486 31.5015 52.0577L31.0069 53.2324C30.6359 53.016 30.234 52.8924 29.8321 52.8924C29.3066 52.8924 28.9975 53.2633 28.9975 53.8816V54.9636H31.1615V56.2311Z" fill="#D6219C"/>
<path fill-rule="evenodd" clip-rule="evenodd" d="M204.434 106.126L204.743 104.859C204.444 104.739 204.115 104.706 203.814 104.676L203.785 104.673C203.105 104.642 202.456 104.951 202.085 105.477V104.828H200.817V110.671H202.085V107.486C202.085 106.497 202.672 105.91 203.476 105.91C203.816 105.91 204.125 106.003 204.434 106.126ZM198.808 110.671H197.54V109.99C197.107 110.547 196.427 110.856 195.716 110.825C194.078 110.825 192.81 109.558 192.81 107.765C192.81 105.972 194.078 104.704 195.716 104.704C196.427 104.673 197.107 104.982 197.54 105.539V104.859H198.808V110.671ZM194.14 107.765C194.14 108.785 194.82 109.65 195.902 109.65C196.953 109.65 197.664 108.847 197.664 107.765C197.664 106.683 196.953 105.879 195.902 105.879C194.789 105.91 194.14 106.714 194.14 107.765ZM189.843 110.671H188.359L186.009 104.828H187.4L189.132 109.341L190.863 104.828H192.192L189.843 110.671Z" fill="#FA7454"/>
<path d="M148.696 29.8306C148.696 29.9851 148.696 30.1088 148.665 30.2634H144.739C144.801 31.0671 145.512 31.6854 146.316 31.6236C146.872 31.5927 147.398 31.4072 147.862 31.0671L148.449 31.9018C147.831 32.4273 147.058 32.6747 146.254 32.6437C144.678 32.6437 143.534 31.5308 143.534 29.8615C143.534 28.1921 144.616 27.0792 146.192 27.0792C147.676 27.0483 148.696 28.1921 148.696 29.8306ZM144.77 29.3978H147.522C147.398 28.5631 146.903 28.0685 146.192 28.0685C145.327 28.0994 144.863 28.6249 144.77 29.3978Z" fill="#5E41F4"/>
<path d="M151.293 32.5201H150.118V24.5134H151.293V32.5201Z" fill="#5E41F4"/>
<path d="M156.734 28.5323C156.239 28.2541 155.652 28.0995 155.096 28.0995C154.477 28.0995 154.075 28.3468 154.075 28.7178C154.075 29.0887 154.446 29.1815 154.941 29.2742L155.497 29.367C156.672 29.5215 157.352 30.0162 157.352 30.9436C157.352 31.9637 156.456 32.6748 154.941 32.6748C154.137 32.7057 153.333 32.4584 152.653 31.9947L153.179 31.1291C153.673 31.5 154.292 31.7164 154.91 31.6546C155.683 31.6546 156.116 31.4073 156.116 31.0054C156.116 30.7272 155.837 30.5108 155.188 30.418L154.632 30.3562C153.457 30.2016 152.808 29.6452 152.808 28.7796C152.808 27.7285 153.643 27.0793 155.003 27.0793C155.776 27.0484 156.487 27.2648 157.136 27.6358L156.734 28.5323Z" fill="#5E41F4"/>
<path d="M163.535 29.8306C163.535 29.9851 163.535 30.1088 163.504 30.2634H159.578C159.64 31.0671 160.351 31.6854 161.155 31.6236C161.711 31.5927 162.237 31.4072 162.701 31.0671L163.288 31.9018C162.67 32.4273 161.897 32.6747 161.093 32.6437C159.516 32.6437 158.373 31.5308 158.373 29.8615C158.373 28.1921 159.455 27.0792 161 27.0792C162.484 27.0483 163.504 28.1921 163.535 29.8306ZM159.578 29.3978H162.33C162.206 28.5631 161.711 28.0685 161 28.0685C160.135 28.0994 159.671 28.6249 159.578 29.3978Z" fill="#5E41F4"/>
<path d="M206.104 53.1089C206.104 53.82 205.516 54.4073 204.805 54.4073C204.094 54.4073 203.507 53.82 203.507 53.1089C203.507 52.3979 204.094 51.8105 204.805 51.8105C205.516 51.8415 206.073 52.3979 206.104 53.1089ZM205.794 57.1278L204.898 61.2084H203.569L203.971 57.1278H205.794Z" fill="#80C7F5"/>
<path d="M172.036 203.753C185.329 203.753 184.247 186.317 200.199 188.079C205.671 188.698 208.947 181.804 210.679 178.805C213.615 173.859 221.344 175.837 221.344 181.587V203.722H172.036V203.753Z" fill="url(#paint3_linear)"/>
<circle cx="113.763" cy="89.4327" r="8.34677" fill="#FEC73A"/>
<defs>
<linearGradient id="paint0_linear" x1="51.24" y1="103.094" x2="51.24" y2="203.722" gradientUnits="userSpaceOnUse">
<stop stop-color="#80C8F6"/>
<stop offset="1" stop-color="white"/>
</linearGradient>
<linearGradient id="paint1_linear" x1="113.178" y1="140.501" x2="110.886" y2="273.129" gradientUnits="userSpaceOnUse">
<stop stop-color="#9774AC"/>
<stop offset="0.4" stop-color="#47A6D3"/>
<stop offset="0.5" stop-color="#A7A7AE"/>
<stop offset="0.59" stop-color="#E89AC0"/>
<stop offset="1" stop-color="#BFE7D1"/>
</linearGradient>
<linearGradient id="paint2_linear" x1="114.382" y1="134.258" x2="114.382" y2="180.629" gradientUnits="userSpaceOnUse">
<stop stop-color="#D5279B"/>
<stop offset="1" stop-color="#FEA18C"/>
</linearGradient>
<linearGradient id="paint3_linear" x1="205.114" y1="175.992" x2="213.019" y2="198.531" gradientUnits="userSpaceOnUse">
<stop stop-color="#FFA68D"/>
<stop offset="1" stop-color="white"/>
</linearGradient>
</defs>
</svg>
