<?xml version="1.0" encoding="utf-8"?>
<!-- Generator: Adobe Illustrator 24.0.1, SVG Export Plug-In . SVG Version: 6.00 Build 0)  -->
<svg version="1.1" id="Layer_1" xmlns="http://www.w3.org/2000/svg" xmlns:xlink="http://www.w3.org/1999/xlink" x="0px" y="0px"
	 viewBox="0 0 510.08 50" style="enable-background:new 0 0 510.08 50;" xml:space="preserve">
<style type="text/css">
	.st0{fill:#000000;}
</style>
<g>
	<g>
		<path class="st0" d="M19.65,23.61l-8.5-18.87H2.27L15,33.41c0.06,0.12,0.23,0.12,0.29,0L19.65,23.61z"/>
		<path class="st0" d="M38.2,4.74c0,0-11.52,25.98-12.96,29.16c-3.44,7.6-6,9.5-8.6,9.91c-0.02,0-0.04,0.02-0.04,0.05
			c0,0.03,0.02,0.05,0.05,0.05h8.13c3.58,0,6.03-2.41,9.48-10.01c1.21-2.66,12.97-29.16,12.97-29.16H38.2z"/>
	</g>
	<path class="st0" d="M94.12,14.54c-5.74,0-9.44,3.72-9.44,9.79c0,6.07,3.7,9.79,9.44,9.79c5.73,0,9.44-3.72,9.44-9.79
		C103.56,18.26,99.85,14.54,94.12,14.54z M94.12,31.03c-3.67,0-6.07-2.39-6.07-6.7c0-4.31,2.4-6.7,6.07-6.7
		c3.66,0,6.07,2.39,6.07,6.7C100.19,28.64,97.78,31.03,94.12,31.03z"/>
	<path class="st0" d="M123.05,14.97v18.72h-3.89l-9.26-13.72v13.72h-3.32V14.97h3.9l9.26,13.81V14.97H123.05z"/>
	<polygon class="st0" points="180.39,18.1 180.39,14.97 166.93,14.97 166.93,33.69 180.39,33.69 180.39,30.56 170.24,30.56 
		170.24,25.64 179.6,25.64 179.6,22.5 170.24,22.5 170.24,18.1 	"/>
	<path class="st0" d="M80.52,14.97L73.81,29.7c-0.03,0.08-0.14,0.08-0.18,0l-6.71-14.73h-3.79c0,0,6.57,14.48,7.07,15.6
		c1.03,2.28,1.89,3.34,3.52,3.34s2.48-1.05,3.52-3.34c0.51-1.12,7.07-15.6,7.07-15.6H80.52z"/>
	<path class="st0" d="M138.49,18.11c-1-2.3-1.75-3.34-3.31-3.34l0,0c0,0,0,0,0,0c0,0,0,0,0,0l0,0c-1.56,0-2.31,1.04-3.31,3.34
		c-0.49,1.12-6.78,15.6-6.78,15.6h3.5l1.94-4.53h9.31l1.94,4.53h3.5C145.26,33.71,138.97,19.22,138.49,18.11z M131.86,26.03
		l3.22-7.58c0.03-0.08,0.15-0.08,0.18,0l3.22,7.58H131.86z"/>
	<path class="st0" d="M154.44,23.53v2.84h5.62c-0.25,2.52-2.66,4.62-5.5,4.62c-3.37,0-5.81-2.46-5.81-6.53c0,0,0,0,0,0l0,0
		c0,0,0,0,0,0c0-4.23,2.26-6.83,6.12-6.83c2.3,0,4.2,1.1,4.83,3.01h3.43c-0.74-3.83-4.15-6.1-8.26-6.1c-5.86,0-9.49,3.84-9.49,10
		c0,5.98,3.96,9.58,8.9,9.58c4.24,0,5.85-2.47,6.3-3.26v2.83h2.94V23.53H154.44z"/>
</g>
<rect x="200.03" y="7.48" class="st0" width="0.49" height="30.3"/>
<g>
	<g>
		<path class="st0" d="M226.36,17.16v14.37H224l-7.71-11.28v11.28h-2.05V17.16h2.35l7.72,11.33V17.16H226.36z"/>
		<path class="st0" d="M239.42,26.89h-8.32c0.11,1.73,1.3,3.04,3.44,3.04c1.63,0,2.58-0.75,3.15-1.63l1.56,0.92
			c-0.98,1.43-2.49,2.47-4.81,2.47c-3.39,0-5.31-2.18-5.31-5.43c0-3.43,2.14-5.57,5.38-5.57c2.97,0,4.91,1.8,4.91,4.79V26.89z
			 M231.11,25.24h6.32c-0.06-1.87-1.15-2.79-2.95-2.79C232.51,22.45,231.36,23.57,231.11,25.24z"/>
		<path class="st0" d="M248.98,31.53l-3-4.07l-2.99,4.07h-2.5l4.24-5.44l-4.04-5.2h2.48l2.81,3.82l2.82-3.82h2.47l-4.05,5.2
			l4.25,5.44H248.98z"/>
		<path class="st0" d="M255.24,20.89v1.75c0.54-1.01,1.55-1.95,3.48-1.95c1.82,0,2.82,0.88,3.32,2.41c0.56-1.26,1.71-2.41,3.93-2.41
			c2.5,0,3.89,1.46,3.89,3.71v7.13h-1.97v-6.3c0-1.73-0.83-2.71-2.41-2.71c-1.86,0-2.92,1.38-2.92,3.1v5.91h-1.98v-6.3
			c0-1.72-0.81-2.71-2.38-2.71c-1.87,0-2.94,1.39-2.94,3.1v5.91h-1.98V20.89H255.24z"/>
		<path class="st0" d="M283.02,26.2c0,3.32-2.08,5.49-5.35,5.49c-3.26,0-5.35-2.17-5.35-5.49c0-3.33,2.09-5.51,5.35-5.51
			C280.94,20.69,283.02,22.88,283.02,26.2z M274.3,26.2c0,2.35,1.31,3.73,3.37,3.73c2.06,0,3.38-1.37,3.38-3.73
			c0-2.36-1.31-3.74-3.38-3.74C275.61,22.46,274.3,23.84,274.3,26.2z"/>
		<path class="st0" d="M292.58,19.13h-2.26v-2.3h2.26V19.13z M292.44,31.53h-1.98V20.89h1.98V31.53z"/>
		<path class="st0" d="M302.74,24.16c-0.44-1.14-1.51-1.79-3.15-1.79c-1.53,0-2.41,0.57-2.41,1.45c0,1.13,1.43,1.3,3.06,1.49
			c2.06,0.24,4.47,0.49,4.47,2.89c0,2.14-1.92,3.5-4.6,3.5c-2.35,0-4.36-1.03-5.1-3.01l1.81-0.68c0.51,1.42,1.89,2.02,3.37,2.02
			c1.49,0,2.55-0.62,2.55-1.58c0-1.13-1.44-1.31-3.07-1.51c-2.07-0.26-4.44-0.56-4.44-2.96c0-2.07,1.75-3.29,4.45-3.29
			c2.62,0,4.22,1.15,4.81,2.81L302.74,24.16z"/>
		<path class="st0" d="M314.12,20.89v1.79c0.58-1.04,1.62-1.99,3.71-1.99c2.62,0,4.11,1.49,4.11,3.86v6.98h-1.97v-6.21
			c0-1.78-0.88-2.8-2.61-2.8c-2.09,0-3.24,1.48-3.24,3.25v5.76h-1.98V20.89H314.12z"/>
		<path class="st0" d="M335.11,26.2c0,3.32-2.08,5.49-5.35,5.49c-3.26,0-5.35-2.17-5.35-5.49c0-3.33,2.09-5.51,5.35-5.51
			C333.02,20.69,335.11,22.88,335.11,26.2z M326.39,26.2c0,2.35,1.31,3.73,3.37,3.73c2.06,0,3.38-1.37,3.38-3.73
			c0-2.36-1.31-3.74-3.38-3.74C327.7,22.46,326.39,23.84,326.39,26.2z"/>
		<path class="st0" d="M353.01,20.89l-3.68,10.64h-2l-2.71-7.82l-2.71,7.82h-2l-3.68-10.64h2.09l2.59,8.43l2.69-8.43h2.04l2.69,8.43
			l2.59-8.43H353.01z"/>
		<path class="st0" d="M372.07,17.16l-5.73,14.37h-2.28l-5.73-14.37h2.21l4.66,11.92l4.67-11.92H372.07z"/>
		<path class="st0" d="M383.55,26.2c0,3.32-2.08,5.49-5.35,5.49c-3.26,0-5.35-2.17-5.35-5.49c0-3.33,2.09-5.51,5.35-5.51
			C381.46,20.69,383.55,22.88,383.55,26.2z M374.83,26.2c0,2.35,1.31,3.73,3.37,3.73c2.06,0,3.38-1.37,3.38-3.73
			c0-2.36-1.31-3.74-3.38-3.74C376.14,22.46,374.83,23.84,374.83,26.2z"/>
		<path class="st0" d="M388.11,20.89v1.79c0.58-1.04,1.62-1.99,3.71-1.99c2.62,0,4.11,1.49,4.11,3.86v6.98h-1.97v-6.21
			c0-1.78-0.88-2.8-2.61-2.8c-2.09,0-3.24,1.48-3.24,3.25v5.76h-1.98V20.89H388.11z"/>
		<path class="st0" d="M408.13,24.14v7.4h-1.95v-1.69c-0.84,1.24-2.24,1.85-3.99,1.85c-2.42,0-3.79-1.18-3.79-3.19
			c0-2.79,2.65-2.97,4.86-3.17c1.69-0.15,2.9-0.29,2.9-1.38c0-0.91-0.85-1.5-2.43-1.5c-1.67,0-2.8,0.67-3.31,1.89l-1.82-0.62
			c0.71-1.87,2.51-3.04,5.14-3.04C406.56,20.69,408.13,22.01,408.13,24.14z M406.16,27.24v-0.9c-0.84,0.3-1.84,0.42-2.78,0.52
			c-1.66,0.17-3.01,0.25-3.01,1.59c0,1.09,0.86,1.47,2.14,1.47C404.56,29.93,406.16,28.96,406.16,27.24z"/>
		<path class="st0" d="M421.32,30.89c0,2.6-2,4.52-5.3,4.52c-2.76,0-4.65-1.33-5.26-3.29l1.87-0.59c0.47,1.37,1.66,2.11,3.4,2.11
			c2.11,0,3.32-1.08,3.32-2.7v-2.03c-0.71,1.35-1.95,2-3.71,2c-3.46,0-5.03-2.5-5.03-5.13c0-2.63,1.56-5.1,5.05-5.1
			c1.74,0,2.98,0.61,3.69,1.94v-1.74h1.97V30.89z M412.6,25.79c0,1.96,1.32,3.36,3.39,3.36c2.07,0,3.37-1.4,3.37-3.36
			s-1.29-3.33-3.37-3.33C413.91,22.46,412.6,23.84,412.6,25.79z"/>
		<path class="st0" d="M434.09,26.89h-8.32c0.11,1.73,1.3,3.04,3.44,3.04c1.63,0,2.58-0.75,3.15-1.63l1.56,0.92
			c-0.98,1.43-2.49,2.47-4.81,2.47c-3.39,0-5.31-2.18-5.31-5.43c0-3.43,2.14-5.57,5.38-5.57c2.97,0,4.91,1.8,4.91,4.79V26.89z
			 M425.78,25.24h6.32c-0.06-1.87-1.15-2.79-2.95-2.79C427.17,22.45,426.03,23.57,425.78,25.24z"/>
	</g>
</g>
</svg>
