<?xml version="1.0" encoding="UTF-8" standalone="no"?>
<!-- Generator: Adobe Illustrator 20.1.0, SVG Export Plug-In . SVG Version: 6.00 Build 0)  -->

<svg
   xmlns:dc="http://purl.org/dc/elements/1.1/"
   xmlns:cc="http://creativecommons.org/ns#"
   xmlns:rdf="http://www.w3.org/1999/02/22-rdf-syntax-ns#"
   xmlns:svg="http://www.w3.org/2000/svg"
   xmlns="http://www.w3.org/2000/svg"
   xmlns:sodipodi="http://sodipodi.sourceforge.net/DTD/sodipodi-0.dtd"
   xmlns:inkscape="http://www.inkscape.org/namespaces/inkscape"
   version="1.1"
   id="Layer_1"
   x="0px"
   y="0px"
   width="631.4px"
   height="346.2px"
   viewBox="0 0 631.4 346.2"
   style="enable-background:new 0 0 631.4 346.2;"
   xml:space="preserve"
   inkscape:version="0.91 r13725"
   sodipodi:docname="workflow_conversion_api.svg"><metadata
     id="metadata149"><rdf:RDF><cc:Work
         rdf:about=""><dc:format>image/svg+xml</dc:format><dc:type
           rdf:resource="http://purl.org/dc/dcmitype/StillImage" /></cc:Work></rdf:RDF></metadata><defs
     id="defs147"><style
       id="style6"
       type="text/css">
    .fil0 {fill:black}
  </style></defs><sodipodi:namedview
     pagecolor="#ffffff"
     bordercolor="#666666"
     borderopacity="1"
     objecttolerance="10"
     gridtolerance="10"
     guidetolerance="10"
     inkscape:pageopacity="0"
     inkscape:pageshadow="2"
     inkscape:window-width="1298"
     inkscape:window-height="733"
     id="namedview145"
     showgrid="false"
     inkscape:zoom="1.050338"
     inkscape:cx="269.87259"
     inkscape:cy="173.10001"
     inkscape:window-x="20"
     inkscape:window-y="66"
     inkscape:window-maximized="0"
     inkscape:current-layer="Layer_1" /><style
     type="text/css"
     id="style3">
	.st0{fill:#148DCD;}
	.st1{fill:#168CCC;}
	.st2{fill:#E4537A;}
	.st3{fill:#052844;}
	.st4{font-family:'Averta-Bold';}
	.st5{font-size:15px;}
	.st6{fill:#DCEAF5;}
	.st7{fill:#052744;}
	.st8{enable-background:new    ;}
	.st9{fill:#0098C6;}
	.st10{fill:#221F1F;}
</style><path
     class="st0"
     d="M216.4,29.1c-8.9,0-16.1,7.2-16.1,16.1s7.2,16.1,16.1,16.1s16.2-7.2,16.2-16.1S225.3,29.1,216.4,29.1z   M219,51.9h-4.1v-10l-2,1.5l-1.9-3l4.8-3.4h3.2V51.9z"
     id="path5" /><rect
     x="195.8"
     y="229.5"
     class="st1"
     width="265.7"
     height="3"
     id="rect7" /><g
     id="g9"><polygon
       class="st1"
       points="198,238.4 185,231 198,223.5  "
       id="polygon11" /></g><g
     id="g13"><rect
       x="195.8"
       y="69.7"
       class="st1"
       width="46.4"
       height="3"
       id="rect15" /><g
       id="g17"><polygon
         class="st1"
         points="240,63.8 253,71.2 240,78.7   "
         id="polygon19" /></g><g
       id="g21"><polygon
         class="st1"
         points="198,63.8 185,71.2 198,78.7   "
         id="polygon23" /></g></g><g
     id="g25"><path
       class="st2"
       d="M81.2,241.8l-3.6,6v4.7h-2.1v-4.7l-3.5-6h2.4l2.2,3.9l0,0l2.1-3.9H81.2z"
       id="path27" /><path
       class="st2"
       d="M80.4,248.8c0-2.2,1.6-3.8,3.9-3.8s3.9,1.5,3.9,3.8s-1.6,3.8-3.9,3.8C81.9,252.6,80.4,251,80.4,248.8z    M86.2,248.8c0-1.2-0.8-2-1.9-2s-1.9,0.9-1.9,2s0.8,2,1.9,2C85.3,250.9,86.2,250,86.2,248.8z"
       id="path29" /><path
       class="st2"
       d="M96.5,245.2v7.3h-2v-0.9l0,0c-0.6,0.7-1.3,1-2.2,1c-1.6,0-2.7-0.8-2.7-3v-4.4h2v3.9c0,1.3,0.4,1.8,1.3,1.8   s1.6-0.7,1.6-2.1v-3.6H96.5L96.5,245.2z"
       id="path31" /><path
       class="st2"
       d="M102.8,245.1v2.1c-0.2,0-0.4,0-0.5,0c-1.2,0-1.9,0.8-1.9,1.9v3.4h-2v-7.3h2v1.1l0,0c0.6-0.8,1.4-1.2,2.2-1.2   C102.7,245.1,102.7,245.1,102.8,245.1z"
       id="path33" /><path
       class="st2"
       d="M114.3,250.4h-4.1l-0.7,2.1h-2.2l3.9-10.6h2l4,10.6H115L114.3,250.4z M113.7,248.6l-1.4-4.2l0,0l-1.4,4.2   H113.7z"
       id="path35" /><path
       class="st2"
       d="M126.1,248.8c0,2.3-1.5,3.8-3.5,3.8c-0.9,0-1.6-0.3-2.2-0.9l0,0v3.8h-2v-10.3h2v0.8l0,0c0.6-0.6,1.3-1,2.2-1   C124.6,245.1,126.1,246.6,126.1,248.8z M124.1,248.9c0-1.3-0.8-2.1-1.9-2.1s-1.9,0.9-1.9,2.1s0.8,2,1.9,2S124.1,250,124.1,248.9z"
       id="path37" /><path
       class="st2"
       d="M135.4,248.8c0,2.3-1.5,3.8-3.5,3.8c-0.9,0-1.6-0.3-2.2-0.9l0,0v3.8h-2v-10.3h2v0.8l0,0c0.6-0.6,1.3-1,2.2-1   C133.9,245.1,135.4,246.6,135.4,248.8z M133.4,248.9c0-1.3-0.8-2.1-1.9-2.1c-1.1,0-1.9,0.9-1.9,2.1s0.8,2,1.9,2   S133.4,250,133.4,248.9z"
       id="path39" /></g><text
     transform="matrix(1 0 0 1 50.1681 194.8453)"
     class="st3 st4 st5"
     id="text41">Conversion API</text>
<path
     class="st6"
     d="M162,20.5H45.5c-10.3,0-18.8,8.4-18.8,18.8V231c0,10.3,8.4,18.8,18.8,18.8h19.1v-3H45.5  c-8.7,0-15.8-7.1-15.8-15.8V39.3c0-8.7,7.1-15.8,15.8-15.8H162c8.7,0,15.8,7.1,15.8,15.8V231c0,8.7-7.1,15.8-15.8,15.8h-18.9v3H162  c10.3,0,18.8-8.4,18.8-18.8V39.3C180.8,28.9,172.4,20.5,162,20.5z"
     id="path43" /><g
     id="g45"><path
       class="st2"
       d="M521.7,247.9v-6.2h2.1v6.1c0,1.5,0.8,2.7,2.2,2.7c1.3,0,2.2-1,2.2-2.7v-6.1h2.1v6.2c0,2.8-1.6,4.5-4.3,4.5   C523.5,252.4,521.7,250.8,521.7,247.9z"
       id="path47" /><path
       class="st2"
       d="M531.8,251.4l1-1.4c0.6,0.6,1.2,0.9,2,0.9c0.6,0,0.9-0.2,0.9-0.6c0-0.3-0.4-0.5-1.3-0.8   c-1.2-0.4-2.2-1-2.2-2.4c0-1.3,1.1-2.2,2.6-2.2c1,0,1.8,0.3,2.7,0.9l-0.9,1.4c-0.6-0.5-1.2-0.8-1.8-0.8c-0.3,0-0.7,0.2-0.7,0.6   c0,0.3,0.4,0.5,1.1,0.8c1.6,0.6,2.5,0.9,2.5,2.4c0,1.3-0.9,2.3-2.8,2.3C533.6,252.4,532.6,252,531.8,251.4z"
       id="path49" /><path
       class="st2"
       d="M545.8,249.3h-5.1c0.2,0.9,0.9,1.4,1.9,1.4c0.8,0,1.3-0.3,1.8-0.8l1.3,1.2c-0.6,0.8-1.7,1.4-3.2,1.4   c-2.1,0-3.8-1.5-3.8-3.8c0-2.2,1.5-3.8,3.6-3.8s3.6,1.6,3.6,3.7C545.9,248.8,545.9,249.2,545.8,249.3z M540.7,247.9h3.2   c-0.2-0.8-0.7-1.3-1.6-1.3C541.6,246.6,540.9,247,540.7,247.9z"
       id="path51" /><path
       class="st2"
       d="M551.8,244.9v2.1c-0.2,0-0.4,0-0.5,0c-1.2,0-1.9,0.8-1.9,1.9v3.4h-2V245h2v1.1l0,0c0.6-0.8,1.4-1.2,2.2-1.2   C551.7,244.9,551.8,244.9,551.8,244.9z"
       id="path53" /></g><text
     transform="matrix(1 0 0 1 74.1978 101.2392)"
     class="st8"
     id="text67"><tspan
       x="0"
       y="0"
       class="st3 st4 st5"
       id="tspan69">SMS API</tspan><tspan
       x="-41.5"
       y="18"
       class="st3 st4 st5"
       id="tspan71">Text-to-speech APIs</tspan></text>
<path
     class="st0"
     d="M418.7,29.9c-8.9,0-16.1,7.2-16.1,16.1s7.2,16.1,16.1,16.1c8.9,0,16.1-7.2,16.1-16.1S427.6,29.9,418.7,29.9z   M423.7,52.7h-10v-2.6l4.2-4.5c1.2-1.2,1.7-2,1.7-3c0-0.7-0.5-1.3-1.2-1.3c-0.7,0-1.4,0.3-2,1.2l-2.9-2c0.9-1.5,2.6-2.8,5.2-2.8  c2.6,0,4.9,1.7,4.9,4.5c0,1.8-0.4,2.9-2.4,5l-1.9,2l0,0h4.5v3.5H423.7z"
     id="path73" /><path
     class="st7"
     d="M103.7,39.1c-11.7,0-21.1,9.4-21.1,21.1s9.4,21.1,21.1,21.1s21.1-9.4,21.1-21.1S115.4,39.1,103.7,39.1z   M114.7,73.1l-3.9-1c-0.8,0.4-1.7,0.5-2.5,0.5c-1.8,0-3.5-0.7-4.7-2c-0.6-0.6-1-1.2-1.4-2h-6.8c-1.5,0-2.8-1.2-2.8-2.8V50.1  c0-1.5,1.2-2.8,2.8-2.8h8.8c1.5,0,2.8,1.2,2.8,2.8v7.1h0.8l-1.2,1.2l-1.2-1.2h0.8v-7.1c0-1.1-0.9-2-2-2h-8.9c-1.1,0-2,0.9-2,2v15.7  c0,1.1,0.9,2,2,2h6.5c-0.2-0.7-0.3-1.3-0.3-2c0-3.7,3-6.7,6.7-6.7l0,0c1.8,0,3.5,0.7,4.7,2s2,3,2,4.8c0,1.4-0.4,2.7-1.2,3.8  L114.7,73.1z M102.1,57.6v1.7h-7.4v-1.7H102.1z M94.7,55.5c0-0.8,0.7-1.5,1.5-1.5s1.5,0.7,1.5,1.5c0,0.8-0.7,1.5-1.5,1.5  S94.7,56.3,94.7,55.5z M98.3,56.4v-1.7h6.3v1.7H98.3z"
     id="path75" /><path
     class="st3"
     d="M545.6,60.2h-23.6c-4.1,0-7.5,3.3-7.5,7.5v42.4c0,4.1,3.3,7.5,7.5,7.5h23.8c4.1,0,7.5-3.3,7.5-7.5V67.7  C553.1,63.5,549.8,60.2,545.6,60.2z M533.8,111.2c-1.4,0-2.7-1.2-2.7-2.7c0-1.4,1.2-2.7,2.7-2.7s2.7,1.2,2.7,2.7  C536.5,110,535.2,111.2,533.8,111.2z M537.5,68.6h-7.2c-0.6,0-1.2-0.6-1.2-1.2c0-0.6,0.6-1.2,1.2-1.2h7.2c0.6,0,1.2,0.6,1.2,1.2  C538.7,68,538.1,68.6,537.5,68.6z"
     id="path77" /><g
     id="g79"><path
       class="st3"
       d="M572.3,150.1h-55.1v-6.4c0-2.1-1.7-3.8-3.8-3.8h-5.1c-2.1,0-3.8,1.7-3.8,3.8v6.4h-3.9c-3.5,0-6.3,2.9-6.3,6.3   v46.2c0,3.1,2.3,5.7,5.2,6.2c0.6,3,3.2,5.2,6.3,5.2h20.5c3,0,5.6-2.1,6.2-5.1h39.8c3.5,0,6.3-2.9,6.3-6.3v-46.2   C578.7,153,575.9,150.1,572.3,150.1z M527.4,199.6c0,3.5-2.9,6.3-6.3,6.3h-10.3c-3.5,0-6.3-2.9-6.3-6.3v-33.8   c0-3.5,2.9-6.3,6.3-6.3h10.3c3.5,0,6.3,2.9,6.3,6.3V199.6z M545.4,186.9c-1.6,0-2.7-1.2-2.7-2.7c0-1.6,1.2-2.7,2.7-2.7   s2.7,1.2,2.7,2.7C548.2,185.7,546.9,186.9,545.4,186.9z M545.4,178.7c-1.6,0-2.7-1.2-2.7-2.7s1.2-2.7,2.7-2.7s2.7,1.2,2.7,2.7   C548.2,177.4,546.9,178.7,545.4,178.7z M545.4,170.5c-1.6,0-2.7-1.2-2.7-2.7s1.2-2.7,2.7-2.7s2.7,1.2,2.7,2.7   C548.2,169.2,546.9,170.5,545.4,170.5z M554.1,195.1c-1.6,0-2.7-1.2-2.7-2.7c0-1.6,1.2-2.7,2.7-2.7c1.6,0,2.7,1.2,2.7,2.7   C557,193.9,555.7,195.1,554.1,195.1z M554.1,186.9c-1.6,0-2.7-1.2-2.7-2.7c0-1.6,1.2-2.7,2.7-2.7c1.6,0,2.7,1.2,2.7,2.7   C557,185.7,555.7,186.9,554.1,186.9z M554.1,178.7c-1.6,0-2.7-1.2-2.7-2.7s1.2-2.7,2.7-2.7c1.6,0,2.7,1.2,2.7,2.7   C557,177.4,555.7,178.7,554.1,178.7z M554.1,170.5c-1.6,0-2.7-1.2-2.7-2.7s1.2-2.7,2.7-2.7c1.6,0,2.7,1.2,2.7,2.7   C557,169.2,555.7,170.5,554.1,170.5z M563,186.9c-1.6,0-2.7-1.2-2.7-2.7c0-1.6,1.2-2.7,2.7-2.7s2.7,1.2,2.7,2.7   C565.7,185.7,564.5,186.9,563,186.9z M563,178.7c-1.6,0-2.7-1.2-2.7-2.7s1.2-2.7,2.7-2.7s2.7,1.2,2.7,2.7   C565.7,177.4,564.5,178.7,563,178.7z M563,170.5c-1.6,0-2.7-1.2-2.7-2.7s1.2-2.7,2.7-2.7s2.7,1.2,2.7,2.7   C565.7,169.2,564.5,170.5,563,170.5z"
       id="path81" /></g><g
     id="g83"><rect
       x="195.8"
       y="162.4"
       class="st1"
       width="46.4"
       height="3"
       id="rect85" /><g
       id="g87"><polygon
         class="st1"
         points="240,156.5 253,163.9 240,171.4   "
         id="polygon89" /></g><g
       id="g91"><polygon
         class="st1"
         points="198,156.5 185,163.9 198,171.4   "
         id="polygon93" /></g></g><path
     class="st0"
     d="M327.8,238.9c-8.9,0-16.1,7.2-16.1,16.1c0,8.9,7.2,16.1,16.1,16.1c8.9,0,16.1-7.2,16.1-16.1  C343.9,246.1,336.7,238.9,327.8,238.9z M327.7,262c-2.8,0-4.9-1.5-5.6-3.6l3.5-1.3c0.3,1,0.8,1.4,1.8,1.4c0.7,0,1.3-0.4,1.3-1.4  c0-0.8-0.6-1.4-1.6-1.4h-0.9v-3.1h1.1c0.8,0,1.3-0.5,1.3-1.2c0-0.8-0.5-1.3-1.3-1.3c-0.7,0-1.1,0.3-1.4,1.1l-3.2-1.7  c0.6-1.7,2.5-2.9,4.7-2.9c2.8,0,5,1.5,5,4c0,1.4-0.7,2.6-1.8,3.4l0,0c1.4,0.7,2.3,1.9,2.3,3.6C332.9,260.3,330.7,262,327.7,262z"
     id="path95" /><g
     id="g97" /><polygon
     class="st1"
     points="453,71.2 440,63.8 440,69.7 395.8,69.7 395.8,72.7 440,72.7 440,78.7 "
     id="polygon99" /><g
     id="g103"><circle
       style="fill:#0098c6"
       id="circle105"
       r="8"
       cy="121.2"
       cx="327.89999"
       class="st9" /><g
       id="g107"><path
         style="fill:#221f1f"
         inkscape:connector-curvature="0"
         id="path109"
         d="m 327.6,99.2 c 11.2,0 20.5,8.1 22.5,18.7 l -4.4,0 10.7,10.5 10.7,-10.5 -5.4,0 c -2,-17 -16.5,-30.3 -34.1,-30.3 -14.3,0 -26.5,8.7 -31.7,21.1 l 10.7,4.2 c 3.5,-8.1 11.6,-13.7 21,-13.7 z"
         class="st10" /><path
         style="fill:#221f1f"
         inkscape:connector-curvature="0"
         id="path111"
         d="m 327.6,144.9 c -11,0 -20.2,-7.8 -22.4,-18.1 l 4.8,0 -10.7,-10.5 -10.7,10.5 4.9,0 c 2.3,16.8 16.7,29.7 34.1,29.7 14.2,0 26.5,-8.6 31.7,-21 l -10.7,-4.2 c -3.6,8 -11.7,13.6 -21,13.6 z"
         class="st10" /></g></g><path
     class="st6"
     d="m 378.6,52.5 -101.5,0 c -10.3,0 -18.8,8.4 -18.8,18.8 l 0,101.5 c 0,10.3 8.4,18.8 18.8,18.8 l 13.4,0 0,-3 -13.4,0 c -8.7,0 -15.8,-7.1 -15.8,-15.8 l 0,-101.5 c 0,-8.7 7.1,-15.8 15.8,-15.8 l 101.5,0 c 8.7,0 15.8,7.1 15.8,15.8 l 0,101.5 c 0,8.7 -7.1,15.8 -15.8,15.8 l -12.8,0 0,3 12.8,0 c 10.3,0 18.8,-8.4 18.8,-18.8 l 0,-101.5 c 0,-10.3 -8.5,-18.8 -18.8,-18.8 z"
     id="path115"
     inkscape:connector-curvature="0"
     style="fill:#dceaf5" /><text
     sodipodi:linespacing="125%"
     id="text4228"
     y="194.81374"
     x="306.28687"
     style="font-style:normal;font-variant:normal;font-weight:bold;font-stretch:normal;font-size:15px;line-height:125%;font-family:Helvetica;-inkscape-font-specification:'Helvetica, Bold';text-align:start;letter-spacing:0px;word-spacing:0px;writing-mode:lr-tb;text-anchor:start;fill:#e4537a;fill-opacity:1;stroke:none;stroke-width:1px;stroke-linecap:butt;stroke-linejoin:miter;stroke-opacity:1"
     xml:space="preserve"><tspan
       y="194.81374"
       x="306.28687"
       id="tspan4230"
       sodipodi:role="line">Nexmo</tspan></text>
<path
     class="st6"
     d="M595,20.5H478.5c-10.3,0-18.8,8.4-18.8,18.8V231c0,10.3,8.4,18.8,18.8,18.8h37.1v-3h-37.1  c-8.7,0-15.8-7.1-15.8-15.8V39.3c0-8.7,7.1-15.8,15.8-15.8H595c8.7,0,15.8,7.1,15.8,15.8V231c0,8.7-7.1,15.8-15.8,15.8h-36.9v3H595  c10.3,0,18.8-8.4,18.8-18.8V39.3C613.8,28.9,605.4,20.5,595,20.5z"
     id="path135" /><g
     id="g137"><polygon
       class="st0"
       points="216.5,139.6 216.5,135.9 214.3,139.6  "
       id="polygon139" /><path
       class="st0"
       d="M216.2,121.9c-8.9,0-16.1,7.2-16.1,16.1s7.2,16.1,16.1,16.1c8.9,0,16.1-7.2,16.1-16.1S225.1,121.9,216.2,121.9   z M221.8,142.5H220v2.3h-3.9v-2.3h-5.8v-2.3l6.6-10.3h3.1v9.4h1.8L221.8,142.5L221.8,142.5z"
       id="path141" /></g><path
     class="st0"
     d="M217.2,173.9c-8.9,0-16.1,7.2-16.1,16.1s7.2,16.1,16.1,16.1s16.1-7.2,16.1-16.1S226.1,173.9,217.2,173.9z   M216.8,197c-2,0-3.9-0.6-5.3-2.2l2.9-2.3c0.5,0.5,1.2,1,2.1,1c1,0,1.8-0.7,1.8-1.6c0-1.2-1.1-1.7-1.7-1.7c-0.5,0-1,0.2-1.8,0.7  l-2.1-0.8l0.5-8.1h8.3v3.6h-5.1l-0.1,1.9c0.6-0.2,1.2-0.3,1.6-0.3c2.4,0,4.4,1.9,4.4,4.8C222.3,194.9,219.9,197,216.8,197z"
     id="path143" /><g
     style="clip-rule:evenodd;fill-rule:evenodd;image-rendering:optimizeQuality;shape-rendering:geometricPrecision;text-rendering:geometricPrecision"
     id="g4313"
     transform="matrix(0.42343415,0,0,0.42343415,83.315054,135.87644)"><path
       class="fil0"
       d="M 51.274237,0.074744 C 57.25374,0.298975 63.009011,1.644363 68.31582,3.811933 l 1.046416,2.690776 -2.242317,4.858347 0.971673,2.765519 c 2.915007,1.56962 5.680522,3.438215 8.072324,5.680528 l 2.915007,0 3.811938,-3.811933 2.840259,0 c 3.96142,4.260396 7.10066,9.26823 9.41772,14.724526 l -1.1959,2.616032 -5.00783,1.868595 -1.27065,2.616033 c 0.97167,3.064495 1.56962,6.353221 1.71911,9.716692 l 2.09283,2.018082 5.38155,0 2.01808,2.018082 c -0.22423,5.979504 -1.56962,11.734775 -3.73719,17.041584 l -2.69078,0.97166 -4.85834,-2.24231 -2.76553,0.97167 c -1.56961,2.91501 -3.438207,5.68053 -5.680518,8.07233 l 0.07474,2.91501 3.811931,3.81193 0,2.84026 c -4.260393,3.96143 -9.268232,7.10067 -14.724526,9.34298 l -2.616027,-1.1959 -1.868597,-5.00784 -2.616032,-1.27064 c -3.139239,0.97167 -6.353222,1.56962 -9.716692,1.71911 l -2.018083,2.09282 0,5.38155 -2.018082,2.01808 c -5.979502,-0.22422 -11.734774,-1.56962 -17.041583,-3.81193 l -0.971669,-2.69078 2.242313,-4.85834 -0.971669,-2.76552 c -2.915008,-1.56962 -5.680528,-3.43821 -8.072329,-5.68052 l -2.915007,0.0747 -3.811934,3.81193 -2.840263,0 c -3.961421,-4.26039 -7.10066,-9.26823 -9.342974,-14.72453 l 1.195901,-2.61603 5.007833,-1.868589 1.270645,-2.616032 C 10.239898,58.225369 9.641949,54.936643 9.492461,51.573172 l -2.092826,-2.018082 -5.381553,0 L 0,47.537048 C 0.224231,41.557545 1.56962,35.802274 3.737189,30.495465 l 2.690776,-0.97167 4.858347,2.242314 2.76552,-0.971669 c 1.569619,-2.915008 3.438214,-5.680528 5.680528,-8.072329 l 0,-2.915008 -3.811934,-3.811933 0,-2.840263 c 4.260397,-3.961421 9.26823,-7.10066 14.724526,-9.417718 l 2.616033,1.195901 1.868594,5.007833 2.616033,1.270645 c 3.139239,-0.97167 6.353222,-1.56962 9.716692,-1.719107 l 2.018082,-2.092826 0,-5.381553 L 51.498469,0 Z m -2.018082,21.152491 c 15.621453,0 28.327897,12.706444 28.327897,28.327895 0,15.621446 -12.706444,28.327886 -28.327897,28.327886 -15.621451,0 -28.327895,-12.70644 -28.327895,-28.327886 0,-15.621451 12.706444,-28.327895 28.327895,-28.327895 z"
       id="path9"
       inkscape:connector-curvature="0"
       style="fill:#052744;fill-opacity:1" /><text
       sodipodi:linespacing="100%"
       id="text4154"
       y="60.526054"
       x="22.994772"
       style="font-style:normal;font-variant:normal;font-weight:normal;font-stretch:normal;font-size:15px;line-height:100%;font-family:Arial;-inkscape-font-specification:'Arial, Normal';text-align:start;letter-spacing:0px;word-spacing:0px;writing-mode:lr-tb;text-anchor:start;fill:#052744;fill-opacity:1;stroke:none;stroke-width:1px;stroke-linecap:butt;stroke-linejoin:miter;stroke-opacity:1"
       xml:space="preserve"><tspan
         style="font-style:normal;font-variant:normal;font-weight:bold;font-stretch:normal;font-size:30px;line-height:100%;font-family:Helvetica;-inkscape-font-specification:'Helvetica, Bold';text-align:start;writing-mode:lr-tb;text-anchor:start;fill:#052744;fill-opacity:1"
         y="60.526054"
         x="22.994772"
         id="tspan4156"
         sodipodi:role="line">API</tspan></text>
</g></svg>