<svg xmlns="http://www.w3.org/2000/svg" xmlns:xlink="http://www.w3.org/1999/xlink"><symbol viewBox="0 0 24 24" id="Brand-icon-android"><path d="M4 8.1c-.7 0-1.4.6-1.4 1.4v5.7c0 .8.6 1.4 1.4 1.4.8 0 1.4-.6 1.4-1.4V9.5c-.1-.8-.7-1.4-1.4-1.4M14.9 3l.9-1.7c.1-.1 0-.2-.1-.3-.1 0-.2 0-.3.1l-1 1.7c-.8-.4-1.7-.6-2.7-.6-1 0-1.9.2-2.7.6L8 1.1c.2-.1.1-.1 0-.1-.1.1-.1.2 0 .3L8.9 3C7.1 4 5.8 5.8 5.8 7.9H18C18 5.8 16.8 4 14.9 3M9.1 5.7c-.3 0-.5-.2-.5-.5s.2-.5.5-.5.5.2.5.5-.2.5-.5.5m5.6 0c-.3 0-.5-.2-.5-.5s.2-.5.5-.5.5.2.5.5-.2.5-.5.5M5.8 8.4v8.8c0 .8.6 1.4 1.4 1.4h1v3c0 .7.6 1.4 1.4 1.4.8 0 1.4-.6 1.4-1.4v-3h1.8v3c0 .7.6 1.4 1.4 1.4.8 0 1.4-.6 1.4-1.4v-3h1c.8 0 1.4-.6 1.4-1.4V8.4H5.8zm15.4 1.1c0-.8-.6-1.4-1.4-1.4-.7 0-1.4.6-1.4 1.4v5.7c0 .8.6 1.4 1.4 1.4.7 0 1.4-.6 1.4-1.4V9.5z"/></symbol><symbol viewBox="0 0 24 24" id="Brand-icon-android-color"><path d="M4 8.1c-.7 0-1.4.6-1.4 1.4v5.7c0 .8.6 1.4 1.4 1.4.8 0 1.4-.6 1.4-1.4V9.5c-.1-.8-.7-1.4-1.4-1.4M14.9 3l.9-1.7c.1-.1 0-.2-.1-.3-.1 0-.2 0-.3.1l-1 1.7c-.8-.4-1.7-.6-2.7-.6-1 0-1.9.2-2.7.6L8 1.1c.2-.1.1-.1 0-.1-.1.1-.1.2 0 .3L8.9 3C7.1 4 5.8 5.8 5.8 7.9H18C18 5.8 16.8 4 14.9 3M9.1 5.7c-.3 0-.5-.2-.5-.5s.2-.5.5-.5.5.2.5.5-.2.5-.5.5m5.6 0c-.3 0-.5-.2-.5-.5s.2-.5.5-.5.5.2.5.5-.2.5-.5.5M5.8 8.4v8.8c0 .8.6 1.4 1.4 1.4h1v3c0 .7.6 1.4 1.4 1.4.8 0 1.4-.6 1.4-1.4v-3h1.8v3c0 .7.6 1.4 1.4 1.4.8 0 1.4-.6 1.4-1.4v-3h1c.8 0 1.4-.6 1.4-1.4V8.4H5.8zm15.4 1.1c0-.8-.6-1.4-1.4-1.4-.7 0-1.4.6-1.4 1.4v5.7c0 .8.6 1.4 1.4 1.4.7 0 1.4-.6 1.4-1.4V9.5z" fill="#a4c439"/></symbol><symbol viewBox="0 0 24 24" id="Brand-icon-angular"><path d="M10.1 12H14l-2-4.5-1.9 4.5zM12 1L2 4.6l1.6 13.6L12 23l8.4-4.9L22 4.6 12 1zM9.3 13.9l-1.2 3.2H5.8L12 2.9l6.4 14.2-2.2-.1-1.4-3.2h-2.9"/></symbol><symbol viewBox="0 0 24 24" id="Brand-icon-angular-color"><path d="M10.1 12H14l-2-4.5-1.9 4.5zM12 1L2 4.6l1.6 13.6L12 23l8.4-4.9L22 4.6 12 1zM9.3 13.9l-1.2 3.2H5.8L12 2.9l6.4 14.2-2.2-.1-1.4-3.2h-2.9" fill="#c4473a"/></symbol><symbol viewBox="0 0 24 24" id="Brand-icon-apple"><path d="M18 12.7c0 3.3 2.9 4.4 3 4.5 0 .1-.5 1.6-1.5 3.1-.9 1.3-1.9 2.7-3.4 2.7s-2-.9-3.6-.9c-1.7 0-2.2.8-3.6.9-1.5.1-2.6-1.4-3.5-2.8-2-2.7-3.4-7.7-1.5-11.1 1-1.7 2.7-2.7 4.6-2.8 1.4 0 2.8 1 3.6 1 .9 0 2.5-1.2 4.2-1 .7 0 2.7.3 4 2.2 0 .1-2.3 1.4-2.3 4.2m-2.7-8.2c.7-.9 1.2-2.2 1.1-3.5-1.1 0-2.5.7-3.3 1.7-.7.8-1.3 2.1-1.2 3.4 1.3.1 2.6-.7 3.4-1.6"/></symbol><symbol viewBox="0 0 24 24" id="Brand-icon-apple-color"><path d="M18 12.7c0 3.3 2.9 4.4 3 4.5 0 .1-.5 1.6-1.5 3.1-.9 1.3-1.9 2.7-3.4 2.7s-2-.9-3.6-.9c-1.7 0-2.2.8-3.6.9-1.5.1-2.6-1.4-3.5-2.8-2-2.7-3.4-7.7-1.5-11.1 1-1.7 2.7-2.7 4.6-2.8 1.4 0 2.8 1 3.6 1 .9 0 2.5-1.2 4.2-1 .7 0 2.7.3 4 2.2 0 .1-2.3 1.4-2.3 4.2m-2.7-8.2c.7-.9 1.2-2.2 1.1-3.5-1.1 0-2.5.7-3.3 1.7-.7.8-1.3 2.1-1.2 3.4 1.3.1 2.6-.7 3.4-1.6"/></symbol><symbol viewBox="0 0 50 50" id="Brand-icon-bullhorn"><path d="M48.1 27.9c0 .5.4.9.2 1.4-.2.4-2.4 1.4-2.9 1.4-.5-.1-.9-.5-1.3-.3l.1 2.7-.3 2.8.5 1.2c.1.8-.3 1.5-.1 2.4.4 1.9 2.1 2.7 1.7 5.1l-.6.4c-.2-.1-.4-.2-.6-.2l-.2.7c-.3.1-.7.1-1 .1l-.2-.1c-.4-2.9-.5-5.5-1.3-8-1-3-3.4-4-3.4-8.3l-.1.1v.1c-.4.9.1 3-.4 3.7-.7 1.1-2.6 1.2-3 2.5v.5c0 .1 1.1 2.3 1.2 2.3.7.5 2.7.6 2.3 2.3-.5 1.9-3 1.3-3.9.1-.4-.5-.5-1.2-.8-1.8-.3-.4-.7-.4-1.1-.7-.8-.6-.9-3.2-1.6-3.8-.8-.7-2.7-.4-3.8-.7-2.3-.5-4.4-1.4-5.9-2.8-1-.9-1.5-2.5-2.3-3.8-1.1-1.7-2.4-3.5-3.9-4.8l-1.7-1.3c-1.7-.6-4.7 1.6-5.9-.2-.4-.6-.5-1.3-.5-2.2 0-.5-.2-.9-.1-1.5.3-1.3 1.2-2 1.5-3.4l-.1-.1c-3.3 0-6.7-.6-7.7-3.2.3-.4.9.2 1.3.4 1.3.6 3.3 1 5.1.5l2.5-.9c.5-.4.4-1.1 1-1.4.5-.2 1.8-.1 2.2-.3.5-.4.7-1.2 1.3-1.5.9-.4 1.7-.1 2.4.2.5.2 3.1-1.7 3.3-2v-.2c-1-1.1-3.4-1.9-4-3.1l-.1-.3.1-.2c.7 0 1.1.5 1.7.8 1.3.6 5.1 1.2 5.5 2.7.4 1.6-2.5 3.7-3.4 4.2.1.3.2.3.5.2h1.5l-.8.9.1.3.1.2c.4.1.6 0 1-.1 0 .5 0 .8.2 1.1 1.1.2 2.6.3 3.4.8l.8.8 1.5.4c1.7.6 3.2 1.4 4.1 2.8.6 1 1 2.4 1.4 3.6.2.7.3 1.5.6 2h.1c0-1.3-1-4.5-.7-5.1l.2-.2c1.8-.1 6.8 2.6 7.7 3.8.4.6.4 1.1.6 2l.9 1.4c.8 1.6.5 4.7 2.2 5.2 1.5.7 1.7-1.4 2.9-1.6z"/><path d="M32.5 39l.4 1.5c1 2.1 3.2 3.1 3.6 5.9-.2.3-.6.5-1 .6-.1-.2-.1-.2-.4-.2l-.1.1v.6c-.4.1-.9 0-1.3-.1-.2-.6-.1-1.1-.3-1.9l-1.5-3.7-1.1-1.1c-.4-.6-.5-1.3-1-1.7-.6-.5-1.5-.7-2.2-1-1.5-.7-3.2-2.4-3.8-4.1 1.3.7 3.1.9 4.7 1.3l2.1.3 1.9 3.5z"/></symbol><symbol viewBox="0 0 50 50" id="Brand-icon-bullhorn-color"><path d="M48.1 27.9c0 .5.4.9.2 1.4-.2.4-2.4 1.4-2.9 1.4-.5-.1-.9-.5-1.3-.3l.1 2.7-.3 2.8.5 1.2c.1.8-.3 1.5-.1 2.4.4 1.9 2.1 2.7 1.7 5.1l-.6.4c-.2-.1-.4-.2-.6-.2l-.2.7c-.3.1-.7.1-1 .1l-.2-.1c-.4-2.9-.5-5.5-1.3-8-1-3-3.4-4-3.4-8.3l-.1.1v.1c-.4.9.1 3-.4 3.7-.7 1.1-2.6 1.2-3 2.5v.5c0 .1 1.1 2.3 1.2 2.3.7.5 2.7.6 2.3 2.3-.5 1.9-3 1.3-3.9.1-.4-.5-.5-1.2-.8-1.8-.3-.4-.7-.4-1.1-.7-.8-.6-.9-3.2-1.6-3.8-.8-.7-2.7-.4-3.8-.7-2.3-.5-4.4-1.4-5.9-2.8-1-.9-1.5-2.5-2.3-3.8-1.1-1.7-2.4-3.5-3.9-4.8l-1.7-1.3c-1.7-.6-4.7 1.6-5.9-.2-.4-.6-.5-1.3-.5-2.2 0-.5-.2-.9-.1-1.5.3-1.3 1.2-2 1.5-3.4l-.1-.1c-3.3 0-6.7-.6-7.7-3.2.3-.4.9.2 1.3.4 1.3.6 3.3 1 5.1.5l2.5-.9c.5-.4.4-1.1 1-1.4.5-.2 1.8-.1 2.2-.3.5-.4.7-1.2 1.3-1.5.9-.4 1.7-.1 2.4.2.5.2 3.1-1.7 3.3-2v-.2c-1-1.1-3.4-1.9-4-3.1l-.1-.3.1-.2c.7 0 1.1.5 1.7.8 1.3.6 5.1 1.2 5.5 2.7.4 1.6-2.5 3.7-3.4 4.2.1.3.2.3.5.2h1.5l-.8.9.1.3.1.2c.4.1.6 0 1-.1 0 .5 0 .8.2 1.1 1.1.2 2.6.3 3.4.8l.8.8 1.5.4c1.7.6 3.2 1.4 4.1 2.8.6 1 1 2.4 1.4 3.6.2.7.3 1.5.6 2h.1c0-1.3-1-4.5-.7-5.1l.2-.2c1.8-.1 6.8 2.6 7.7 3.8.4.6.4 1.1.6 2l.9 1.4c.8 1.6.5 4.7 2.2 5.2 1.5.7 1.7-1.4 2.9-1.6z" fill="#ff6b03"/><path d="M32.5 39l.4 1.5c1 2.1 3.2 3.1 3.6 5.9-.2.3-.6.5-1 .6-.1-.2-.1-.2-.4-.2l-.1.1v.6c-.4.1-.9 0-1.3-.1-.2-.6-.1-1.1-.3-1.9l-1.5-3.7-1.1-1.1c-.4-.6-.5-1.3-1-1.7-.6-.5-1.5-.7-2.2-1-1.5-.7-3.2-2.4-3.8-4.1 1.3.7 3.1.9 4.7 1.3l2.1.3 1.9 3.5z" fill="#ff6b03"/></symbol><symbol viewBox="0 0 50 50" id="Brand-icon-chime"><path d="M32.6 24.1v-5.4l-2 1.1 2 4.4zM37.6 20.4l8.3-8.3-13.3 6.6zM32.6 25.2l-1.7 4.6 3.8-3.8 2.4 4.6h11.8z"/><path d="M32.6 18.7v5.4h16.3l-11.3-3.7zM32.6 24.1v1.1l16.3 5.4v-6.5zM25.7 32.6h5.4l-1.6 4.9 8.3 8.4-7.7-15.4zM30.9 29.8l11.5 11.5-5.3-10.7-2.4-4.6z"/><path d="M30.9 29.8l-.8.7 7.7 15.4 4.6-4.6zM20.1 30.9l3.8 3.8-4.7 2.3v11.8l5.4-16.2zM25.7 32.6v16.2l3.8-11.3 1.6-4.9z"/><path d="M25.7 32.6h-1.1l-5.4 16.2h6.5zM12.3 29.5L4 37.8l13.3-6.7zM17.3 25.7v5.4l2-1z"/><path d="M20.1 30.9L8.6 42.4 19.2 37l4.7-2.3z"/><path d="M20.1 30.9l-.8-.8-2 1L4 37.8l4.6 4.6zM19 20.1l-3.8 3.8-2.4-4.7H1l16.3 5.4z"/><path d="M17.3 31.1v-5.4H1l11.3 3.8zM17.3 25.7v-1.1L1 19.2v6.5zM24.1 17.3h-5.3l1.6-5L12.1 4l7.7 15.3zM19 20.1L7.5 8.6l5.3 10.6 2.4 4.7z"/><path d="M19 20.1l.8-.8L12.1 4 7.5 8.6zM29.8 19L26 15.2l4.7-2.4V1l-5.4 16.3zM24.1 17.3h.1V1l-3.8 11.3-1.6 5z"/><path d="M24.2 17.3h1.1L30.7 1h-6.5zM29.8 19L41.3 7.5l-10.6 5.3-4.7 2.4zM29.8 19l.8.8 2-1.1 13.3-6.6-4.6-4.6z"/></symbol><symbol viewBox="0 0 50 50" id="Brand-icon-chime-color"><path fill="#c9ebec" d="M32.6 24.1v-5.4l-2 1.1 2 4.4zM37.6 20.4l8.3-8.3-13.3 6.6zM32.6 25.2l-1.7 4.6 3.8-3.8 2.4 4.6h11.8z"/><path fill="#00868c" d="M32.6 18.7v5.4h16.3l-11.3-3.7z"/><path fill="#00b3bb" d="M32.6 24.1v1.1l16.3 5.4v-6.5z"/><path fill="#c9ebec" d="M25.7 32.6h5.4l-1.6 4.9 8.3 8.4-7.7-15.4z"/><path fill="#00868c" d="M30.9 29.8l11.5 11.5-5.3-10.7-2.4-4.6z"/><path fill="#00b3bb" d="M30.9 29.8l-.8.7 7.7 15.4 4.6-4.6z"/><path fill="#c9ebec" d="M20.1 30.9l3.8 3.8-4.7 2.3v11.8l5.4-16.2z"/><path fill="#00868c" d="M25.7 32.6v16.2l3.8-11.3 1.6-4.9z"/><path fill="#00b3bb" d="M25.7 32.6h-1.1l-5.4 16.2h6.5z"/><path fill="#c9ebec" d="M12.3 29.5L4 37.8l13.3-6.7zM17.3 25.7v5.4l2-1z"/><path fill="#00868c" d="M20.1 30.9L8.6 42.4 19.2 37l4.7-2.3z"/><path fill="#00b3bb" d="M20.1 30.9l-.8-.8-2 1L4 37.8l4.6 4.6z"/><path fill="#c9ebec" d="M19 20.1l-3.8 3.8-2.4-4.7H1l16.3 5.4z"/><path fill="#00868c" d="M17.3 31.1v-5.4H1l11.3 3.8z"/><path fill="#00b3bb" d="M17.3 25.7v-1.1L1 19.2v6.5z"/><path fill="#c9ebec" d="M24.1 17.3h-5.3l1.6-5L12.1 4l7.7 15.3z"/><path fill="#00868c" d="M19 20.1L7.5 8.6l5.3 10.6 2.4 4.7z"/><path fill="#00b3bb" d="M19 20.1l.8-.8L12.1 4 7.5 8.6z"/><path fill="#c9ebec" d="M29.8 19L26 15.2l4.7-2.4V1l-5.4 16.3z"/><path fill="#00868c" d="M24.1 17.3h.1V1l-3.8 11.3-1.6 5z"/><path fill="#00b3bb" d="M24.2 17.3h1.1L30.7 1h-6.5z"/><path fill="#00868c" d="M29.8 19L41.3 7.5l-10.6 5.3-4.7 2.4z"/><path fill="#00b3bb" d="M29.8 19l.8.8 2-1.1 13.3-6.6-4.6-4.6z"/></symbol><symbol viewBox="0 0 50 50" id="Brand-icon-clio"><path d="M15.2 17.7l9.9 6.6 23.6-21c-12 16.8-18.6 25.9-19.8 27.5-1.8 2.4-4.9 3.2-6.7 0-1.2-2.1-3.5-6.5-7-13.1z"/><path d="M25 49.2C11.7 49.2.8 38.3.8 25S11.7.8 25 .8 49.2 11.7 49.2 25 38.3 49.2 25 49.2zm-8.3-41c-4.7 0-8.5 3.8-8.5 8.5v16.6c0 2.3.9 4.4 2.5 6s3.8 2.5 6 2.5h16.6c4.7 0 8.5-3.8 8.5-8.5V16.7c0-4.7-3.8-8.5-8.5-8.5H16.7z"/></symbol><symbol viewBox="0 0 50 50" id="Brand-icon-clio-color"><path d="M15.2 17.7l9.9 6.6 23.6-21c-12 16.8-18.6 25.9-19.8 27.5-1.8 2.4-4.9 3.2-6.7 0-1.2-2.1-3.5-6.5-7-13.1z" fill="#0075bb"/><path d="M25 49.2C11.7 49.2.8 38.3.8 25S11.7.8 25 .8 49.2 11.7 49.2 25 38.3 49.2 25 49.2zm-8.3-41c-4.7 0-8.5 3.8-8.5 8.5v16.6c0 2.3.9 4.4 2.5 6s3.8 2.5 6 2.5h16.6c4.7 0 8.5-3.8 8.5-8.5V16.7c0-4.7-3.8-8.5-8.5-8.5H16.7z" fill="#0276bb"/></symbol><symbol viewBox="0 0 24 24" id="Brand-icon-curl"><path d="M12 1H.4l2 17.1L12 23l9.6-4.9 2-17.1H12zm8.4 10.7c0 .2 0 .3-.2.4l-6.4 3.1-.5.2-.1-.6v-1.5l.2-.1 4.5-2-4.2-1.9-1.8 3.6-.9 2-.2.4-.4-.2-6.6-3c-.2-.1-.3-.2-.3-.4v-1.1c0-.2.1-.3.3-.4l6.7-3.1.6-.3V9l-.3.1-4.6 2 4.3 1.9 1.6-3.1 1.2-2.5.2-.4.4.2 6.4 3c.1.1.1.2.1.4v1.1z"/></symbol><symbol viewBox="0 0 24 24" id="Brand-icon-curl-color"><path fill="#0B3754" d="M12 1H.4l2 17.1L12 23l9.6-4.9 2-17.1H12zm8.4 10.7c0 .2 0 .3-.2.4l-6.4 3.1-.5.2-.1-.6v-1.5l.2-.1 4.5-2-4.2-1.9-1.8 3.6-.9 2-.2.4-.4-.2-6.6-3c-.2-.1-.3-.2-.3-.4v-1.1c0-.2.1-.3.3-.4l6.7-3.1.6-.3V9l-.3.1-4.6 2 4.3 1.9 1.6-3.1 1.2-2.5.2-.4.4.2 6.4 3c.1.1.1.2.1.4v1.1z"/></symbol><symbol viewBox="0 0 24 24" id="Brand-icon-dotnet"><path d="M15.2 14.5l.3-.6c.4-1.2.8-2.5 1.2-3.7.2-.5.3-.9.6-1.4.5-.6 1.1-1 1.9-1.1.3 0 .6-.1.9-.1h3c0 .1 0 .1-.1.1-.3.6-.7 1.2-1 1.8-.6 1.1-1.2 2.1-1.9 3.2-.4.7-.8 1.3-1.3 1.9-.4.4-.8.9-1.3 1.2-.3.2-.7.3-1.1.3H12c-.4 0-.8-.2-1.1-.5-.4-.4-.7-.9-.9-1.5-.4-1-.6-2.1-.9-3.2-.1-.5-.3-1-.4-1.5v-.1l-.2.2c-.5.6-1 1.2-1.5 1.9-.1.2-.2.4-.2.6-.2.8-.5 1.6-.7 2.4-.3.7-.7 1.3-1.4 1.7-.4.2-.9.3-1.3.3H1.3c-.2 0-.2 0-.1-.2.1-1.1.5-2.2 1-3.2.5-1.1 1.1-2.1 1.8-3.1.5-.6 1-1.2 1.7-1.7.3-.2.7-.4 1.1-.4h4.7c.8 0 1.4.3 1.8 1 .3.4.5.8.6 1.3.3.9.5 1.8.8 2.8.1.5.3 1.1.4 1.6h.1z"/></symbol><symbol viewBox="0 0 24 24" id="Brand-icon-dotnet-color"><path fill="#1384C8" d="M15.2 14.5l.3-.6c.4-1.2.8-2.5 1.2-3.7.2-.5.3-.9.6-1.4.5-.6 1.1-1 1.9-1.1.3 0 .6-.1.9-.1h3c0 .1 0 .1-.1.1-.3.6-.7 1.2-1 1.8-.6 1.1-1.2 2.1-1.9 3.2-.4.7-.8 1.3-1.3 1.9-.4.4-.8.9-1.3 1.2-.3.2-.7.3-1.1.3H12c-.4 0-.8-.2-1.1-.5-.4-.4-.7-.9-.9-1.5-.4-1-.6-2.1-.9-3.2-.1-.5-.3-1-.4-1.5v-.1l-.2.2c-.5.6-1 1.2-1.5 1.9-.1.2-.2.4-.2.6-.2.8-.5 1.6-.7 2.4-.3.7-.7 1.3-1.4 1.7-.4.2-.9.3-1.3.3H1.3c-.2 0-.2 0-.1-.2.1-1.1.5-2.2 1-3.2.5-1.1 1.1-2.1 1.8-3.1.5-.6 1-1.2 1.7-1.7.3-.2.7-.4 1.1-.4h4.7c.8 0 1.4.3 1.8 1 .3.4.5.8.6 1.3.3.9.5 1.8.8 2.8.1.5.3 1.1.4 1.6h.1z"/></symbol><symbol viewBox="0 0 24 24" id="Brand-icon-drupal"><path d="M17 5.1c-1.2-.7-2.3-1-3.4-1.7C12.9 3 12 1.9 11.2 1c-.2 1.5-.6 2.1-1.2 2.5-1.1.8-1.8 1.1-2.8 1.6C6.4 5.5 2 8 2 13.5S6.8 23 12.1 23s9.9-3.7 9.9-9.3-4.3-8.2-5-8.6zm.1 15.9c-.1.1-1.1.8-2.3.9-1.2.1-2.8.2-3.8-.7-.2-.1-.1-.4 0-.4.1-.1.2-.1.3-.1h.2c.4.3 1.1.6 2.5.6s2.4-.4 2.8-.7c.2-.1.3 0 .3.1.1 0 .2.2 0 .3zm-3.8-1.9c.2-.2.6-.6 1-.7.4-.1.6-.1.9-.1.4 0 .7 0 1 .2.3.2.4.6.5.8.1.2 0 .3-.2.4-.2.1-.2 0-.3-.2-.2-.3-.3-.6-1.1-.6s-1 .3-1.4.6c-.4.3-.5.4-.6.2-.1-.2-.1-.4.2-.6zm5.8.1c-.8-.1-2.4-2.4-3.4-2.5-1.3 0-4.1 2.6-6.2 2.6-1.3 0-1.7-.2-2.2-.5-.7-.4-1-1.1-1-2.1 0-1.7 1.6-3.2 3.7-3.2 2.6 0 4.4 2.5 5.7 2.4 1.1 0 3.2-2.1 4.3-2.1 1.1 0 1.4 1.1 1.4 1.8s-.2 1.8-.7 2.6c-.7.8-1 1.1-1.6 1z"/></symbol><symbol viewBox="0 0 24 24" id="Brand-icon-drupal-color"><path d="M17 5.1c-1.2-.7-2.3-1-3.4-1.7C12.9 3 12 1.9 11.2 1c-.2 1.5-.6 2.1-1.2 2.5-1.1.8-1.8 1.1-2.8 1.6C6.4 5.5 2 8 2 13.5S6.8 23 12.1 23s9.9-3.7 9.9-9.3-4.3-8.2-5-8.6zm.1 15.9c-.1.1-1.1.8-2.3.9-1.2.1-2.8.2-3.8-.7-.2-.1-.1-.4 0-.4.1-.1.2-.1.3-.1h.2c.4.3 1.1.6 2.5.6s2.4-.4 2.8-.7c.2-.1.3 0 .3.1.1 0 .2.2 0 .3zm-3.8-1.9c.2-.2.6-.6 1-.7.4-.1.6-.1.9-.1.4 0 .7 0 1 .2.3.2.4.6.5.8.1.2 0 .3-.2.4-.2.1-.2 0-.3-.2-.2-.3-.3-.6-1.1-.6s-1 .3-1.4.6c-.4.3-.5.4-.6.2-.1-.2-.1-.4.2-.6zm5.8.1c-.8-.1-2.4-2.4-3.4-2.5-1.3 0-4.1 2.6-6.2 2.6-1.3 0-1.7-.2-2.2-.5-.7-.4-1-1.1-1-2.1 0-1.7 1.6-3.2 3.7-3.2 2.6 0 4.4 2.5 5.7 2.4 1.1 0 3.2-2.1 4.3-2.1 1.1 0 1.4 1.1 1.4 1.8s-.2 1.8-.7 2.6c-.7.8-1 1.1-1.6 1z" fill="#0073ba"/></symbol><symbol viewBox="0 0 50 50" id="Brand-icon-dynamics"><path d="M37.6 26.9s4-3.2 8.4-8l.7.3v26.3l-.9.4s-20.4-8-42.1-.1h-.4v-3.3S19.7 26.7 23.8 5.1l1 .2V37l-.6.3s-10.1.1-20.4 7.9c0 0 9.6-7 21.3-7.1l.5-.5V28s5.9-5.5 10.2-16l.9.4v27.8l-1.5.4s-16.5-4.2-31 4.4c0 0 14.4-7.8 32.3-3.5l1-.2c.1.1-.1-14.6.1-14.4"/></symbol><symbol viewBox="0 0 50 50" id="Brand-icon-dynamics-color"><path d="M37.6 26.9s4-3.2 8.4-8l.7.3v26.3l-.9.4s-20.4-8-42.1-.1h-.4v-3.3S19.7 26.7 23.8 5.1l1 .2V37l-.6.3s-10.1.1-20.4 7.9c0 0 9.6-7 21.3-7.1l.5-.5V28s5.9-5.5 10.2-16l.9.4v27.8l-1.5.4s-16.5-4.2-31 4.4c0 0 14.4-7.8 32.3-3.5l1-.2c.1.1-.1-14.6.1-14.4" fill="#2946d5"/></symbol><symbol viewBox="0 0 24 24" id="Brand-icon-express"><path d="M24 18.6c-.9.2-1.4 0-1.9-.7-1.1-1.6-2.3-3.2-3.4-4.8-.1-.2-.3-.4-.5-.7-1.4 1.9-2.7 3.6-4 5.5-.5.7-.9.9-1.8.7l5.2-7-4.8-6.3c.8-.2 1.4-.1 1.9.7 1.1 1.6 2.3 3.2 3.6 4.9 1.2-1.6 2.5-3.2 3.6-4.8.5-.7 1-.9 1.8-.7-.6.8-1.2 1.7-1.9 2.5-.8 1.1-1.7 2.2-2.5 3.3-.3.4-.3.6 0 1 1.5 2.1 3.1 4.2 4.7 6.4zM0 11.6c.1-.7.2-1.4.4-2.1 1.1-4.1 5.9-5.8 9.1-3.3 1.9 1.5 2.4 3.6 2.3 6H1.1C.9 16.5 4 19 7.9 17.7c1.4-.5 2.2-1.5 2.6-2.9.2-.7.5-.8 1.2-.6-.3 1.7-1.1 3.1-2.6 4-2.3 1.3-5.6.9-7.3-.9-1-1.1-1.5-2.4-1.6-3.9-.1-.2-.2-.4-.2-.7v-1.1zm1.1-.3h9.7C10.7 8.2 8.8 6 6.2 6c-2.9 0-4.9 2.1-5.1 5.3z"/></symbol><symbol viewBox="0 0 24 24" id="Brand-icon-express-color"><path d="M24 18.6c-.9.2-1.4 0-1.9-.7-1.1-1.6-2.3-3.2-3.4-4.8-.1-.2-.3-.4-.5-.7-1.4 1.9-2.7 3.6-4 5.5-.5.7-.9.9-1.8.7l5.2-7-4.8-6.3c.8-.2 1.4-.1 1.9.7 1.1 1.6 2.3 3.2 3.6 4.9 1.2-1.6 2.5-3.2 3.6-4.8.5-.7 1-.9 1.8-.7-.6.8-1.2 1.7-1.9 2.5-.8 1.1-1.7 2.2-2.5 3.3-.3.4-.3.6 0 1 1.5 2.1 3.1 4.2 4.7 6.4zM0 11.6c.1-.7.2-1.4.4-2.1 1.1-4.1 5.9-5.8 9.1-3.3 1.9 1.5 2.4 3.6 2.3 6H1.1C.9 16.5 4 19 7.9 17.7c1.4-.5 2.2-1.5 2.6-2.9.2-.7.5-.8 1.2-.6-.3 1.7-1.1 3.1-2.6 4-2.3 1.3-5.6.9-7.3-.9-1-1.1-1.5-2.4-1.6-3.9-.1-.2-.2-.4-.2-.7v-1.1zm1.1-.3h9.7C10.7 8.2 8.8 6 6.2 6c-2.9 0-4.9 2.1-5.1 5.3z"/></symbol><symbol viewBox="0 0 24 24" id="Brand-icon-facebook"><path d="M24 12.073C24 5.405 18.628 0 12 0S0 5.405 0 12.073C0 18.1 4.388 23.094 10.125 24v-8.437H7.078v-3.49h3.047v-2.66c0-3.025 1.79-4.697 4.533-4.697 1.312 0 2.686.236 2.686.236v2.971H15.83c-1.49 0-1.955.931-1.955 1.886v2.264h3.328l-.532 3.49h-2.796V24C19.613 23.095 24 18.1 24 12.073z"/></symbol><symbol viewBox="0 0 24 24" id="Brand-icon-facebook-color"><path d="M24 12c0-6.628-5.372-12-12-12S0 5.372 0 12c0 5.99 4.388 10.955 10.125 11.855v-8.386H7.078V12h3.047V9.356c0-3.007 1.79-4.668 4.533-4.668 1.312 0 2.686.234 2.686.234v2.953H15.83c-1.49 0-1.955.926-1.955 1.875V12h3.328l-.532 3.469h-2.796v8.386C19.613 22.955 24 17.99 24 12z" fill="#1877F2"/><path d="M16.671 15.469L17.203 12h-3.328V9.75c0-.95.464-1.875 1.955-1.875h1.514V4.922s-1.374-.234-2.686-.234c-2.742 0-4.533 1.661-4.533 4.668V12H7.078v3.469h3.047v8.386a12.071 12.071 0 0 0 3.75 0v-8.386h2.796z" fill="#fff"/></symbol><symbol viewBox="0 0 24 24" id="Brand-icon-github"><path d="M12 1C5.9 1 1 6 1 12.3c0 5 3.2 9.2 7.5 10.7.5.1.8-.2.8-.5v-2.1C6.2 21 5.6 19 5.6 19c-.5-1.3-1.2-1.7-1.2-1.7-1-.7.1-.7.1-.7 1.1.1 1.7 1.2 1.7 1.2 1 1.7 2.6 1.2 3.2.9.1-.7.4-1.2.7-1.5C7.5 17 5 16 5 11.7c0-1.2.4-2.2 1.1-3-.1-.3-.5-1.5.1-3 0 0 .9-.3 3 1.2.9-.3 1.8-.4 2.8-.4.9 0 1.9.1 2.8.4 2.1-1.5 3-1.2 3-1.2.6 1.6.2 2.7.1 3 .7.8 1.1 1.8 1.1 3 0 4.3-2.6 5.3-5 5.6.4.4.7 1 .7 2.1v3.1c0 .3.2.7.8.5 4.4-1.5 7.5-5.7 7.5-10.7C23 6 18.1 1 12 1z"/></symbol><symbol viewBox="0 0 24 24" id="Brand-icon-github-color"><path fill="#181616" d="M12 1C5.9 1 1 6 1 12.3c0 5 3.2 9.2 7.5 10.7.5.1.8-.2.8-.5v-2.1C6.2 21 5.6 19 5.6 19c-.5-1.3-1.2-1.7-1.2-1.7-1-.7.1-.7.1-.7 1.1.1 1.7 1.2 1.7 1.2 1 1.7 2.6 1.2 3.2.9.1-.7.4-1.2.7-1.5C7.5 17 5 16 5 11.7c0-1.2.4-2.2 1.1-3-.1-.3-.5-1.5.1-3 0 0 .9-.3 3 1.2.9-.3 1.8-.4 2.8-.4.9 0 1.9.1 2.8.4 2.1-1.5 3-1.2 3-1.2.6 1.6.2 2.7.1 3 .7.8 1.1 1.8 1.1 3 0 4.3-2.6 5.3-5 5.6.4.4.7 1 .7 2.1v3.1c0 .3.2.7.8.5 4.4-1.5 7.5-5.7 7.5-10.7C23 6 18.1 1 12 1z"/></symbol><symbol viewBox="0 0 24 24" id="Brand-icon-google"><path d="M8.6 1.6c-5.9 2-9 8.3-6.9 14 1.2 3.4 4.1 6.1 7.7 7 1.9.5 3.9.5 5.7.1 1.7-.4 3.3-1.2 4.6-2.3 1.4-1.2 2.3-2.8 2.8-4.6.5-1.9.6-3.9.3-5.8H12.2v4.3h6.1c-.2 1.4-1.1 2.6-2.2 3.4-.7.5-1.6.8-2.5 1-.9.2-1.8.2-2.7 0-.9-.3-1.7-.7-2.5-1.2-1.2-.8-2.1-2-2.6-3.4s-.5-2.9 0-4.3c.3-1 .9-1.9 1.6-2.6 1.7-1.7 4.3-2.4 6.6-1.7.9.3 1.7.7 2.4 1.4.7-.7 1.4-1.3 2.1-2l1.1-1.1c-1-1-2.3-1.7-3.6-2.2-2.3-.8-5-.8-7.4 0z"/><path d="M8.6 1.6c2.5-.8 5.1-.8 7.6.1 1.3.5 2.6 1.2 3.6 2.2L18.7 5c-.7.7-1.4 1.3-2.1 2-.7-.6-1.5-1.1-2.4-1.4-2.4-.7-4.9 0-6.6 1.7-.8.7-1.4 1.6-1.7 2.6L2.2 7.1c1.3-2.6 3.6-4.6 6.4-5.5z"/><path d="M1.2 9.8c.2-1 .5-1.9 1-2.8l3.7 2.8c-.5 1.4-.5 2.9 0 4.3-1.2.9-2.5 1.9-3.7 2.8-1.1-2.2-1.5-4.7-1-7.1zM12.2 9.9h10.6c.4 1.9.3 3.9-.3 5.8-.5 1.7-1.5 3.3-2.8 4.6l-3.6-2.7c1.2-.8 2-2 2.2-3.4h-6.1V9.9z"/><path d="M2.2 16.9c1.2-.9 2.5-1.9 3.7-2.8.5 1.4 1.4 2.5 2.6 3.4.7.5 1.6.9 2.5 1.1.9.2 1.8.2 2.7 0 .9-.1 1.7-.5 2.5-1l3.6 2.7c-1.3 1.2-2.9 2-4.6 2.3-1.9.4-3.9.4-5.7-.1-1.5-.4-2.9-1.1-4.1-2-1.4-.9-2.5-2.1-3.2-3.6z"/></symbol><symbol viewBox="0 0 24 24" id="Brand-icon-google-color"><path d="M8.6 1.6c-5.9 2-9 8.3-6.9 14 1.2 3.4 4.1 6.1 7.7 7 1.9.5 3.9.5 5.7.1 1.7-.4 3.3-1.2 4.6-2.3 1.4-1.2 2.3-2.8 2.8-4.6.5-1.9.6-3.9.3-5.8H12.2v4.3h6.1c-.2 1.4-1.1 2.6-2.2 3.4-.7.5-1.6.8-2.5 1-.9.2-1.8.2-2.7 0-.9-.3-1.7-.7-2.5-1.2-1.2-.8-2.1-2-2.6-3.4s-.5-2.9 0-4.3c.3-1 .9-1.9 1.6-2.6 1.7-1.7 4.3-2.4 6.6-1.7.9.3 1.7.7 2.4 1.4.7-.7 1.4-1.3 2.1-2l1.1-1.1c-1-1-2.3-1.7-3.6-2.2-2.3-.8-5-.8-7.4 0z" fill="#fff"/><path d="M8.6 1.6c2.5-.8 5.1-.8 7.6.1 1.3.5 2.6 1.2 3.6 2.2L18.7 5c-.7.7-1.4 1.3-2.1 2-.7-.6-1.5-1.1-2.4-1.4-2.4-.7-4.9 0-6.6 1.7-.8.7-1.4 1.6-1.7 2.6L2.2 7.1c1.3-2.6 3.6-4.6 6.4-5.5z" fill="#e33629"/><path d="M1.2 9.8c.2-1 .5-1.9 1-2.8l3.7 2.8c-.5 1.4-.5 2.9 0 4.3-1.2.9-2.5 1.9-3.7 2.8-1.1-2.2-1.5-4.7-1-7.1z" fill="#f8bd00"/><path d="M12.2 9.9h10.6c.4 1.9.3 3.9-.3 5.8-.5 1.7-1.5 3.3-2.8 4.6l-3.6-2.7c1.2-.8 2-2 2.2-3.4h-6.1V9.9z" fill="#587dbd"/><path d="M2.2 16.9c1.2-.9 2.5-1.9 3.7-2.8.5 1.4 1.4 2.5 2.6 3.4.7.5 1.6.9 2.5 1.1.9.2 1.8.2 2.7 0 .9-.1 1.7-.5 2.5-1l3.6 2.7c-1.3 1.2-2.9 2-4.6 2.3-1.9.4-3.9.4-5.7-.1-1.5-.4-2.9-1.1-4.1-2-1.4-.9-2.5-2.1-3.2-3.6z" fill="#319f43"/></symbol><symbol viewBox="0 0 24 24" id="Brand-icon-hubspot"><path d="M21.3 11.5c-.5-.8-1.2-1.5-2.1-2-.6-.4-1.3-.6-2.1-.7V6.1c.8-.3 1.2-1 1.2-1.8 0-1.1-.9-2-2-2s-2.1.9-2.1 2c0 .8.4 1.5 1.2 1.8v2.7c-.6.1-1.2.3-1.8.6-1.2-.9-5-3.8-7.3-5.4.1-.2.1-.4.1-.6C6.5 2 5.5 1 4.3 1S2 2 2 3.2c0 1.2 1 2.2 2.3 2.2.4 0 .8-.1 1.2-.3l.5.4 6.5 4.6c-.3.3-.7.7-.9 1.1-.5.8-.8 1.7-.8 2.7v.2c0 .7.1 1.3.4 1.9.2.5.5 1 .8 1.4l-2.2 2.1c-.6-.2-1.4-.1-1.8.4-.3.3-.5.8-.5 1.2 0 .5.2.9.5 1.2.2.5.6.7 1.1.7.5 0 .9-.2 1.2-.5.3-.3.5-.8.5-1.2 0-.2 0-.4-.1-.5l2.2-2.2c.3.2.6.4 1 .5.7.3 1.5.5 2.3.5h.2c.9 0 1.8-.2 2.6-.7.9-.5 1.6-1.1 2.1-1.9.5-.8.8-1.7.8-2.7.1-1.1-.1-2-.6-2.8zm-2.7 4.6c-.6.7-1.3 1.1-2.1 1.1h-.1c-.4 0-.9-.1-1.3-.3-.5-.2-.9-.6-1.2-1-.3-.4-.5-.9-.5-1.4v-.2c0-.5.1-1 .3-1.4.3-.5.6-.9 1.1-1.2.5-.3.9-.4 1.5-.4h.1c.5 0 1 .1 1.4.3.4.2.8.6 1.1 1 .3.4.4.9.5 1.4v.3c-.1.6-.3 1.2-.8 1.8z"/></symbol><symbol viewBox="0 0 24 24" id="Brand-icon-hubspot-color"><path d="M21.3 11.5c-.5-.8-1.2-1.5-2.1-2-.6-.4-1.3-.6-2.1-.7V6.1c.8-.3 1.2-1 1.2-1.8 0-1.1-.9-2-2-2s-2.1.9-2.1 2c0 .8.4 1.5 1.2 1.8v2.7c-.6.1-1.2.3-1.8.6-1.2-.9-5-3.8-7.3-5.4.1-.2.1-.4.1-.6C6.5 2 5.5 1 4.3 1S2 2 2 3.2c0 1.2 1 2.2 2.3 2.2.4 0 .8-.1 1.2-.3l.5.4 6.5 4.6c-.3.3-.7.7-.9 1.1-.5.8-.8 1.7-.8 2.7v.2c0 .7.1 1.3.4 1.9.2.5.5 1 .8 1.4l-2.2 2.1c-.6-.2-1.4-.1-1.8.4-.3.3-.5.8-.5 1.2 0 .5.2.9.5 1.2.2.5.6.7 1.1.7.5 0 .9-.2 1.2-.5.3-.3.5-.8.5-1.2 0-.2 0-.4-.1-.5l2.2-2.2c.3.2.6.4 1 .5.7.3 1.5.5 2.3.5h.2c.9 0 1.8-.2 2.6-.7.9-.5 1.6-1.1 2.1-1.9.5-.8.8-1.7.8-2.7.1-1.1-.1-2-.6-2.8zm-2.7 4.6c-.6.7-1.3 1.1-2.1 1.1h-.1c-.4 0-.9-.1-1.3-.3-.5-.2-.9-.6-1.2-1-.3-.4-.5-.9-.5-1.4v-.2c0-.5.1-1 .3-1.4.3-.5.6-.9 1.1-1.2.5-.3.9-.4 1.5-.4h.1c.5 0 1 .1 1.4.3.4.2.8.6 1.1 1 .3.4.4.9.5 1.4v.3c-.1.6-.3 1.2-.8 1.8z" fill="#f8761f"/></symbol><symbol viewBox="0 0 24 24" id="Brand-icon-java"><path d="M15 16.5c-2.8.5-4.4.5-6.4.3-1.5-.1-.5-.9-.5-.9-4.1 1.4 2.3 2.9 7.9 1.2-.6-.2-1-.6-1-.6zM8.7 18.6c-3.7 1 2.2 3.1 7 1.1-.7-.3-1.3-.6-1.3-.6-2.1.4-3.1.4-5 .2-1.6-.2-.7-.7-.7-.7zM17.2 4.9S9 7 12.9 11.5c1.2 1.3-.3 2.5-.3 2.5s2.9-1.5 1.6-3.4c-1.3-1.8-2.2-2.7 3-5.7zM16.9 17.6v.1c6-1.6 3.8-5.6.9-4.6-.3.1-.4.3-.4.3s.1 0 .5-.1c1.4-.3 3.5 2-1 4.3z"/><path d="M19.2 20.5s.7.6-.7 1c-2.7.8-11.3 1.1-13.7 0-.9-.4.7-.9 1.3-1 .5-.1.8-.1.8-.1-1-.7-6.2 1.3-2.6 1.9 9.5 1.6 17.3-.7 14.9-1.8zM15.9 14.6c.5-.3 1.1-.6 1.1-.6s-1.8.3-3.6.5c-2.2.2-4.6.3-5.8.1-2.9-.4 1.5-1.4 1.5-1.4s-1.7-.1-3.7.8c-2.5 1.2 6.1 1.8 10.5.6zM11.8 13.1c-.9-2-3.9-3.7 0-6.8C16.7 2.5 14.2 0 14.2 0c1 4-3.5 5.2-5.2 7.6-1.1 1.7.6 3.5 2.8 5.5z"/><path d="M17.1 23.1c-3.7.7-8.2.6-10.9.2 0 0 .5.4 3.4.6 4.3.3 11-.2 11.1-2.2 0 0-.3.8-3.6 1.4z"/></symbol><symbol viewBox="0 0 24 24" id="Brand-icon-java-color"><path fill="#0074BD" d="M15 16.5c-2.8.5-4.4.5-6.4.3-1.5-.1-.5-.9-.5-.9-4.1 1.4 2.3 2.9 7.9 1.2-.6-.2-1-.6-1-.6zM8.7 18.6c-3.7 1 2.2 3.1 7 1.1-.7-.3-1.3-.6-1.3-.6-2.1.4-3.1.4-5 .2-1.6-.2-.7-.7-.7-.7z"/><path fill="#EA2D2E" d="M17.2 4.9S9 7 12.9 11.5c1.2 1.3-.3 2.5-.3 2.5s2.9-1.5 1.6-3.4c-1.3-1.8-2.2-2.7 3-5.7z"/><path fill="#0074BD" d="M16.9 17.6v.1c6-1.6 3.8-5.6.9-4.6-.3.1-.4.3-.4.3s.1 0 .5-.1c1.4-.3 3.5 2-1 4.3zM19.2 20.5s.7.6-.7 1c-2.7.8-11.3 1.1-13.7 0-.9-.4.7-.9 1.3-1 .5-.1.8-.1.8-.1-1-.7-6.2 1.3-2.6 1.9 9.5 1.6 17.3-.7 14.9-1.8zM15.9 14.6c.5-.3 1.1-.6 1.1-.6s-1.8.3-3.6.5c-2.2.2-4.6.3-5.8.1-2.9-.4 1.5-1.4 1.5-1.4s-1.7-.1-3.7.8c-2.5 1.2 6.1 1.8 10.5.6z"/><path fill="#EA2D2E" d="M11.8 13.1c-.9-2-3.9-3.7 0-6.8C16.7 2.5 14.2 0 14.2 0c1 4-3.5 5.2-5.2 7.6-1.1 1.7.6 3.5 2.8 5.5z"/><path fill="#0074BD" d="M17.1 23.1c-3.7.7-8.2.6-10.9.2 0 0 .5.4 3.4.6 4.3.3 11-.2 11.1-2.2 0 0-.3.8-3.6 1.4z"/></symbol><symbol viewBox="0 0 24 24" id="Brand-icon-javascript"><path d="M1 1v22h22V1H1zm11.6 18.9c-.4.7-1 1.1-1.7 1.3-1.1.2-2.1.1-2.9-.4-.5-.3-.9-.8-1.2-1.5l1.7-1s0 .1.1.2c.3.4.4.6.8.8.3.1 1.1.2 1.4-.4.2-.3.1-1.4.1-2.5v-5.3H13v5.7c0 1.2.1 2.2-.4 3.1zm8.5-.4c-.7 2.4-4.7 2.5-6.3.9-.3-.4-.5-.6-.7-1 .9-.5.9-.5 1.7-1 .4.7.9 1 1.6 1.2 1 .1 2-.2 1.8-1.3-.2-.8-2.1-1.1-3.3-2-1.2-.9-1.5-2.9-.5-4.1.4-.4 1-.7 1.6-.9l.6-.1c1.3-.1 2 .3 2.6.9.1.2.3.3.5.7-.7.4-.7.4-1.6 1-.2-.4-.5-.7-.9-.8-.6-.2-1.3 0-1.4.6-.1.1-.1.3 0 .6.2.5.9.7 1.6 1 2 .8 2.6 1.6 2.8 2.6.2.8 0 1.4-.1 1.7z"/></symbol><symbol viewBox="0 0 24 24" id="Brand-icon-javascript-color"><path d="M1 1h22v22H1V1z" fill="#f0db4f"/><path d="M21.2 17.8c-.2-1-.8-1.8-2.8-2.6-.7-.3-1.4-.5-1.6-1-.1-.3-.1-.5 0-.6.1-.6.8-.8 1.4-.6.4.1.7.4.9.8.9-.6.9-.6 1.6-1-.2-.4-.4-.5-.5-.7-.6-.6-1.3-1-2.6-.9l-.6.1c-.6.2-1.2.5-1.6.9-1 1.2-.7 3.2.5 4.1 1.2.9 3.1 1.2 3.3 2 .2 1.1-.8 1.4-1.8 1.3-.7-.2-1.2-.5-1.6-1.2-.8.5-.8.5-1.7 1 .2.4.4.6.7 1 1.6 1.6 5.6 1.5 6.3-.9.1-.3.3-.9.1-1.7zM13 11.1h-2.1v5.3c0 1.1.1 2.2-.1 2.5-.3.6-1.1.5-1.4.4-.4-.2-.5-.4-.8-.8-.1-.1-.1-.2-.1-.2l-1.7 1c.3.7.7 1.2 1.2 1.5.8.5 1.8.6 2.9.4.7-.2 1.3-.6 1.7-1.3.5-.9.4-1.9.4-3.1v-5.7z" fill="#323330"/></symbol><symbol viewBox="0 0 50 50" id="Brand-icon-jobdiva"><path d="M23.8 45.7c.9-2.7 1.7-5.2 2.6-7.9 3.8-.3 8.3.3 11.5-3.5 2.4-2.8 3-6.2 2.9-9.7-.1-8.1-3.6-11.2-14.7-13V4.2c6.9.1 13.4.7 18.1 6.6 5.6 7.1 6.4 18.4 1.8 26.1-2.7 4.5-6.5 7.5-12 8-3.5.4-6.9.6-10.2.8zM1 40.8c2-1.9 4-3.7 6-5.6 1.2 1 2.1 2 3.3 2.7 2.8 1.8 4.9.7 5-2.6.1-9.5.1-19 .1-28.5V4.4h7.9c.1.2.2.5.2.7 0 10.5 0 20.9-.2 31.4-.1 5-2.4 8.3-6.4 9.4-4.9 1.4-9.3.3-13.2-2.9-.8-.7-1.7-1.3-2.7-2.2z"/></symbol><symbol viewBox="0 0 50 50" id="Brand-icon-jobdiva-color"><path d="M23.8 45.7c.9-2.7 1.7-5.2 2.6-7.9 3.8-.3 8.3.3 11.5-3.5 2.4-2.8 3-6.2 2.9-9.7-.1-8.1-3.6-11.2-14.7-13V4.2c6.9.1 13.4.7 18.1 6.6 5.6 7.1 6.4 18.4 1.8 26.1-2.7 4.5-6.5 7.5-12 8-3.5.4-6.9.6-10.2.8z" fill="#42baeb"/><path d="M1 40.8c2-1.9 4-3.7 6-5.6 1.2 1 2.1 2 3.3 2.7 2.8 1.8 4.9.7 5-2.6.1-9.5.1-19 .1-28.5V4.4h7.9c.1.2.2.5.2.7 0 10.5 0 20.9-.2 31.4-.1 5-2.4 8.3-6.4 9.4-4.9 1.4-9.3.3-13.2-2.9-.8-.7-1.7-1.3-2.7-2.2z" fill="#faa91f"/></symbol><symbol viewBox="0 0 24 24" id="Brand-icon-laravel"><path d="M3.8 1c-.2 0-.4 0-.6.1-.4.1-.8.3-1.1.5-.2.2-.4.4-.5.6-.2.3-.4.7-.5 1.1 0 .1.1.1.1.2.2.4.4.7.6 1.1l.6.9c.2.2.4.5.6.8l.8 1.4c.1.3.3.6.5.9.3.4.5.9.8 1.3l1 1.6c.3.5.5 1 .8 1.5v.1H7c.4-.1.7-.2 1.1-.3.6-.1 1.2-.3 1.8-.4l.9-.2c.6-.1 1.2-.3 1.8-.4.6-.1 1.2-.3 1.9-.4.3-.1.6-.2.9-.2.6-.1 1.2-.3 1.8-.4l2-.5h.1v-.1l-.5-.8-.5-.8-.6-.8-.5-.8-.5-.8-.6-.8c-.2-.3-.4-.5-.5-.8l-.3-.4c0-.1-.1-.1-.1-.2-.1-.2 0-.3.1-.4.1-.1.1-.1.2-.1s.2-.1.4-.1.5-.1.7-.1l.8-.1c.2 0 .3-.1.5-.1s.5-.1.7-.1c.2 0 .4-.1.7-.1l.7-.2.5-.1c.2 0 .4-.1.6-.1.2 0 .5-.1.7-.1h.4c.1 0 .2.1.3.1l.1.1v-.1c-.2-.4-.4-.7-.7-1-.3-.2-.6-.4-1-.5h-.6m-9.8 22s0-.1 0 0c-.3-.5-.6-1-.8-1.5-.3-.6-.6-1.1-1-1.7-.3-.6-.7-1.2-1-1.8-.3-.6-.6-1.2-1-1.7-.2-.4-.4-.7-.6-1.1l-.1-.1h-.1c-.2 0-.4.1-.6.1-.3.1-.5.1-.8.2-.6.2-1.2.3-1.8.5-.6.2-1.2.3-1.8.5H.8v3.7l.1.1c0 .1 0 .2.1.3.1.4.2.8.5 1.1.3.5.8.9 1.4 1.1.2.1.4.1.6.2l.2.1"/><path d="M1.7 14.4c.7-.2 1.4-.3 2.1-.5.3-.1.6-.1.9-.2.2 0 .3-.1.5-.1.1 0 .1-.1.1-.2-.2-.2-.3-.4-.4-.6L4 11.3l-.9-1.6c-.3-.5-.6-1-.9-1.6-.2-.4-.5-.8-.7-1.2-.2-.2-.3-.4-.4-.6 0 0 .1-.1-.1-.1v8.3h.1l.6-.1zm21.2 5.9c-.3.1-.5.2-.8.3-.6.2-1.2.4-1.8.7-.3.1-.7.2-1 .4-.7.2-1.4.5-2.1.7-.4.1-.8.3-1.2.5-.1 0-.2.2-.3.2h4.6l.1-.1c.1 0 .2 0 .3-.1.5-.1.9-.3 1.3-.6.3-.2.5-.5.7-.8.2-.3.3-.7.4-1.1v-.1h-.2zm-.4-6.2c-.2-.3-.4-.6-.6-.8-.3-.4-.6-.8-.8-1.2-.1-.2-.2-.3-.3-.5 0 0-.1-.1-.1 0-.5.1-1 .3-1.5.4l-1.2.1c-.6.1-1.2.3-1.8.4-.6.1-1.2.3-1.8.4l-1.9.5c-.6.1-1.2.3-1.8.4l-1.7.6c-.3.1-.6.2-.9.2 0 0-.1 0-.1.1v.1c.3.5.5.9.8 1.4l.9 1.5c.3.6.7 1.1 1 1.7.2.3.4.6.6 1 .2.4.4.7.6 1.1.1.1.1.2.2.3 0 .1.1.1.2.2.1 0 .2.1.2 0h.1l.2-.1c.6-.2 1.1-.4 1.7-.6.4-.2.9-.3 1.3-.5.4-.1.9-.3 1.3-.4l1.3-.4c.4-.2.9-.3 1.3-.5.5-.2 1.1-.4 1.6-.6.5-.2 1.1-.4 1.6-.5 0 0 .1 0 .1-.1v-.1-3.3c0-.1 0-.1-.1-.2-.1-.2-.3-.4-.4-.6zm-.1-10.4c-.1-.2-.3-.2-.5-.2-.1 0-.2 0-.3.1-.3.1-.6.1-.8.2-.4 0-.8.1-1.2.2-.3.1-.6.1-1 .2l-1.3.2h-.2c-.1 0-.1.1-.1.1 0 .1.1.1.1.2.3.4.5.7.8 1.1.4.5.7 1 1.1 1.5.3.4.6.9.9 1.3.2.3.5.7.7 1v.1l2.4-.5v-.1-4.5c0-.1 0-.1-.1-.2-.1-.2-.3-.4-.5-.7 0 .1 0 0 0 0zm.5 7.2c-.3.1-.6.2-1 .2 0 .1.9 1.3 1 1.4v-.6-.9c.1 0 .1 0 0-.1.1 0 0 0 0 0z"/></symbol><symbol viewBox="0 0 24 24" id="Brand-icon-laravel-color"><path d="M3.8 1c-.2 0-.4 0-.6.1-.4.1-.8.3-1.1.5-.2.2-.4.4-.5.6-.2.3-.4.7-.5 1.1 0 .1.1.1.1.2.2.4.4.7.6 1.1l.6.9c.2.2.4.5.6.8l.8 1.4c.1.3.3.6.5.9.3.4.5.9.8 1.3l1 1.6c.3.5.5 1 .8 1.5v.1H7c.4-.1.7-.2 1.1-.3.6-.1 1.2-.3 1.8-.4l.9-.2c.6-.1 1.2-.3 1.8-.4.6-.1 1.2-.3 1.9-.4.3-.1.6-.2.9-.2.6-.1 1.2-.3 1.8-.4l2-.5h.1v-.1l-.5-.8-.5-.8-.6-.8-.5-.8-.5-.8-.6-.8c-.2-.3-.4-.5-.5-.8l-.3-.4c0-.1-.1-.1-.1-.2-.1-.2 0-.3.1-.4.1-.1.1-.1.2-.1s.2-.1.4-.1.5-.1.7-.1l.8-.1c.2 0 .3-.1.5-.1s.5-.1.7-.1c.2 0 .4-.1.7-.1l.7-.2.5-.1c.2 0 .4-.1.6-.1.2 0 .5-.1.7-.1h.4c.1 0 .2.1.3.1l.1.1v-.1c-.2-.4-.4-.7-.7-1-.3-.2-.6-.4-1-.5h-.6m-9.8 22s0-.1 0 0c-.3-.5-.6-1-.8-1.5-.3-.6-.6-1.1-1-1.7-.3-.6-.7-1.2-1-1.8-.3-.6-.6-1.2-1-1.7-.2-.4-.4-.7-.6-1.1l-.1-.1h-.1c-.2 0-.4.1-.6.1-.3.1-.5.1-.8.2-.6.2-1.2.3-1.8.5-.6.2-1.2.3-1.8.5H.8v3.7l.1.1c0 .1 0 .2.1.3.1.4.2.8.5 1.1.3.5.8.9 1.4 1.1.2.1.4.1.6.2l.2.1" fill="#fd4f31"/><path d="M1.7 14.4c.7-.2 1.4-.3 2.1-.5.3-.1.6-.1.9-.2.2 0 .3-.1.5-.1.1 0 .1-.1.1-.2-.2-.2-.3-.4-.4-.6L4 11.3l-.9-1.6c-.3-.5-.6-1-.9-1.6-.2-.4-.5-.8-.7-1.2-.2-.2-.3-.4-.4-.6 0 0 .1-.1-.1-.1v8.3h.1l.6-.1zm21.2 5.9c-.3.1-.5.2-.8.3-.6.2-1.2.4-1.8.7-.3.1-.7.2-1 .4-.7.2-1.4.5-2.1.7-.4.1-.8.3-1.2.5-.1 0-.2.2-.3.2h4.6l.1-.1c.1 0 .2 0 .3-.1.5-.1.9-.3 1.3-.6.3-.2.5-.5.7-.8.2-.3.3-.7.4-1.1v-.1h-.2zm-.4-6.2c-.2-.3-.4-.6-.6-.8-.3-.4-.6-.8-.8-1.2-.1-.2-.2-.3-.3-.5 0 0-.1-.1-.1 0-.5.1-1 .3-1.5.4l-1.2.1c-.6.1-1.2.3-1.8.4-.6.1-1.2.3-1.8.4l-1.9.5c-.6.1-1.2.3-1.8.4l-1.7.6c-.3.1-.6.2-.9.2 0 0-.1 0-.1.1v.1c.3.5.5.9.8 1.4l.9 1.5c.3.6.7 1.1 1 1.7.2.3.4.6.6 1 .2.4.4.7.6 1.1.1.1.1.2.2.3 0 .1.1.1.2.2.1 0 .2.1.2 0h.1l.2-.1c.6-.2 1.1-.4 1.7-.6.4-.2.9-.3 1.3-.5.4-.1.9-.3 1.3-.4l1.3-.4c.4-.2.9-.3 1.3-.5.5-.2 1.1-.4 1.6-.6.5-.2 1.1-.4 1.6-.5 0 0 .1 0 .1-.1v-.1-3.3c0-.1 0-.1-.1-.2-.1-.2-.3-.4-.4-.6zm-.1-10.4c-.1-.2-.3-.2-.5-.2-.1 0-.2 0-.3.1-.3.1-.6.1-.8.2-.4 0-.8.1-1.2.2-.3.1-.6.1-1 .2l-1.3.2h-.2c-.1 0-.1.1-.1.1 0 .1.1.1.1.2.3.4.5.7.8 1.1.4.5.7 1 1.1 1.5.3.4.6.9.9 1.3.2.3.5.7.7 1v.1l2.4-.5v-.1-4.5c0-.1 0-.1-.1-.2-.1-.2-.3-.4-.5-.7 0 .1 0 0 0 0zm.5 7.2c-.3.1-.6.2-1 .2 0 .1.9 1.3 1 1.4v-.6-.9c.1 0 .1 0 0-.1.1 0 0 0 0 0z" fill="#fd4f31"/></symbol><symbol viewBox="0 0 24 24" id="Brand-icon-linkedin"><path d="M21.4 1H2.6C1.7 1 1 1.7 1 2.6v18.8c0 .9.7 1.6 1.6 1.6h18.7c.9 0 1.6-.7 1.6-1.6V2.6c.1-.9-.6-1.6-1.5-1.6zM7.5 19.7H4.3V9.2h3.3v10.5zM5.9 7.8C4.8 7.8 4 7 4 5.9S4.8 4 5.9 4c1 0 1.9.8 1.9 1.9s-.9 1.9-1.9 1.9zm13.8 11.9h-3.3v-5.1c0-1.2 0-2.8-1.7-2.8s-2 1.3-2 2.7v5.2H9.6V9.2h3.1v1.4c.5-.7 1.5-1.6 3.1-1.6 3.3 0 3.9 2.2 3.9 5v5.7z"/></symbol><symbol viewBox="0 0 24 24" fill="#007BB6" id="Brand-icon-linkedin-color"><path d="M21.4 1H2.6C1.7 1 1 1.7 1 2.6v18.8c0 .9.7 1.6 1.6 1.6h18.7c.9 0 1.6-.7 1.6-1.6V2.6c.1-.9-.6-1.6-1.5-1.6zM7.5 19.7H4.3V9.2h3.3v10.5zM5.9 7.8C4.8 7.8 4 7 4 5.9S4.8 4 5.9 4c1 0 1.9.8 1.9 1.9s-.9 1.9-1.9 1.9zm13.8 11.9h-3.3v-5.1c0-1.2 0-2.8-1.7-2.8s-2 1.3-2 2.7v5.2H9.6V9.2h3.1v1.4c.5-.7 1.5-1.6 3.1-1.6 3.3 0 3.9 2.2 3.9 5v5.7z"/></symbol><symbol viewBox="0 0 24 24" id="Brand-icon-netsuite"><path d="M14.7 13.2V1.5H1v4.9h8.4l5.3 6.8zM14.6 17.5c-1.8-2.2-3.5-4.5-5.2-6.7v11.6h13.7v-5c-2.9.1-5.7.1-8.5.1z"/><path d="M15.6 2.5v3.9h2.2v10.3h4.3V2.5h-6.5zM6.3 7.3H2v14.2h6.4v-4H6.3V7.3z"/></symbol><symbol viewBox="0 0 24 24" id="Brand-icon-netsuite-color"><path d="M14.7 13.2V1.5H1v4.9h8.4l5.3 6.8zM14.6 17.5c-1.8-2.2-3.5-4.5-5.2-6.7v11.6h13.7v-5c-2.9.1-5.7.1-8.5.1z" fill-rule="evenodd" clip-rule="evenodd" fill="#00467f"/><path d="M15.6 2.5v3.9h2.2v10.3h4.3V2.5h-6.5zM6.3 7.3H2v14.2h6.4v-4H6.3V7.3z" fill-rule="evenodd" clip-rule="evenodd" fill="#b9c7d4"/></symbol><symbol viewBox="0 0 24 24" id="Brand-icon-nexmo"><path d="M12 14.2c-1.2 0-2.2-1-2.2-2.2 0-1.2 1-2.2 2.2-2.2 1.2 0 2.2 1 2.2 2.2 0 1.2-1 2.2-2.2 2.2z"/><path d="M18.2 10.4H17l3 2.9 3-2.9h-1.5C20.9 5.7 16.8 2 11.8 2c-4.1 0-7.5 2.4-9 5.8l3 1.2c1-2.2 3.3-3.8 6-3.8 3.2 0 5.8 2.2 6.4 5.2zM12.2 18.8c-3.2 0-5.8-2.2-6.4-5.1h1.4l-3.1-3-3.1 3h1.4c.7 4.7 4.8 8.3 9.8 8.3 4.1 0 7.6-2.4 9.1-5.9l-3.1-1.2c-1.1 2.3-3.4 3.9-6 3.9"/></symbol><symbol viewBox="0 0 24 24" id="Brand-icon-nexmo-color"><path d="M12 14.2c-1.2 0-2.2-1-2.2-2.2 0-1.2 1-2.2 2.2-2.2 1.2 0 2.2 1 2.2 2.2 0 1.2-1 2.2-2.2 2.2z" fill="#1875bb"/><path d="M18.2 10.4H17l3 2.9 3-2.9h-1.5C20.9 5.7 16.8 2 11.8 2c-4.1 0-7.5 2.4-9 5.8l3 1.2c1-2.2 3.3-3.8 6-3.8 3.2 0 5.8 2.2 6.4 5.2zM12.2 18.8c-3.2 0-5.8-2.2-6.4-5.1h1.4l-3.1-3-3.1 3h1.4c.7 4.7 4.8 8.3 9.8 8.3 4.1 0 7.6-2.4 9.1-5.9l-3.1-1.2c-1.1 2.3-3.4 3.9-6 3.9" fill="#4c4d4f"/></symbol><symbol viewBox="0 0 24 24" id="Brand-icon-node"><path d="M21.1 5.9l-8-4.7c-.5-.3-1.2-.3-1.7 0L3.3 5.9c-.5.3-.9.8-.9 1.4v9.3c0 .6.4 1.2.9 1.5l2.1 1.2c1 .5 1.3.5 1.8.5 1.5 0 2.3-.9 2.3-2.5V8.1c0-.1.1-.3 0-.3h-1c-.2 0-.5.2-.5.3v9.2c0 .7-.7 1.4-1.9.8L4 16.9c-.1 0-.1-.1-.1-.2V7.3c0-.1.1-.2.2-.2l8.1-4.7h.3l8 4.6c.1 0 .1.1.1.2v9.3c0 .1 0 .2-.1.2l-8 4.7h-.2L10 20.3h-.2c-.6.3-.7.4-1.2.6-.1 0-.3.1.1.4l2.7 1.6c.3.1.6.2.8.2.3 0 .6-.1.8-.2l8-4.7c.5-.3.8-.9.8-1.5V7.3c.1-.6-.2-1.1-.7-1.4zm-6.4 9.3c-2.1 0-2.6-.6-2.8-1.6 0-.1-.1-.3-.2-.3h-1c-.1 0-.2.2-.2.3 0 1.4.7 3 4.3 3 2.6 0 4-1 4-2.7 0-1.7-1.2-2.2-3.7-2.5-2.5-.3-2.8-.5-2.8-1.1 0-.5.2-1.1 2.1-1.1 1.7 0 2.3.4 2.5 1.5 0 .1.1.2.2.2h1c.1 0 .1 0 .2-.1 0 0 .1-.1.1-.2-.2-1.9-1.4-2.8-4-2.8-2.3 0-3.7 1-3.7 2.6 0 1.8 1.4 2.3 3.6 2.5 2.6.3 2.8.6 2.8 1.2 0 .7-.7 1.1-2.4 1.1z"/></symbol><symbol viewBox="0 0 24 24" id="Brand-icon-node-color"><path fill="#83CD29" d="M21.1 5.9l-8-4.7c-.5-.3-1.2-.3-1.7 0L3.3 5.9c-.5.3-.9.8-.9 1.4v9.3c0 .6.4 1.2.9 1.5l2.1 1.2c1 .5 1.3.5 1.8.5 1.5 0 2.3-.9 2.3-2.5V8.1c0-.1.1-.3 0-.3h-1c-.2 0-.5.2-.5.3v9.2c0 .7-.7 1.4-1.9.8L4 16.9c-.1 0-.1-.1-.1-.2V7.3c0-.1.1-.2.2-.2l8.1-4.7h.3l8 4.6c.1 0 .1.1.1.2v9.3c0 .1 0 .2-.1.2l-8 4.7h-.2L10 20.3h-.2c-.6.3-.7.4-1.2.6-.1 0-.3.1.1.4l2.7 1.6c.3.1.6.2.8.2.3 0 .6-.1.8-.2l8-4.7c.5-.3.8-.9.8-1.5V7.3c.1-.6-.2-1.1-.7-1.4zm-6.4 9.3c-2.1 0-2.6-.6-2.8-1.6 0-.1-.1-.3-.2-.3h-1c-.1 0-.2.2-.2.3 0 1.4.7 3 4.3 3 2.6 0 4-1 4-2.7 0-1.7-1.2-2.2-3.7-2.5-2.5-.3-2.8-.5-2.8-1.1 0-.5.2-1.1 2.1-1.1 1.7 0 2.3.4 2.5 1.5 0 .1.1.2.2.2h1c.1 0 .1 0 .2-.1 0 0 .1-.1.1-.2-.2-1.9-1.4-2.8-4-2.8-2.3 0-3.7 1-3.7 2.6 0 1.8 1.4 2.3 3.6 2.5 2.6.3 2.8.6 2.8 1.2 0 .7-.7 1.1-2.4 1.1z"/></symbol><symbol viewBox="0 0 50 50" id="Brand-icon-office"><path d="M5 39.9l25.8 3.4v-34l-16.7 3.9V36L5 39.9v-29L30.7.9 45 5.7v38.8l-14.3 4.7L5 39.9z"/></symbol><symbol viewBox="0 0 50 50" id="Brand-icon-office-color"><path d="M5 39.9l25.8 3.4v-34l-16.7 3.9V36L5 39.9v-29L30.7.9 45 5.7v38.8l-14.3 4.7L5 39.9z" fill="#e73f24"/></symbol><symbol viewBox="0 0 24 24" id="Brand-icon-php"><path d="M12 6C5.9 6 1 8.5 1 11.6s4.9 5.6 11 5.6 11-2.5 11-5.6S18.1 6 12 6zm-2.9 6.7c-.3.2-.6.3-.9.5-.3.1-.7.1-1.2.1H5.9L5.6 15H4.3l1.2-6.1H8c.8 0 1.3.2 1.7.6s.5 1 .3 1.7c-.1.3-.2.6-.3.8-.2.2-.3.5-.6.7zm3.9.5l.5-2.6c.1-.3 0-.5-.1-.6-.1-.1-.3-.2-.7-.2h-1l-.7 3.4H9.8L11 7.3h1.3L12 8.9h1.2c.7 0 1.2.1 1.5.4.3.3.4.6.2 1.2l-.5 2.7H13zm7.2-2c-.1.3-.2.6-.3.8-.1.2-.3.5-.5.7-.3.2-.6.3-.9.5-.3.1-.7.1-1.2.1h-1.1l-.3 1.7h-1.3l1.2-6.1h2.5c.8 0 1.3.2 1.7.6.3.4.4 1 .2 1.7zm-2.5-1.4h-.9l-.5 2.5h.8c.5 0 .9-.1 1.2-.3.3-.2.4-.5.5-1 .1-.4 0-.8-.1-1-.1-.1-.5-.2-1-.2zm-10.2 0h-.9l-.5 2.5h.8c.5 0 .9-.1 1.2-.3.3-.2.4-.5.5-1 .1-.4 0-.8-.1-1-.2-.1-.5-.2-1-.2z"/></symbol><symbol viewBox="0 0 24 24" id="Brand-icon-php-color"><path fill="#6181B6" d="M12 6C5.9 6 1 8.5 1 11.6s4.9 5.6 11 5.6 11-2.5 11-5.6S18.1 6 12 6zm-2.9 6.7c-.3.2-.6.3-.9.5-.3.1-.7.1-1.2.1H5.9L5.6 15H4.3l1.2-6.1H8c.8 0 1.3.2 1.7.6s.5 1 .3 1.7c-.1.3-.2.6-.3.8-.2.2-.3.5-.6.7zm3.9.5l.5-2.6c.1-.3 0-.5-.1-.6-.1-.1-.3-.2-.7-.2h-1l-.7 3.4H9.8L11 7.3h1.3L12 8.9h1.2c.7 0 1.2.1 1.5.4.3.3.4.6.2 1.2l-.5 2.7H13zm7.2-2c-.1.3-.2.6-.3.8-.1.2-.3.5-.5.7-.3.2-.6.3-.9.5-.3.1-.7.1-1.2.1h-1.1l-.3 1.7h-1.3l1.2-6.1h2.5c.8 0 1.3.2 1.7.6.3.4.4 1 .2 1.7zm-2.5-1.4h-.9l-.5 2.5h.8c.5 0 .9-.1 1.2-.3.3-.2.4-.5.5-1 .1-.4 0-.8-.1-1-.1-.1-.5-.2-1-.2zm-10.2 0h-.9l-.5 2.5h.8c.5 0 .9-.1 1.2-.3.3-.2.4-.5.5-1 .1-.4 0-.8-.1-1-.2-.1-.5-.2-1-.2z"/></symbol><symbol viewBox="0 0 24 24" id="Brand-icon-python"><path d="M22.4 9.3c-.4-1.5-1.1-2.7-2.6-2.7h-1.9v2.3c0 1.8-1.6 3.2-3.3 3.2H9.2c-1.4 0-2.6 1.3-2.6 2.8v5c0 1.4 1.2 2.3 2.6 2.7 1.7.5 3.2.6 5.2 0 1.3-.4 2.6-1.2 2.6-2.7v-2h-5.2v-.7h7.9c1.5 0 2.1-1 2.6-2.6.6-1.7.6-3.2.1-5.3zm-7.6 10c.5 0 1 .4 1 1s-.4 1-1 1c-.5 0-1-.4-1-1s.5-1 1-1z"/><path d="M14.5 1.2c-.9-.1-1.9-.2-2.8-.2-.9 0-1.7.1-2.5.2-2.2.4-2.5 1.2-2.5 2.7v1.9h5.2v.7H4.6c-1.5 0-2.9.9-3.3 2.7-.5 2-.5 3.2 0 5.3.4 1.6 1.3 2.6 2.8 2.6h1.8v-2.3c0-1.7 1.5-3.2 3.3-3.2h5.3c1.5 0 2.6-1.2 2.6-2.7v-5c0-1.4-1.2-2.5-2.6-2.7zM8.9 4.6c-.5 0-1-.4-1-1s.4-1 1-1 1 .4 1 1-.5 1-1 1z"/></symbol><symbol viewBox="0 0 24 24" id="Brand-icon-python-color"><path fill="#FFD845" d="M22.4 9.3c-.4-1.5-1.1-2.7-2.6-2.7h-1.9v2.3c0 1.8-1.6 3.2-3.3 3.2H9.2c-1.4 0-2.6 1.3-2.6 2.8v5c0 1.4 1.2 2.3 2.6 2.7 1.7.5 3.2.6 5.2 0 1.3-.4 2.6-1.2 2.6-2.7v-2h-5.2v-.7h7.9c1.5 0 2.1-1 2.6-2.6.6-1.7.6-3.2.1-5.3zm-7.6 10c.5 0 1 .4 1 1s-.4 1-1 1c-.5 0-1-.4-1-1s.5-1 1-1z"/><path fill="#3979B0" d="M14.5 1.2c-.9-.1-1.9-.2-2.8-.2-.9 0-1.7.1-2.5.2-2.2.4-2.5 1.2-2.5 2.7v1.9h5.2v.7H4.6c-1.5 0-2.9.9-3.3 2.7-.5 2-.5 3.2 0 5.3.4 1.6 1.3 2.6 2.8 2.6h1.8v-2.3c0-1.7 1.5-3.2 3.3-3.2h5.3c1.5 0 2.6-1.2 2.6-2.7v-5c0-1.4-1.2-2.5-2.6-2.7zM8.9 4.6c-.5 0-1-.4-1-1s.4-1 1-1 1 .4 1 1-.5 1-1 1z"/></symbol><symbol viewBox="0 0 24 24" id="Brand-icon-rails"><path d="M20.1 3.2c-2.2-1.1-4.4-1.2-6.7-.4-2.1.7-3.8 2.1-5 3.9-2.1 3.1-3.6 6.4-4.5 10-.4 1.9-.7 3.8-.6 5.7v.6H14c0-.4-.1-.3-.1-.3-.6-1.4-1-3-1.3-4.5-.4-2.2-.7-4.4-.2-6.6.6-3.1 2.4-5.3 5.3-6.5 1.7-.7 3.3-.5 4.7.8h.1l.5-.7c-.9-.8-1.8-1.5-2.9-2zM1.2 17.4c-.1.7-.2 1.4-.2 2l2 .2.4-2.1c-.8 0-1.5-.1-2.2-.1zm3.9-6.1l-1.9-.7-.6 1.7 1.9.6c.2-.6.4-1.1.6-1.6zm8.8 9.5c.6 0 1.3.1 2 .1-.3-.5-.5-1-.7-1.5 0-.1-.1-.1-.2-.1h-1.6c.1.5.2.9.4 1.3-.1.2 0 .2.1.2zM8.3 6.1l-1.4-.9-1.2 1.2 1.5 1 1.1-1.3zm4.5 9.5c0 .1 0 .1.1.2.5.2 1 .4 1.6.7 0-.4 0-.8-.1-1.2 0-.1 0-.2-.1-.2-.5-.3-.9-.5-1.5-.8v1.3zm-.5-12.8l-1-1.1-1.3.6c.3.4.6.8 1 1.2l1.3-.7zm.6 8.7c0 .1 0 .2.1.3.4.3.8.7 1.2 1.1l.3-1.2c0-.1 0-.2-.1-.2-.3-.3-.7-.5-1.1-.8-.1.2-.2.5-.4.8zm2.3-9.3h1.5c-.1-.4-.1-.6-.1-.9 0-.1-.1-.2-.2-.2-.5 0-1-.1-1.5-.1.1.4.1.7.2 1-.1.1 0 .2.1.2zm.6 6.3v-.2c-.3-.3-.5-.7-.8-1.1l-.8.8 1.2 1.3c.1-.3.2-.5.4-.8zm.9-2.6l.5.9c.8-.4.8-.5.6-1.1l-1.1.2zM20.4 3c.3.2.7.4 1 .6l.2-.4c-.4-.3-.8-.6-1.3-1v.5c.1.1.1.3.1.3zM20 6c.4 0 .9.1 1.2.1v-.5c-.4-.1-.9-.2-1.2-.2V6z"/></symbol><symbol viewBox="0 0 24 24" id="Brand-icon-rails-color"><path d="M20.1 3.2c-2.2-1.1-4.4-1.2-6.7-.4-2.1.7-3.8 2.1-5 3.9-2.1 3.1-3.6 6.4-4.5 10-.4 1.9-.7 3.8-.6 5.7v.6H14c0-.4-.1-.3-.1-.3-.6-1.4-1-3-1.3-4.5-.4-2.2-.7-4.4-.2-6.6.6-3.1 2.4-5.3 5.3-6.5 1.7-.7 3.3-.5 4.7.8h.1l.5-.7c-.9-.8-1.8-1.5-2.9-2zM1.2 17.4c-.1.7-.2 1.4-.2 2l2 .2.4-2.1c-.8 0-1.5-.1-2.2-.1zm3.9-6.1l-1.9-.7-.6 1.7 1.9.6c.2-.6.4-1.1.6-1.6zm8.8 9.5c.6 0 1.3.1 2 .1-.3-.5-.5-1-.7-1.5 0-.1-.1-.1-.2-.1h-1.6c.1.5.2.9.4 1.3-.1.2 0 .2.1.2zM8.3 6.1l-1.4-.9-1.2 1.2 1.5 1 1.1-1.3zm4.5 9.5c0 .1 0 .1.1.2.5.2 1 .4 1.6.7 0-.4 0-.8-.1-1.2 0-.1 0-.2-.1-.2-.5-.3-.9-.5-1.5-.8v1.3zm-.5-12.8l-1-1.1-1.3.6c.3.4.6.8 1 1.2l1.3-.7zm.6 8.7c0 .1 0 .2.1.3.4.3.8.7 1.2 1.1l.3-1.2c0-.1 0-.2-.1-.2-.3-.3-.7-.5-1.1-.8-.1.2-.2.5-.4.8zm2.3-9.3h1.5c-.1-.4-.1-.6-.1-.9 0-.1-.1-.2-.2-.2-.5 0-1-.1-1.5-.1.1.4.1.7.2 1-.1.1 0 .2.1.2zm.6 6.3v-.2c-.3-.3-.5-.7-.8-1.1l-.8.8 1.2 1.3c.1-.3.2-.5.4-.8zm.9-2.6l.5.9c.8-.4.8-.5.6-1.1l-1.1.2zM20.4 3c.3.2.7.4 1 .6l.2-.4c-.4-.3-.8-.6-1.3-1v.5c.1.1.1.3.1.3zM20 6c.4 0 .9.1 1.2.1v-.5c-.4-.1-.9-.2-1.2-.2V6z" fill="#a62c46"/></symbol><symbol viewBox="0 0 24 24" id="Brand-icon-react"><path d="M20.3 8.3c-.4-.2-.9-.3-1.3-.5.1-.5.2-.9.3-1.4.4-2.6 0-4.4-1.3-5.1-.4-.2-.8-.3-1.2-.3-1.3 0-3 1-4.8 2.7C10.3 2 8.6 1 7.2 1c-.4 0-.8.1-1.2.3-1.2.7-1.7 2.6-1.3 5.2.1.4.2.9.3 1.3-.4.2-.9.3-1.3.5C1.3 9.2 0 10.5 0 12s1.3 2.8 3.7 3.7c.4.2.9.3 1.3.5-.1.5-.2.9-.3 1.4-.4 2.6 0 4.4 1.3 5.1.4.2.8.3 1.2.3 1.4 0 3.1-1 4.8-2.7 1.7 1.7 3.4 2.7 4.8 2.7.5 0 .9-.1 1.2-.3 1.2-.7 1.7-2.6 1.3-5.1-.1-.5-.2-.9-.3-1.4.5-.1.9-.3 1.3-.5 2.4-.9 3.7-2.2 3.7-3.7s-1.3-2.8-3.7-3.7zm-3.5-6.2c.2 0 .5.1.7.2.8.5 1.1 1.9.7 4-.1.4-.2.8-.3 1.3-1-.2-2.1-.4-3.2-.5-.7-.9-1.3-1.8-2-2.6 1.5-1.4 2.9-2.4 4.1-2.4zM7.7 14.5c.2.4.5.8.7 1.2-.7-.1-1.4-.2-2.1-.4.2-.6.4-1.3.7-2 .3.4.5.8.7 1.2zM6.4 8.7c.6-.2 1.3-.3 2-.4-.2.4-.4.7-.7 1.2-.2.4-.4.8-.7 1.2-.2-.7-.4-1.4-.6-2zM7.7 12c.3-.6.7-1.3 1-2 .3-.6.8-1.2 1.2-1.9.7-.1 1.4-.1 2.1-.1.7 0 1.5 0 2.1.1.4.6.8 1.3 1.2 1.9.4.6.7 1.3 1 2-.3.6-.7 1.3-1 2-.3.6-.7 1.3-1.2 1.9-.7.1-1.4.1-2.1.1-.7 0-1.5 0-2.1-.1-.5-.7-.9-1.3-1.2-1.9-.4-.7-.7-1.4-1-2zm8.6 2.5c.2-.4.4-.8.7-1.2.3.7.5 1.4.7 2-.7.2-1.3.3-2.1.4.2-.4.4-.7.7-1.2zm0-5l-.7-1.2c.7.1 1.4.2 2.1.4-.2.6-.4 1.3-.7 2-.3-.4-.5-.8-.7-1.2zm-3-2.5h-2.6c.4-.6.9-1.1 1.3-1.6.5.5.9 1 1.3 1.6zM6.5 2.3c.2-.1.5-.2.7-.2 1.2 0 2.6 1 4 2.4-.7.7-1.3 1.6-2 2.6-1.1.1-2.1.3-3.1.5-.1-.5-.2-.9-.3-1.3-.3-2.1 0-3.5.7-4zM5.3 15.1c-2.6-.8-4.2-2-4.2-3.1 0-.9 1.1-1.9 3-2.6.4-.2.8-.3 1.2-.4.3 1 .7 2 1.2 3.1-.5 1-.9 2-1.2 3zm1.9 6.8c-.2 0-.5-.1-.7-.2-.8-.5-1.1-1.9-.7-4 .1-.4.2-.8.3-1.3 1 .2 2.1.4 3.2.5.7.9 1.3 1.8 2 2.6-1.5 1.4-2.9 2.4-4.1 2.4zm3.5-4.9h2.6c-.4.6-.9 1.1-1.3 1.6-.5-.5-.9-1-1.3-1.6zm6.8 4.7c-.2.1-.4.2-.7.2-1.2 0-2.6-1-4-2.4.7-.7 1.3-1.6 2-2.6 1.1-.1 2.2-.3 3.2-.5.1.5.2.9.3 1.3.2 2.1-.1 3.5-.8 4zm2.4-7.1c-.4.2-.8.3-1.2.4-.3-1-.7-2-1.2-3.1.5-1 .9-2.1 1.2-3.1 2.6.8 4.2 2 4.2 3.1 0 1-1.1 2-3 2.7z"/><ellipse cx="12" cy="12" rx="2.2" ry="2.2"/></symbol><symbol viewBox="0 0 24 24" id="Brand-icon-react-color"><path d="M20.3 8.3c-.4-.2-.9-.3-1.3-.5.1-.5.2-.9.3-1.4.4-2.6 0-4.4-1.3-5.1-.4-.2-.8-.3-1.2-.3-1.3 0-3 1-4.8 2.7C10.3 2 8.6 1 7.2 1c-.4 0-.8.1-1.2.3-1.2.7-1.7 2.6-1.3 5.2.1.4.2.9.3 1.3-.4.2-.9.3-1.3.5C1.3 9.2 0 10.5 0 12s1.3 2.8 3.7 3.7c.4.2.9.3 1.3.5-.1.5-.2.9-.3 1.4-.4 2.6 0 4.4 1.3 5.1.4.2.8.3 1.2.3 1.4 0 3.1-1 4.8-2.7 1.7 1.7 3.4 2.7 4.8 2.7.5 0 .9-.1 1.2-.3 1.2-.7 1.7-2.6 1.3-5.1-.1-.5-.2-.9-.3-1.4.5-.1.9-.3 1.3-.5 2.4-.9 3.7-2.2 3.7-3.7s-1.3-2.8-3.7-3.7zm-3.5-6.2c.2 0 .5.1.7.2.8.5 1.1 1.9.7 4-.1.4-.2.8-.3 1.3-1-.2-2.1-.4-3.2-.5-.7-.9-1.3-1.8-2-2.6 1.5-1.4 2.9-2.4 4.1-2.4zM7.7 14.5c.2.4.5.8.7 1.2-.7-.1-1.4-.2-2.1-.4.2-.6.4-1.3.7-2 .3.4.5.8.7 1.2zM6.4 8.7c.6-.2 1.3-.3 2-.4-.2.4-.4.7-.7 1.2-.2.4-.4.8-.7 1.2-.2-.7-.4-1.4-.6-2zM7.7 12c.3-.6.7-1.3 1-2 .3-.6.8-1.2 1.2-1.9.7-.1 1.4-.1 2.1-.1.7 0 1.5 0 2.1.1.4.6.8 1.3 1.2 1.9.4.6.7 1.3 1 2-.3.6-.7 1.3-1 2-.3.6-.7 1.3-1.2 1.9-.7.1-1.4.1-2.1.1-.7 0-1.5 0-2.1-.1-.5-.7-.9-1.3-1.2-1.9-.4-.7-.7-1.4-1-2zm8.6 2.5c.2-.4.4-.8.7-1.2.3.7.5 1.4.7 2-.7.2-1.3.3-2.1.4.2-.4.4-.7.7-1.2zm0-5l-.7-1.2c.7.1 1.4.2 2.1.4-.2.6-.4 1.3-.7 2-.3-.4-.5-.8-.7-1.2zm-3-2.5h-2.6c.4-.6.9-1.1 1.3-1.6.5.5.9 1 1.3 1.6zM6.5 2.3c.2-.1.5-.2.7-.2 1.2 0 2.6 1 4 2.4-.7.7-1.3 1.6-2 2.6-1.1.1-2.1.3-3.1.5-.1-.5-.2-.9-.3-1.3-.3-2.1 0-3.5.7-4zM5.3 15.1c-2.6-.8-4.2-2-4.2-3.1 0-.9 1.1-1.9 3-2.6.4-.2.8-.3 1.2-.4.3 1 .7 2 1.2 3.1-.5 1-.9 2-1.2 3zm1.9 6.8c-.2 0-.5-.1-.7-.2-.8-.5-1.1-1.9-.7-4 .1-.4.2-.8.3-1.3 1 .2 2.1.4 3.2.5.7.9 1.3 1.8 2 2.6-1.5 1.4-2.9 2.4-4.1 2.4zm3.5-4.9h2.6c-.4.6-.9 1.1-1.3 1.6-.5-.5-.9-1-1.3-1.6zm6.8 4.7c-.2.1-.4.2-.7.2-1.2 0-2.6-1-4-2.4.7-.7 1.3-1.6 2-2.6 1.1-.1 2.2-.3 3.2-.5.1.5.2.9.3 1.3.2 2.1-.1 3.5-.8 4zm2.4-7.1c-.4.2-.8.3-1.2.4-.3-1-.7-2-1.2-3.1.5-1 .9-2.1 1.2-3.1 2.6.8 4.2 2 4.2 3.1 0 1-1.1 2-3 2.7z" fill="#61dafb"/><ellipse cx="12" cy="12" rx="2.2" ry="2.2" fill="#61dafb"/></symbol><symbol viewBox="0 0 24 24" id="Brand-icon-ruby"><path d="M7 20.8c4.9.7 9.7 1.4 14.5 2.1-1.7-2.9-3.3-5.7-4.9-8.5 0-.1-9.6 6.4-9.6 6.4zm15.9-16c-.4.7-.9 1.3-1.3 2-1.5 2.3-2.9 4.6-4.4 6.9-.1.1-.2.2-.1.4 1.4 2.4 2.8 4.9 4.2 7.4.2.4.4.8.7 1.1.4-5.9.7-11.9.9-17.8.1 0 0 0 0 0zM3.5 12.4c.1.1.2.1.3.1 1.4-.7 2.7-1.4 4.1-2.1.4-.2.8-.7 1.1-1 1.2-1.2 2.5-2.4 3.7-3.6.1-.1.2-.1.2-.2.4-.9.9-1.8 1.3-2.8-.5-.2-1.1-.4-1.6-.6-.1 0-.2 0-.3.1L8.7 4.4c-.4.3-.8.9-1.4 1.3L4.9 8.1c-.2.2-.4.5-.6.7-.6.8-1.1 1.7-1.7 2.6.3.4.6.7.9 1zm5-1.1c-.7 3-1.4 6-2 9 3.3-2.2 6.5-4.3 9.6-6.5-2.5-.8-5-1.7-7.6-2.5zm13.6-6.5c-2.8.5-5.5 1-8.2 1.4.9 2.4 1.8 4.7 2.8 7 1.8-2.8 3.6-5.5 5.4-8.4zM8.6 10.6c2.5.8 4.9 1.7 7.4 2.5-.9-2.4-1.8-4.6-2.7-7-1.6 1.6-3.1 3-4.7 4.5zm-5 3.6c-.9 2.2-1.7 4.3-2.6 6.5 1.7-.1 3.3-.1 5-.2l-2.4-6.3zM6 19c.7-2.6 1.3-5.2 1.9-7.8-1.4.7-2.6 1.4-4 2.2.7 1.7 1.4 3.7 2.1 5.6zM21.1 4.4c-.8-.2-1.6-.4-2.4-.7-1.1-.3-2.3-.6-3.4-.9-.1 0-.2-.1-.3.1-.4.9-.8 1.7-1.2 2.6v.1c2.4-.4 4.9-.8 7.3-1.2zm-4.6-2L23 4.3c-.4-1.1-.7-2.1-1.1-3.2l-5.4 1.3zM6.6 21.2c-.8-.1-1.6 0-2.4 0-.7 0-1.3 0-2 .1-.1 0-.1 0-.2.1 5.5.5 11 1.1 16.5 1.6v-.1c-1.8-.3-3.5-.5-5.3-.8-2.2-.2-4.4-.6-6.6-.9zm-5.5-2.5l2.1-5.1c.1-.2.1-.3-.1-.4-.3-.3-.6-.6-.9-1-.4 2.3-.9 4.5-1.3 6.7.2-.1.2-.2.2-.2zM15.1 2l3.6-.9c.1 0 .2 0 .2-.1V.9c-1.7.2-3.4.5-5.2.7.5.3.9.5 1.4.4z"/></symbol><symbol viewBox="0 0 24 24" id="Brand-icon-ruby-color"><path fill="#D91404" d="M7 20.8c4.9.7 9.7 1.4 14.5 2.1-1.7-2.9-3.3-5.7-4.9-8.5 0-.1-9.6 6.4-9.6 6.4zm15.9-16c-.4.7-.9 1.3-1.3 2-1.5 2.3-2.9 4.6-4.4 6.9-.1.1-.2.2-.1.4 1.4 2.4 2.8 4.9 4.2 7.4.2.4.4.8.7 1.1.4-5.9.7-11.9.9-17.8.1 0 0 0 0 0zM3.5 12.4c.1.1.2.1.3.1 1.4-.7 2.7-1.4 4.1-2.1.4-.2.8-.7 1.1-1 1.2-1.2 2.5-2.4 3.7-3.6.1-.1.2-.1.2-.2.4-.9.9-1.8 1.3-2.8-.5-.2-1.1-.4-1.6-.6-.1 0-.2 0-.3.1L8.7 4.4c-.4.3-.8.9-1.4 1.3L4.9 8.1c-.2.2-.4.5-.6.7-.6.8-1.1 1.7-1.7 2.6.3.4.6.7.9 1zm5-1.1c-.7 3-1.4 6-2 9 3.3-2.2 6.5-4.3 9.6-6.5-2.5-.8-5-1.7-7.6-2.5zm13.6-6.5c-2.8.5-5.5 1-8.2 1.4.9 2.4 1.8 4.7 2.8 7 1.8-2.8 3.6-5.5 5.4-8.4zM8.6 10.6c2.5.8 4.9 1.7 7.4 2.5-.9-2.4-1.8-4.6-2.7-7-1.6 1.6-3.1 3-4.7 4.5zm-5 3.6c-.9 2.2-1.7 4.3-2.6 6.5 1.7-.1 3.3-.1 5-.2l-2.4-6.3zM6 19c.7-2.6 1.3-5.2 1.9-7.8-1.4.7-2.6 1.4-4 2.2.7 1.7 1.4 3.7 2.1 5.6zM21.1 4.4c-.8-.2-1.6-.4-2.4-.7-1.1-.3-2.3-.6-3.4-.9-.1 0-.2-.1-.3.1-.4.9-.8 1.7-1.2 2.6v.1c2.4-.4 4.9-.8 7.3-1.2zm-4.6-2L23 4.3c-.4-1.1-.7-2.1-1.1-3.2l-5.4 1.3zM6.6 21.2c-.8-.1-1.6 0-2.4 0-.7 0-1.3 0-2 .1-.1 0-.1 0-.2.1 5.5.5 11 1.1 16.5 1.6v-.1c-1.8-.3-3.5-.5-5.3-.8-2.2-.2-4.4-.6-6.6-.9zm-5.5-2.5l2.1-5.1c.1-.2.1-.3-.1-.4-.3-.3-.6-.6-.9-1-.4 2.3-.9 4.5-1.3 6.7.2-.1.2-.2.2-.2zM15.1 2l3.6-.9c.1 0 .2 0 .2-.1V.9c-1.7.2-3.4.5-5.2.7.5.3.9.5 1.4.4z"/></symbol><symbol viewBox="0 0 50 50" id="Brand-icon-salesforce"><path d="M21.1 12.7c1.5-1.6 3.6-2.5 5.9-2.5 3.1 0 5.8 1.7 7.2 4.2 1.3-.6 2.7-.9 4.1-.9 5.6 0 10.1 4.5 10.1 10.1s-4.5 10.1-10.1 10.1c-.7 0-1.3-.1-2-.2-1.9 3.4-6.1 4.7-9.6 3-1.3 3.1-4.4 5.1-7.7 5.1-3.5 0-6.7-2.2-7.9-5.5-.5.1-1.1.2-1.6.2-4.3 0-7.8-3.5-7.8-7.8 0-2.8 1.5-5.4 3.9-6.8-.5-1.1-.7-2.3-.7-3.6 0-5 4.1-9 9.1-9 2.7.1 5.4 1.4 7.1 3.6zM8.4 26v.1c.1.1.2.1.3.2.5.3.9.3 1.4.3 1 0 1.6-.5 1.6-1.3s-.7-1-1.3-1.2h-.1c-.5-.2-.9-.3-.9-.6s.2-.5.6-.5c.4 0 .9.1 1.2.3 0 0 .1.1.1 0l.2-.5v-.1c-.4-.2-.9-.4-1.4-.4H10c-.9 0-1.5.5-1.5 1.3s.7 1.1 1.3 1.2h.1c.5.1.9.3.9.6s-.3.5-.7.5c-.2 0-.7 0-1.2-.4-.1 0-.1-.1-.2-.1h-.1l-.2.6zm14 0v.1c.1.1.2.1.3.2.5.3.9.3 1.4.3 1 0 1.6-.5 1.6-1.3s-.7-1-1.3-1.2h-.1c-.5-.2-.9-.3-.9-.6s.2-.5.6-.5c.4 0 .9.1 1.2.3 0 0 .1.1.1 0l.2-.5v-.1c-.4-.2-.9-.4-1.4-.4H24c-.9 0-1.5.5-1.5 1.3s.7 1.1 1.3 1.2h.1c.5.1.9.3.9.6s-.3.5-.7.5c-.2 0-.7 0-1.2-.4-.1 0-.1-.1-.2-.1h-.1l-.2.6zm9.6-1.6c0 .5-.1.8-.3 1.1-.2.3-.4.4-.8.4s-.6-.1-.8-.4c-.2-.3-.3-.6-.3-1.1 0-.5.1-.8.3-1.1.2-.3.4-.4.8-.4s.6.1.8.4c.2.3.3.7.3 1.1zm.8-.8c-.1-.3-.2-.5-.4-.7-.2-.2-.4-.4-.6-.5-.3-.1-.6-.2-.9-.2-.3 0-.6.1-.9.2-.2.1-.5.3-.6.5-.2.2-.3.4-.4.7-.1.3-.1.5-.1.9 0 .3 0 .6.1.9.1.3.2.5.4.7.2.2.4.3.6.5.2.1.5.2.9.2s.6-.1.9-.2.5-.3.6-.5c.2-.2.3-.4.4-.7.1-.3.1-.5.1-.9s0-.7-.1-.9zm6.6 2.2c0-.1-.1 0-.1 0-.1 0-.2.1-.4.1h-.4c-.4 0-.7-.1-.9-.3-.2-.2-.3-.6-.3-1.1 0-.4.1-.8.3-1 .2-.3.5-.4.9-.4.3 0 .6 0 .8.1 0 0 .1 0 .1-.1.1-.2.1-.3.2-.5v-.1c-.4-.1-.7-.2-1.1-.2-.3 0-.6.1-.9.2-.2.1-.5.3-.6.5-.2.2-.3.4-.4.7-.1.3-.1.6-.1.9 0 .7.2 1.2.5 1.6.4.4.9.6 1.6.6.4 0 .8-.1 1.1-.2 0 0 .1 0 0-.1l-.3-.7zm1.4-1.8c0-.3.1-.5.2-.6.2-.3.4-.4.8-.4s.6.1.8.4c.1.2.2.4.2.6h-2zm2.7-.6l-.3-.6c-.1-.2-.3-.3-.5-.4-.2-.1-.5-.2-.8-.2-.3 0-.6.1-.9.2-.2.1-.5.3-.6.5-.2.2-.3.4-.4.7-.1.3-.1.6-.1.9 0 .3 0 .6.1.9.1.3.2.5.4.7.2.2.4.3.7.4.3.1.6.2 1 .2.8 0 1.2-.2 1.4-.3 0 0 .1 0 0-.1l-.2-.5c0-.1-.1 0-.1 0-.2.1-.5.2-1.1.2-.4 0-.7-.1-.9-.3-.2-.2-.3-.5-.3-.9h2.7s.1 0 .1-.1c-.2-.2-.1-.7-.2-1.3zm-24.4.6c0-.3.1-.5.2-.6.2-.3.4-.4.8-.4s.6.1.8.4c.1.1.1.3.1.6h-1.9zm2.7-.6l-.3-.6c-.1-.2-.3-.3-.5-.4-.2-.1-.5-.2-.8-.2-.3 0-.6.1-.9.2-.2.1-.5.3-.6.5-.2.2-.3.4-.4.7-.1.3-.1.6-.1.9 0 .3 0 .6.1.9.1.3.2.5.4.7.2.2.4.3.7.4.3.1.6.2 1 .2.8 0 1.2-.2 1.4-.3 0 0 .1 0 0-.1l-.2-.5c0-.1-.1 0-.1 0-.2.1-.5.2-1.1.2-.4 0-.7-.1-.9-.3-.2-.2-.3-.5-.3-.9h2.7s.1 0 .1-.1c-.1-.2 0-.7-.2-1.3zm-8.5 2.3c-.1 0-.1-.1-.2-.2-.1 0-.1-.1-.1-.3 0-.2.1-.4.2-.5 0 0 .2-.2.8-.2.4 0 .7.1.7.1v1.2s-.3.1-.7.1c-.5 0-.7-.2-.7-.2zm1-1.8h-.4c-.2 0-.5 0-.7.1-.2.1-.4.1-.6.3-.2.1-.3.3-.4.4-.1.2-.2.4-.1.6 0 .2 0 .4.1.6.1.2.2.3.4.4.2.1.3.2.6.2.2 0 .5.1.7.1.3 0 .6 0 .8-.1.3 0 .6-.1.7-.1h.2c.1 0 .1-.1.1-.1v-2.5c0-.5-.1-.9-.4-1.2-.3-.2-.7-.4-1.2-.4-.2 0-.5 0-.7.1 0 0-.6.1-.8.3 0 0-.1 0 0 .1l.2.5c0 .1.1 0 .1 0 .5-.3 1.2-.3 1.2-.3.3 0 .5.1.7.2.1.1.2.3.2.6v.1c-.5.1-.7.1-.7.1zm21.8-1.4c.1-.1.1-.1 0 0 0-.1 0-.1 0 0-.2-.1-.3-.2-.5-.2-.3 0-.5 0-.7.1-.2.1-.4.2-.5.3v-.3s0-.1-.1-.1h-.7s-.1 0-.1.1v4s0 .1.1.1h.7s.1 0 .1-.1v-2c0-.3 0-.5.1-.7.1-.2.1-.3.2-.4.1-.1.2-.2.3-.2.1 0 .2-.1.4-.1h.3c.1 0 .1 0 .1-.1.2 0 .3-.4.3-.4zm-6.6-1.9c-.2-.1-.4-.1-.6-.1-.5 0-.9.1-1.1.4-.3.3-.5.7-.5 1.2v.2h-.6s-.1 0-.1.1l-.3.6c0 .1 0 .1.1.1h.6l-.6 3.4c0 .3-.1.5-.2.7-.1.2-.1.3-.2.4-.1.1-.1.2-.2.2h-.6-.1c0 .1-.2.5-.2.5v.1c.2.1.4.1.6.1.2 0 .5 0 .7-.1.2-.1.4-.2.5-.3.2-.2.3-.4.4-.6.1-.2.2-.5.2-.9l.6-3.4h.9s.1 0 .1-.1l.1-.6c0-.1 0-.1-.1-.1H28s0-.3.1-.6c0-.1.1-.2.2-.3.1-.1.1-.1.2-.1h.7l.3-.8zm-12.1 5.8v-5.7s0-.1-.1-.1h-.7s-.1 0-.1.1v5.7s0 .1.1.1l.8-.1c0 .1 0 .1 0 0z"/></symbol><symbol viewBox="0 0 50 50" id="Brand-icon-salesforce-color"><path d="M21.1 12.7c1.5-1.6 3.6-2.5 5.9-2.5 3.1 0 5.8 1.7 7.2 4.2 1.3-.6 2.7-.9 4.1-.9 5.6 0 10.1 4.5 10.1 10.1s-4.5 10.1-10.1 10.1c-.7 0-1.3-.1-2-.2-1.9 3.4-6.1 4.7-9.6 3-1.3 3.1-4.4 5.1-7.7 5.1-3.5 0-6.7-2.2-7.9-5.5-.5.1-1.1.2-1.6.2-4.3 0-7.8-3.5-7.8-7.8 0-2.8 1.5-5.4 3.9-6.8-.5-1.1-.7-2.3-.7-3.6 0-5 4.1-9 9.1-9 2.7.1 5.4 1.4 7.1 3.6zM8.4 26v.1c.1.1.2.1.3.2.5.3.9.3 1.4.3 1 0 1.6-.5 1.6-1.3s-.7-1-1.3-1.2h-.1c-.5-.2-.9-.3-.9-.6s.2-.5.6-.5c.4 0 .9.1 1.2.3 0 0 .1.1.1 0l.2-.5v-.1c-.4-.2-.9-.4-1.4-.4H10c-.9 0-1.5.5-1.5 1.3s.7 1.1 1.3 1.2h.1c.5.1.9.3.9.6s-.3.5-.7.5c-.2 0-.7 0-1.2-.4-.1 0-.1-.1-.2-.1h-.1l-.2.6zm14 0v.1c.1.1.2.1.3.2.5.3.9.3 1.4.3 1 0 1.6-.5 1.6-1.3s-.7-1-1.3-1.2h-.1c-.5-.2-.9-.3-.9-.6s.2-.5.6-.5c.4 0 .9.1 1.2.3 0 0 .1.1.1 0l.2-.5v-.1c-.4-.2-.9-.4-1.4-.4H24c-.9 0-1.5.5-1.5 1.3s.7 1.1 1.3 1.2h.1c.5.1.9.3.9.6s-.3.5-.7.5c-.2 0-.7 0-1.2-.4-.1 0-.1-.1-.2-.1h-.1l-.2.6zm9.6-1.6c0 .5-.1.8-.3 1.1-.2.3-.4.4-.8.4s-.6-.1-.8-.4c-.2-.3-.3-.6-.3-1.1 0-.5.1-.8.3-1.1.2-.3.4-.4.8-.4s.6.1.8.4c.2.3.3.7.3 1.1zm.8-.8c-.1-.3-.2-.5-.4-.7-.2-.2-.4-.4-.6-.5-.3-.1-.6-.2-.9-.2-.3 0-.6.1-.9.2-.2.1-.5.3-.6.5-.2.2-.3.4-.4.7-.1.3-.1.5-.1.9 0 .3 0 .6.1.9.1.3.2.5.4.7.2.2.4.3.6.5.2.1.5.2.9.2s.6-.1.9-.2.5-.3.6-.5c.2-.2.3-.4.4-.7.1-.3.1-.5.1-.9s0-.7-.1-.9zm6.6 2.2c0-.1-.1 0-.1 0-.1 0-.2.1-.4.1h-.4c-.4 0-.7-.1-.9-.3-.2-.2-.3-.6-.3-1.1 0-.4.1-.8.3-1 .2-.3.5-.4.9-.4.3 0 .6 0 .8.1 0 0 .1 0 .1-.1.1-.2.1-.3.2-.5v-.1c-.4-.1-.7-.2-1.1-.2-.3 0-.6.1-.9.2-.2.1-.5.3-.6.5-.2.2-.3.4-.4.7-.1.3-.1.6-.1.9 0 .7.2 1.2.5 1.6.4.4.9.6 1.6.6.4 0 .8-.1 1.1-.2 0 0 .1 0 0-.1l-.3-.7zm1.4-1.8c0-.3.1-.5.2-.6.2-.3.4-.4.8-.4s.6.1.8.4c.1.2.2.4.2.6h-2zm2.7-.6l-.3-.6c-.1-.2-.3-.3-.5-.4-.2-.1-.5-.2-.8-.2-.3 0-.6.1-.9.2-.2.1-.5.3-.6.5-.2.2-.3.4-.4.7-.1.3-.1.6-.1.9 0 .3 0 .6.1.9.1.3.2.5.4.7.2.2.4.3.7.4.3.1.6.2 1 .2.8 0 1.2-.2 1.4-.3 0 0 .1 0 0-.1l-.2-.5c0-.1-.1 0-.1 0-.2.1-.5.2-1.1.2-.4 0-.7-.1-.9-.3-.2-.2-.3-.5-.3-.9h2.7s.1 0 .1-.1c-.2-.2-.1-.7-.2-1.3zm-24.4.6c0-.3.1-.5.2-.6.2-.3.4-.4.8-.4s.6.1.8.4c.1.1.1.3.1.6h-1.9zm2.7-.6l-.3-.6c-.1-.2-.3-.3-.5-.4-.2-.1-.5-.2-.8-.2-.3 0-.6.1-.9.2-.2.1-.5.3-.6.5-.2.2-.3.4-.4.7-.1.3-.1.6-.1.9 0 .3 0 .6.1.9.1.3.2.5.4.7.2.2.4.3.7.4.3.1.6.2 1 .2.8 0 1.2-.2 1.4-.3 0 0 .1 0 0-.1l-.2-.5c0-.1-.1 0-.1 0-.2.1-.5.2-1.1.2-.4 0-.7-.1-.9-.3-.2-.2-.3-.5-.3-.9h2.7s.1 0 .1-.1c-.1-.2 0-.7-.2-1.3zm-8.5 2.3c-.1 0-.1-.1-.2-.2-.1 0-.1-.1-.1-.3 0-.2.1-.4.2-.5 0 0 .2-.2.8-.2.4 0 .7.1.7.1v1.2s-.3.1-.7.1c-.5 0-.7-.2-.7-.2zm1-1.8h-.4c-.2 0-.5 0-.7.1-.2.1-.4.1-.6.3-.2.1-.3.3-.4.4-.1.2-.2.4-.1.6 0 .2 0 .4.1.6.1.2.2.3.4.4.2.1.3.2.6.2.2 0 .5.1.7.1.3 0 .6 0 .8-.1.3 0 .6-.1.7-.1h.2c.1 0 .1-.1.1-.1v-2.5c0-.5-.1-.9-.4-1.2-.3-.2-.7-.4-1.2-.4-.2 0-.5 0-.7.1 0 0-.6.1-.8.3 0 0-.1 0 0 .1l.2.5c0 .1.1 0 .1 0 .5-.3 1.2-.3 1.2-.3.3 0 .5.1.7.2.1.1.2.3.2.6v.1c-.5.1-.7.1-.7.1zm21.8-1.4c.1-.1.1-.1 0 0 0-.1 0-.1 0 0-.2-.1-.3-.2-.5-.2-.3 0-.5 0-.7.1-.2.1-.4.2-.5.3v-.3s0-.1-.1-.1h-.7s-.1 0-.1.1v4s0 .1.1.1h.7s.1 0 .1-.1v-2c0-.3 0-.5.1-.7.1-.2.1-.3.2-.4.1-.1.2-.2.3-.2.1 0 .2-.1.4-.1h.3c.1 0 .1 0 .1-.1.2 0 .3-.4.3-.4zm-6.6-1.9c-.2-.1-.4-.1-.6-.1-.5 0-.9.1-1.1.4-.3.3-.5.7-.5 1.2v.2h-.6s-.1 0-.1.1l-.3.6c0 .1 0 .1.1.1h.6l-.6 3.4c0 .3-.1.5-.2.7-.1.2-.1.3-.2.4-.1.1-.1.2-.2.2h-.6-.1c0 .1-.2.5-.2.5v.1c.2.1.4.1.6.1.2 0 .5 0 .7-.1.2-.1.4-.2.5-.3.2-.2.3-.4.4-.6.1-.2.2-.5.2-.9l.6-3.4h.9s.1 0 .1-.1l.1-.6c0-.1 0-.1-.1-.1H28s0-.3.1-.6c0-.1.1-.2.2-.3.1-.1.1-.1.2-.1h.7l.3-.8zm-12.1 5.8v-5.7s0-.1-.1-.1h-.7s-.1 0-.1.1v5.7s0 .1.1.1l.8-.1c0 .1 0 .1 0 0z" fill="#009cdb"/></symbol><symbol viewBox="0 0 24 24" id="Brand-icon-slack"><path d="M5.6 14.9c0 1.3-1 2.3-2.3 2.3S1 16.2 1 14.9c0-1.3 1-2.3 2.3-2.3h2.3v2.3zM6.8 14.9c0-1.3 1-2.3 2.3-2.3s2.3 1 2.3 2.3v5.8c0 1.3-1 2.3-2.3 2.3s-2.3-1-2.3-2.3v-5.8z"/><path d="M9.1 5.6c-1.3 0-2.3-1-2.3-2.3S7.8 1 9.1 1s2.3 1 2.3 2.3v2.3H9.1zM9.1 6.8c1.3 0 2.3 1 2.3 2.3s-1 2.3-2.3 2.3H3.3C2 11.4 1 10.4 1 9.1s1-2.3 2.3-2.3h5.8z"/><path d="M18.4 9.1c0-1.3 1-2.3 2.3-2.3 1.3 0 2.3 1 2.3 2.3s-1 2.3-2.3 2.3h-2.3V9.1zM17.2 9.1c0 1.3-1 2.3-2.3 2.3-1.3 0-2.3-1-2.3-2.3V3.3c0-1.3 1-2.3 2.3-2.3 1.3 0 2.3 1 2.3 2.3v5.8z"/><path d="M14.9 18.4c1.3 0 2.3 1 2.3 2.3 0 1.3-1 2.3-2.3 2.3-1.3 0-2.3-1-2.3-2.3v-2.3h2.3zM14.9 17.2c-1.3 0-2.3-1-2.3-2.3 0-1.3 1-2.3 2.3-2.3h5.8c1.3 0 2.3 1 2.3 2.3 0 1.3-1 2.3-2.3 2.3h-5.8z"/></symbol><symbol viewBox="0 0 24 24" id="Brand-icon-slack-color"><path d="M5.6 14.9c0 1.3-1 2.3-2.3 2.3S1 16.2 1 14.9c0-1.3 1-2.3 2.3-2.3h2.3v2.3zM6.8 14.9c0-1.3 1-2.3 2.3-2.3s2.3 1 2.3 2.3v5.8c0 1.3-1 2.3-2.3 2.3s-2.3-1-2.3-2.3v-5.8z" fill="#e01e5a"/><path d="M9.1 5.6c-1.3 0-2.3-1-2.3-2.3S7.8 1 9.1 1s2.3 1 2.3 2.3v2.3H9.1zM9.1 6.8c1.3 0 2.3 1 2.3 2.3s-1 2.3-2.3 2.3H3.3C2 11.4 1 10.4 1 9.1s1-2.3 2.3-2.3h5.8z" fill="#36c5f0"/><path d="M18.4 9.1c0-1.3 1-2.3 2.3-2.3 1.3 0 2.3 1 2.3 2.3s-1 2.3-2.3 2.3h-2.3V9.1zM17.2 9.1c0 1.3-1 2.3-2.3 2.3-1.3 0-2.3-1-2.3-2.3V3.3c0-1.3 1-2.3 2.3-2.3 1.3 0 2.3 1 2.3 2.3v5.8z" fill="#2eb67d"/><path d="M14.9 18.4c1.3 0 2.3 1 2.3 2.3 0 1.3-1 2.3-2.3 2.3-1.3 0-2.3-1-2.3-2.3v-2.3h2.3zM14.9 17.2c-1.3 0-2.3-1-2.3-2.3 0-1.3 1-2.3 2.3-2.3h5.8c1.3 0 2.3 1 2.3 2.3 0 1.3-1 2.3-2.3 2.3h-5.8z" fill="#ecb22e"/></symbol><symbol viewBox="0 0 50 50" id="Brand-icon-sugarcrm"><path d="M13.1 43.7c-5.7-2.3-8.8-3.7-9.2-4.2-.6-.7-.6-1.5-.5-13.8.1-11.2.2-13.1.6-13.4.6-.3 18.4 6.7 19.4 7.8l.7.7-.1 13.1v13.2l-1.1.1c-.8 0-3.9-1.1-9.8-3.5zM26.3 47c-.1-.1-.2-6-.2-13.1 0-10.9.1-13 .5-13.6.6-.8 18.1-7.9 19.2-7.8l.7.1.1 13.1c.1 12.1 0 13.1-.5 13.8-.6.7-17.9 7.8-19 7.8-.4-.1-.7-.1-.8-.3zM14.5 14.6c-7.3-2.9-9.1-3.8-9.1-4.2 0-.9 17.3-7.8 19.6-7.8 2.3 0 19.6 6.9 19.6 7.8 0 .5-1.7 1.3-9.1 4.3-6.4 2.6-9.5 3.6-10.4 3.6-1-.1-4.4-1.3-10.6-3.7z"/></symbol><symbol viewBox="0 0 50 50" id="Brand-icon-sugarcrm-color"><path d="M13.1 43.7c-5.7-2.3-8.8-3.7-9.2-4.2-.6-.7-.6-1.5-.5-13.8.1-11.2.2-13.1.6-13.4.6-.3 18.4 6.7 19.4 7.8l.7.7-.1 13.1v13.2l-1.1.1c-.8 0-3.9-1.1-9.8-3.5z" fill="#343433"/><path d="M26.3 47c-.1-.1-.2-6-.2-13.1 0-10.9.1-13 .5-13.6.6-.8 18.1-7.9 19.2-7.8l.7.1.1 13.1c.1 12.1 0 13.1-.5 13.8-.6.7-17.9 7.8-19 7.8-.4-.1-.7-.1-.8-.3z" fill="#cdcccb"/><path d="M14.5 14.6c-7.3-2.9-9.1-3.8-9.1-4.2 0-.9 17.3-7.8 19.6-7.8 2.3 0 19.6 6.9 19.6 7.8 0 .5-1.7 1.3-9.1 4.3-6.4 2.6-9.5 3.6-10.4 3.6-1-.1-4.4-1.3-10.6-3.7z" fill="#e61718"/></symbol><symbol viewBox="0 0 24 24" id="Brand-icon-symfony"><path d="M12 1C5.9 1 1 5.9 1 12s4.9 11 11 11 11-4.9 11-11S18.1 1 12 1zm5.9 6.4c-.5 0-.9-.3-.9-.7 0-.2 0-.3.2-.5.1-.2.1-.2.1-.3 0-.3-.4-.3-.6-.3-1.7.1-2.1 2.3-2.4 4.1l-.2 1c.9.1 1.6 0 2-.3.5-.3-.1-.7-.1-1.1.1-.4.4-.6.7-.6.4 0 .7.4.7.8 0 .7-.9 1.7-2.8 1.6H14l-.4 1.9c-.3 1.5-.7 3.5-2.2 5.2-1.3 1.5-2.6 1.8-3.2 1.8-1.1 0-1.8-.6-1.8-1.3 0-.7.6-1.2 1.1-1.2.6 0 1 .4 1 .9 0 .4-.2.5-.3.6-.1 0-.2.1-.2.3 0 .1.1.2.3.2.5 0 .8-.2 1-.4 1.1-.9 1.5-2.4 2-5.2l.1-.7c.2-.9.4-1.9.7-3-.8-.5-1.2-1.2-2.2-1.5-.7-.2-1.1 0-1.4.3-.4.4-.2 1 .1 1.4l.5.6c.7.8 1.1 1.4.9 2.2-.2 1.3-1.8 2.3-3.7 1.7-1.6-.5-1.9-1.6-1.7-2.2.2-.6.6-.7 1-.5.5.1.6.7.5 1.1 0 .1 0 .1-.1.2.1.2 0 .3 0 .5-.1.3.4.6.7.7.7.2 1.4-.2 1.6-.7.1-.6-.3-1-.4-1.1l-.7-.7c-.3-.3-1-1.3-.7-2.4.2-.5.5-.9.9-1.2.8-.6 1.7-.7 2.5-.5 1.1.3 1.6 1.1 2.3 1.6.4-1.1.9-2.2 1.7-3.2.7-.9 1.7-1.5 2.8-1.5 1.1 0 2 .5 2 1.3.1.4-.1 1-.8 1.1z"/></symbol><symbol viewBox="0 0 24 24" id="Brand-icon-symfony-color"><path d="M12 1C5.9 1 1 5.9 1 12s4.9 11 11 11 11-4.9 11-11S18.1 1 12 1zm5.9 6.4c-.5 0-.9-.3-.9-.7 0-.2 0-.3.2-.5.1-.2.1-.2.1-.3 0-.3-.4-.3-.6-.3-1.7.1-2.1 2.3-2.4 4.1l-.2 1c.9.1 1.6 0 2-.3.5-.3-.1-.7-.1-1.1.1-.4.4-.6.7-.6.4 0 .7.4.7.8 0 .7-.9 1.7-2.8 1.6H14l-.4 1.9c-.3 1.5-.7 3.5-2.2 5.2-1.3 1.5-2.6 1.8-3.2 1.8-1.1 0-1.8-.6-1.8-1.3 0-.7.6-1.2 1.1-1.2.6 0 1 .4 1 .9 0 .4-.2.5-.3.6-.1 0-.2.1-.2.3 0 .1.1.2.3.2.5 0 .8-.2 1-.4 1.1-.9 1.5-2.4 2-5.2l.1-.7c.2-.9.4-1.9.7-3-.8-.5-1.2-1.2-2.2-1.5-.7-.2-1.1 0-1.4.3-.4.4-.2 1 .1 1.4l.5.6c.7.8 1.1 1.4.9 2.2-.2 1.3-1.8 2.3-3.7 1.7-1.6-.5-1.9-1.6-1.7-2.2.2-.6.6-.7 1-.5.5.1.6.7.5 1.1 0 .1 0 .1-.1.2.1.2 0 .3 0 .5-.1.3.4.6.7.7.7.2 1.4-.2 1.6-.7.1-.6-.3-1-.4-1.1l-.7-.7c-.3-.3-1-1.3-.7-2.4.2-.5.5-.9.9-1.2.8-.6 1.7-.7 2.5-.5 1.1.3 1.6 1.1 2.3 1.6.4-1.1.9-2.2 1.7-3.2.7-.9 1.7-1.5 2.8-1.5 1.1 0 2 .5 2 1.3.1.4-.1 1-.8 1.1z" fill="#1a171b"/></symbol><symbol viewBox="0 0 24 24" id="Brand-icon-twitter"><path d="M7.9 21c8.3 0 12.8-6.9 12.8-12.9v-.6c.9-.7 1.7-1.5 2.3-2.4-.8.4-1.7.6-2.6.7.9-.6 1.6-1.5 2-2.5-.9.5-1.9.9-2.9 1.1-1.7-1.8-4.6-1.9-6.4-.2C12 5.3 11.5 7 11.8 8.6c-3.6-.2-7-1.9-9.3-4.7-1.2 2-.6 4.7 1.4 6-.7 0-1.4-.2-2-.6v.1c0 2.2 1.5 4 3.6 4.5-.7.2-1.4.2-2 .1.6 1.9 2.3 3.1 4.2 3.2C6.1 18.3 4.1 19 2.1 19H1c2.1 1.3 4.5 2 6.9 2"/></symbol><symbol viewBox="0 0 24 24" id="Brand-icon-twitter-color"><path d="M7.9 21c8.3 0 12.8-6.9 12.8-12.9v-.6c.9-.7 1.7-1.5 2.3-2.4-.8.4-1.7.6-2.6.7.9-.6 1.6-1.5 2-2.5-.9.5-1.9.9-2.9 1.1-1.7-1.8-4.6-1.9-6.4-.2C12 5.3 11.5 7 11.8 8.6c-3.6-.2-7-1.9-9.3-4.7-1.2 2-.6 4.7 1.4 6-.7 0-1.4-.2-2-.6v.1c0 2.2 1.5 4 3.6 4.5-.7.2-1.4.2-2 .1.6 1.9 2.3 3.1 4.2 3.2C6.1 18.3 4.1 19 2.1 19H1c2.1 1.3 4.5 2 6.9 2" fill="#1da1f2"/></symbol><symbol viewBox="0 0 24 24" id="Brand-icon-vonage"><g clip-path="url(#clip0)"><path fill-rule="evenodd" clip-rule="evenodd" d="M0 1.7h4.74l4.539 9.984L7.03 16.93a.147.147 0 0 1-.268.001L0 1.7zm10.939 18.016C11.912 18.195 19.177 1.7 19.177 1.7H24s-7.142 16.233-7.996 17.796c-.751 1.375-2.107 2.931-3.988 2.931h-4.34a.026.026 0 1 1-.004-.052c1.386-.216 2.136-.891 3.267-2.66z" fill="#131414"/></g><defs><clipPath id="clip0"><path d="M0 0h24v24H0V0z" fill="#fff"/></clipPath></defs></symbol><symbol viewBox="0 0 24 24" id="Brand-icon-vonage-color"><path d="M15.5 4.8c0 2.1-1.6 3.8-3.5 3.8S8.4 6.9 8.4 4.8 10 1 12 1c1.9.1 3.5 1.8 3.5 3.8" fill="#1494ed"/><path d="M1.6 3.5c-.4-1.5.9-1.6 1.2-.9 3.3 6.9 7.6 15.3 9.3 15.3S18 9.6 21.3 2.6c.3-.8 1.6-.6 1.2.8C19.8 12 15.7 23 12.1 23 8.3 23 4.2 12 1.6 3.5" fill="#ff8f02"/></symbol><symbol viewBox="0 0 24 24" id="Brand-icon-vue"><path d="M4.9 2.1h4.3L12 6.6l2.8-4.5h4.3L12 14 4.9 2.1z"/><path d="M.2 2.1h4.7L12 14l7.1-11.9h4.7L12 21.7.2 2.1z"/></symbol><symbol viewBox="0 0 24 24" id="Brand-icon-vue-color"><path d="M4.9 2.1h4.3L12 6.6l2.8-4.5h4.3L12 14 4.9 2.1z" fill="#35495e"/><path d="M.2 2.1h4.7L12 14l7.1-11.9h4.7L12 21.7.2 2.1z" fill="#41b883"/></symbol><symbol viewBox="0 0 24 24" id="Brand-icon-wordpress"><path d="M12 23c6.1 0 11-4.9 11-11 0-6-4.9-10.9-10.7-11C6.1.9 1 5.9 1 11.9 1 18.1 5.9 23 12 23zm0-21.5c5.8 0 10.5 4.7 10.5 10.6 0 5.6-4.8 10.3-10.5 10.3-5.8 0-10.5-4.7-10.5-10.5C1.5 6.2 6.3 1.5 12 1.5zM7.6 7.1c.1.3-.2.4-.5.4s-.6 0-.9.1c1.1 3.4 2.3 6.7 3.4 10.2.1-.1.1-.2.1-.2.6-1.9 1.3-3.8 1.9-5.7.1-.2 0-.4 0-.6-.3-.9-.7-1.9-1-2.8-.2-.7-.5-1.1-1.2-1-.1 0-.3-.3-.4-.4.1-.1.3-.3.5-.3h4.7c.2 0 .4.2.5.3-.2.1-.3.4-.5.4-.3.1-.6.1-1 .1 1.1 3.4 2.3 6.7 3.4 10.2.5-1.7 1-3.3 1.5-4.9.4-1.4.2-2.7-.6-4-.2-.4-.5-.7-.6-1.1-.1-.5-.3-1-.2-1.5.1-.8.7-1.2 1.6-1.3C13.8.9 6.8 2.4 4.2 6.9c1 0 2-.1 2.9-.1.2 0 .5.1.5.3zm1.8 13.7v.2c1.9.5 3.8.5 5.8-.2l-3-8.1c-1 2.8-1.9 5.5-2.8 8.1zm-1.5-.3L3.4 8.2c-2 3.9-.5 9.9 4.5 12.3zm13.5-7.9c.1-1.9-.5-4.4-1.1-4.8-.1.7 0 1.4-.2 2.1-.5 1.6-1 3.2-1.6 4.8-.6 1.7-1.2 3.5-1.8 5.2 2.9-1.6 4.5-4 4.7-7.3z"/></symbol><symbol viewBox="0 0 24 24" id="Brand-icon-wordpress-color"><path d="M12 23c6.1 0 11-4.9 11-11 0-6-4.9-10.9-10.7-11C6.1.9 1 5.9 1 11.9 1 18.1 5.9 23 12 23zm0-21.5c5.8 0 10.5 4.7 10.5 10.6 0 5.6-4.8 10.3-10.5 10.3-5.8 0-10.5-4.7-10.5-10.5C1.5 6.2 6.3 1.5 12 1.5zM7.6 7.1c.1.3-.2.4-.5.4s-.6 0-.9.1c1.1 3.4 2.3 6.7 3.4 10.2.1-.1.1-.2.1-.2.6-1.9 1.3-3.8 1.9-5.7.1-.2 0-.4 0-.6-.3-.9-.7-1.9-1-2.8-.2-.7-.5-1.1-1.2-1-.1 0-.3-.3-.4-.4.1-.1.3-.3.5-.3h4.7c.2 0 .4.2.5.3-.2.1-.3.4-.5.4-.3.1-.6.1-1 .1 1.1 3.4 2.3 6.7 3.4 10.2.5-1.7 1-3.3 1.5-4.9.4-1.4.2-2.7-.6-4-.2-.4-.5-.7-.6-1.1-.1-.5-.3-1-.2-1.5.1-.8.7-1.2 1.6-1.3C13.8.9 6.8 2.4 4.2 6.9c1 0 2-.1 2.9-.1.2 0 .5.1.5.3zm1.8 13.7v.2c1.9.5 3.8.5 5.8-.2l-3-8.1c-1 2.8-1.9 5.5-2.8 8.1zm-1.5-.3L3.4 8.2c-2 3.9-.5 9.9 4.5 12.3zm13.5-7.9c.1-1.9-.5-4.4-1.1-4.8-.1.7 0 1.4-.2 2.1-.5 1.6-1 3.2-1.6 4.8-.6 1.7-1.2 3.5-1.8 5.2 2.9-1.6 4.5-4 4.7-7.3z" fill="#3179a1"/></symbol><symbol viewBox="0 0 50 50" id="Brand-icon-zendesk"><path d="M1.7 42.5l21.6-25.8v25.8H1.7zm21.5-35c0 5.9-4.8 10.7-10.8 10.7S1.7 13.4 1.7 7.5h21.5zm3.6 35c0-5.9 4.8-10.7 10.8-10.7s10.8 4.8 10.8 10.7H26.8zm0-9.2V7.5h21.6L26.8 33.3z"/></symbol><symbol viewBox="0 0 50 50" id="Brand-icon-zendesk-color"><path d="M1.7 42.5l21.6-25.8v25.8H1.7zm21.5-35c0 5.9-4.8 10.7-10.8 10.7S1.7 13.4 1.7 7.5h21.5zm3.6 35c0-5.9 4.8-10.7 10.8-10.7s10.8 4.8 10.8 10.7H26.8zm0-9.2V7.5h21.6L26.8 33.3z" fill="#03363d"/></symbol><symbol viewBox="0 0 50 50" id="Brand-icon-zoho"><path d="M41.9 42.3c-.4-.6-1-1.1-1.6-1.5-.7-.4-1.6-.7-2.7-.8-1.2-.2-2.4-.3-3.6-.2l-15.7.1c.3-1.1 1.2-2.5 2.5-4.2 1.5-1.9 3.6-4 6.3-6.5l2.1-2c.3-.3.8-.8 1.5-1.3 4.2-3.9 6.9-7.1 8.2-9.8.9-1.9 1.5-3.9 1.9-6 .2-1.2.3-2.3.2-3.5 0-1.1-.1-2-.4-2.7-.3-.9-.7-1.5-1.2-1.9-.6-.5-1.4-.8-2.6-1-.9-.1-2.1-.2-3.5-.2L15.2.9c-2.2 0-3.9.4-5 1.1-.9.6-1.5 1.6-1.7 2.6 0 .3-.1.6-.1.9 0 1.5.6 2.7 1.8 3.4.7.4 1.6.7 2.6.9.7.1 1.5.2 2.4.2h15.2c-.1 1.2-.4 2.3-1 3.3-.6 1.1-2 2.6-4.1 4.5-.6.5-1.5 1.3-2.7 2.4-4.7 4-8.2 7.5-10.5 10.6-1.6 2.1-2.8 4.2-3.6 6.3-.5 1.2-.8 2.4-1 3.6-.1.9-.2 1.7-.2 2.5 0 1.2.2 2.2.4 3 .3.8.7 1.4 1.3 1.9.5.4 1.4.6 2.5.8 1.5.2 3.5.3 6.1.3l16.5-.1c2.9 0 5-.4 6.3-1.1 1-.5 1.7-1.5 1.8-2.7 0-.3.1-.6.1-.9.2-.8 0-1.5-.4-2.1z"/></symbol><symbol viewBox="0 0 50 50" id="Brand-icon-zoho-color"><path d="M41.9 42.3c-.4-.6-1-1.1-1.6-1.5-.7-.4-1.6-.7-2.7-.8-1.2-.2-2.4-.3-3.6-.2l-15.7.1c.3-1.1 1.2-2.5 2.5-4.2 1.5-1.9 3.6-4 6.3-6.5l2.1-2c.3-.3.8-.8 1.5-1.3 4.2-3.9 6.9-7.1 8.2-9.8.9-1.9 1.5-3.9 1.9-6 .2-1.2.3-2.3.2-3.5 0-1.1-.1-2-.4-2.7-.3-.9-.7-1.5-1.2-1.9-.6-.5-1.4-.8-2.6-1-.9-.1-2.1-.2-3.5-.2L15.2.9c-2.2 0-3.9.4-5 1.1-.9.6-1.5 1.6-1.7 2.6 0 .3-.1.6-.1.9 0 1.5.6 2.7 1.8 3.4.7.4 1.6.7 2.6.9.7.1 1.5.2 2.4.2h15.2c-.1 1.2-.4 2.3-1 3.3-.6 1.1-2 2.6-4.1 4.5-.6.5-1.5 1.3-2.7 2.4-4.7 4-8.2 7.5-10.5 10.6-1.6 2.1-2.8 4.2-3.6 6.3-.5 1.2-.8 2.4-1 3.6-.1.9-.2 1.7-.2 2.5 0 1.2.2 2.2.4 3 .3.8.7 1.4 1.3 1.9.5.4 1.4.6 2.5.8 1.5.2 3.5.3 6.1.3l16.5-.1c2.9 0 5-.4 6.3-1.1 1-.5 1.7-1.5 1.8-2.7 0-.3.1-.6.1-.9.2-.8 0-1.5-.4-2.1z" fill="#cb2232"/></symbol></svg>