<?xml version="1.0" encoding="UTF-8"?>
<svg width="220px" height="31px" viewBox="0 0 220 31" version="1.1" xmlns="http://www.w3.org/2000/svg" xmlns:xlink="http://www.w3.org/1999/xlink">
    <!-- Generator: Sketch 49.3 (51167) - http://www.bohemiancoding.com/sketch -->
    <title>Nexmo_VonageAPI_horiz_white</title>
    <desc>Created with Sketch.</desc>
    <defs></defs>
    <g id="UI-components" stroke="none" stroke-width="1" fill="none" fill-rule="evenodd">
        <g id="Billing-Copy-3" transform="translate(-25.000000, -14.000000)">
            <g id="Group-2">
                <g id="Nexmo_VonageAPI_horiz_white" transform="translate(25.000000, 14.000000)">
                    <path d="M0,8.60020604 L3.32093453,8.60020604 L3.32093453,11.2952317 L3.39488156,11.2952317 C4.24349059,9.44936647 6.45744694,8.1566813 9.15116808,8.1566813 C12.5456042,8.1566813 15.4976945,10.1875343 15.4976945,14.8398636 L15.4976945,26.1013802 L12.1767599,26.1013802 L12.1767599,15.7630191 C12.1767599,12.4769243 10.2951198,11.2586799 8.19163851,11.2586799 C5.42397033,11.2586799 3.32093453,13.0305501 3.32093453,17.0918103 L3.32093453,26.1013802 L0,26.1013802 L0,8.60020604" id="Fill-1" fill="#FFFFFE"></path>
                    <path d="M31.4545695,15.7239064 C31.3794737,12.8771159 29.7205403,10.7511585 26.2898022,10.7511585 C22.9346151,10.7511585 20.7481909,13.4539564 20.7481909,15.7239064 L31.4545695,15.7239064 Z M20.7481909,18.3188186 C20.7481909,21.3096018 23.650983,23.2911316 26.7799727,23.2911316 C28.8535257,23.2911316 30.3613574,22.2823132 31.680767,20.7327613 L34.2444904,22.6064054 C32.3593595,24.9485692 29.7583157,26.1013802 26.3275777,26.1013802 C20.67264,26.1013802 17.1290307,22.2100994 17.1290307,17.1290307 C17.1290307,12.0122902 21.0121638,8.1566813 26.3653531,8.1566813 C32.6611079,8.1566813 35.0737296,12.7692302 35.0737296,17.1655727 L35.0737296,18.3188186 L20.7481909,18.3188186 Z" id="Fill-2" fill="#FFFFFE"></path>
                    <polyline id="Fill-3" fill="#FFFFFE" points="40.2382617 16.5229824 34.2918769 8.1566813 38.3974291 8.1566813 42.4679423 14.5165327 46.4675228 8.1566813 50.3256651 8.1566813 44.5916512 16.5229824 51.3870922 26.1013802 47.2815399 26.1013802 42.3260768 18.5678243 37.3710411 26.1013802 33.4423933 26.1013802 40.2382617 16.5229824"></polyline>
                    <path d="M53.8340966,8.60020604 L56.8963041,8.60020604 L56.8963041,11.3322293 L56.9689204,11.3322293 C57.2972341,10.2985269 59.4114688,8.1566813 62.5102045,8.1566813 C65.0618974,8.1566813 66.8117303,9.26482451 67.9053758,11.4062244 C69.0355495,9.26482451 71.2954569,8.1566813 73.3736035,8.1566813 C78.6961585,8.1566813 79.9354767,11.9968477 79.9354767,15.9105635 L79.9354767,26.1013802 L76.6545401,26.1013802 L76.6545401,16.3536425 C76.6545401,13.6951686 76.1079374,11.2586799 72.9361453,11.2586799 C69.7643532,11.2586799 68.525475,13.4366316 68.525475,16.5386302 L68.525475,26.1013802 L65.2440983,26.1013802 L65.2440983,16.9442659 C65.2440983,13.6216193 64.770552,11.2586799 61.5987599,11.2586799 C59.2292679,11.2586799 57.1150332,13.0675477 57.1150332,17.018261 L57.1150332,26.1013802 L53.8340966,26.1013802 L53.8340966,8.60020604" id="Fill-4" fill="#FFFFFE"></path>
                    <path d="M92.9861668,17.5368648 C92.9861668,18.663012 92.0732391,19.5760351 90.9467834,19.5760351 C89.8207539,19.5760351 88.9078262,18.663012 88.9078262,17.5368648 C88.9078262,16.4102914 89.8207539,15.4976945 90.9467834,15.4976945 C92.0732391,15.4976945 92.9861668,16.4102914 92.9861668,17.5368648" id="Fill-5" fill="#FFFFFE"></path>
                    <path d="M90.7380755,11.1522225 C93.6938918,11.1522225 96.1462159,13.255142 96.6611511,16.0268759 L95.5040872,16.0268759 L98.3190665,18.760367 L101.142848,16.0268759 L99.7313974,16.0268759 C99.1918157,11.593753 95.3729328,8.1566813 90.7380755,8.1566813 C86.9790483,8.1566813 83.7547615,10.4169177 82.3824811,13.6358317 L85.2097837,14.7296627 C86.1388677,12.6241358 88.2637457,11.1522225 90.7380755,11.1522225" id="Fill-6" fill="#FFFFFE"></path>
                    <path d="M91.0937627,23.8768369 C88.1687258,23.8768369 85.7328968,21.8220916 85.1509082,19.0880187 L86.4391852,19.0880187 L83.5993823,16.3133626 L80.7511449,19.0880187 L82.0425293,19.0880187 C82.6573686,23.5102647 86.4738115,26.9170483 91.0937627,26.9170483 C94.8760232,26.9170483 98.1215755,24.634243 99.5115119,21.3796464 L96.6588351,20.269784 C95.7159336,22.3933443 93.5797555,23.8768369 91.0937627,23.8768369" id="Fill-7" fill="#FFFFFE"></path>
                    <path d="M102.819736,10.1525639 L103.181593,10.1525639 C103.504284,10.1525639 103.624761,9.98616993 103.624761,9.78683507 C103.624761,9.56722886 103.470227,9.42068395 103.208413,9.42068395 L102.819736,9.42068395 L102.819736,10.1525639 Z M103.504284,10.4321395 L104.087512,11.2641091 L103.678401,11.2641091 L103.13519,10.4655027 L102.819736,10.4655027 L102.819736,11.2641091 L102.477887,11.2641091 L102.477887,9.10816742 L103.262478,9.10816742 C103.765672,9.10816742 103.986618,9.40083493 103.986618,9.79316986 C103.986618,10.1462291 103.799304,10.352321 103.504284,10.4321395 Z M104.825275,10.199019 C104.825275,9.2948327 104.114332,8.54859392 103.187978,8.54859392 C102.249705,8.54859392 101.531951,9.30116749 101.531951,10.2061985 C101.531951,11.10405 102.249705,11.8562012 103.181593,11.8562012 C104.107947,11.8562012 104.825275,11.0977152 104.825275,10.199019 Z M105.221189,10.199019 C105.221189,11.2970501 104.322081,12.235022 103.181593,12.235022 C102.04153,12.235022 101.142848,11.3105643 101.142848,10.199019 C101.142848,9.09507551 102.04153,8.1566813 103.187978,8.1566813 C104.328892,8.1566813 105.221189,9.08789608 105.221189,10.199019 Z" id="Fill-8" fill="#FFFFFE"></path>
                    <path d="M127.8,23.993865 L127.8,9.79386503 L132.06,9.79386503 C136.56,9.79386503 139.42,12.713865 139.42,16.913865 C139.42,21.093865 136.64,23.993865 132.12,23.993865 L127.8,23.993865 Z M129.54,22.413865 L132,22.413865 C135.42,22.413865 137.64,20.113865 137.64,16.913865 C137.64,13.653865 135.4,11.373865 132.08,11.373865 L129.54,11.373865 L129.54,22.413865 Z M150.72,18.973865 C150.72,19.233865 150.68,19.573865 150.68,19.633865 L143.18,19.633865 C143.4,21.453865 144.68,22.633865 146.44,22.633865 C147.66,22.633865 148.58,22.073865 149.18,21.313865 L150.32,22.293865 C149.48,23.373865 148.16,24.113865 146.38,24.113865 C143.62,24.113865 141.54,22.093865 141.54,19.133865 C141.54,16.193865 143.56,14.133865 146.2,14.133865 C148.92,14.133865 150.72,16.173865 150.72,18.973865 Z M146.28,15.633865 C144.76,15.633865 143.54,16.633865 143.24,18.293865 L149.12,18.293865 C148.86,16.693865 147.84,15.633865 146.28,15.633865 Z M159.44,14.253865 L161.2,14.253865 L157.24,23.993865 L155.68,23.993865 L151.7,14.253865 L153.44,14.253865 L156.44,21.933865 L156.5,21.933865 L159.44,14.253865 Z M171.26,18.973865 C171.26,19.233865 171.22,19.573865 171.22,19.633865 L163.72,19.633865 C163.94,21.453865 165.22,22.633865 166.98,22.633865 C168.2,22.633865 169.12,22.073865 169.72,21.313865 L170.86,22.293865 C170.02,23.373865 168.7,24.113865 166.92,24.113865 C164.16,24.113865 162.08,22.093865 162.08,19.133865 C162.08,16.193865 164.1,14.133865 166.74,14.133865 C169.46,14.133865 171.26,16.173865 171.26,18.973865 Z M166.82,15.633865 C165.3,15.633865 164.08,16.633865 163.78,18.293865 L169.66,18.293865 C169.4,16.693865 168.38,15.633865 166.82,15.633865 Z M173.86,23.993865 L173.86,9.27386503 L175.48,9.27386503 L175.48,23.993865 L173.86,23.993865 Z M183.16,24.113865 C180.12,24.113865 178.12,21.933865 178.12,19.133865 C178.12,16.333865 180.12,14.133865 183.16,14.133865 C186.02,14.133865 188.16,16.173865 188.16,19.133865 C188.16,22.093865 186.02,24.113865 183.16,24.113865 Z M183.16,22.633865 C185.04,22.633865 186.52,21.193865 186.52,19.133865 C186.52,17.053865 185.04,15.633865 183.16,15.633865 C181.12,15.633865 179.76,17.193865 179.76,19.133865 C179.76,21.073865 181.14,22.633865 183.16,22.633865 Z M195.64,14.133865 C198.4,14.133865 200.4,16.313865 200.4,19.193865 C200.4,22.173865 198.32,24.113865 195.64,24.113865 C194.26,24.113865 193.1,23.533865 192.32,22.553865 L192.28,22.553865 L192.28,27.953865 L190.68,27.953865 L190.68,14.253865 L192.3,14.253865 L192.3,15.693865 L192.32,15.693865 C193.14,14.673865 194.34,14.133865 195.64,14.133865 Z M195.48,22.633865 C197.46,22.633865 198.76,21.153865 198.76,19.193865 C198.76,17.033865 197.32,15.633865 195.46,15.633865 C193.62,15.633865 192.24,17.193865 192.24,19.193865 C192.24,21.253865 193.76,22.633865 195.48,22.633865 Z M211.46,18.973865 C211.46,19.233865 211.42,19.573865 211.42,19.633865 L203.92,19.633865 C204.14,21.453865 205.42,22.633865 207.18,22.633865 C208.4,22.633865 209.32,22.073865 209.92,21.313865 L211.06,22.293865 C210.22,23.373865 208.9,24.113865 207.12,24.113865 C204.36,24.113865 202.28,22.093865 202.28,19.133865 C202.28,16.193865 204.3,14.133865 206.94,14.133865 C209.66,14.133865 211.46,16.173865 211.46,18.973865 Z M207.02,15.633865 C205.5,15.633865 204.28,16.633865 203.98,18.293865 L209.86,18.293865 C209.6,16.693865 208.58,15.633865 207.02,15.633865 Z M218.74,14.133865 C218.9,14.133865 219.04,14.133865 219.14,14.153865 L219.14,15.953865 C218.92,15.933865 218.66,15.913865 218.5,15.913865 C216.66,15.913865 215.54,17.333865 215.54,19.293865 L215.54,23.993865 L213.92,23.993865 L213.92,14.253865 L215.54,14.253865 L215.54,15.973865 L215.56,15.973865 C216.28,14.813865 217.42,14.133865 218.74,14.133865 Z" id="Developer" fill="#FFFFFF"></path>
                    <polygon id="Fill-30" fill-opacity="0.3" fill="#FFFFFE" points="113.37787 30.1797208 114.193538 30.1797208 114.193538 0 113.37787 0"></polygon>
                </g>
            </g>
        </g>
    </g>
</svg>