<?xml version="1.0" encoding="utf-8"?>
<!-- Generator: Adobe Illustrator 22.0.1, SVG Export Plug-In . SVG Version: 6.00 Build 0)  -->
<svg version="1.1" id="nexmo-logo-collapsed" xmlns="http://www.w3.org/2000/svg" xmlns:xlink="http://www.w3.org/1999/xlink" x="0px" y="0px"
	 viewBox="0 0 46.9 41.2" style="enable-background:new 0 0 46.9 41.2;" xml:space="preserve">
<circle style="fill:#FFFFFF;" cx="23.5" cy="20.1" r="4.8"/>
<path style="fill:#FFFFFF;" d="M23.3,6.9c6.7,0,12.3,4.8,13.5,11.2h-2.6l6.4,6.3l6.4-6.3h-3.2C42.5,7.9,33.8,0,23.3,0
	c-8.5,0-15.9,5.2-19,12.6l6.4,2.5C12.8,10.3,17.7,6.9,23.3,6.9z"/>
<path style="fill:#FFFFFF;" d="M23.3,34.3c-6.6,0-12.1-4.7-13.4-10.9h2.9l-6.4-6.3L0,23.4h2.9c1.4,10,10,17.7,20.4,17.7
	c8.5,0,15.8-5.2,19-12.6l-6.4-2.5C33.7,30.9,28.9,34.3,23.3,34.3z"/>
</svg>
