<svg xmlns="http://www.w3.org/2000/svg" xmlns:xlink="http://www.w3.org/1999/xlink"><symbol viewBox="0 0 24 24" id="Brand-icon-android" xmlns="http://www.w3.org/2000/svg"><path d="M4 8.1c-.7 0-1.4.6-1.4 1.4v5.7c0 .8.6 1.4 1.4 1.4.8 0 1.4-.6 1.4-1.4V9.5c-.1-.8-.7-1.4-1.4-1.4M14.9 3l.9-1.7c.1-.1 0-.2-.1-.3-.1 0-.2 0-.3.1l-1 1.7c-.8-.4-1.7-.6-2.7-.6-1 0-1.9.2-2.7.6L8 1.1c.2-.1.1-.1 0-.1-.1.1-.1.2 0 .3L8.9 3C7.1 4 5.8 5.8 5.8 7.9H18C18 5.8 16.8 4 14.9 3M9.1 5.7c-.3 0-.5-.2-.5-.5s.2-.5.5-.5.5.2.5.5-.2.5-.5.5m5.6 0c-.3 0-.5-.2-.5-.5s.2-.5.5-.5.5.2.5.5-.2.5-.5.5M5.8 8.4v8.8c0 .8.6 1.4 1.4 1.4h1v3c0 .7.6 1.4 1.4 1.4.8 0 1.4-.6 1.4-1.4v-3h1.8v3c0 .7.6 1.4 1.4 1.4.8 0 1.4-.6 1.4-1.4v-3h1c.8 0 1.4-.6 1.4-1.4V8.4H5.8zm15.4 1.1c0-.8-.6-1.4-1.4-1.4-.7 0-1.4.6-1.4 1.4v5.7c0 .8.6 1.4 1.4 1.4.7 0 1.4-.6 1.4-1.4V9.5z"/></symbol><symbol viewBox="0 0 24 24" id="Brand-icon-android-color" xmlns="http://www.w3.org/2000/svg"><path d="M4 8.1c-.7 0-1.4.6-1.4 1.4v5.7c0 .8.6 1.4 1.4 1.4.8 0 1.4-.6 1.4-1.4V9.5c-.1-.8-.7-1.4-1.4-1.4M14.9 3l.9-1.7c.1-.1 0-.2-.1-.3-.1 0-.2 0-.3.1l-1 1.7c-.8-.4-1.7-.6-2.7-.6-1 0-1.9.2-2.7.6L8 1.1c.2-.1.1-.1 0-.1-.1.1-.1.2 0 .3L8.9 3C7.1 4 5.8 5.8 5.8 7.9H18C18 5.8 16.8 4 14.9 3M9.1 5.7c-.3 0-.5-.2-.5-.5s.2-.5.5-.5.5.2.5.5-.2.5-.5.5m5.6 0c-.3 0-.5-.2-.5-.5s.2-.5.5-.5.5.2.5.5-.2.5-.5.5M5.8 8.4v8.8c0 .8.6 1.4 1.4 1.4h1v3c0 .7.6 1.4 1.4 1.4.8 0 1.4-.6 1.4-1.4v-3h1.8v3c0 .7.6 1.4 1.4 1.4.8 0 1.4-.6 1.4-1.4v-3h1c.8 0 1.4-.6 1.4-1.4V8.4H5.8zm15.4 1.1c0-.8-.6-1.4-1.4-1.4-.7 0-1.4.6-1.4 1.4v5.7c0 .8.6 1.4 1.4 1.4.7 0 1.4-.6 1.4-1.4V9.5z" fill="#a4c439"/></symbol><symbol viewBox="0 0 24 24" id="Brand-icon-apple" xmlns="http://www.w3.org/2000/svg"><path d="M18 12.7c0 3.3 2.9 4.4 3 4.5 0 .1-.5 1.6-1.5 3.1-.9 1.3-1.9 2.7-3.4 2.7s-2-.9-3.6-.9c-1.7 0-2.2.8-3.6.9-1.5.1-2.6-1.4-3.5-2.8-2-2.7-3.4-7.7-1.5-11.1 1-1.7 2.7-2.7 4.6-2.8 1.4 0 2.8 1 3.6 1 .9 0 2.5-1.2 4.2-1 .7 0 2.7.3 4 2.2 0 .1-2.3 1.4-2.3 4.2m-2.7-8.2c.7-.9 1.2-2.2 1.1-3.5-1.1 0-2.5.7-3.3 1.7-.7.8-1.3 2.1-1.2 3.4 1.3.1 2.6-.7 3.4-1.6"/></symbol><symbol viewBox="0 0 24 24" id="Brand-icon-apple-color" xmlns="http://www.w3.org/2000/svg"><path d="M18 12.7c0 3.3 2.9 4.4 3 4.5 0 .1-.5 1.6-1.5 3.1-.9 1.3-1.9 2.7-3.4 2.7s-2-.9-3.6-.9c-1.7 0-2.2.8-3.6.9-1.5.1-2.6-1.4-3.5-2.8-2-2.7-3.4-7.7-1.5-11.1 1-1.7 2.7-2.7 4.6-2.8 1.4 0 2.8 1 3.6 1 .9 0 2.5-1.2 4.2-1 .7 0 2.7.3 4 2.2 0 .1-2.3 1.4-2.3 4.2m-2.7-8.2c.7-.9 1.2-2.2 1.1-3.5-1.1 0-2.5.7-3.3 1.7-.7.8-1.3 2.1-1.2 3.4 1.3.1 2.6-.7 3.4-1.6"/></symbol><symbol viewBox="0 0 24 24" id="Brand-icon-curl" xmlns="http://www.w3.org/2000/svg"><path d="M12 1H.4l2 17.1L12 23l9.6-4.9 2-17.1H12zm8.4 10.7c0 .2 0 .3-.2.4l-6.4 3.1-.5.2-.1-.6v-1.5l.2-.1 4.5-2-4.2-1.9-1.8 3.6-.9 2-.2.4-.4-.2-6.6-3c-.2-.1-.3-.2-.3-.4v-1.1c0-.2.1-.3.3-.4l6.7-3.1.6-.3V9l-.3.1-4.6 2 4.3 1.9 1.6-3.1 1.2-2.5.2-.4.4.2 6.4 3c.1.1.1.2.1.4v1.1z"/></symbol><symbol viewBox="0 0 24 24" id="Brand-icon-curl-color" xmlns="http://www.w3.org/2000/svg"><path fill="#0B3754" d="M12 1H.4l2 17.1L12 23l9.6-4.9 2-17.1H12zm8.4 10.7c0 .2 0 .3-.2.4l-6.4 3.1-.5.2-.1-.6v-1.5l.2-.1 4.5-2-4.2-1.9-1.8 3.6-.9 2-.2.4-.4-.2-6.6-3c-.2-.1-.3-.2-.3-.4v-1.1c0-.2.1-.3.3-.4l6.7-3.1.6-.3V9l-.3.1-4.6 2 4.3 1.9 1.6-3.1 1.2-2.5.2-.4.4.2 6.4 3c.1.1.1.2.1.4v1.1z"/></symbol><symbol viewBox="0 0 24 24" id="Brand-icon-dotnet" xmlns="http://www.w3.org/2000/svg"><path d="M15.2 14.5l.3-.6c.4-1.2.8-2.5 1.2-3.7.2-.5.3-.9.6-1.4.5-.6 1.1-1 1.9-1.1.3 0 .6-.1.9-.1h3c0 .1 0 .1-.1.1-.3.6-.7 1.2-1 1.8-.6 1.1-1.2 2.1-1.9 3.2-.4.7-.8 1.3-1.3 1.9-.4.4-.8.9-1.3 1.2-.3.2-.7.3-1.1.3H12c-.4 0-.8-.2-1.1-.5-.4-.4-.7-.9-.9-1.5-.4-1-.6-2.1-.9-3.2-.1-.5-.3-1-.4-1.5v-.1l-.2.2c-.5.6-1 1.2-1.5 1.9-.1.2-.2.4-.2.6-.2.8-.5 1.6-.7 2.4-.3.7-.7 1.3-1.4 1.7-.4.2-.9.3-1.3.3H1.3c-.2 0-.2 0-.1-.2.1-1.1.5-2.2 1-3.2.5-1.1 1.1-2.1 1.8-3.1.5-.6 1-1.2 1.7-1.7.3-.2.7-.4 1.1-.4h4.7c.8 0 1.4.3 1.8 1 .3.4.5.8.6 1.3.3.9.5 1.8.8 2.8.1.5.3 1.1.4 1.6h.1z"/></symbol><symbol viewBox="0 0 24 24" id="Brand-icon-dotnet-color" xmlns="http://www.w3.org/2000/svg"><path fill="#1384C8" d="M15.2 14.5l.3-.6c.4-1.2.8-2.5 1.2-3.7.2-.5.3-.9.6-1.4.5-.6 1.1-1 1.9-1.1.3 0 .6-.1.9-.1h3c0 .1 0 .1-.1.1-.3.6-.7 1.2-1 1.8-.6 1.1-1.2 2.1-1.9 3.2-.4.7-.8 1.3-1.3 1.9-.4.4-.8.9-1.3 1.2-.3.2-.7.3-1.1.3H12c-.4 0-.8-.2-1.1-.5-.4-.4-.7-.9-.9-1.5-.4-1-.6-2.1-.9-3.2-.1-.5-.3-1-.4-1.5v-.1l-.2.2c-.5.6-1 1.2-1.5 1.9-.1.2-.2.4-.2.6-.2.8-.5 1.6-.7 2.4-.3.7-.7 1.3-1.4 1.7-.4.2-.9.3-1.3.3H1.3c-.2 0-.2 0-.1-.2.1-1.1.5-2.2 1-3.2.5-1.1 1.1-2.1 1.8-3.1.5-.6 1-1.2 1.7-1.7.3-.2.7-.4 1.1-.4h4.7c.8 0 1.4.3 1.8 1 .3.4.5.8.6 1.3.3.9.5 1.8.8 2.8.1.5.3 1.1.4 1.6h.1z"/></symbol><symbol viewBox="0 0 24 24" id="Brand-icon-facebook" xmlns="http://www.w3.org/2000/svg"><path d="M21.8 1H2.2C1.5 1 1 1.5 1 2.2v19.6c0 .7.5 1.2 1.2 1.2h10.5v-8.5H9.9v-3.3h2.9V8.7c0-2.8 1.7-4.4 4.3-4.4.9 0 1.7 0 2.6.1v3h-1.8c-1.4 0-1.6.7-1.6 1.6v2.1h3.3l-.6 3.4h-2.9V23h5.6c.7 0 1.2-.5 1.2-1.2V2.2c.1-.7-.4-1.2-1.1-1.2z"/></symbol><symbol viewBox="0 0 24 24" id="Brand-icon-facebook-color" xmlns="http://www.w3.org/2000/svg"><path d="M21.8 1H2.2C1.5 1 1 1.5 1 2.2v19.6c0 .7.5 1.2 1.2 1.2h10.5v-8.5H9.9v-3.3h2.9V8.7c0-2.8 1.7-4.4 4.3-4.4.9 0 1.7 0 2.6.1v3h-1.8c-1.4 0-1.6.7-1.6 1.6v2.1h3.3l-.6 3.4h-2.9V23h5.6c.7 0 1.2-.5 1.2-1.2V2.2c.1-.7-.4-1.2-1.1-1.2z" fill="#3d5a98"/></symbol><symbol viewBox="0 0 24 24" id="Brand-icon-github" xmlns="http://www.w3.org/2000/svg"><path d="M12 1C5.9 1 1 6 1 12.3c0 5 3.2 9.2 7.5 10.7.5.1.8-.2.8-.5v-2.1C6.2 21 5.6 19 5.6 19c-.5-1.3-1.2-1.7-1.2-1.7-1-.7.1-.7.1-.7 1.1.1 1.7 1.2 1.7 1.2 1 1.7 2.6 1.2 3.2.9.1-.7.4-1.2.7-1.5C7.5 17 5 16 5 11.7c0-1.2.4-2.2 1.1-3-.1-.3-.5-1.5.1-3 0 0 .9-.3 3 1.2.9-.3 1.8-.4 2.8-.4.9 0 1.9.1 2.8.4 2.1-1.5 3-1.2 3-1.2.6 1.6.2 2.7.1 3 .7.8 1.1 1.8 1.1 3 0 4.3-2.6 5.3-5 5.6.4.4.7 1 .7 2.1v3.1c0 .3.2.7.8.5 4.4-1.5 7.5-5.7 7.5-10.7C23 6 18.1 1 12 1z"/></symbol><symbol viewBox="0 0 24 24" id="Brand-icon-github-color" xmlns="http://www.w3.org/2000/svg"><path fill="#181616" d="M12 1C5.9 1 1 6 1 12.3c0 5 3.2 9.2 7.5 10.7.5.1.8-.2.8-.5v-2.1C6.2 21 5.6 19 5.6 19c-.5-1.3-1.2-1.7-1.2-1.7-1-.7.1-.7.1-.7 1.1.1 1.7 1.2 1.7 1.2 1 1.7 2.6 1.2 3.2.9.1-.7.4-1.2.7-1.5C7.5 17 5 16 5 11.7c0-1.2.4-2.2 1.1-3-.1-.3-.5-1.5.1-3 0 0 .9-.3 3 1.2.9-.3 1.8-.4 2.8-.4.9 0 1.9.1 2.8.4 2.1-1.5 3-1.2 3-1.2.6 1.6.2 2.7.1 3 .7.8 1.1 1.8 1.1 3 0 4.3-2.6 5.3-5 5.6.4.4.7 1 .7 2.1v3.1c0 .3.2.7.8.5 4.4-1.5 7.5-5.7 7.5-10.7C23 6 18.1 1 12 1z"/></symbol><symbol viewBox="0 0 24 24" id="Brand-icon-google" xmlns="http://www.w3.org/2000/svg"><path d="M8.6 1.6c-5.9 2-9 8.3-6.9 14 1.2 3.4 4.1 6.1 7.7 7 1.9.5 3.9.5 5.7.1 1.7-.4 3.3-1.2 4.6-2.3 1.4-1.2 2.3-2.8 2.8-4.6.5-1.9.6-3.9.3-5.8H12.2v4.3h6.1c-.2 1.4-1.1 2.6-2.2 3.4-.7.5-1.6.8-2.5 1-.9.2-1.8.2-2.7 0-.9-.3-1.7-.7-2.5-1.2-1.2-.8-2.1-2-2.6-3.4s-.5-2.9 0-4.3c.3-1 .9-1.9 1.6-2.6 1.7-1.7 4.3-2.4 6.6-1.7.9.3 1.7.7 2.4 1.4.7-.7 1.4-1.3 2.1-2l1.1-1.1c-1-1-2.3-1.7-3.6-2.2-2.3-.8-5-.8-7.4 0z"/><path d="M8.6 1.6c2.5-.8 5.1-.8 7.6.1 1.3.5 2.6 1.2 3.6 2.2L18.7 5c-.7.7-1.4 1.3-2.1 2-.7-.6-1.5-1.1-2.4-1.4-2.4-.7-4.9 0-6.6 1.7-.8.7-1.4 1.6-1.7 2.6L2.2 7.1c1.3-2.6 3.6-4.6 6.4-5.5z"/><path d="M1.2 9.8c.2-1 .5-1.9 1-2.8l3.7 2.8c-.5 1.4-.5 2.9 0 4.3-1.2.9-2.5 1.9-3.7 2.8-1.1-2.2-1.5-4.7-1-7.1zM12.2 9.9h10.6c.4 1.9.3 3.9-.3 5.8-.5 1.7-1.5 3.3-2.8 4.6l-3.6-2.7c1.2-.8 2-2 2.2-3.4h-6.1V9.9z"/><path d="M2.2 16.9c1.2-.9 2.5-1.9 3.7-2.8.5 1.4 1.4 2.5 2.6 3.4.7.5 1.6.9 2.5 1.1.9.2 1.8.2 2.7 0 .9-.1 1.7-.5 2.5-1l3.6 2.7c-1.3 1.2-2.9 2-4.6 2.3-1.9.4-3.9.4-5.7-.1-1.5-.4-2.9-1.1-4.1-2-1.4-.9-2.5-2.1-3.2-3.6z"/></symbol><symbol viewBox="0 0 24 24" id="Brand-icon-google-color" xmlns="http://www.w3.org/2000/svg"><path d="M8.6 1.6c-5.9 2-9 8.3-6.9 14 1.2 3.4 4.1 6.1 7.7 7 1.9.5 3.9.5 5.7.1 1.7-.4 3.3-1.2 4.6-2.3 1.4-1.2 2.3-2.8 2.8-4.6.5-1.9.6-3.9.3-5.8H12.2v4.3h6.1c-.2 1.4-1.1 2.6-2.2 3.4-.7.5-1.6.8-2.5 1-.9.2-1.8.2-2.7 0-.9-.3-1.7-.7-2.5-1.2-1.2-.8-2.1-2-2.6-3.4s-.5-2.9 0-4.3c.3-1 .9-1.9 1.6-2.6 1.7-1.7 4.3-2.4 6.6-1.7.9.3 1.7.7 2.4 1.4.7-.7 1.4-1.3 2.1-2l1.1-1.1c-1-1-2.3-1.7-3.6-2.2-2.3-.8-5-.8-7.4 0z" fill="#fff"/><path d="M8.6 1.6c2.5-.8 5.1-.8 7.6.1 1.3.5 2.6 1.2 3.6 2.2L18.7 5c-.7.7-1.4 1.3-2.1 2-.7-.6-1.5-1.1-2.4-1.4-2.4-.7-4.9 0-6.6 1.7-.8.7-1.4 1.6-1.7 2.6L2.2 7.1c1.3-2.6 3.6-4.6 6.4-5.5z" fill="#e33629"/><path d="M1.2 9.8c.2-1 .5-1.9 1-2.8l3.7 2.8c-.5 1.4-.5 2.9 0 4.3-1.2.9-2.5 1.9-3.7 2.8-1.1-2.2-1.5-4.7-1-7.1z" fill="#f8bd00"/><path d="M12.2 9.9h10.6c.4 1.9.3 3.9-.3 5.8-.5 1.7-1.5 3.3-2.8 4.6l-3.6-2.7c1.2-.8 2-2 2.2-3.4h-6.1V9.9z" fill="#587dbd"/><path d="M2.2 16.9c1.2-.9 2.5-1.9 3.7-2.8.5 1.4 1.4 2.5 2.6 3.4.7.5 1.6.9 2.5 1.1.9.2 1.8.2 2.7 0 .9-.1 1.7-.5 2.5-1l3.6 2.7c-1.3 1.2-2.9 2-4.6 2.3-1.9.4-3.9.4-5.7-.1-1.5-.4-2.9-1.1-4.1-2-1.4-.9-2.5-2.1-3.2-3.6z" fill="#319f43"/></symbol><symbol viewBox="0 0 24 24" id="Brand-icon-java" xmlns="http://www.w3.org/2000/svg"><path d="M15 16.5c-2.8.5-4.4.5-6.4.3-1.5-.1-.5-.9-.5-.9-4.1 1.4 2.3 2.9 7.9 1.2-.6-.2-1-.6-1-.6zM8.7 18.6c-3.7 1 2.2 3.1 7 1.1-.7-.3-1.3-.6-1.3-.6-2.1.4-3.1.4-5 .2-1.6-.2-.7-.7-.7-.7zM17.2 4.9S9 7 12.9 11.5c1.2 1.3-.3 2.5-.3 2.5s2.9-1.5 1.6-3.4c-1.3-1.8-2.2-2.7 3-5.7zM16.9 17.6v.1c6-1.6 3.8-5.6.9-4.6-.3.1-.4.3-.4.3s.1 0 .5-.1c1.4-.3 3.5 2-1 4.3z"/><path d="M19.2 20.5s.7.6-.7 1c-2.7.8-11.3 1.1-13.7 0-.9-.4.7-.9 1.3-1 .5-.1.8-.1.8-.1-1-.7-6.2 1.3-2.6 1.9 9.5 1.6 17.3-.7 14.9-1.8zM15.9 14.6c.5-.3 1.1-.6 1.1-.6s-1.8.3-3.6.5c-2.2.2-4.6.3-5.8.1-2.9-.4 1.5-1.4 1.5-1.4s-1.7-.1-3.7.8c-2.5 1.2 6.1 1.8 10.5.6zM11.8 13.1c-.9-2-3.9-3.7 0-6.8C16.7 2.5 14.2 0 14.2 0c1 4-3.5 5.2-5.2 7.6-1.1 1.7.6 3.5 2.8 5.5z"/><path d="M17.1 23.1c-3.7.7-8.2.6-10.9.2 0 0 .5.4 3.4.6 4.3.3 11-.2 11.1-2.2 0 0-.3.8-3.6 1.4z"/></symbol><symbol viewBox="0 0 24 24" id="Brand-icon-java-color" xmlns="http://www.w3.org/2000/svg"><path fill="#0074BD" d="M15 16.5c-2.8.5-4.4.5-6.4.3-1.5-.1-.5-.9-.5-.9-4.1 1.4 2.3 2.9 7.9 1.2-.6-.2-1-.6-1-.6zM8.7 18.6c-3.7 1 2.2 3.1 7 1.1-.7-.3-1.3-.6-1.3-.6-2.1.4-3.1.4-5 .2-1.6-.2-.7-.7-.7-.7z"/><path fill="#EA2D2E" d="M17.2 4.9S9 7 12.9 11.5c1.2 1.3-.3 2.5-.3 2.5s2.9-1.5 1.6-3.4c-1.3-1.8-2.2-2.7 3-5.7z"/><path fill="#0074BD" d="M16.9 17.6v.1c6-1.6 3.8-5.6.9-4.6-.3.1-.4.3-.4.3s.1 0 .5-.1c1.4-.3 3.5 2-1 4.3zM19.2 20.5s.7.6-.7 1c-2.7.8-11.3 1.1-13.7 0-.9-.4.7-.9 1.3-1 .5-.1.8-.1.8-.1-1-.7-6.2 1.3-2.6 1.9 9.5 1.6 17.3-.7 14.9-1.8zM15.9 14.6c.5-.3 1.1-.6 1.1-.6s-1.8.3-3.6.5c-2.2.2-4.6.3-5.8.1-2.9-.4 1.5-1.4 1.5-1.4s-1.7-.1-3.7.8c-2.5 1.2 6.1 1.8 10.5.6z"/><path fill="#EA2D2E" d="M11.8 13.1c-.9-2-3.9-3.7 0-6.8C16.7 2.5 14.2 0 14.2 0c1 4-3.5 5.2-5.2 7.6-1.1 1.7.6 3.5 2.8 5.5z"/><path fill="#0074BD" d="M17.1 23.1c-3.7.7-8.2.6-10.9.2 0 0 .5.4 3.4.6 4.3.3 11-.2 11.1-2.2 0 0-.3.8-3.6 1.4z"/></symbol><symbol viewBox="0 0 24 24" id="Brand-icon-javascript" xmlns="http://www.w3.org/2000/svg"><path d="M1 1v22h22V1H1zm11.6 18.9c-.4.7-1 1.1-1.7 1.3-1.1.2-2.1.1-2.9-.4-.5-.3-.9-.8-1.2-1.5l1.7-1s0 .1.1.2c.3.4.4.6.8.8.3.1 1.1.2 1.4-.4.2-.3.1-1.4.1-2.5v-5.3H13v5.7c0 1.2.1 2.2-.4 3.1zm8.5-.4c-.7 2.4-4.7 2.5-6.3.9-.3-.4-.5-.6-.7-1 .9-.5.9-.5 1.7-1 .4.7.9 1 1.6 1.2 1 .1 2-.2 1.8-1.3-.2-.8-2.1-1.1-3.3-2-1.2-.9-1.5-2.9-.5-4.1.4-.4 1-.7 1.6-.9l.6-.1c1.3-.1 2 .3 2.6.9.1.2.3.3.5.7-.7.4-.7.4-1.6 1-.2-.4-.5-.7-.9-.8-.6-.2-1.3 0-1.4.6-.1.1-.1.3 0 .6.2.5.9.7 1.6 1 2 .8 2.6 1.6 2.8 2.6.2.8 0 1.4-.1 1.7z"/></symbol><symbol viewBox="0 0 24 24" id="Brand-icon-javascript-color" xmlns="http://www.w3.org/2000/svg"><path d="M1 1h22v22H1V1z" fill="#f0db4f"/><path d="M21.2 17.8c-.2-1-.8-1.8-2.8-2.6-.7-.3-1.4-.5-1.6-1-.1-.3-.1-.5 0-.6.1-.6.8-.8 1.4-.6.4.1.7.4.9.8.9-.6.9-.6 1.6-1-.2-.4-.4-.5-.5-.7-.6-.6-1.3-1-2.6-.9l-.6.1c-.6.2-1.2.5-1.6.9-1 1.2-.7 3.2.5 4.1 1.2.9 3.1 1.2 3.3 2 .2 1.1-.8 1.4-1.8 1.3-.7-.2-1.2-.5-1.6-1.2-.8.5-.8.5-1.7 1 .2.4.4.6.7 1 1.6 1.6 5.6 1.5 6.3-.9.1-.3.3-.9.1-1.7zM13 11.1h-2.1v5.3c0 1.1.1 2.2-.1 2.5-.3.6-1.1.5-1.4.4-.4-.2-.5-.4-.8-.8-.1-.1-.1-.2-.1-.2l-1.7 1c.3.7.7 1.2 1.2 1.5.8.5 1.8.6 2.9.4.7-.2 1.3-.6 1.7-1.3.5-.9.4-1.9.4-3.1v-5.7z" fill="#323330"/></symbol><symbol viewBox="0 0 24 24" id="Brand-icon-node" xmlns="http://www.w3.org/2000/svg"><path d="M21.1 5.9l-8-4.7c-.5-.3-1.2-.3-1.7 0L3.3 5.9c-.5.3-.9.8-.9 1.4v9.3c0 .6.4 1.2.9 1.5l2.1 1.2c1 .5 1.3.5 1.8.5 1.5 0 2.3-.9 2.3-2.5V8.1c0-.1.1-.3 0-.3h-1c-.2 0-.5.2-.5.3v9.2c0 .7-.7 1.4-1.9.8L4 16.9c-.1 0-.1-.1-.1-.2V7.3c0-.1.1-.2.2-.2l8.1-4.7h.3l8 4.6c.1 0 .1.1.1.2v9.3c0 .1 0 .2-.1.2l-8 4.7h-.2L10 20.3h-.2c-.6.3-.7.4-1.2.6-.1 0-.3.1.1.4l2.7 1.6c.3.1.6.2.8.2.3 0 .6-.1.8-.2l8-4.7c.5-.3.8-.9.8-1.5V7.3c.1-.6-.2-1.1-.7-1.4zm-6.4 9.3c-2.1 0-2.6-.6-2.8-1.6 0-.1-.1-.3-.2-.3h-1c-.1 0-.2.2-.2.3 0 1.4.7 3 4.3 3 2.6 0 4-1 4-2.7 0-1.7-1.2-2.2-3.7-2.5-2.5-.3-2.8-.5-2.8-1.1 0-.5.2-1.1 2.1-1.1 1.7 0 2.3.4 2.5 1.5 0 .1.1.2.2.2h1c.1 0 .1 0 .2-.1 0 0 .1-.1.1-.2-.2-1.9-1.4-2.8-4-2.8-2.3 0-3.7 1-3.7 2.6 0 1.8 1.4 2.3 3.6 2.5 2.6.3 2.8.6 2.8 1.2 0 .7-.7 1.1-2.4 1.1z"/></symbol><symbol viewBox="0 0 24 24" id="Brand-icon-node-color" xmlns="http://www.w3.org/2000/svg"><path fill="#83CD29" d="M21.1 5.9l-8-4.7c-.5-.3-1.2-.3-1.7 0L3.3 5.9c-.5.3-.9.8-.9 1.4v9.3c0 .6.4 1.2.9 1.5l2.1 1.2c1 .5 1.3.5 1.8.5 1.5 0 2.3-.9 2.3-2.5V8.1c0-.1.1-.3 0-.3h-1c-.2 0-.5.2-.5.3v9.2c0 .7-.7 1.4-1.9.8L4 16.9c-.1 0-.1-.1-.1-.2V7.3c0-.1.1-.2.2-.2l8.1-4.7h.3l8 4.6c.1 0 .1.1.1.2v9.3c0 .1 0 .2-.1.2l-8 4.7h-.2L10 20.3h-.2c-.6.3-.7.4-1.2.6-.1 0-.3.1.1.4l2.7 1.6c.3.1.6.2.8.2.3 0 .6-.1.8-.2l8-4.7c.5-.3.8-.9.8-1.5V7.3c.1-.6-.2-1.1-.7-1.4zm-6.4 9.3c-2.1 0-2.6-.6-2.8-1.6 0-.1-.1-.3-.2-.3h-1c-.1 0-.2.2-.2.3 0 1.4.7 3 4.3 3 2.6 0 4-1 4-2.7 0-1.7-1.2-2.2-3.7-2.5-2.5-.3-2.8-.5-2.8-1.1 0-.5.2-1.1 2.1-1.1 1.7 0 2.3.4 2.5 1.5 0 .1.1.2.2.2h1c.1 0 .1 0 .2-.1 0 0 .1-.1.1-.2-.2-1.9-1.4-2.8-4-2.8-2.3 0-3.7 1-3.7 2.6 0 1.8 1.4 2.3 3.6 2.5 2.6.3 2.8.6 2.8 1.2 0 .7-.7 1.1-2.4 1.1z"/></symbol><symbol viewBox="0 0 24 24" id="Brand-icon-php" xmlns="http://www.w3.org/2000/svg"><path d="M12 6C5.9 6 1 8.5 1 11.6s4.9 5.6 11 5.6 11-2.5 11-5.6S18.1 6 12 6zm-2.9 6.7c-.3.2-.6.3-.9.5-.3.1-.7.1-1.2.1H5.9L5.6 15H4.3l1.2-6.1H8c.8 0 1.3.2 1.7.6s.5 1 .3 1.7c-.1.3-.2.6-.3.8-.2.2-.3.5-.6.7zm3.9.5l.5-2.6c.1-.3 0-.5-.1-.6-.1-.1-.3-.2-.7-.2h-1l-.7 3.4H9.8L11 7.3h1.3L12 8.9h1.2c.7 0 1.2.1 1.5.4.3.3.4.6.2 1.2l-.5 2.7H13zm7.2-2c-.1.3-.2.6-.3.8-.1.2-.3.5-.5.7-.3.2-.6.3-.9.5-.3.1-.7.1-1.2.1h-1.1l-.3 1.7h-1.3l1.2-6.1h2.5c.8 0 1.3.2 1.7.6.3.4.4 1 .2 1.7zm-2.5-1.4h-.9l-.5 2.5h.8c.5 0 .9-.1 1.2-.3.3-.2.4-.5.5-1 .1-.4 0-.8-.1-1-.1-.1-.5-.2-1-.2zm-10.2 0h-.9l-.5 2.5h.8c.5 0 .9-.1 1.2-.3.3-.2.4-.5.5-1 .1-.4 0-.8-.1-1-.2-.1-.5-.2-1-.2z"/></symbol><symbol viewBox="0 0 24 24" id="Brand-icon-php-color" xmlns="http://www.w3.org/2000/svg"><path fill="#6181B6" d="M12 6C5.9 6 1 8.5 1 11.6s4.9 5.6 11 5.6 11-2.5 11-5.6S18.1 6 12 6zm-2.9 6.7c-.3.2-.6.3-.9.5-.3.1-.7.1-1.2.1H5.9L5.6 15H4.3l1.2-6.1H8c.8 0 1.3.2 1.7.6s.5 1 .3 1.7c-.1.3-.2.6-.3.8-.2.2-.3.5-.6.7zm3.9.5l.5-2.6c.1-.3 0-.5-.1-.6-.1-.1-.3-.2-.7-.2h-1l-.7 3.4H9.8L11 7.3h1.3L12 8.9h1.2c.7 0 1.2.1 1.5.4.3.3.4.6.2 1.2l-.5 2.7H13zm7.2-2c-.1.3-.2.6-.3.8-.1.2-.3.5-.5.7-.3.2-.6.3-.9.5-.3.1-.7.1-1.2.1h-1.1l-.3 1.7h-1.3l1.2-6.1h2.5c.8 0 1.3.2 1.7.6.3.4.4 1 .2 1.7zm-2.5-1.4h-.9l-.5 2.5h.8c.5 0 .9-.1 1.2-.3.3-.2.4-.5.5-1 .1-.4 0-.8-.1-1-.1-.1-.5-.2-1-.2zm-10.2 0h-.9l-.5 2.5h.8c.5 0 .9-.1 1.2-.3.3-.2.4-.5.5-1 .1-.4 0-.8-.1-1-.2-.1-.5-.2-1-.2z"/></symbol><symbol viewBox="0 0 24 24" id="Brand-icon-python" xmlns="http://www.w3.org/2000/svg"><path d="M22.4 9.3c-.4-1.5-1.1-2.7-2.6-2.7h-1.9v2.3c0 1.8-1.6 3.2-3.3 3.2H9.2c-1.4 0-2.6 1.3-2.6 2.8v5c0 1.4 1.2 2.3 2.6 2.7 1.7.5 3.2.6 5.2 0 1.3-.4 2.6-1.2 2.6-2.7v-2h-5.2v-.7h7.9c1.5 0 2.1-1 2.6-2.6.6-1.7.6-3.2.1-5.3zm-7.6 10c.5 0 1 .4 1 1s-.4 1-1 1c-.5 0-1-.4-1-1s.5-1 1-1z"/><path d="M14.5 1.2c-.9-.1-1.9-.2-2.8-.2-.9 0-1.7.1-2.5.2-2.2.4-2.5 1.2-2.5 2.7v1.9h5.2v.7H4.6c-1.5 0-2.9.9-3.3 2.7-.5 2-.5 3.2 0 5.3.4 1.6 1.3 2.6 2.8 2.6h1.8v-2.3c0-1.7 1.5-3.2 3.3-3.2h5.3c1.5 0 2.6-1.2 2.6-2.7v-5c0-1.4-1.2-2.5-2.6-2.7zM8.9 4.6c-.5 0-1-.4-1-1s.4-1 1-1 1 .4 1 1-.5 1-1 1z"/></symbol><symbol viewBox="0 0 24 24" id="Brand-icon-python-color" xmlns="http://www.w3.org/2000/svg"><path fill="#FFD845" d="M22.4 9.3c-.4-1.5-1.1-2.7-2.6-2.7h-1.9v2.3c0 1.8-1.6 3.2-3.3 3.2H9.2c-1.4 0-2.6 1.3-2.6 2.8v5c0 1.4 1.2 2.3 2.6 2.7 1.7.5 3.2.6 5.2 0 1.3-.4 2.6-1.2 2.6-2.7v-2h-5.2v-.7h7.9c1.5 0 2.1-1 2.6-2.6.6-1.7.6-3.2.1-5.3zm-7.6 10c.5 0 1 .4 1 1s-.4 1-1 1c-.5 0-1-.4-1-1s.5-1 1-1z"/><path fill="#3979B0" d="M14.5 1.2c-.9-.1-1.9-.2-2.8-.2-.9 0-1.7.1-2.5.2-2.2.4-2.5 1.2-2.5 2.7v1.9h5.2v.7H4.6c-1.5 0-2.9.9-3.3 2.7-.5 2-.5 3.2 0 5.3.4 1.6 1.3 2.6 2.8 2.6h1.8v-2.3c0-1.7 1.5-3.2 3.3-3.2h5.3c1.5 0 2.6-1.2 2.6-2.7v-5c0-1.4-1.2-2.5-2.6-2.7zM8.9 4.6c-.5 0-1-.4-1-1s.4-1 1-1 1 .4 1 1-.5 1-1 1z"/></symbol><symbol viewBox="0 0 24 24" id="Brand-icon-ruby" xmlns="http://www.w3.org/2000/svg"><path d="M7 20.8c4.9.7 9.7 1.4 14.5 2.1-1.7-2.9-3.3-5.7-4.9-8.5 0-.1-9.6 6.4-9.6 6.4zm15.9-16c-.4.7-.9 1.3-1.3 2-1.5 2.3-2.9 4.6-4.4 6.9-.1.1-.2.2-.1.4 1.4 2.4 2.8 4.9 4.2 7.4.2.4.4.8.7 1.1.4-5.9.7-11.9.9-17.8.1 0 0 0 0 0zM3.5 12.4c.1.1.2.1.3.1 1.4-.7 2.7-1.4 4.1-2.1.4-.2.8-.7 1.1-1 1.2-1.2 2.5-2.4 3.7-3.6.1-.1.2-.1.2-.2.4-.9.9-1.8 1.3-2.8-.5-.2-1.1-.4-1.6-.6-.1 0-.2 0-.3.1L8.7 4.4c-.4.3-.8.9-1.4 1.3L4.9 8.1c-.2.2-.4.5-.6.7-.6.8-1.1 1.7-1.7 2.6.3.4.6.7.9 1zm5-1.1c-.7 3-1.4 6-2 9 3.3-2.2 6.5-4.3 9.6-6.5-2.5-.8-5-1.7-7.6-2.5zm13.6-6.5c-2.8.5-5.5 1-8.2 1.4.9 2.4 1.8 4.7 2.8 7 1.8-2.8 3.6-5.5 5.4-8.4zM8.6 10.6c2.5.8 4.9 1.7 7.4 2.5-.9-2.4-1.8-4.6-2.7-7-1.6 1.6-3.1 3-4.7 4.5zm-5 3.6c-.9 2.2-1.7 4.3-2.6 6.5 1.7-.1 3.3-.1 5-.2l-2.4-6.3zM6 19c.7-2.6 1.3-5.2 1.9-7.8-1.4.7-2.6 1.4-4 2.2.7 1.7 1.4 3.7 2.1 5.6zM21.1 4.4c-.8-.2-1.6-.4-2.4-.7-1.1-.3-2.3-.6-3.4-.9-.1 0-.2-.1-.3.1-.4.9-.8 1.7-1.2 2.6v.1c2.4-.4 4.9-.8 7.3-1.2zm-4.6-2L23 4.3c-.4-1.1-.7-2.1-1.1-3.2l-5.4 1.3zM6.6 21.2c-.8-.1-1.6 0-2.4 0-.7 0-1.3 0-2 .1-.1 0-.1 0-.2.1 5.5.5 11 1.1 16.5 1.6v-.1c-1.8-.3-3.5-.5-5.3-.8-2.2-.2-4.4-.6-6.6-.9zm-5.5-2.5l2.1-5.1c.1-.2.1-.3-.1-.4-.3-.3-.6-.6-.9-1-.4 2.3-.9 4.5-1.3 6.7.2-.1.2-.2.2-.2zM15.1 2l3.6-.9c.1 0 .2 0 .2-.1V.9c-1.7.2-3.4.5-5.2.7.5.3.9.5 1.4.4z"/></symbol><symbol viewBox="0 0 24 24" id="Brand-icon-ruby-color" xmlns="http://www.w3.org/2000/svg"><path fill="#D91404" d="M7 20.8c4.9.7 9.7 1.4 14.5 2.1-1.7-2.9-3.3-5.7-4.9-8.5 0-.1-9.6 6.4-9.6 6.4zm15.9-16c-.4.7-.9 1.3-1.3 2-1.5 2.3-2.9 4.6-4.4 6.9-.1.1-.2.2-.1.4 1.4 2.4 2.8 4.9 4.2 7.4.2.4.4.8.7 1.1.4-5.9.7-11.9.9-17.8.1 0 0 0 0 0zM3.5 12.4c.1.1.2.1.3.1 1.4-.7 2.7-1.4 4.1-2.1.4-.2.8-.7 1.1-1 1.2-1.2 2.5-2.4 3.7-3.6.1-.1.2-.1.2-.2.4-.9.9-1.8 1.3-2.8-.5-.2-1.1-.4-1.6-.6-.1 0-.2 0-.3.1L8.7 4.4c-.4.3-.8.9-1.4 1.3L4.9 8.1c-.2.2-.4.5-.6.7-.6.8-1.1 1.7-1.7 2.6.3.4.6.7.9 1zm5-1.1c-.7 3-1.4 6-2 9 3.3-2.2 6.5-4.3 9.6-6.5-2.5-.8-5-1.7-7.6-2.5zm13.6-6.5c-2.8.5-5.5 1-8.2 1.4.9 2.4 1.8 4.7 2.8 7 1.8-2.8 3.6-5.5 5.4-8.4zM8.6 10.6c2.5.8 4.9 1.7 7.4 2.5-.9-2.4-1.8-4.6-2.7-7-1.6 1.6-3.1 3-4.7 4.5zm-5 3.6c-.9 2.2-1.7 4.3-2.6 6.5 1.7-.1 3.3-.1 5-.2l-2.4-6.3zM6 19c.7-2.6 1.3-5.2 1.9-7.8-1.4.7-2.6 1.4-4 2.2.7 1.7 1.4 3.7 2.1 5.6zM21.1 4.4c-.8-.2-1.6-.4-2.4-.7-1.1-.3-2.3-.6-3.4-.9-.1 0-.2-.1-.3.1-.4.9-.8 1.7-1.2 2.6v.1c2.4-.4 4.9-.8 7.3-1.2zm-4.6-2L23 4.3c-.4-1.1-.7-2.1-1.1-3.2l-5.4 1.3zM6.6 21.2c-.8-.1-1.6 0-2.4 0-.7 0-1.3 0-2 .1-.1 0-.1 0-.2.1 5.5.5 11 1.1 16.5 1.6v-.1c-1.8-.3-3.5-.5-5.3-.8-2.2-.2-4.4-.6-6.6-.9zm-5.5-2.5l2.1-5.1c.1-.2.1-.3-.1-.4-.3-.3-.6-.6-.9-1-.4 2.3-.9 4.5-1.3 6.7.2-.1.2-.2.2-.2zM15.1 2l3.6-.9c.1 0 .2 0 .2-.1V.9c-1.7.2-3.4.5-5.2.7.5.3.9.5 1.4.4z"/></symbol><symbol viewBox="0 0 24 24" id="Brand-icon-slack" xmlns="http://www.w3.org/2000/svg"><path d="M2.9 12.6c-.8 0-1.5-.5-1.8-1.3v-.1c-.3-1 .3-2 1.2-2.3l15.6-5.3c.2-.1.4-.1.6-.1.8 0 1.6.5 1.8 1.3v.1c.3 1-.4 1.9-1.3 2.2L3.5 12.5c-.2.1-.4.1-.6.1zM5.5 20.3c-.8 0-1.5-.5-1.8-1.2V19c-.3-1 .3-2 1.2-2.4l15.6-5.3c.2-.1.4-.1.6-.1.8 0 1.5.5 1.8 1.3v.1c.1.5.1 1.1-.2 1.6-.2.4-.9.7-.9.7L6.1 20.2c-.2.1-.4.1-.6.1z"/><path d="M18.4 20.4c-.8 0-1.6-.5-1.8-1.3L11.4 3.5v-.1c-.3-1 .4-2.1 1.4-2.3 1-.2 1.9.3 2.3 1.2l5.2 15.6v.1c.3 1-.3 2.1-1.3 2.4-.2-.1-.4 0-.6 0zM10.7 23c-.8 0-1.6-.5-1.8-1.3L3.7 6.1V6c-.3-1 .2-2 1.2-2.3.2-.1.4-.1.6-.1.8 0 1.6.5 1.8 1.3l5.2 15.6v.1c.3 1-.3 2.1-1.3 2.4h-.5z"/><path d="M15.9 16.9l3.6-1.2-1.2-3.5-3.6 1.2 1.2 3.5zM8.2 19.5l3.6-1.2-1.2-3.6L7 15.9l1.2 3.6zM13.3 9.1l3.6-1.2-1.2-3.5-3.6 1.2 1.2 3.5zM5.6 11.8l3.6-1.2L8 7 4.4 8.2l1.2 3.6z"/></symbol><symbol viewBox="0 0 24 24" id="Brand-icon-slack-color" xmlns="http://www.w3.org/2000/svg"><path d="M2.9 12.6c-.8 0-1.5-.5-1.8-1.3v-.1c-.3-1 .3-2 1.2-2.3l15.6-5.3c.2-.1.4-.1.6-.1.8 0 1.6.5 1.8 1.3v.1c.3 1-.4 1.9-1.3 2.2L3.5 12.5c-.2.1-.4.1-.6.1z" fill="#80cade"/><path d="M5.5 20.3c-.8 0-1.5-.5-1.8-1.2V19c-.3-1 .3-2 1.2-2.4l15.6-5.3c.2-.1.4-.1.6-.1.8 0 1.5.5 1.8 1.3v.1c.1.5.1 1.1-.2 1.6-.2.4-.9.7-.9.7L6.1 20.2c-.2.1-.4.1-.6.1z" fill="#db015c"/><path d="M18.4 20.4c-.8 0-1.6-.5-1.8-1.3L11.4 3.5v-.1c-.3-1 .4-2.1 1.4-2.3 1-.2 1.9.3 2.3 1.2l5.2 15.6v.1c.3 1-.3 2.1-1.3 2.4-.2-.1-.4 0-.6 0z" fill="#e8a900"/><path d="M10.7 23c-.8 0-1.6-.5-1.8-1.3L3.7 6.1V6c-.3-1 .2-2 1.2-2.3.2-.1.4-.1.6-.1.8 0 1.6.5 1.8 1.3l5.2 15.6v.1c.3 1-.3 2.1-1.3 2.4h-.5z" fill="#41b088"/><path d="M15.9 16.9l3.6-1.2-1.2-3.5-3.6 1.2 1.2 3.5z" fill="#ca161a"/><path d="M8.2 19.5l3.6-1.2-1.2-3.6L7 15.9l1.2 3.6z" fill="#3b1d37"/><path d="M13.3 9.1l3.6-1.2-1.2-3.5-3.6 1.2 1.2 3.5z" fill="#69852c"/><path d="M5.6 11.8l3.6-1.2L8 7 4.4 8.2l1.2 3.6z" fill="#118f79"/></symbol><symbol viewBox="0 0 24 24" id="Brand-icon-twitter" xmlns="http://www.w3.org/2000/svg"><path d="M7.9 21c8.3 0 12.8-6.9 12.8-12.9v-.6c.9-.7 1.7-1.5 2.3-2.4-.8.4-1.7.6-2.6.7.9-.6 1.6-1.5 2-2.5-.9.5-1.9.9-2.9 1.1-1.7-1.8-4.6-1.9-6.4-.2C12 5.3 11.5 7 11.8 8.6c-3.6-.2-7-1.9-9.3-4.7-1.2 2-.6 4.7 1.4 6-.7 0-1.4-.2-2-.6v.1c0 2.2 1.5 4 3.6 4.5-.7.2-1.4.2-2 .1.6 1.9 2.3 3.1 4.2 3.2C6.1 18.3 4.1 19 2.1 19H1c2.1 1.3 4.5 2 6.9 2"/></symbol><symbol viewBox="0 0 24 24" id="Brand-icon-twitter-color" xmlns="http://www.w3.org/2000/svg"><path d="M7.9 21c8.3 0 12.8-6.9 12.8-12.9v-.6c.9-.7 1.7-1.5 2.3-2.4-.8.4-1.7.6-2.6.7.9-.6 1.6-1.5 2-2.5-.9.5-1.9.9-2.9 1.1-1.7-1.8-4.6-1.9-6.4-.2C12 5.3 11.5 7 11.8 8.6c-3.6-.2-7-1.9-9.3-4.7-1.2 2-.6 4.7 1.4 6-.7 0-1.4-.2-2-.6v.1c0 2.2 1.5 4 3.6 4.5-.7.2-1.4.2-2 .1.6 1.9 2.3 3.1 4.2 3.2C6.1 18.3 4.1 19 2.1 19H1c2.1 1.3 4.5 2 6.9 2" fill="#1da1f2"/></symbol></svg>