<?xml version="1.0" encoding="utf-8"?>
<!-- Generator: Adobe Illustrator 22.0.1, SVG Export Plug-In . SVG Version: 6.00 Build 0)  -->
<svg version="1.1" id="Layer_1" xmlns="http://www.w3.org/2000/svg" xmlns:xlink="http://www.w3.org/1999/xlink" x="0px" y="0px"
	 viewBox="0 0 426 68.7" style="enable-background:new 0 0 426 68.7;" xml:space="preserve">
<style type="text/css">
	.st0{fill:#FFFFFF;}
	.st1{fill:#FF8300;}
</style>
<path class="st0" d="M0,19.7h7.5v6h0.2c1.9-4.1,6.9-7,12.9-7c7.6,0,14.2,4.6,14.2,15V59h-7.5V35.8c0-7.4-4.2-10.1-8.9-10.1
	c-6.2,0-10.9,4-10.9,13.1V59H0V19.7z"/>
<path class="st0" d="M46.3,42.1c0,6.9,6.4,11.4,13.3,11.4c4.6,0,7.9-2.3,10.8-5.9l5.6,4.3c-4.1,5.4-9.9,8-17.4,8
	C46.1,60,38.3,51,38.3,39.4c0-11.8,8.5-20.6,20.3-20.6c13.8,0,19.1,10.6,19.1,20.7v2.7H46.3z M69.8,36.1
	c-0.2-6.5-3.8-11.4-11.3-11.4c-7.4,0-12.2,6.2-12.2,11.4H69.8z"/>
<path class="st0" d="M92,38L78.1,19.7h9.6l9.5,13.9l9.4-13.9h9L102.2,38l15.9,21h-9.6L96.9,42.5L85.3,59h-9.2L92,38z"/>
<path class="st0" d="M120.1,19.7h7v6.1h0.2c0.7-2.3,5.5-7.1,12.6-7.1c5.8,0,9.8,2.5,12.3,7.3c2.6-4.8,7.7-7.3,12.4-7.3
	c12.1,0,14.9,8.6,14.9,17.4V59H172V37.1c0-6-1.2-11.4-8.4-11.4c-7.2,0-10,4.9-10,11.8V59H146V38.5c0-7.5-1.1-12.8-8.3-12.8
	c-5.4,0-10.2,4.1-10.2,12.9V59h-7.5V19.7z"/>
<circle class="st0" cx="205.5" cy="38.9" r="4.8"/>
<path class="st0" d="M205.4,25.7c6.7,0,12.3,4.8,13.5,11.2h-2.6l6.4,6.3l6.4-6.3h-3.2c-1.2-10.2-9.9-18.1-20.4-18.1
	c-8.5,0-15.9,5.2-19,12.6l6.4,2.5C194.9,29.1,199.7,25.7,205.4,25.7z"/>
<path class="st0" d="M205.4,53.1c-6.6,0-12.1-4.7-13.4-10.9h2.9l-6.4-6.3l-6.4,6.3h2.9c1.4,10,10,17.7,20.4,17.7
	c8.5,0,15.8-5.2,19-12.6l-6.4-2.5C215.8,49.7,211,53.1,205.4,53.1z"/>
<g>
	<g>
		<g>
			<path class="st0" d="M238.7,23.7c0,2.6-2.1,4.8-4.8,4.8c-2.7,0-4.8-2.2-4.8-4.8c0-2.6,2.1-4.8,4.8-4.8
				C236.6,18.9,238.7,21.1,238.7,23.7z M237.7,23.7c0-2.1-1.7-3.9-3.8-3.9c-2.2,0-3.9,1.8-3.9,3.9c0,2.1,1.7,3.9,3.9,3.9
				C236.1,27.6,237.7,25.8,237.7,23.7z M234.6,24.2l1.4,2h-1l-1.3-1.9H233v1.9h-0.8v-5.1h1.8c1.2,0,1.7,0.7,1.7,1.6
				C235.8,23.6,235.3,24.1,234.6,24.2z M233,23.6h0.8c0.8,0,1-0.4,1-0.9c0-0.5-0.4-0.9-1-0.9H233V23.6z"/>
		</g>
	</g>
</g>
<path class="st0" d="M282.6,20.4h-7.5v-1.7H292v1.7h-7.5v13.9h-1.9V20.4z"/>
<path class="st0" d="M293.7,18.7h1.7v6c1.2-1,2.7-2,4.7-2c1.4,0,4.6,0.3,4.6,4.2v7.4H303v-7c0-2.7-1.9-3-3.1-3
	c-1.9,0-3.5,1.2-4.5,2.3v7.8h-1.7V18.7z"/>
<path class="st0" d="M319,32c-1.2,1.2-2.3,2.7-6.1,2.7c-3.8,0-6.3-2.6-6.3-6c0-3.6,2.7-5.9,6.1-5.9c3.6,0,6.7,1.9,6.6,6.3h-11
	c0.2,2.1,1.9,4.1,4.8,4.1c2.9,0,3.9-1.3,4.6-2.2L319,32z M317.5,27.6c-0.3-1.8-1.9-3.3-4.6-3.3c-2.5,0-4,1.3-4.5,3.3H317.5z"/>
<path class="st1" d="M326.6,18.7h3.3l5.8,12.4l6-12.4h3.3l-7.6,15.6h-3.2L326.6,18.7z"/>
<path class="st1" d="M342.7,28.5c0-3.1,1.9-6.1,6.4-6.1c4.6,0,6.4,3,6.4,6.1c0,4.6-3.3,6.1-6.4,6.1C346,34.7,342.7,33.1,342.7,28.5z
	 M352.9,28.5c0-2.7-1.7-3.8-3.7-3.8c-2,0-3.8,1.1-3.8,3.8c0,2.4,1.4,3.9,3.8,3.9C351.6,32.4,352.9,30.9,352.9,28.5z"/>
<path class="st1" d="M356.9,22.8h2.6v1.4c0.8-0.8,2-1.8,4.3-1.8c2.4,0,4.5,1,4.5,4.5v7.4h-2.7v-6.4c0-2.3-0.7-3.2-2.5-3.2
	c-2.1,0-3,0.9-3.6,1.7v7.9h-2.7V22.8z"/>
<path class="st1" d="M382.1,32.4c0,0.8,0,1.5,0.2,1.9h-2.7c-0.1-0.4-0.1-0.8-0.1-1.2c-1.1,0.6-2.8,1.5-5,1.5c-1.5,0-4.5-0.6-4.5-3.5
	c0-3.9,5.8-4.4,9.5-4.6v-0.5c0-0.9-0.8-1.5-3-1.5c-2.4,0-3,0.9-3.1,1.5h-2.8c0.6-3.1,3.7-3.7,5.8-3.7c5.5,0,5.7,2.7,5.7,4.3V32.4z
	 M379.5,28.5c-1.5,0.1-2.9,0.3-4.1,0.6c-1.6,0.4-2.4,0.9-2.4,2c0,1,0.6,1.6,1.9,1.6c2,0,3.6-0.9,4.6-1.5V28.5z"/>
<path class="st1" d="M397.5,24.7c-0.2-0.1-0.7-0.2-1-0.2c-0.3,0-0.7,0.1-0.9,0.2c0.2,0.2,0.5,0.9,0.5,1.9c0,3.1-2.8,4.2-5.8,4.2
	c-1.1,0-1.9-0.2-2.4-0.4c-0.3,0.2-0.7,0.5-0.7,0.9c0,0.4,0.3,0.7,2.6,0.7h3.6c2.6,0.1,4.1,0.8,4.1,2.6c0,2.7-4,3.5-7.5,3.5
	c-3.2,0-6-0.6-6-2.5c0-1.4,1.2-1.6,2.3-1.8v0c-1-0.1-1.7-0.6-1.7-1.8c0-1.2,1.1-2,2-2.2v0c-1.3-0.7-1.9-1.8-1.9-3.3
	c0-3.4,3.1-4.2,5.9-4.2c2,0,3.2,0.5,4,1c0.4-0.4,1.3-1.2,2.4-1.2h0.4V24.7z M388.4,34.5c-0.6,0-1.5,0.2-1.5,0.8c0,0.9,1.2,1,3.3,1
	c2.1,0,4.3-0.2,4.3-1.2c0-0.8-0.5-0.8-3.4-0.7H388.4z M393.6,26.6c0-1.7-1.8-2.2-3.2-2.2c-1.5,0-3.1,0.5-3.1,2.3
	c0,1.8,1.7,2.3,3.1,2.3C391.8,28.9,393.6,28.3,393.6,26.6z"/>
<path class="st1" d="M411.2,30.9c-0.2,0.9-1.7,3.8-6,3.8c-4.1,0-6.6-2.6-6.6-6.2c0-3.3,2.1-6.1,6.4-6.1c4.3,0,6.4,2.7,6.4,6.9h-10.1
	c0.1,0.7,0.5,3.1,3.8,3.3c1.7,0,2.8-0.8,3.2-1.7H411.2z M408.6,27.2c-0.4-1.9-1.7-2.7-3.6-2.7c-1.4,0-3,0.5-3.5,2.7H408.6z"/>
<path class="st1" d="M414.7,20.5c1.8,0,3.2,1.4,3.2,3.2s-1.4,3.2-3.2,3.2c-1.8,0-3.2-1.4-3.2-3.2S412.9,20.5,414.7,20.5z
	 M414.7,26.4c1.5,0,2.7-1.2,2.7-2.7c0-1.5-1.2-2.7-2.7-2.7c-1.5,0-2.7,1.2-2.7,2.7C412,25.2,413.2,26.4,414.7,26.4z M414.6,23.9
	h-0.7v1.7h-0.5v-3.8h1.5c0.9,0,1.2,0.4,1.2,1.1c0,0.7-0.4,1-1,1.1l1.1,1.7h-0.6L414.6,23.9z M413.9,23.5h0.8c0.5,0,0.9-0.1,0.9-0.6
	c0-0.5-0.4-0.6-0.9-0.6h-0.8V23.5z"/>
<path class="st0" d="M283,41.4h2.3l8,15.6h-2.1l-2-4h-10l-2,4H275L283,41.4z M288.4,51.2l-4.2-8.4l-4.2,8.4H288.4z"/>
<path class="st0" d="M295.7,41.4h9.1c3.1,0,6,0.9,6,4.5c0,3.6-2.9,4.5-6,4.5h-7.2v6.6h-1.9V41.4z M297.6,48.6h6.7
	c3.1,0,4.7-0.7,4.7-2.8c0-2.1-1.6-2.8-4.7-2.8h-6.7V48.6z"/>
<path class="st0" d="M313.6,41.4h1.9v15.6h-1.9V41.4z"/>
<path class="st0" d="M327.2,41.4h9.1c3.1,0,6,0.9,6,4.5c0,3.6-2.9,4.5-6,4.5h-7.2v6.6h-1.9V41.4z M329.1,48.6h6.7
	c3.1,0,4.7-0.7,4.7-2.8c0-2.1-1.6-2.8-4.7-2.8h-6.7V48.6z"/>
<path class="st0" d="M344.5,41.4h1.7v15.6h-1.7V41.4z"/>
<path class="st0" d="M360.4,55.2c0,0.7,0.1,1.1,0.2,1.7h-1.7c-0.1-0.3-0.2-0.9-0.2-1.3c-1.6,1-3.5,1.7-5.6,1.7
	c-1.8,0-4.6-0.5-4.6-3.4c0-3.9,5.8-4,10.2-4.5v-0.4c0-1.5-1.8-2.1-3.6-2.1c-3,0-4,1.2-4.6,1.9l-1.3-0.9c0.6-0.8,1.9-2.4,5.8-2.4
	c2.5,0,5.5,0.8,5.5,3.6V55.2z M358.7,50.7c-5.1,0.5-8.5,1-8.5,3.1c0,1.8,2,2,2.8,2c2.4,0,4.6-1.2,5.7-1.8V50.7z"/>
<path class="st0" d="M370.9,47.2h-4.5V54c0,1.2,0.5,1.8,2.3,1.8c0.8,0,1.5-0.1,2.5-0.3V57c-1.2,0.2-2.1,0.3-2.8,0.3
	c-3.7,0-3.7-2.2-3.7-3.1v-6.9h-2.4v-1.5h2.4V42h1.7v3.7h4.5V47.2z"/>
<path class="st0" d="M375.8,47.4h-2.8V46h2.8v-0.9c0-1.8,0.6-4.1,4-4.1c1.8,0,2.5,0.2,2.9,0.3v1.5c-0.8-0.2-1.5-0.4-2.4-0.4
	c-2.4,0-2.8,1.1-2.8,2.8V46h4.6v1.5h-4.6v9.5h-1.7V47.4z"/>
<path class="st0" d="M383,51.1c0-3.2,2.5-5.7,6.5-5.7s6.4,2.5,6.4,5.7c0,4-2.6,6.1-6.4,6.1S383,55.1,383,51.1z M394.2,51.3
	c0-2-1.3-4.5-4.7-4.5s-4.7,2.4-4.7,4.5c0,2.7,1.8,4.5,4.7,4.5S394.2,54,394.2,51.3z"/>
<path class="st0" d="M398.2,45.7h1.7v2.3c1-1.1,2.4-2.7,4.7-2.7c0.4,0,0.7,0,1,0.1v1.7c-0.2,0-0.6-0.2-1.4-0.2
	c-2.5,0-4.2,2.8-4.3,3.2v6.7h-1.7V45.7z"/>
<path class="st0" d="M407.6,45.7h1.7v1.6c1.3-1.1,2.6-1.9,4.5-1.9c2.4,0,3.1,1.2,3.6,2c1.8-1.5,2.9-2,4.6-2c1,0,4.1,0.2,4.1,3.4v8.1
	h-1.7v-7.5c0-0.7,0-2.6-2.5-2.6c-1.9,0-3.4,1.3-4.1,2v8.1h-1.7v-7.5c0-0.7,0-2.6-2.4-2.6c-2,0-3.4,1.3-4.2,2v8.1h-1.7V45.7z"/>
<rect x="255.8" class="st0" width="1.2" height="68.7"/>
</svg>
