<?xml version="1.0" encoding="UTF-8"?>
<svg width="579px" height="234px" viewBox="0 0 579 234" version="1.1" xmlns="http://www.w3.org/2000/svg" xmlns:xlink="http://www.w3.org/1999/xlink">
    <!-- Generator: Sketch 41.2 (35397) - http://www.bohemiancoding.com/sketch -->
    <title>workflow_call_api_outbound</title>
    <desc>Created with Sketch.</desc>
    <defs></defs>
    <g id="Page-1" stroke="none" stroke-width="1" fill="none" fill-rule="evenodd">
        <g id="workflow_call_api_outbound">
            <g id="g5" transform="translate(438.900000, 40.500000)">
                <path d="M83.4,36.3 L57.4,36.3 C52.9,36.3 49.2,40 49.2,44.5 L49.2,90.9 C49.2,95.4 52.9,99.1 57.4,99.1 L83.4,99.1 C87.9,99.1 91.6,95.4 91.6,90.9 L91.6,44.5 C91.6,39.9 87.9,36.3 83.4,36.3 Z M70.4,92.2 C68.8,92.2 67.4,90.9 67.4,89.2 C67.4,87.6 68.7,86.2 70.4,86.2 C72.1,86.2 73.4,87.5 73.4,89.2 C73.4,90.8 72,92.2 70.4,92.2 Z M74.4,45.5 L66.5,45.5 C65.8,45.5 65.2,44.9 65.2,44.2 C65.2,43.5 65.8,42.9 66.5,42.9 L74.4,42.9 C75.1,42.9 75.7,43.5 75.7,44.2 C75.7,44.9 75.1,45.5 74.4,45.5 Z" id="path7" fill="#052844"></path>
                <g id="g9">
                    <g id="g11" fill="#DCEAF5">
                        <path d="M121.1,0.2 L19.7,0.2 C9.4,0.2 0.9,8.6 0.9,19 L0.9,120.5 C0.9,130.8 9.3,139.3 19.7,139.3 L47,139.3 L47,136.3 L19.6,136.3 C10.9,136.3 3.8,129.2 3.8,120.5 L3.8,18.9 C3.8,10.2 10.9,3.1 19.6,3.1 L121.1,3.1 C129.8,3.1 136.9,10.2 136.9,18.9 L136.9,120.4 C136.9,129.1 129.8,136.2 121.1,136.2 L94.3,136.2 L94.3,139.2 L121.1,139.2 C131.4,139.2 139.9,130.8 139.9,120.4 L139.9,18.9 C139.9,8.6 131.5,0.2 121.1,0.2 Z" id="path13"></path>
                    </g>
                    <g id="g15" transform="translate(55.000000, 132.000000)" fill="#E4537A">
                        <path d="M0.7,6.2 L0.7,0 L2.8,0 L2.8,6.1 C2.8,7.6 3.6,8.8 5,8.8 C6.3,8.8 7.2,7.8 7.2,6.1 L7.2,0 L9.3,0 L9.3,6.2 C9.3,9 7.7,10.7 5,10.7 C2.5,10.7 0.7,9.1 0.7,6.2 L0.7,6.2 Z" id="path17"></path>
                        <path d="M10.8,9.7 L11.8,8.3 C12.4,8.9 13,9.2 13.8,9.2 C14.4,9.2 14.7,9 14.7,8.6 C14.7,8.3 14.3,8.1 13.4,7.8 C12.2,7.4 11.2,6.8 11.2,5.4 C11.2,4.1 12.3,3.2 13.8,3.2 C14.8,3.2 15.6,3.5 16.5,4.1 L15.6,5.5 C15,5 14.4,4.7 13.8,4.7 C13.5,4.7 13.1,4.9 13.1,5.3 C13.1,5.6 13.5,5.8 14.2,6.1 C15.8,6.7 16.7,7 16.7,8.5 C16.7,9.8 15.8,10.8 13.9,10.8 C12.6,10.7 11.6,10.3 10.8,9.7 L10.8,9.7 Z" id="path19"></path>
                        <path d="M24.8,7.6 L19.7,7.6 C19.9,8.5 20.6,9 21.6,9 C22.4,9 22.9,8.7 23.4,8.2 L24.7,9.4 C24.1,10.2 23,10.8 21.5,10.8 C19.4,10.8 17.7,9.3 17.7,7 C17.7,4.8 19.2,3.2 21.3,3.2 C23.4,3.2 24.9,4.8 24.9,6.9 C24.9,7.1 24.9,7.5 24.8,7.6 L24.8,7.6 Z M19.7,6.2 L22.9,6.2 C22.7,5.4 22.2,4.9 21.3,4.9 C20.6,4.9 19.9,5.3 19.7,6.2 Z" id="path21"></path>
                        <path d="M30.8,3.2 L30.8,5.3 L30.3,5.3 C29.1,5.3 28.4,6.1 28.4,7.2 L28.4,10.6 L26.4,10.6 L26.4,3.3 L28.4,3.3 L28.4,4.4 L28.4,4.4 C29,3.6 29.8,3.2 30.6,3.2 L30.8,3.2 L30.8,3.2 Z" id="path23"></path>
                    </g>
                </g>
            </g>
            <g id="g25" transform="translate(157.900000, 158.500000)" fill="#168CCC">
                <rect id="rect27" x="10.8" y="6.5" width="63.900002" height="3"></rect>
                <g id="g29">
                    <polygon id="polygon31" points="13 15.4 0 8 13 0.5"></polygon>
                </g>
            </g>
            <g id="g33" transform="translate(157.900000, 51.500000)" fill="#168CCC">
                <rect id="rect35" x="10.8" y="6.7" width="46.400002" height="3"></rect>
                <g id="g37" transform="translate(55.000000, 0.000000)">
                    <polygon id="polygon39" points="0 0.8 13 8.2 0 15.7"></polygon>
                </g>
                <g id="g41">
                    <polygon id="polygon43" points="13 0.8 0 8.2 13 15.7"></polygon>
                </g>
            </g>
            <g id="g47" transform="translate(260.900000, 75.500000)">
                <circle id="circle49" fill="#0098C6" cx="39.60001" cy="34.39999" r="8"></circle>
                <g id="g51" fill="#221F1F">
                    <path d="M39.3,12.4 C50.5,12.4 59.8,20.5 61.8,31.1 L57.4,31.1 L68.1,41.6 L78.8,31.1 L73.4,31.1 C71.4,14.1 56.9,0.8 39.3,0.8 C25,0.8 12.8,9.5 7.6,21.9 L18.3,26.1 C21.8,18 29.9,12.4 39.3,12.4 L39.3,12.4 Z" id="path53"></path>
                    <path d="M39.3,58.1 C28.3,58.1 19.1,50.3 16.9,40 L21.7,40 L11,29.5 L0.3,40 L5.2,40 C7.5,56.8 21.9,69.7 39.3,69.7 C53.5,69.7 65.8,61.1 71,48.7 L60.3,44.5 C56.7,52.5 48.6,58.1 39.3,58.1 L39.3,58.1 Z" id="path55"></path>
                </g>
            </g>
            <path d="M351.2,41.2 L249.7,41.2 C239.4,41.2 230.9,49.6 230.9,60 L230.9,161.5 C230.9,171.8 239.3,180.3 249.7,180.3 L263.1,180.3 L263.1,177.3 L249.7,177.3 C241,177.3 233.9,170.2 233.9,161.5 L233.9,60 C233.9,51.3 241,44.2 249.7,44.2 L351.2,44.2 C359.9,44.2 367,51.3 367,60 L367,161.5 C367,170.2 359.9,177.3 351.2,177.3 L338.4,177.3 L338.4,180.3 L351.2,180.3 C361.5,180.3 370,171.9 370,161.5 L370,60 C370,49.7 361.5,41.2 351.2,41.2 Z" id="path59" fill="#DCEAF5"></path>
            <g id="g61" opacity="0.92000002" transform="translate(275.000000, 171.000000)" fill="#E4537A">
                <g id="text4283" transform="translate(0.204070, 0.628570)">
                    <path d="M7.24407,0.97857 L7.24407,8.17857 L7.22907,8.17857 L2.47407,0.97857 L0.37407,0.97857 L0.37407,11.62857 L2.47407,11.62857 L2.47407,4.56357 L2.50407,4.56357 L7.19907,11.62857 L9.35907,11.62857 L9.35907,0.97857 L7.24407,0.97857 Z M18.34407,7.89357 C18.34407,5.74857 16.90407,4.18857 14.75907,4.18857 C12.67407,4.18857 11.12907,5.73357 11.12907,7.95357 C11.12907,10.24857 12.74907,11.74857 14.89407,11.74857 C16.36407,11.74857 17.42907,11.16357 18.05907,10.36857 L16.78407,9.18357 C16.37907,9.67857 15.80907,10.02357 15.02907,10.00857 C14.08407,10.00857 13.39407,9.46857 13.15407,8.59857 L18.29907,8.59857 C18.34407,8.47857 18.34407,8.13357 18.34407,7.89357 Z M14.81907,5.91357 C15.67407,5.91357 16.19907,6.42357 16.39407,7.18857 L13.16907,7.18857 C13.39407,6.34857 14.02407,5.91357 14.81907,5.91357 Z M23.98407,11.62857 L26.12907,11.62857 L23.59407,7.87857 L26.08407,4.30857 L23.86407,4.30857 L22.48407,6.40857 L22.46907,6.40857 L21.10407,4.30857 L18.86907,4.30857 L21.37407,7.89357 L18.83907,11.62857 L20.98407,11.62857 L22.46907,9.52857 L22.49907,9.52857 L23.98407,11.62857 Z M36.35907,4.18857 C35.30907,4.18857 34.40907,4.59357 33.80907,5.35857 L33.77907,5.35857 C33.32907,4.54857 32.56407,4.18857 31.60407,4.18857 C30.77907,4.18857 29.98407,4.56357 29.41407,5.28357 L29.39907,5.28357 L29.39907,4.30857 L27.43407,4.30857 L27.43407,11.62857 L29.39907,11.62857 L29.39907,7.96857 C29.39907,6.64857 30.05907,5.94357 30.94407,5.94357 C31.85907,5.94357 32.23407,6.67857 32.23407,7.84857 L32.23407,11.62857 L34.19907,11.62857 L34.19907,7.96857 C34.19907,6.64857 34.87407,5.94357 35.69907,5.94357 C36.61407,5.94357 36.97407,6.67857 36.97407,7.84857 L36.97407,11.62857 L38.93907,11.62857 L38.93907,7.36857 C38.93907,5.13357 37.94907,4.18857 36.35907,4.18857 Z M44.30907,11.74857 C46.58907,11.74857 48.20907,10.21857 48.20907,7.96857 C48.20907,5.71857 46.58907,4.18857 44.30907,4.18857 C41.98407,4.18857 40.42407,5.77857 40.42407,7.96857 C40.42407,10.15857 41.98407,11.74857 44.30907,11.74857 Z M44.30907,9.99357 C43.19907,9.99357 42.40407,9.10857 42.40407,7.96857 C42.40407,6.81357 43.16907,5.94357 44.30907,5.94357 C45.40407,5.94357 46.21407,6.76857 46.21407,7.96857 C46.21407,9.15357 45.37407,9.99357 44.30907,9.99357 Z" id="Nexmo"></path>
                </g>
            </g>
            <path d="M190,19.6 C181.1,19.6 173.9,26.8 173.9,35.7 C173.9,44.6 181.1,51.8 190,51.8 C198.9,51.8 206.2,44.6 206.2,35.7 C206.2,26.8 198.9,19.6 190,19.6 Z M192.6,42.4 L188.5,42.4 L188.5,32.4 L186.5,33.9 L184.6,30.9 L189.4,27.5 L192.6,27.5 L192.6,42.4 Z" id="path79" fill="#148DCD"></path>
            <path d="M190.1,69 C181.2,69 174,76.2 174,85.1 C174,94 181.2,101.2 190.1,101.2 C199,101.2 206.2,94 206.2,85.1 C206.2,76.2 199,69 190.1,69 Z M195.1,91.8 L185.1,91.8 L185.1,89.2 L189.3,84.7 C190.5,83.5 191,82.7 191,81.7 C191,81 190.5,80.4 189.8,80.4 C189.1,80.4 188.4,80.7 187.8,81.6 L184.9,79.6 C185.8,78.1 187.5,76.8 190.1,76.8 C192.7,76.8 195,78.5 195,81.3 C195,83.1 194.6,84.2 192.6,86.3 L190.7,88.3 L190.7,88.3 L195.2,88.3 L195.1,91.8 L195.1,91.8 L195.1,91.8 Z" id="path81" fill="#148DCD"></path>
            <path d="M403.7,72 C394.8,72 387.6,79.2 387.6,88.1 C387.6,97 394.8,104.2 403.7,104.2 C412.6,104.2 419.8,97 419.8,88.1 C419.8,79.2 412.6,72 403.7,72 Z M403.6,95.1 C400.8,95.1 398.7,93.6 398,91.5 L401.5,90.2 C401.8,91.2 402.3,91.6 403.3,91.6 C404,91.6 404.6,91.2 404.6,90.2 C404.6,89.4 404,88.8 403,88.8 L402.1,88.8 L402.1,85.7 L403.2,85.7 C404,85.7 404.5,85.2 404.5,84.5 C404.5,83.7 404,83.2 403.2,83.2 C402.5,83.2 402.1,83.5 401.8,84.3 L398.6,82.6 C399.2,80.9 401.1,79.7 403.3,79.7 C406.1,79.7 408.3,81.2 408.3,83.7 C408.3,85.1 407.6,86.3 406.5,87.1 L406.5,87.1 C407.9,87.8 408.8,89 408.8,90.7 C408.8,93.4 406.6,95.1 403.6,95.1 L403.6,95.1 Z" id="path83" fill="#148DCD"></path>
            <g id="g85" transform="translate(173.900000, 124.500000)" fill="#148DCD">
                <polygon id="polygon87" points="16.5 18.5 16.5 14.8 14.3 18.5"></polygon>
                <path d="M16.2,0.8 C7.3,0.8 0.1,8 0.1,16.9 C0.1,25.8 7.3,33 16.2,33 C25.1,33 32.3,25.8 32.3,16.9 C32.3,8 25.1,0.8 16.2,0.8 Z M21.8,21.4 L20,21.4 L20,23.7 L16.1,23.7 L16.1,21.4 L10.3,21.4 L10.3,19.1 L16.9,8.8 L20,8.8 L20,18.2 L21.8,18.2 L21.8,21.4 L21.8,21.4 L21.8,21.4 Z" id="path89"></path>
            </g>
            <g id="g91" transform="translate(51.900000, 153.500000)" fill="#052744">
                <ellipse id="circle93" cx="16.900002" cy="8.10001" rx="2.3" ry="2.3"></ellipse>
                <ellipse id="circle95" cx="23.1" cy="8.10001" rx="2.3" ry="2.3"></ellipse>
                <ellipse id="circle97" cx="10.800003" cy="8.10001" rx="2.3" ry="2.3"></ellipse>
                <path d="M43.8,0 L6.9,0 C3.3,0 0.3,2.9 0.3,6.6 L0.3,43.5 C0.3,47.1 3.2,50.1 6.9,50.1 L43.8,50.1 C47.4,50.1 50.4,47.2 50.4,43.5 L50.4,6.6 C50.4,2.9 47.5,2.84217094e-14 43.8,2.84217094e-14 L43.8,0 Z M21.1,33.3 L21.1,33.3 L15.3,39 L13.6,37.3 L19.3,31.6 L13.6,25.9 L15.3,24.2 L21,29.9 L21,29.9 L22.7,31.6 L21.1,33.3 L21.1,33.3 Z M37.1,32.2 L27.4,32.2 L27.4,31 L37.1,31 L37.1,32.2 Z M46.9,12.7 L3.8,12.7 L3.8,6.5 C3.8,4.8 5.2,3.4 6.9,3.4 L43.8,3.4 C45.5,3.4 46.9,4.8 46.9,6.5 L46.9,12.7 L46.9,12.7 Z" id="path99"></path>
            </g>
            <g id="g101" transform="translate(44.900000, 219.500000)" fill="#E4537A">
                <polygon id="path103" points="9.6 0.2 6 6.2 6 10.9 3.9 10.9 3.9 6.2 0.4 0.2 2.8 0.2 5 4.1 5 4.1 7.1 0.2 9.6 0.2"></polygon>
                <path d="M8.8,7.2 C8.8,5 10.4,3.4 12.7,3.4 C15,3.4 16.6,4.9 16.6,7.2 C16.6,9.5 15,11 12.7,11 C10.3,11 8.8,9.4 8.8,7.2 Z M14.6,7.2 C14.6,6 13.8,5.2 12.7,5.2 C11.6,5.2 10.8,6.1 10.8,7.2 C10.8,8.3 11.6,9.2 12.7,9.2 C13.7,9.3 14.6,8.4 14.6,7.2 Z" id="path105"></path>
                <path d="M24.9,3.6 L24.9,10.9 L22.9,10.9 L22.9,10 L22.9,10 C22.3,10.7 21.6,11 20.7,11 C19.1,11 18,10.2 18,8 L18,3.6 L20,3.6 L20,7.5 C20,8.8 20.4,9.3 21.3,9.3 C22.2,9.3 22.9,8.6 22.9,7.2 L22.9,3.6 L24.9,3.6 L24.9,3.6 L24.9,3.6 Z" id="path107"></path>
                <path d="M31.2,3.5 L31.2,5.6 L30.7,5.6 C29.5,5.6 28.8,6.4 28.8,7.5 L28.8,10.9 L26.8,10.9 L26.8,3.6 L28.8,3.6 L28.8,4.7 L28.8,4.7 C29.4,3.9 30.2,3.5 31,3.5 L31.2,3.5 Z" id="path109"></path>
                <path d="M42.7,8.8 L38.6,8.8 L37.9,10.9 L35.7,10.9 L39.6,0.3 L41.6,0.3 L45.6,10.9 L43.4,10.9 L42.7,8.8 Z M42.1,7 L40.7,2.8 L40.7,2.8 L39.3,7 L42.1,7 L42.1,7 Z" id="path111"></path>
                <path d="M54.5,7.2 C54.5,9.5 53,11 51,11 C50.1,11 49.4,10.7 48.8,10.1 L48.8,10.1 L48.8,13.9 L46.8,13.9 L46.8,3.6 L48.8,3.6 L48.8,4.4 L48.8,4.4 C49.4,3.8 50.1,3.4 51,3.4 C53,3.5 54.5,5 54.5,7.2 L54.5,7.2 Z M52.5,7.3 C52.5,6 51.7,5.2 50.6,5.2 C49.5,5.2 48.7,6.1 48.7,7.3 C48.7,8.5 49.5,9.3 50.6,9.3 C51.7,9.3 52.5,8.4 52.5,7.3 Z" id="path113"></path>
                <path d="M63.8,7.2 C63.8,9.5 62.3,11 60.3,11 C59.4,11 58.7,10.7 58.1,10.1 L58.1,10.1 L58.1,13.9 L56.1,13.9 L56.1,3.6 L58.1,3.6 L58.1,4.4 L58.1,4.4 C58.7,3.8 59.4,3.4 60.3,3.4 C62.3,3.5 63.8,5 63.8,7.2 L63.8,7.2 Z M61.8,7.3 C61.8,6 61,5.2 59.9,5.2 C58.8,5.2 58,6.1 58,7.3 C58,8.5 58.8,9.3 59.9,9.3 C61,9.3 61.8,8.4 61.8,7.3 Z" id="path115"></path>
            </g>
            <path d="M53.866301,105.9893 C55.490301,105.9893 57.380301,105.1073 57.380301,102.9373 C57.380301,101.0193 56.022301,100.5713 54.300301,99.8993 C53.166301,99.4513 52.620301,99.1853 52.634301,98.5693 C52.634301,97.9393 53.138301,97.5753 53.824301,97.5753 C54.440301,97.5753 55.168301,97.8693 55.994301,98.5553 L57.128301,97.0713 C56.162301,96.2593 55.014301,95.7973 53.782301,95.8113 C51.990301,95.8393 50.590301,97.0573 50.590301,98.6533 C50.590301,100.5293 52.088301,101.2293 53.586301,101.7613 C54.790301,102.1673 55.322301,102.4333 55.322301,103.1613 C55.322301,103.7773 54.846301,104.2113 53.894301,104.2113 C53.110301,104.2113 52.158301,103.8333 51.416301,102.9653 L50.240301,104.4213 C51.276301,105.4993 52.578301,105.9893 53.866301,105.9893 Z M67.152301,95.9373 L64.114301,101.5933 L64.086301,101.5933 L61.034301,95.9373 L59.046301,95.9373 L59.046301,105.8773 L61.006301,105.8773 L61.006301,99.7033 L61.034301,99.7033 L63.456301,103.9873 L64.730301,103.9873 L67.152301,99.7033 L67.180301,99.7033 L67.180301,105.8773 L69.126301,105.8773 L69.126301,95.9373 L67.152301,95.9373 Z M74.306301,105.9893 C75.930301,105.9893 77.820301,105.1073 77.820301,102.9373 C77.820301,101.0193 76.462301,100.5713 74.740301,99.8993 C73.606301,99.4513 73.060301,99.1853 73.074301,98.5693 C73.074301,97.9393 73.578301,97.5753 74.264301,97.5753 C74.880301,97.5753 75.608301,97.8693 76.434301,98.5553 L77.568301,97.0713 C76.602301,96.2593 75.454301,95.7973 74.222301,95.8113 C72.430301,95.8393 71.030301,97.0573 71.030301,98.6533 C71.030301,100.5293 72.528301,101.2293 74.026301,101.7613 C75.230301,102.1673 75.762301,102.4333 75.762301,103.1613 C75.762301,103.7773 75.286301,104.2113 74.334301,104.2113 C73.550301,104.2113 72.598301,103.8333 71.856301,102.9653 L70.680301,104.4213 C71.716301,105.4993 73.018301,105.9893 74.306301,105.9893 Z M89.734301,105.8773 L91.792301,105.8773 L88.082301,95.9373 L86.192301,95.9373 L82.510301,105.8773 L84.568301,105.8773 L85.240301,103.8893 L89.062301,103.8893 L89.734301,105.8773 Z M85.814301,102.2093 L87.130301,98.3033 L87.158301,98.3033 L88.488301,102.2093 L85.814301,102.2093 Z M93.108301,105.8773 L95.054301,105.8773 L95.054301,102.4753 L96.608301,102.4753 C98.792301,102.4753 100.248301,101.4253 100.248301,99.2413 C100.248301,97.3373 99.198301,95.9373 96.790301,95.9373 L93.108301,95.9373 L93.108301,105.8773 Z M95.054301,100.7253 L95.054301,97.6873 L96.440301,97.6873 C97.588301,97.6873 98.204301,98.2893 98.204301,99.1993 C98.204301,100.1233 97.588301,100.7253 96.356301,100.7253 L95.054301,100.7253 Z M101.914301,105.8773 L103.888301,105.8773 L103.888301,95.9373 L101.914301,95.9373 L101.914301,105.8773 Z" id="SMS-API" fill="#E4537A"></path>
            <polygon id="polygon119" fill="#168CCC" points="386.9 112 386.9 106 374 113.5 386.9 120.9 386.9 115.3 422.3 115.3 422.3 121.2 435.3 113.8 422.3 106.3 422.3 112"></polygon>
            <path d="M135.3,0 L18.8,0 C8.5,0 0,8.4 0,18.8 L0,208.9 C0,219.2 8.4,227.7 18.8,227.7 L37.9,227.7 L37.9,224.7 L18.8,224.7 C10.1,224.7 3,217.6 3,208.9 L3,18.8 C3,10.1 10.1,3 18.8,3 L135.3,3 C144,3 151.1,10.1 151.1,18.8 L151.1,208.9 C151.1,217.6 144,224.7 135.3,224.7 L116.4,224.7 L116.4,227.7 L135.3,227.7 C145.6,227.7 154.1,219.3 154.1,208.9 L154.1,18.8 C154.1,8.4 145.7,0 135.3,0 Z" id="path121" fill="#DCEAF5"></path>
            <path d="M77.3,25.2 C61.2,25.2 48.2,38.2 48.2,54.3 C48.2,70.4 61.2,83.4 77.3,83.4 C93.4,83.4 106.4,70.4 106.4,54.3 C106.4,38.2 93.4,25.2 77.3,25.2 L77.3,25.2 Z M92.4,72.1 L87,70.7 C85.9,71.2 84.7,71.4 83.5,71.4 C81,71.4 78.7,70.4 77,68.6 C76.2,67.8 75.6,66.9 75.1,65.9 L65.7,65.9 C63.6,65.9 61.8,64.2 61.8,62 L61.8,40.4 C61.8,38.3 63.5,36.5 65.7,36.5 L77.8,36.5 C79.9,36.5 81.7,38.2 81.7,40.4 L81.7,50.2 L82.8,50.2 L81.2,51.8 L79.6,50.2 L80.7,50.2 L80.7,40.4 C80.7,38.9 79.5,37.7 78,37.7 L65.7,37.7 C64.2,37.7 63,38.9 63,40.4 L63,62.1 C63,63.6 64.2,64.8 65.7,64.8 L74.7,64.8 C74.4,63.9 74.3,63 74.3,62.1 C74.3,57 78.5,52.9 83.6,52.9 L83.6,52.9 C86.1,52.9 88.4,53.9 90.1,55.7 C91.8,57.5 92.8,59.8 92.8,62.3 C92.8,64.2 92.2,66 91.1,67.6 L92.4,72.1 L92.4,72.1 Z M75.1,50.7 L75.1,53.1 L64.9,53.1 L64.9,50.7 L75.1,50.7 Z M64.9,47.8 C64.9,46.7 65.8,45.8 66.9,45.8 C68,45.8 68.9,46.7 68.9,47.8 C68.9,48.9 68,49.8 66.9,49.8 C65.8,49.8 64.9,48.9 64.9,47.8 Z M69.8,49.1 L69.8,46.7 L78.5,46.7 L78.5,49.1 L69.8,49.1 Z" id="path123" fill="#052744"></path>
        </g>
    </g>
</svg>