<?xml version="1.0" encoding="UTF-8" standalone="no"?>
<!-- Generator: Adobe Illustrator 20.1.0, SVG Export Plug-In . SVG Version: 6.00 Build 0)  -->

<svg
   xmlns:dc="http://purl.org/dc/elements/1.1/"
   xmlns:cc="http://creativecommons.org/ns#"
   xmlns:rdf="http://www.w3.org/1999/02/22-rdf-syntax-ns#"
   xmlns:svg="http://www.w3.org/2000/svg"
   xmlns="http://www.w3.org/2000/svg"
   xmlns:sodipodi="http://sodipodi.sourceforge.net/DTD/sodipodi-0.dtd"
   xmlns:inkscape="http://www.inkscape.org/namespaces/inkscape"
   version="1.1"
   id="Layer_1"
   x="0px"
   y="0px"
   width="578.79999"
   height="233.39999"
   viewBox="0 0 578.79997 233.39999"
   xml:space="preserve"
   inkscape:version="0.91 r13725"
   sodipodi:docname="workflow_call_api_outbound.svg"><metadata
     id="metadata129"><rdf:RDF><cc:Work
         rdf:about=""><dc:format>image/svg+xml</dc:format><dc:type
           rdf:resource="http://purl.org/dc/dcmitype/StillImage" /><dc:title></dc:title></cc:Work></rdf:RDF></metadata><defs
     id="defs127" /><sodipodi:namedview
     pagecolor="#ffffff"
     bordercolor="#666666"
     borderopacity="1"
     objecttolerance="10"
     gridtolerance="10"
     guidetolerance="10"
     inkscape:pageopacity="0"
     inkscape:pageshadow="2"
     inkscape:window-width="1440"
     inkscape:window-height="713"
     id="namedview125"
     showgrid="false"
     inkscape:zoom="0.98"
     inkscape:cx="95.883034"
     inkscape:cy="112.8"
     inkscape:window-x="0"
     inkscape:window-y="23"
     inkscape:window-maximized="0"
     inkscape:current-layer="g61"
     fit-margin-top="0"
     fit-margin-left="0"
     fit-margin-right="0"
     fit-margin-bottom="0" /><style
     type="text/css"
     id="style3">
	.st0{fill:#052844;}
	.st1{fill:#DCEAF5;}
	.st2{fill:#E4537A;}
	.st3{fill:#168CCC;}
	.st4{fill:#0098C6;}
	.st5{fill:#221F1F;}
	.st6{fill:#148DCD;}
	.st7{fill:#052744;}
	.st8{font-family:'Averta-Bold';}
	.st9{font-size:15px;}
</style><g
     id="g5"
     transform="translate(-27.1,-52.5)"><path
       class="st0"
       d="m 549.4,129.3 -26,0 c -4.5,0 -8.2,3.7 -8.2,8.2 l 0,46.4 c 0,4.5 3.7,8.2 8.2,8.2 l 26,0 c 4.5,0 8.2,-3.7 8.2,-8.2 l 0,-46.4 c 0,-4.6 -3.7,-8.2 -8.2,-8.2 z m -13,55.9 c -1.6,0 -3,-1.3 -3,-3 0,-1.6 1.3,-3 3,-3 1.7,0 3,1.3 3,3 0,1.6 -1.4,3 -3,3 z m 4,-46.7 -7.9,0 c -0.7,0 -1.3,-0.6 -1.3,-1.3 0,-0.7 0.6,-1.3 1.3,-1.3 l 7.9,0 c 0.7,0 1.3,0.6 1.3,1.3 0,0.7 -0.6,1.3 -1.3,1.3 z"
       id="path7"
       inkscape:connector-curvature="0"
       style="fill:#052844" /><g
       id="g9"><g
         id="g11"><path
           class="st1"
           d="m 587.1,93.2 -101.4,0 c -10.3,0 -18.8,8.4 -18.8,18.8 l 0,101.5 c 0,10.3 8.4,18.8 18.8,18.8 l 27.3,0 0,-3 -27.4,0 c -8.7,0 -15.8,-7.1 -15.8,-15.8 l 0,-101.6 c 0,-8.7 7.1,-15.8 15.8,-15.8 l 101.5,0 c 8.7,0 15.8,7.1 15.8,15.8 l 0,101.5 c 0,8.7 -7.1,15.8 -15.8,15.8 l -26.8,0 0,3 26.8,0 c 10.3,0 18.8,-8.4 18.8,-18.8 l 0,-101.5 c 0,-10.3 -8.4,-18.7 -18.8,-18.7 z"
           id="path13"
           inkscape:connector-curvature="0"
           style="fill:#dceaf5" /></g><g
         id="g15"><path
           class="st2"
           d="m 521.7,231.2 0,-6.2 2.1,0 0,6.1 c 0,1.5 0.8,2.7 2.2,2.7 1.3,0 2.2,-1 2.2,-2.7 l 0,-6.1 2.1,0 0,6.2 c 0,2.8 -1.6,4.5 -4.3,4.5 -2.5,0 -4.3,-1.6 -4.3,-4.5 z"
           id="path17"
           inkscape:connector-curvature="0"
           style="fill:#e4537a" /><path
           class="st2"
           d="m 531.8,234.7 1,-1.4 c 0.6,0.6 1.2,0.9 2,0.9 0.6,0 0.9,-0.2 0.9,-0.6 0,-0.3 -0.4,-0.5 -1.3,-0.8 -1.2,-0.4 -2.2,-1 -2.2,-2.4 0,-1.3 1.1,-2.2 2.6,-2.2 1,0 1.8,0.3 2.7,0.9 l -0.9,1.4 c -0.6,-0.5 -1.2,-0.8 -1.8,-0.8 -0.3,0 -0.7,0.2 -0.7,0.6 0,0.3 0.4,0.5 1.1,0.8 1.6,0.6 2.5,0.9 2.5,2.4 0,1.3 -0.9,2.3 -2.8,2.3 -1.3,-0.1 -2.3,-0.5 -3.1,-1.1 z"
           id="path19"
           inkscape:connector-curvature="0"
           style="fill:#e4537a" /><path
           class="st2"
           d="m 545.8,232.6 -5.1,0 c 0.2,0.9 0.9,1.4 1.9,1.4 0.8,0 1.3,-0.3 1.8,-0.8 l 1.3,1.2 c -0.6,0.8 -1.7,1.4 -3.2,1.4 -2.1,0 -3.8,-1.5 -3.8,-3.8 0,-2.2 1.5,-3.8 3.6,-3.8 2.1,0 3.6,1.6 3.6,3.7 0,0.2 0,0.6 -0.1,0.7 z m -5.1,-1.4 3.2,0 c -0.2,-0.8 -0.7,-1.3 -1.6,-1.3 -0.7,0 -1.4,0.4 -1.6,1.3 z"
           id="path21"
           inkscape:connector-curvature="0"
           style="fill:#e4537a" /><path
           class="st2"
           d="m 551.8,228.2 0,2.1 c -0.2,0 -0.4,0 -0.5,0 -1.2,0 -1.9,0.8 -1.9,1.9 l 0,3.4 -2,0 0,-7.3 2,0 0,1.1 0,0 c 0.6,-0.8 1.4,-1.2 2.2,-1.2 0.1,0 0.2,0 0.2,0 z"
           id="path23"
           inkscape:connector-curvature="0"
           style="fill:#e4537a" /></g></g></g><g
     id="g25"
     transform="translate(-27.1,-52.5)"><rect
       x="195.8"
       y="217.5"
       class="st3"
       width="63.900002"
       height="3"
       id="rect27"
       style="fill:#168ccc" /><g
       id="g29"><polygon
         class="st3"
         points="198,226.4 185,219 198,211.5 "
         id="polygon31"
         style="fill:#168ccc" /></g></g><g
     id="g33"
     transform="translate(-27.1,-52.5)"><rect
       x="195.8"
       y="110.7"
       class="st3"
       width="46.400002"
       height="3"
       id="rect35"
       style="fill:#168ccc" /><g
       id="g37"><polygon
         class="st3"
         points="240,104.8 253,112.2 240,119.7 "
         id="polygon39"
         style="fill:#168ccc" /></g><g
       id="g41"><polygon
         class="st3"
         points="198,104.8 185,112.2 198,119.7 "
         id="polygon43"
         style="fill:#168ccc" /></g></g><g
     id="g47"
     transform="translate(-27.1,-52.5)"><circle
       style="fill:#0098c6"
       id="circle49"
       r="8"
       cy="162.39999"
       cx="327.60001"
       class="st4" /><g
       id="g51"><path
         style="fill:#221f1f"
         inkscape:connector-curvature="0"
         id="path53"
         d="m 327.3,140.4 c 11.2,0 20.5,8.1 22.5,18.7 l -4.4,0 10.7,10.5 10.7,-10.5 -5.4,0 c -2,-17 -16.5,-30.3 -34.1,-30.3 -14.3,0 -26.5,8.7 -31.7,21.1 l 10.7,4.2 c 3.5,-8.1 11.6,-13.7 21,-13.7 z"
         class="st5" /><path
         style="fill:#221f1f"
         inkscape:connector-curvature="0"
         id="path55"
         d="m 327.3,186.1 c -11,0 -20.2,-7.8 -22.4,-18.1 l 4.8,0 -10.7,-10.5 -10.7,10.5 4.9,0 c 2.3,16.8 16.7,29.7 34.1,29.7 14.2,0 26.5,-8.6 31.7,-21 l -10.7,-4.2 c -3.6,8 -11.7,13.6 -21,13.6 z"
         class="st5" /></g></g><path
     class="st1"
     d="m 351.2,41.2 -101.5,0 c -10.3,0 -18.8,8.4 -18.8,18.8 l 0,101.5 c 0,10.3 8.4,18.8 18.8,18.8 l 13.4,0 0,-3 -13.4,0 c -8.7,0 -15.8,-7.1 -15.8,-15.8 l 0,-101.5 c 0,-8.7 7.1,-15.8 15.8,-15.8 l 101.5,0 c 8.7,0 15.8,7.1 15.8,15.8 l 0,101.5 c 0,8.7 -7.1,15.8 -15.8,15.8 l -12.8,0 0,3 12.8,0 c 10.3,0 18.8,-8.4 18.8,-18.8 L 370,60 c 0,-10.3 -8.5,-18.8 -18.8,-18.8 z"
     id="path59"
     inkscape:connector-curvature="0"
     style="fill:#dceaf5" /><g
     id="g61"
     style="opacity:0.92000002"
     transform="translate(-27.1,-52.5)"><text
       xml:space="preserve"
       style="font-style:normal;font-variant:normal;font-weight:bold;font-stretch:normal;font-size:15px;line-height:125%;font-family:Helvetica;-inkscape-font-specification:'Helvetica, Bold';text-align:start;letter-spacing:0px;word-spacing:0px;writing-mode:lr-tb;text-anchor:start;fill:#e4537a;fill-opacity:1;stroke:none;stroke-width:1px;stroke-linecap:butt;stroke-linejoin:miter;stroke-opacity:1"
       x="302.20407"
       y="235.62857"
       id="text4283"
       sodipodi:linespacing="125%"><tspan
         sodipodi:role="line"
         id="tspan4285"
         x="302.20407"
         y="235.62857">Nexmo</tspan></text>
</g><path
     class="st6"
     d="m 190,19.6 c -8.9,0 -16.1,7.2 -16.1,16.1 0,8.9 7.2,16.1 16.1,16.1 8.9,0 16.2,-7.2 16.2,-16.1 0,-8.9 -7.3,-16.1 -16.2,-16.1 z m 2.6,22.8 -4.1,0 0,-10 -2,1.5 -1.9,-3 4.8,-3.4 3.2,0 0,14.9 z"
     id="path79"
     inkscape:connector-curvature="0"
     style="fill:#148dcd" /><path
     class="st6"
     d="m 190.1,69 c -8.9,0 -16.1,7.2 -16.1,16.1 0,8.9 7.2,16.1 16.1,16.1 8.9,0 16.1,-7.2 16.1,-16.1 C 206.2,76.2 199,69 190.1,69 Z m 5,22.8 -10,0 0,-2.6 4.2,-4.5 c 1.2,-1.2 1.7,-2 1.7,-3 0,-0.7 -0.5,-1.3 -1.2,-1.3 -0.7,0 -1.4,0.3 -2,1.2 l -2.9,-2 c 0.9,-1.5 2.6,-2.8 5.2,-2.8 2.6,0 4.9,1.7 4.9,4.5 0,1.8 -0.4,2.9 -2.4,5 l -1.9,2 0,0 4.5,0 -0.1,3.5 0,0 z"
     id="path81"
     inkscape:connector-curvature="0"
     style="fill:#148dcd" /><path
     class="st6"
     d="m 403.7,72 c -8.9,0 -16.1,7.2 -16.1,16.1 0,8.9 7.2,16.1 16.1,16.1 8.9,0 16.1,-7.2 16.1,-16.1 0,-8.9 -7.2,-16.1 -16.1,-16.1 z m -0.1,23.1 c -2.8,0 -4.9,-1.5 -5.6,-3.6 l 3.5,-1.3 c 0.3,1 0.8,1.4 1.8,1.4 0.7,0 1.3,-0.4 1.3,-1.4 0,-0.8 -0.6,-1.4 -1.6,-1.4 l -0.9,0 0,-3.1 1.1,0 c 0.8,0 1.3,-0.5 1.3,-1.2 0,-0.8 -0.5,-1.3 -1.3,-1.3 -0.7,0 -1.1,0.3 -1.4,1.1 l -3.2,-1.7 c 0.6,-1.7 2.5,-2.9 4.7,-2.9 2.8,0 5,1.5 5,4 0,1.4 -0.7,2.6 -1.8,3.4 l 0,0 c 1.4,0.7 2.3,1.9 2.3,3.6 0,2.7 -2.2,4.4 -5.2,4.4 z"
     id="path83"
     inkscape:connector-curvature="0"
     style="fill:#148dcd" /><g
     id="g85"
     transform="translate(-27.1,-52.5)"><polygon
       class="st6"
       points="217.5,195.5 217.5,191.8 215.3,195.5 "
       id="polygon87"
       style="fill:#148dcd" /><path
       class="st6"
       d="m 217.2,177.8 c -8.9,0 -16.1,7.2 -16.1,16.1 0,8.9 7.2,16.1 16.1,16.1 8.9,0 16.1,-7.2 16.1,-16.1 0,-8.9 -7.2,-16.1 -16.1,-16.1 z m 5.6,20.6 -1.8,0 0,2.3 -3.9,0 0,-2.3 -5.8,0 0,-2.3 6.6,-10.3 3.1,0 0,9.4 1.8,0 0,3.2 0,0 z"
       id="path89"
       inkscape:connector-curvature="0"
       style="fill:#148dcd" /></g><g
     id="g91"
     transform="translate(-27.1,-52.5)"><circle
       class="st7"
       cx="95.900002"
       cy="214.10001"
       r="2.3"
       id="circle93"
       style="fill:#052744" /><circle
       class="st7"
       cx="102.1"
       cy="214.10001"
       r="2.3"
       id="circle95"
       style="fill:#052744" /><circle
       class="st7"
       cx="89.800003"
       cy="214.10001"
       r="2.3"
       id="circle97"
       style="fill:#052744" /><path
       class="st7"
       d="m 122.8,206 -36.9,0 c -3.6,0 -6.6,2.9 -6.6,6.6 l 0,36.9 c 0,3.6 2.9,6.6 6.6,6.6 l 36.9,0 c 3.6,0 6.6,-2.9 6.6,-6.6 l 0,-36.9 c 0,-3.7 -2.9,-6.6 -6.6,-6.6 z m -22.7,33.3 0,0 -5.8,5.7 -1.7,-1.7 5.7,-5.7 -5.7,-5.7 1.7,-1.7 5.7,5.7 0,0 1.7,1.7 -1.6,1.7 z m 16,-1.1 -9.7,0 0,-1.2 9.7,0 0,1.2 z m 9.8,-19.5 -43.1,0 0,-6.2 c 0,-1.7 1.4,-3.1 3.1,-3.1 l 36.9,0 c 1.7,0 3.1,1.4 3.1,3.1 l 0,6.2 z"
       id="path99"
       inkscape:connector-curvature="0"
       style="fill:#052744" /></g><g
     id="g101"
     transform="translate(-27.1,-52.5)"><path
       class="st2"
       d="m 81.6,272.2 -3.6,6 0,4.7 -2.1,0 0,-4.7 -3.5,-6 2.4,0 2.2,3.9 0,0 2.1,-3.9 2.5,0 z"
       id="path103"
       inkscape:connector-curvature="0"
       style="fill:#e4537a" /><path
       class="st2"
       d="m 80.8,279.2 c 0,-2.2 1.6,-3.8 3.9,-3.8 2.3,0 3.9,1.5 3.9,3.8 0,2.3 -1.6,3.8 -3.9,3.8 -2.4,0 -3.9,-1.6 -3.9,-3.8 z m 5.8,0 c 0,-1.2 -0.8,-2 -1.9,-2 -1.1,0 -1.9,0.9 -1.9,2 0,1.1 0.8,2 1.9,2 1,0.1 1.9,-0.8 1.9,-2 z"
       id="path105"
       inkscape:connector-curvature="0"
       style="fill:#e4537a" /><path
       class="st2"
       d="m 96.9,275.6 0,7.3 -2,0 0,-0.9 0,0 c -0.6,0.7 -1.3,1 -2.2,1 -1.6,0 -2.7,-0.8 -2.7,-3 l 0,-4.4 2,0 0,3.9 c 0,1.3 0.4,1.8 1.3,1.8 0.9,0 1.6,-0.7 1.6,-2.1 l 0,-3.6 2,0 0,0 z"
       id="path107"
       inkscape:connector-curvature="0"
       style="fill:#e4537a" /><path
       class="st2"
       d="m 103.2,275.5 0,2.1 c -0.2,0 -0.4,0 -0.5,0 -1.2,0 -1.9,0.8 -1.9,1.9 l 0,3.4 -2,0 0,-7.3 2,0 0,1.1 0,0 c 0.6,-0.8 1.4,-1.2 2.2,-1.2 0.1,0 0.1,0 0.2,0 z"
       id="path109"
       inkscape:connector-curvature="0"
       style="fill:#e4537a" /><path
       class="st2"
       d="m 114.7,280.8 -4.1,0 -0.7,2.1 -2.2,0 3.9,-10.6 2,0 4,10.6 -2.2,0 -0.7,-2.1 z m -0.6,-1.8 -1.4,-4.2 0,0 -1.4,4.2 2.8,0 z"
       id="path111"
       inkscape:connector-curvature="0"
       style="fill:#e4537a" /><path
       class="st2"
       d="m 126.5,279.2 c 0,2.3 -1.5,3.8 -3.5,3.8 -0.9,0 -1.6,-0.3 -2.2,-0.9 l 0,0 0,3.8 -2,0 0,-10.3 2,0 0,0.8 0,0 c 0.6,-0.6 1.3,-1 2.2,-1 2,0.1 3.5,1.6 3.5,3.8 z m -2,0.1 c 0,-1.3 -0.8,-2.1 -1.9,-2.1 -1.1,0 -1.9,0.9 -1.9,2.1 0,1.2 0.8,2 1.9,2 1.1,0 1.9,-0.9 1.9,-2 z"
       id="path113"
       inkscape:connector-curvature="0"
       style="fill:#e4537a" /><path
       class="st2"
       d="m 135.8,279.2 c 0,2.3 -1.5,3.8 -3.5,3.8 -0.9,0 -1.6,-0.3 -2.2,-0.9 l 0,0 0,3.8 -2,0 0,-10.3 2,0 0,0.8 0,0 c 0.6,-0.6 1.3,-1 2.2,-1 2,0.1 3.5,1.6 3.5,3.8 z m -2,0.1 c 0,-1.3 -0.8,-2.1 -1.9,-2.1 -1.1,0 -1.9,0.9 -1.9,2.1 0,1.2 0.8,2 1.9,2 1.1,0 1.9,-0.9 1.9,-2 z"
       id="path115"
       inkscape:connector-curvature="0"
       style="fill:#e4537a" /></g><text
     class="st2 st8 st9"
     id="text117"
     style="font-size:15px;font-family:Averta-Bold;fill:#e4537a"
     x="47.778301"
     y="105.8773">SMS API</text>
<polygon
     class="st3"
     points="414,164.5 414,158.5 401.1,166 414,173.4 414,167.8 449.4,167.8 449.4,173.7 462.4,166.3 449.4,158.8 449.4,164.5 "
     id="polygon119"
     style="fill:#168ccc"
     transform="translate(-27.1,-52.5)" /><path
     class="st1"
     d="M 135.3,0 18.8,0 C 8.5,0 0,8.4 0,18.8 l 0,190.1 c 0,10.3 8.4,18.8 18.8,18.8 l 19.1,0 0,-3 -19.1,0 C 10.1,224.7 3,217.6 3,208.9 L 3,18.8 C 3,10.1 10.1,3 18.8,3 l 116.5,0 c 8.7,0 15.8,7.1 15.8,15.8 l 0,190.1 c 0,8.7 -7.1,15.8 -15.8,15.8 l -18.9,0 0,3 18.9,0 c 10.3,0 18.8,-8.4 18.8,-18.8 l 0,-190.1 C 154.1,8.4 145.7,0 135.3,0 Z"
     id="path121"
     inkscape:connector-curvature="0"
     style="fill:#dceaf5" /><path
     class="st7"
     d="m 77.3,25.2 c -16.1,0 -29.1,13 -29.1,29.1 0,16.1 13,29.1 29.1,29.1 16.1,0 29.1,-13 29.1,-29.1 0,-16.1 -13,-29.1 -29.1,-29.1 z M 92.4,72.1 87,70.7 c -1.1,0.5 -2.3,0.7 -3.5,0.7 -2.5,0 -4.8,-1 -6.5,-2.8 -0.8,-0.8 -1.4,-1.7 -1.9,-2.7 l -9.4,0 c -2.1,0 -3.9,-1.7 -3.9,-3.9 l 0,-21.6 c 0,-2.1 1.7,-3.9 3.9,-3.9 l 12.1,0 c 2.1,0 3.9,1.7 3.9,3.9 l 0,9.8 1.1,0 -1.6,1.6 -1.6,-1.6 1.1,0 0,-9.8 c 0,-1.5 -1.2,-2.7 -2.7,-2.7 l -12.3,0 c -1.5,0 -2.7,1.2 -2.7,2.7 l 0,21.7 c 0,1.5 1.2,2.7 2.7,2.7 l 9,0 c -0.3,-0.9 -0.4,-1.8 -0.4,-2.7 0,-5.1 4.2,-9.2 9.3,-9.2 0,0 0,0 0,0 2.5,0 4.8,1 6.5,2.8 1.7,1.8 2.7,4.1 2.7,6.6 0,1.9 -0.6,3.7 -1.7,5.3 l 1.3,4.5 z m -17.3,-21.4 0,2.4 -10.2,0 0,-2.4 10.2,0 z M 64.9,47.8 c 0,-1.1 0.9,-2 2,-2 1.1,0 2,0.9 2,2 0,1.1 -0.9,2 -2,2 -1.1,0 -2,-0.9 -2,-2 z m 4.9,1.3 0,-2.4 8.7,0 0,2.4 -8.7,0 z"
     id="path123"
     inkscape:connector-curvature="0"
     style="fill:#052744" /></svg>