<svg xmlns="http://www.w3.org/2000/svg" xmlns:xlink="http://www.w3.org/1999/xlink" width="160" height="40" viewBox="0 0 160 40"><defs><path id="a" d="M.16.09h6.296v8.596H.16z"/></defs><g fill="none" fill-rule="evenodd"><path fill="#FFF" fill-rule="nonzero" d="M20.253 29.035L5.88 5.715 0 9.365l18.946 29.92h3.267l17.966-29.92-5.88-3.652zM72.307 0L41.614 18.862v3.252L72.307 40l3.747-5.854L52.13 20.162 76.054 5.854zm17.139 10.128l-2.63-8.241h1.663l1.698 5.675 1.65-5.675h1.65l-2.593 8.241zm13.886-6.888c-1.038 0-1.462.707-1.462 2.638 0 1.095.106 1.86.33 2.272.224.413.601.625 1.132.625.53 0 .896-.2 1.12-.613.224-.412.342-1.177.342-2.284 0-1.92-.424-2.637-1.462-2.637m0-1.531c1.886 0 3.054 1.401 3.054 4.168 0 3.026-1.132 4.427-3.054 4.427s-3.054-1.401-3.054-4.427c0-2.767 1.167-4.168 3.054-4.168m10.49 8.418V1.887h1.474l2.925 5.286V1.887h1.603v8.241h-1.45l-2.96-5.286v5.286zm15.196-2.966h1.78l-.896-2.826-.884 2.826zm-2.653 2.966l2.865-8.241h1.403l2.853 8.241h-1.697l-.484-1.436h-2.818l-.483 1.436h-1.64zm16.504-2.838V5.82h3.419v1.388c0 .907-.283 1.649-.85 2.226-.565.577-1.296.871-2.204.871-1.922 0-3.066-1.401-3.066-4.427 0-2.743 1.18-4.168 3.066-4.168.814 0 1.498.283 2.04.86.554.577.86 1.295.92 2.154l-1.486.2c-.106-1.118-.59-1.683-1.474-1.683-1.037 0-1.474.706-1.474 2.637 0 1.095.118 1.86.342 2.272.224.413.602.625 1.132.625.979 0 1.45-.59 1.462-1.484h-1.827zm11.174 2.838V1.887h5.224v1.53h-3.632V5.03h3.301v1.53h-3.3v2.038h3.63v1.53zM93.266 21.466c-.047.836-.342 1.543-.897 2.12-.542.565-1.226.847-2.063.847-1.922 0-3.065-1.401-3.065-4.427 0-2.743 1.179-4.168 3.065-4.168.837 0 1.52.283 2.063.86.555.565.85 1.271.897 2.107l-1.486.247c-.106-1.118-.59-1.683-1.474-1.683-1.037 0-1.474.706-1.474 2.637 0 1.095.118 1.86.342 2.272.224.413.601.625 1.132.625.884 0 1.368-.566 1.474-1.684l1.486.247zm9.229-.176h1.78l-.896-2.826-.884 2.825zm-2.653 2.966l2.865-8.241h1.403l2.853 8.241h-1.697l-.484-1.436h-2.818l-.483 1.436h-1.64zm13.91 0v-8.241h1.52l1.416 4.226 1.414-4.226h1.522v8.241h-1.592v-5.11l-.837 2.45h-1.014l-.838-2.45v5.11zm15.23-4.591h1.392c.554 0 .978-.483.978-1.06 0-.66-.46-1.06-.978-1.06h-1.392v2.12zm-1.591 4.591v-8.241h2.97c.708 0 1.31.247 1.816.753.508.495.767 1.107.767 1.837s-.248 1.342-.73 1.848c-.485.495-1.11.742-1.852.742h-1.38v3.061h-1.591zm12.742-8.241h1.592v5.369c0 .93.483 1.518 1.462 1.518.978 0 1.462-.6 1.462-1.495v-5.392h1.592v5.322c0 .906-.283 1.648-.85 2.225-.565.577-1.296.87-2.204.87-.908 0-1.64-.293-2.205-.87-.566-.577-.849-1.319-.849-2.225v-5.322z"/><g transform="translate(153.14 15.747)"><mask id="b" fill="#fff"><use xlink:href="#a"/></mask><path fill="#FFF" fill-rule="nonzero" d="M1.634 5.365c.047.365.094.577.247.942.236.46.66.848 1.545.848.814 0 1.439-.365 1.439-1.083 0-.624-.425-.965-1.51-1.248-.849-.224-1.39-.424-1.922-.789-.53-.377-.801-.93-.801-1.672 0-.624.236-1.154.719-1.601C1.834.314 2.506.09 3.355.09c1.427 0 2.57.8 2.913 2.272l-1.474.318c-.153-.565-.625-1.06-1.439-1.06-.695 0-1.131.33-1.131.742 0 .46.495.66 1.58.99.79.246 1.343.482 1.65.694.672.459 1.002 1.13 1.002 2.025 0 .777-.271 1.413-.825 1.896-.554.482-1.285.718-2.205.718-.978 0-1.745-.295-2.205-.683C.491 7.343.243 6.437.16 5.637l1.474-.272z" mask="url(#b)"/></g><path fill="#FFF" fill-rule="nonzero" d="M87.394 38.384V36.83c0-.765.177-1.354.542-1.766.366-.424.979-.777 1.828-1.071.53-.189.801-.283 1.19-.507.39-.235.578-.506.578-.848 0-.706-.4-1.141-1.202-1.141-.85 0-1.32.517-1.415 1.542l-1.474-.26c.036-.811.33-1.482.86-2.012.543-.53 1.215-.801 2.029-.801.79 0 1.45.247 1.98.73.543.482.814 1.13.814 1.942 0 1.26-.86 1.967-2.5 2.52-.613.2-.978.4-1.202.577a.804.804 0 0 0-.236.318c-.094.27-.094.389-.094.8h4.103v1.531h-5.801zm24.083-1.507c.177.106.413.153.696.153.53 0 .896-.2 1.12-.612.224-.412.342-1.178.342-2.284 0-.624-.047-1.13-.142-1.519l-2.016 4.262zm1.415-5.204a1.381 1.381 0 0 0-.719-.176c-1.038 0-1.462.706-1.462 2.637 0 .789.047 1.39.153 1.801l2.028-4.262zm-.719-1.707c1.887 0 3.054 1.401 3.054 4.168 0 3.026-1.132 4.427-3.054 4.427s-3.054-1.401-3.054-4.427c0-2.767 1.168-4.168 3.054-4.168zm19.402 8.418v-1.53h2.3v-4.886l-1.78 1.118V31.32l1.897-1.177h1.474v6.71h2.181v1.531zm25.616-4.662c.272-.2.413-.518.413-.966 0-.435-.141-.753-.436-.953-.295-.2-.578-.306-.85-.306-.376 0-1.32.2-1.32 1.26 0 1.059.967 1.26 1.368 1.26.283 0 .554-.095.825-.295zm-2.17 2.025c.142.942.508 1.283 1.369 1.283.931 0 1.403-.67 1.415-2.013l-.213.141c-.082.059-.271.13-.566.224a2.691 2.691 0 0 1-.86.141c-.696 0-1.333-.235-1.91-.718-.566-.483-.85-1.166-.85-2.049 0-.812.272-1.471.814-2.001.543-.53 1.215-.79 2.005-.79 2.016 0 3.16 1.378 3.16 4.346 0 2.837-1.12 4.25-2.995 4.25-1.592 0-2.56-.742-2.854-2.567l1.486-.247z"/></g></svg>