<svg version="1" xmlns="http://www.w3.org/2000/svg" width="2730.667" height="2730.667" viewBox="0 0 2048.000000 2048.000000"><path d="M982.8 160.6c-.2.1-6.8.5-14.8.8-8 .4-16.5.8-19 1.1-2.5.2-8.1.6-12.5 1-4.4.3-9.6.8-11.5 1-1.9.2-6 .7-9 1-3 .3-7.1.8-9 1-1.9.2-6 .7-9 1-4.8.5-12.4 1.6-21 3-1.4.2-4.3.6-6.5 1-2.3.3-5.2.8-6.5 1-1.4.3-4.5.8-7 1.1-2.5.3-4.7.8-5 .9-.3.2-2.6.6-5 1-2.5.3-5.2.8-6 1-.8.2-3.1.7-5 1-13.1 2.2-55.6 12.4-74 17.7-78 22.4-149.7 53.3-216.8 93.2-8.4 5-16.7 10-18.5 11-14 8.5-61.1 41.2-70.2 48.7-1.1.9-8.1 6.6-15.6 12.5-36.9 29.5-73.5 64-103.4 97.4-3.2 3.6-7.2 8.1-8.9 10-1.8 1.9-7.7 8.9-13.1 15.5-5.5 6.6-10.3 12.2-10.6 12.5-2.5 2-34.5 46-45.3 62.3-11.3 17-33.6 53-33.6 54.2 0 .2-1.4 2.8-3.1 5.7-10.9 18.5-35.8 70.4-34.3 71.7.5.4 2.5 1.3 4.4 2 1.9.7 4.4 1.7 5.5 2.1 1.1.4 5.6 2.1 10 3.8 4.4 1.7 14.5 5.5 22.5 8.5s19 7.2 24.5 9.2c5.5 2 12.7 4.7 16 6 6.7 2.6 95.8 36.2 107.5 40.6 4.1 1.5 10.4 3.9 14 5.2 3.6 1.4 19.3 7.3 35 13.1 15.7 5.9 30.6 11.6 33.2 12.7 2.6 1 5.3 1.9 6.1 1.9.7 0 2.4-2.6 3.7-5.8 1.3-3.1 2.7-6.2 3.1-6.7.4-.6 3.5-6.4 6.8-13 6.8-13.5 9.2-17.8 18.1-32.6 6.9-11.3 25.1-39 27-40.9.3-.3 3-3.9 6.1-8 20.7-27.8 48.5-58.2 74.9-82 4.6-4.1 8.8-8 9.4-8.6 2.9-2.8 32.9-26.6 39.1-30.9 3.9-2.7 7.2-5.3 7.3-5.7.2-.5 1-.8 1.7-.8s1.5-.3 1.7-.8c.5-1.2 38.9-26.2 40.2-26.2.2 0 4.1-2.2 8.7-4.8 20-11.5 55.4-28.3 76.4-36.2 5.5-2.1 10.9-4.1 12-4.6 1.1-.4 2.2-.8 2.5-.8.3-.1 1-.4 1.5-.7 1.8-1.1 38.9-12.8 46-14.5.6-.1 5.7-1.4 11.5-2.9s11.4-2.9 12.5-3.1c1.1-.2 3.1-.6 4.5-.9 2.7-.6 16.1-3.4 19.5-4 7.8-1.5 26-4.5 31-5 3.3-.4 6.8-.9 7.8-1.1 1-.2 4.8-.6 8.5-.9 3.7-.4 7.8-.8 9.2-1 2.6-.4 17-1.3 30.5-2 10.5-.6 46.3-.6 54-.1 3.3.3 11.2.7 17.5 1.1 6.3.3 12.6.8 14 1 1.4.2 5.6.6 9.3 1 3.7.3 7.6.8 8.5 1 .9.1 4.6.6 8.2 1 3.6.4 6.8.9 7.1 1 .3.2 2.8.7 5.5 1 2.7.3 6 .8 7.4 1 1.4.3 3.9.7 5.5 1 1.7.3 3.9.7 5 .9 1.1.3 6.7 1.4 12.5 2.6 11.5 2.3 33.6 7.8 44.5 11.1 3.9 1.1 8.4 2.4 10 2.8 6 1.6 28.4 9.4 41.5 14.6 48.8 19.1 92.4 42.8 135 73.4 5.8 4.1 11.2 8.1 12 8.7 27.5 21.9 37.4 30.7 59 52.3 21.8 21.9 24.6 24.9 37.2 40.3 45.3 55.1 77.3 111.9 100.5 178.3 5.3 15 14.8 48.5 16.7 58.5.2 1.4.9 4.5 1.5 7 .5 2.5 1.2 5.9 1.5 7.7l.6 3.1h-56.6c-31.1.1-56.8.3-57 .5-.2.2 2.6 3.2 6.3 6.7 3.8 3.4 10.4 9.7 14.8 13.9 4.4 4.2 15.4 14.6 24.4 23.1 9 8.5 18.5 17.5 21.1 20 2.6 2.5 10.7 10.1 18 17 7.3 6.9 15.4 14.5 18 17 6.9 6.6 34.7 32.9 39.4 37.3 7.2 6.8 34.8 32.9 43.6 41.4 4.7 4.5 9.6 9.1 11 10.3 1.4 1.2 6.3 5.8 11 10.3 9.7 9.3 38.6 36.7 43.4 41.1 1.7 1.6 7.4 7 12.6 12 5.3 5 10.7 10.1 12.1 11.4l2.5 2.2 5.5-5.1c3-2.8 11.3-10.6 18.4-17.4 7.2-6.7 14.6-13.7 16.5-15.5 3.7-3.4 8.7-8.1 34.9-33 9-8.5 16.7-15.7 17.1-16 .4-.3 7.9-7.3 16.6-15.6 8.8-8.4 17.9-17.1 20.4-19.4 2.5-2.3 10.5-9.9 17.9-16.8 7.4-7 17.3-16.3 21.9-20.7 18.3-17.1 44.9-42.3 49.3-46.5 2-1.9 9.2-8.8 16-15.2 6.8-6.4 14.9-14 18-17 3.1-2.9 10.4-9.8 16.3-15.2 5.8-5.5 10.4-10.1 10.1-10.4-.2-.2-31.4-.4-69.4-.4h-69l-.6-3.6c-.4-2-.8-4.8-1.1-6.2-.2-1.4-.6-4.3-.9-6.5-1.7-11.8-5.9-35.8-8.5-48.5-1.7-8-3.3-15.6-3.6-17-.3-1.4-1.4-6.1-2.5-10.5-1.2-4.4-2.2-8.7-2.4-9.5-.3-1.5-2.5-9.7-6.5-24.5-6.5-24.2-23.2-70.7-35.8-100-13.7-31.9-26.4-57.2-44-87.9-9.1-16-23.4-39-24.4-39.4-.5-.2-.8-.8-.8-1.3 0-1-8.2-13.3-9.2-13.7-.5-.2-.8-.8-.8-1.3 0-2.3-45.9-63.5-51-67.9-.3-.3-1.8-2.1-3.4-4-22.7-27.7-63.8-69.3-96.1-97.1-15-12.9-19.2-16.5-27.5-23-19-15.1-41.9-31.8-61.5-44.7-11-7.3-20.4-13.6-21-14-2.1-1.5-21.9-13.2-36.1-21.4-26.2-14.9-61.3-32.4-86.3-42.9-9.5-4.1-13-5.6-19.3-8.3-7.3-3.2-47.2-17.7-60.3-21.9-24.2-7.9-67.7-19.8-83.9-23.1-1.2-.3-4.3-.9-7.1-1.5-2.7-.6-6.1-1.3-7.5-1.5-1.4-.3-4.5-1-7-1.5-6.5-1.4-20.8-4-25.5-4.6-2.2-.3-5.1-.8-6.5-1.1-4.4-.8-10.2-1.7-27-4-1.9-.3-4.6-.7-6-.9-10.4-1.5-47.7-5-67-6.1-7.4-.5-83.8-1.2-84.2-.8z"/><path d="M1020.7 803.6c-.1.1-5.1.5-11.2.8-6 .3-11.9.8-13 1-1.1.2-4 .7-6.5 1-7.7 1-14 2.3-21 4.3-30.1 8.6-54.3 20.4-76 37.1-16 12.3-35.1 33-46.8 50.6-14.6 21.8-27.1 55.6-29.7 80.1-.3 2.7-.8 6.8-1.1 9-.7 4.9-.7 30.6-.1 35.5.3 1.9.8 5.7 1.2 8.5.3 2.7.7 5.7.9 6.5.1.8.6 3.3 1.1 5.5 5.3 27.3 17.6 54.4 36 79.6 7 9.6 25 28.1 35 36.1 22.1 17.4 45.7 29.8 72.5 37.8 20.4 6.1 37.9 8.5 61.5 8.5 20.6 0 30.3-1.1 48.4-5.1 44.2-9.9 84.3-34.2 114.4-69.4 8.3-9.8 19.7-27.3 25.9-40.1 5.8-11.7 14.3-35.3 15.3-42.4.4-2.2 1-5.6 1.5-7.5 3.5-14.5 4.3-48.9 1.5-63.8-.1-.9-.6-3.7-1-6.2-4.3-27-18.3-59.1-36.2-83.1-18.5-25-41.9-44.7-72.3-61-14.3-7.7-43.3-17.4-58-19.5-.8-.1-4.6-.7-8.3-1.3-6-1-13.4-1.6-29.5-2.4-2.4-.2-4.4-.2-4.5-.1z"/><path d="M274.3 884.8c-4.6 4.2-22.2 20.8-43.3 40.9-4.1 3.9-9.1 8.5-11 10.3-1.9 1.8-9.8 9.2-17.5 16.5-7.7 7.3-16.1 15.2-18.6 17.6-2.6 2.4-10.5 9.9-17.5 16.6-7.1 6.6-14.7 13.8-16.9 15.8-2.2 2.1-7.6 7.2-12 11.4-9.2 8.7-36 34-42 39.6-2.2 2-7.4 6.9-11.5 10.8-4.2 4-14.7 13.9-23.5 22.2-8.7 8.2-17.7 16.7-19.9 18.8-2.3 2.2-9.7 9.1-16.4 15.5-6.8 6.5-15.1 14.3-18.5 17.4-3.4 3.2-5.7 5.9-5.2 5.9.6.1 28.7.3 62.5.4 33.8.1 62 .3 62.5.4.6 0 1.2 1.3 1.3 2.8.1 1.6.7 5.5 1.3 8.8.6 3.3 1.3 7.6 1.5 9.5.8 6.2 8.4 43.2 11.1 53.5 1.4 5.5 2.6 10.4 2.7 11 16 66.2 47.5 144.8 83.1 207 2.8 4.9 5.4 9.7 5.8 10.5.9 1.9 2.1 3.9 14.7 23.9 20.5 32.9 53.3 77.6 73.5 100.5.6.6 4.2 4.7 8 9.1 10.1 11.6 13.1 14.9 21.5 23.8 10.3 11 33.7 34.2 43.3 43 13.1 12 24.4 22 29.7 26.3 1.9 1.6 3.7 3.1 4 3.4.3.3 3.9 3.3 8 6.5 4.1 3.3 7.7 6.2 8 6.5 1.2 1.4 23.5 18.3 35.4 26.9 21.2 15.4 52.4 35.7 73.4 47.7 22.9 13.2 55.4 30.2 71.2 37.3 4.1 1.9 10.7 4.9 14.5 6.7 28 12.9 73 29.7 109.5 40.8 17.7 5.3 49.1 13.8 57 15.3 1.4.2 8.4 1.7 15.5 3.3 7.2 1.6 14.2 3.1 15.8 3.4 1.5.3 5.4 1 8.7 1.6 3.3.6 7.1 1.3 8.5 1.6 1.4.2 3.7.6 5.3.9 3.1.6 19.7 3.2 25.7 4 2.2.3 5.4.8 7 1 1.7.3 5.5.7 8.5 1.1 3 .3 6.6.7 8 .9 1.4.3 5.6.7 9.5 1.1 3.8.3 8 .7 9.3.9 1.2.2 6.4.7 11.5 1 5 .4 10.8.9 12.7 1.1 18.7 1.8 90.7 2.5 115 1.1 15.8-1 25.8-1.7 30.5-2.2 2.2-.2 7.2-.7 11-1 9.1-.8 15.4-1.4 18.5-1.9 1.4-.3 5.2-.7 8.5-1.1 3.3-.3 6.7-.8 7.5-1 .8-.2 4.2-.6 7.4-1 3.2-.3 6.2-.7 6.5-.9.3-.2 3.1-.7 6.1-1 4.7-.5 22.1-3.5 30-5.1 1.4-.3 3.7-.7 5.3-1 1.5-.3 6-1.2 10-2.1 3.9-.8 8.3-1.8 9.7-2 17.9-3.4 59.5-14.7 87-23.7 6.9-2.2 13-4.2 13.5-4.3 3.4-.7 50.5-18.7 60-22.9 1.7-.7 9.3-4.1 17-7.5 45.8-20.2 96.7-48.4 138.5-76.9 12.5-8.5 36.5-25.6 38.6-27.6.7-.5 2.4-1.9 4-3 7-5 34-27.2 46.8-38.5 36.9-32.5 78.5-75.7 103.9-108 18.9-23.9 19.7-25 32.5-42.9 11.4-15.8 45.2-68.6 45.2-70.5 0-.3 2.1-4 4.7-8.3 5-8.4 25.9-49.4 31-60.8 4.2-9.5 4.7-11.4 3.1-11.9-2.8-.9-29.4-10.8-31.3-11.7-1.1-.4-3.8-1.5-6-2.2-5.7-2-60.6-22.6-63-23.7-1.8-.8-50.6-19.2-59.5-22.4-1.9-.7-12.7-4.8-24-9-11.3-4.3-25.2-9.6-31-11.7-5.8-2.2-12.1-4.6-14-5.4-1.9-.8-12.7-4.8-24-9s-21.5-8.1-22.7-8.7c-2.2-1.1-5.3.2-5.3 2.3 0 1-9 19.1-15.5 31.4-9.6 17.9-25.7 43.4-38.8 61.5-5.2 7.2-12.1 16.4-12.7 17-.3.3-2.3 2.7-4.5 5.5-44.5 55.6-101.7 105.1-162.5 140.5-17.9 10.4-17.8 10.4-31.8 17.4-29.5 14.8-52.5 24.5-80.2 33.9-18.5 6.2-39.4 12.4-48 14.2-.8.2-4.2 1-7.5 1.9-3.3.8-7.5 1.8-9.2 2.1-1.8.3-6.1 1.2-9.5 2-8.3 1.9-30.2 5.6-41.8 7-3 .4-6.3.9-7.3 1.1-1 .2-4.8.6-8.5.9-3.7.3-8 .8-9.7 1-11.5 1.5-34.9 2.5-58.5 2.5-20.9 0-41.7-.9-56.5-2.5-2.2-.2-6.7-.7-10-1-3.3-.3-7.1-.8-8.5-1-1.4-.2-4.7-.6-7.5-1-2.7-.3-7.9-1.1-11.5-1.6-3.6-.6-7.8-1.3-9.5-1.6-1.6-.2-8.6-1.6-15.5-2.9-6.9-1.4-13.6-2.7-15-3-5.2-1.1-26.9-6.6-36.9-9.5-24.9-7.2-54.4-18.1-79.1-29-8.7-3.9-42.7-21-48.5-24.4-2.2-1.3-4.7-2.7-5.5-3.1-4.2-2.1-29-17.7-40-25.2-11.2-7.6-36.7-26.6-38-28.2-.3-.3-3.2-2.8-6.5-5.4-11.7-9.4-20.2-17.3-39.1-36.1-22.4-22.3-27.5-27.9-42-46-9.4-11.7-18.6-23.9-23.4-31-1.9-2.8-3.6-5.2-4-5.5-.9-.8-14.1-21.5-21-33-8.2-13.6-26.3-49.3-32.4-64-2.7-6.3-5.4-12.9-6.2-14.5-3-7-12-33.1-17-49.5-4-13.3-9.2-35.5-8.5-36 .5-.3 29.1-.5 63.5-.5H559l-6.2-5.8c-3.5-3.3-9.9-9.3-14.3-13.5-4.4-4.3-15.2-14.5-23.9-22.7-8.7-8.3-18-17-20.6-19.5-5.8-5.6-31-29.4-36.6-34.7-21.1-19.8-33.3-31.4-36.3-34.3-2-1.9-11.5-10.9-21.1-20-9.6-9.1-20.8-19.7-25-23.7-4.1-3.9-9.5-9-12-11.3-2.5-2.3-11-10.4-19-18s-16.1-15.2-18-17c-1.9-1.8-10.2-9.6-18.4-17.4-8.2-7.7-16.8-15.9-19.1-18.1-2.3-2.2-5.3-5-6.6-6.2l-2.4-2.2-5.2 4.7z"/></svg>