<svg width="220" height="28" viewBox="0 0 220 28" fill="none" xmlns="http://www.w3.org/2000/svg">
<g clip-path="url(#clip0)">
<path d="M5.96518 1H-0.000183105L8.50968 20.1045C8.57467 20.2505 8.78479 20.2491 8.84781 20.1025L11.6781 13.5238L5.96518 1Z" fill="white"/>
<path d="M24.1359 1C24.1359 1 14.9928 21.6903 13.7682 23.5983C12.3448 25.8165 11.4015 26.6632 9.65584 26.9345C9.63966 26.9369 9.62769 26.9507 9.62769 26.967C9.62769 26.9852 9.64268 27 9.6611 27H15.1243C17.4909 27 19.1976 25.0473 20.1434 23.3228C21.2183 21.3628 30.2064 1 30.2064 1H24.1359Z" fill="white"/>
<path d="M48.0288 17.5936C48.0161 17.6209 47.9768 17.6209 47.9642 17.5936L43.4287 7.78674H40.8805C40.8805 7.78674 45.5549 18.193 46.0219 18.9705C46.4781 19.7304 47.0303 20.3568 47.9965 20.3568C48.9628 20.3568 49.515 19.7304 49.9712 18.9705C50.4382 18.193 55.1126 7.78674 55.1126 7.78674H52.5644L48.0288 17.5936Z" fill="white"/>
<path d="M61.8609 18.446C59.3963 18.446 57.7822 16.8599 57.7822 13.9999C57.7822 11.1399 59.3963 9.554 61.8609 9.554C64.3168 9.554 65.9394 11.1399 65.9394 13.9999C65.9394 16.8599 64.3168 18.446 61.8609 18.446ZM61.8609 7.5C58.0017 7.5 55.5194 9.97 55.5194 13.9999C55.5194 18.03 58.0017 20.5 61.8609 20.5C65.7114 20.5 68.2024 18.03 68.2024 13.9999C68.2024 9.97 65.7114 7.5 61.8609 7.5Z" fill="white"/>
<path d="M81.2402 7.78601V20.214H78.6282L72.5393 11.1279V20.214H70.3115V7.78601H72.9321L79.0212 16.9327V7.78601H81.2402Z" fill="white"/>
<path d="M87.2111 15.118L89.4052 10.0422C89.4176 10.0137 89.4583 10.0137 89.4705 10.0422L91.6646 15.118H87.2111ZM89.4379 7.64392C88.5203 7.64392 87.9596 8.33175 87.5899 9.01958C87.2111 9.72444 82.6805 20.214 82.6805 20.214H85.0084L86.3092 17.2046H92.5665L93.8673 20.214H96.1951C96.1951 20.214 91.6646 9.72444 91.2859 9.01958C90.9162 8.33175 90.3553 7.64392 89.4379 7.64392Z" fill="white"/>
<path d="M102.493 15.4214H106.478C106.459 17.3524 104.635 18.4461 102.701 18.4461C100.276 18.4461 98.6879 16.8599 98.6879 14C98.6879 10.9121 100.158 9.53593 102.837 9.53593C104.514 9.53593 105.908 10.2135 106.202 11.7752H108.512C108.107 9.04102 105.559 7.5 102.701 7.5C98.9036 7.5 96.4614 9.97 96.4614 14C96.4614 18.03 98.9036 20.4518 102.701 20.4518C104.302 20.4518 105.917 19.6035 106.485 18.7076L106.478 20.214H108.609V16.3795V13.5195H102.493V15.4214Z" fill="white"/>
<path d="M120.067 9.86588V7.78601H111.024V20.214H120.067V18.1339H113.251V14.8667H119.535V12.7866H113.251V9.86588H120.067Z" fill="white"/>
</g>
<path d="M130.203 8.79688V20H133.89C137.084 20 138.947 17.8047 138.947 14.3438C138.947 10.8516 137.045 8.79688 133.906 8.79688H130.203ZM131.314 9.85938H133.686C136.403 9.85938 137.812 11.4688 137.812 14.3594C137.812 17.25 136.395 18.9375 133.686 18.9375H131.314V9.85938Z" fill="white"/>
<path d="M148.546 9.85938V8.79688H141.648V20H148.546V18.9375H142.76V14.7734H148.021V13.7109H142.76V9.85938H148.546Z" fill="white"/>
<path d="M158.567 8.79688L154.997 18.6484L151.411 8.79688H150.229L154.347 20H155.631L159.757 8.79688H158.567Z" fill="white"/>
<path d="M168.885 9.85938V8.79688H161.988V20H168.885V18.9375H163.1V14.7734H168.361V13.7109H163.1V9.85938H168.885Z" fill="white"/>
<path d="M171.586 20H178.248V18.9375H172.698V8.79688H171.586V20Z" fill="white"/>
<path d="M184.566 8.53906C181.537 8.53906 179.697 10.7109 179.697 14.3984C179.697 18.0859 181.537 20.2578 184.566 20.2578C187.596 20.2578 189.444 18.0859 189.444 14.3984C189.444 10.7109 187.596 8.53906 184.566 8.53906ZM184.566 9.60156C186.876 9.60156 188.301 11.3594 188.301 14.3984C188.301 17.4375 186.876 19.1953 184.566 19.1953C182.257 19.1953 180.832 17.4375 180.832 14.3984C180.832 11.3594 182.257 9.60156 184.566 9.60156Z" fill="white"/>
<path d="M192.067 8.79688V20H193.178V15.6641H196.271C198.58 15.6641 200.005 14.1484 200.005 12.0859C200.005 10.125 198.705 8.79688 196.552 8.79688H192.067ZM193.178 9.85938H196.365C197.868 9.85938 198.87 10.6953 198.87 12.1328C198.87 13.6328 197.782 14.6016 196.216 14.6016H193.178V9.85938Z" fill="white"/>
<path d="M209.361 9.85938V8.79688H202.463V20H209.361V18.9375H203.575V14.7734H208.836V13.7109H203.575V9.85938H209.361Z" fill="white"/>
<path d="M212.062 8.79688V20H213.173V15.4531H216.352L218.716 20H219.969L217.526 15.3203C218.982 14.9609 220 13.6406 220 11.9766C220 10.1406 218.763 8.79688 216.814 8.79688H212.062ZM213.173 9.85938H216.626C217.941 9.85938 218.865 10.6953 218.865 12.0312C218.865 13.4141 217.878 14.3984 216.461 14.3984H213.173V9.85938Z" fill="white"/>
<defs>
<clipPath id="clip0">
<rect width="120.252" height="26" fill="white" transform="translate(0 1)"/>
</clipPath>
</defs>
</svg>
